<svg id="Layer_1" data-name="Layer 1" xmlns="http://www.w3.org/2000/svg" xmlns:xlink="http://www.w3.org/1999/xlink" viewBox="0 0 512 512"><defs><style>.cls-1,.cls-4{fill:none;}.cls-2{opacity:0.2;}.cls-3{clip-path:url(#clip-path);}.cls-4{stroke:#000;stroke-linecap:round;stroke-linejoin:round;stroke-width:14.15px;}</style><clipPath id="clip-path"><rect class="cls-1" x="14.57" y="14.57" width="482.86" height="482.86"/></clipPath></defs><g class="cls-2"><g id="g4911"><g id="g4913"><g class="cls-3"><g id="g4915"><g id="g4921"><path id="path4923" class="cls-4" d="M234.57,287.7l18.58-59.11a3.19,3.19,0,0,1,6.09,0l18.41,59.11a3.19,3.19,0,0,1-3,4.14h-37A3.19,3.19,0,0,1,234.57,287.7Zm30.15,48.16H288a6.32,6.32,0,0,1,6,4.44l7.52,24.13a22,22,0,1,0,42-13.08L280.83,149.93q-.29-.93-.66-1.83a25.74,25.74,0,0,0-23.88-16h0a25.72,25.72,0,0,0-23.87,16.05c-.23.57-.44,1.15-.63,1.73l-63.3,201.41a22,22,0,1,0,42,13.2l7.6-24.2a6.33,6.33,0,0,1,6-4.43h15.57"/></g><g id="g4925"><path id="path4927" class="cls-4" d="M47.94,223.75V87.12"/></g><g id="g4929"><path id="path4931" class="cls-4" d="M47.94,427.31V283.16"/></g><g id="g4933"><path id="path4935" class="cls-4" d="M230.64,456.54H74.24"/></g><g id="g4937"><path id="path4939" class="cls-4" d="M433.5,456.54H288.23"/></g><g id="g4941"><path id="path4943" class="cls-4" d="M464.06,286V428.84"/></g><g id="g4945"><path id="path4947" class="cls-4" d="M464.06,87.12V227.38"/></g><g id="g4949"><path id="path4951" class="cls-4" d="M288.23,55.46H432.94"/></g><g id="g4953"><path id="path4955" class="cls-4" d="M157.68,55.46H225"/></g><g id="g4957"><path id="path4959" class="cls-4" d="M77.92,55.46h51.46"/></g><g id="g4961"><path id="path4963" class="cls-4" d="M74.24,55.46a26.3,26.3,0,1,1-26.3-26.3A26.3,26.3,0,0,1,74.24,55.46Z"/></g><g id="g4965"><path id="path4967" class="cls-4" d="M490.36,55.46a26.3,26.3,0,1,1-26.3-26.3A26.3,26.3,0,0,1,490.36,55.46Z"/></g><g id="g4969"><path id="path4971" class="cls-4" d="M74.24,256a26.3,26.3,0,1,1-26.3-26.3A26.31,26.31,0,0,1,74.24,256Z"/></g><g id="g4973"><path id="path4975" class="cls-4" d="M490.36,256a26.3,26.3,0,1,1-26.3-26.3A26.31,26.31,0,0,1,490.36,256Z"/></g><g id="g4977"><path id="path4979" class="cls-4" d="M283.23,55.46a26.3,26.3,0,1,1-26.29-26.3A26.29,26.29,0,0,1,283.23,55.46Z"/></g><g id="g4981"><path id="path4983" class="cls-4" d="M283.23,456.54a26.3,26.3,0,1,1-26.29-26.29A26.29,26.29,0,0,1,283.23,456.54Z"/></g><g id="g4985"><path id="path4987" class="cls-4" d="M74.24,455.13a26.3,26.3,0,1,1-26.3-26.3A26.31,26.31,0,0,1,74.24,455.13Z"/></g><g id="g4989"><path id="path4991" class="cls-4" d="M490.36,455.13a26.3,26.3,0,1,1-26.3-26.3A26.31,26.31,0,0,1,490.36,455.13Z"/></g></g></g></g></g></g></svg>