<svg xmlns="http://www.w3.org/2000/svg" xmlns:xlink="http://www.w3.org/1999/xlink" width="512" height="512" viewBox="0 0 512 512">
  <defs>
    <clipPath id="clip-path">
      <rect id="Rectangle_4228" data-name="Rectangle 4228" width="512" height="512" transform="translate(12303 -3994)" fill="#ece7e7" stroke="#efefef" stroke-width="1"/>
    </clipPath>
  </defs>
  <g id="allcontacts" transform="translate(-12303 3994)" clip-path="url(#clip-path)">
    <path id="crmicons_Recovered_-25" data-name="crmicons [Recovered]-25" d="M377.9,47.11H134.17a17.444,17.444,0,0,0,0,34.88H377.9a17.444,17.444,0,0,0,0-34.88ZM134.17,464.89H377.9a17.444,17.444,0,0,0,0-34.88H134.17a17.444,17.444,0,0,0,0,34.88ZM395.3,116.7H116.78A35.014,35.014,0,0,0,81.9,151.58V360.51a34.859,34.859,0,0,0,34.79,34.79h278.6a34.859,34.859,0,0,0,34.79-34.79V151.58a34.891,34.891,0,0,0-34.79-34.88ZM256.04,164.62a39.14,39.14,0,1,1-39.14,39.14,39.27,39.27,0,0,1,39.14-39.14h0Zm87.07,178.4H168.97v-26.1c0-29.05,57.94-43.49,87.07-43.49s87.07,14.44,87.07,43.49Z" transform="translate(12302.6 -3993.61)" fill="none" stroke="#efefef" stroke-miterlimit="10" stroke-width="24"/>
  </g>
</svg>
