<svg id="Layer_1" data-name="Layer 1" xmlns="http://www.w3.org/2000/svg" viewBox="0 0 50 50"><defs><style>.cls-1{fill:#eab14d;}.cls-2{fill:#e49542;}.cls-3{fill:#df6b57;}.cls-4{fill:#f1cb86;}.cls-5{fill:#ecbe6b;}.cls-6{fill:#365e7d;}</style></defs><path class="cls-1" d="M24.49,19.43H10.9V2.68a.51.51,0,0,1,.51-.51H24a.51.51,0,0,1,.51.51Z"/><path class="cls-2" d="M22.92,2.17V19.43h1.57V2.68A.51.51,0,0,0,24,2.17Z"/><path class="cls-3" d="M18.55,6.08H16.84a.41.41,0,0,1-.41-.41V2.17H19v3.5a.41.41,0,0,1-.41.41Z"/><path class="cls-4" d="M40.09,34.38H19.27V13H39.59a.5.5,0,0,1,.5.5Z"/><path class="cls-5" d="M38.52,13V34.38h1.57V13.54a.5.5,0,0,0-.5-.5Z"/><path class="cls-6" d="M30.54,17H28.82a.42.42,0,0,1-.41-.41V13H31v3.5a.41.41,0,0,1-.41.41Z"/><path class="cls-1" d="M26.83,47.51H2.28V31.24a.51.51,0,0,1,.51-.51h24Z"/><path class="cls-2" d="M25.26,30.73h1.57V47.51H25.26Z"/><path class="cls-6" d="M15.41,34.64H13.69a.41.41,0,0,1-.41-.41v-3.5h2.54v3.5a.41.41,0,0,1-.41.41Z"/><path class="cls-1" d="M47.65,47.51H26.83V34.38H47.15a.5.5,0,0,1,.5.51V47.51Z"/><path class="cls-2" d="M46.08,34.38V47.51h1.57V34.89a.5.5,0,0,0-.5-.51Z"/><path class="cls-3" d="M38.1,38.29H36.38a.41.41,0,0,1-.41-.41v-3.5h2.54v3.5a.41.41,0,0,1-.41.41Z"/><path class="cls-4" d="M19.27,30.73H5.67V19.93a.5.5,0,0,1,.51-.5H19.27Z"/><path class="cls-5" d="M17.69,19.43h1.58v11.3H17.69Z"/><path class="cls-3" d="M13.33,23.34H11.61a.42.42,0,0,1-.41-.41v-3.5h2.54v3.5a.41.41,0,0,1-.41.41Z"/><path d="M47.15,33.7H40.78V23.22a.69.69,0,0,0-1.37,0V33.7H27.51v-3a.69.69,0,0,0-.68-.69H20V13.72h7.78v2.82a1.09,1.09,0,0,0,1.09,1.09h1.72a1.09,1.09,0,0,0,1.09-1.09V13.72h7.78v6.76a.69.69,0,1,0,1.37,0V13.54a1.2,1.2,0,0,0-1.19-1.19H25.18V2.68A1.2,1.2,0,0,0,24,1.48H11.41a1.2,1.2,0,0,0-1.2,1.2V7a.69.69,0,0,0,.69.68A.68.68,0,0,0,11.58,7V2.85h4.16V5.67a1.09,1.09,0,0,0,1.1,1.09h1.71a1.09,1.09,0,0,0,1.1-1.09V2.85h4.16v9.5H19.27a.69.69,0,0,0-.69.69v5.7h-7v-9a.67.67,0,0,0-.68-.68.68.68,0,0,0-.69.68v9h-4A1.19,1.19,0,0,0,5,19.93V30H2.79a1.2,1.2,0,0,0-1.2,1.2V47.51a.68.68,0,0,0,.69.68H9.53a.67.67,0,0,0,.68-.68.68.68,0,0,0-.68-.69H3V31.41H12.6v2.82a1.09,1.09,0,0,0,1.09,1.09h1.72a1.09,1.09,0,0,0,1.1-1.09V31.41h9.63V46.82H12.27a.69.69,0,0,0-.69.69.68.68,0,0,0,.69.68H47.65a.68.68,0,0,0,.69-.68V34.89a1.19,1.19,0,0,0-1.19-1.19ZM18.28,5.39H17.11V2.85h1.17Zm12,8.33v2.54H29.1V13.72ZM11.89,20.11h1.16v2.54H11.89Zm-5.53,0h4.16v2.82A1.09,1.09,0,0,0,11.61,24h1.72a1.09,1.09,0,0,0,1.09-1.09V20.11h4.16V30H6.36ZM15.14,34H14V31.41h1.17Zm22.68,1.12v2.54H36.66V35.07ZM47,46.82H27.51V35.07h7.78v2.81A1.09,1.09,0,0,0,36.38,39H38.1a1.09,1.09,0,0,0,1.09-1.1V35.07H47V46.82Z"/></svg>