<svg id="Layer_1" data-name="Layer 1" xmlns="http://www.w3.org/2000/svg" viewBox="0 0 50 50"><defs><style>.cls-1{fill:#e6e2e6;}.cls-2{fill:#7b7179;}.cls-3{fill:#726a71;}.cls-4{fill:#cac0c9;}.cls-5{fill:#d8d1d7;}.cls-6{fill:#bbb0ba;}.cls-7{fill:#60b8ff;}.cls-8{fill:#22a7ff;}.cls-9{fill:#ffe55a;}.cls-10{fill:#ff4755;}</style></defs><path class="cls-1" d="M16.14,23.37,15,10.74H10.32L9,25.21Z"/><path class="cls-1" d="M28.4,20.22,27.31,8.14H22.62L21.37,22Z"/><path class="cls-1" d="M40.65,17.06l-1-11.52H34.92l-1.2,13.3Z"/><path class="cls-2" d="M47,44.47H3a1.47,1.47,0,0,1,0-2.93H47a1.47,1.47,0,0,1,0,2.93Z"/><path class="cls-2" d="M47,44.47H3a1.47,1.47,0,0,1,0-2.93H47a1.47,1.47,0,0,1,0,2.93Z"/><path class="cls-3" d="M47,43H3a1.44,1.44,0,0,1-1.26-.73,1.43,1.43,0,0,0-.2.73A1.47,1.47,0,0,0,3,44.47H47A1.47,1.47,0,0,0,48.47,43a1.43,1.43,0,0,0-.2-.73A1.44,1.44,0,0,1,47,43Z"/><path class="cls-4" d="M44.93,41.54H4.65V26.33L44.93,16Z"/><path class="cls-5" d="M9,25.21l7.13-1.84L16,21.71,9.17,23.46Z"/><path class="cls-5" d="M33.72,18.84l6.93-1.78L40.5,15.4l-6.62,1.7Z"/><path class="cls-5" d="M21.37,22l7-1.81-.15-1.67-6.72,1.73Z"/><path class="cls-6" d="M4.65,39.84H44.93v1.7H4.65Z"/><path class="cls-7" d="M9.43,30.35h9.33V41.54H9.43Z"/><path class="cls-8" d="M9.43,39.84h9.33v1.7H9.43Z"/><path class="cls-9" d="M27,29.92H24.15V26.38H27Z"/><path class="cls-9" d="M27,37.17H24.15V33.63H27Z"/><path class="cls-9" d="M34.17,29.92H31.34V26.38h2.83Z"/><path class="cls-9" d="M34.17,37.17H31.34V33.63h2.83Z"/><path class="cls-9" d="M41.36,29.92H38.52V26.38h2.84Z"/><path class="cls-9" d="M41.36,37.17H38.52V33.63h2.84Z"/><path class="cls-10" d="M15.31,14.12,15,10.74H10.32L10,14.12Z"/><path class="cls-10" d="M27.61,11.52l-.3-3.38H22.62l-.3,3.38Z"/><path class="cls-10" d="M39.92,8.92l-.31-3.38H34.92l-.3,3.38Z"/><path class="cls-10" d="M39.92,8.92l-.31-3.38H34.92l-.3,3.38Z"/><path d="M47.05,40.86H45.68V30.18a.71.71,0,0,0-1.42,0V40.86H19.46V30.36a.71.71,0,0,0-.71-.71H9.4a.71.71,0,0,0-.71.71v10.5H5.32v-14l38.94-10V27.34a.71.71,0,0,0,1.42,0V15.94a.69.69,0,0,0-.28-.56.7.7,0,0,0-.61-.13l-3.48.9-.66-7.33h0l-.3-3.39a.72.72,0,0,0-.71-.64h-4.7a.71.71,0,0,0-.7.64l-.31,3.39h0l-.85,9.45-4,1-.72-7.89h0L28,8a.71.71,0,0,0-.71-.65H22.62a.71.71,0,0,0-.71.65l-.31,3.38h0l-.9,10-3.94,1L16,14h0l-.31-3.39A.71.71,0,0,0,15,10H10.29a.71.71,0,0,0-.71.64l-.65,7.25a.71.71,0,1,0,1.41.13l.29-3.21h4l.72,8L9.78,24.27l.31-3.41a.72.72,0,0,0-.65-.77.71.71,0,0,0-.77.64l-.35,3.91-3.88,1a.71.71,0,0,0-.54.69V40.86H3a2.18,2.18,0,1,0,0,4.35H23.84a.71.71,0,0,0,0-1.42H3a.75.75,0,0,1,0-1.5h44.1a.75.75,0,0,1,0,1.5H26.69a.71.71,0,1,0,0,1.42H47.05a2.18,2.18,0,1,0,0-4.35ZM10.76,13.39l.18-2h3.39l.18,2ZM39,6.21l.18,2H35.42l.17-2ZM35.29,9.6h4l.63,6.91-5.38,1.38Zm-8.63-.79.18,2H23.09l.18-2ZM23,12.21h4l.67,7.46-5.48,1.41ZM10.12,31.07H18v9.79H10.12Z"/><path d="M27.7,26.38a.71.71,0,0,0-.71-.71H24.15a.71.71,0,0,0-.71.71v3.55a.71.71,0,0,0,.71.71H27a.71.71,0,0,0,.71-.71Zm-1.42,2.84H24.86V27.09h1.42Z"/><path d="M27,32.93H24.15a.71.71,0,0,0-.71.71v3.55a.71.71,0,0,0,.71.71H27a.71.71,0,0,0,.71-.71V33.64A.71.71,0,0,0,27,32.93Zm-.71,3.55H24.86V34.35h1.42Z"/><path d="M34.9,26.38a.71.71,0,0,0-.71-.71H31.35a.71.71,0,0,0-.71.71v3.55a.71.71,0,0,0,.71.71h2.84a.71.71,0,0,0,.71-.71Zm-1.42,2.84H32.06V27.09h1.42Z"/><path d="M34.19,32.93H31.35a.71.71,0,0,0-.71.71v3.55a.71.71,0,0,0,.71.71h2.84a.71.71,0,0,0,.71-.71V33.64A.71.71,0,0,0,34.19,32.93Zm-.71,3.55H32.06V34.35h1.42Z"/><path d="M42.1,26.38a.71.71,0,0,0-.71-.71H38.55a.71.71,0,0,0-.71.71v3.55a.71.71,0,0,0,.71.71h2.84a.71.71,0,0,0,.71-.71Zm-1.42,2.84H39.26V27.09h1.42Z"/><path d="M41.39,32.93H38.55a.71.71,0,0,0-.71.71v3.55a.71.71,0,0,0,.71.71h2.84a.71.71,0,0,0,.71-.71V33.64A.71.71,0,0,0,41.39,32.93Zm-.71,3.55H39.26V34.35h1.42Z"/></svg>