<svg id="calllogempty" xmlns="http://www.w3.org/2000/svg" width="512" height="512" viewBox="0 0 512 512">
  <path id="Path_6477" data-name="Path 6477" d="M22,245C22,109.69,131.69,0,267,0S512,109.69,512,245A244.8,244.8,0,0,1,400.447,450.5C399.42,451.17,314.9,414.968,267,414.968a243.854,243.854,0,0,0-130.35,37.516A244.827,244.827,0,0,1,22,245Z" fill="#0066ed"/>
  <path id="Path_6478" data-name="Path 6478" d="M467,234c0,110.457-89.543,200-200,200S67,344.457,67,234,156.543,34,267,34,467,123.543,467,234Z" fill="#0077f0"/>
  <path id="Path_6479" data-name="Path 6479" d="M139,120.5v30a7.5,7.5,0,0,1-15,0v-30a7.5,7.5,0,0,1,15,0ZM402.5,113a7.5,7.5,0,0,0-7.5,7.5v30a7.5,7.5,0,0,0,15,0v-30a7.5,7.5,0,0,0-7.5-7.5Zm0,61a7.5,7.5,0,0,0-7.5,7.5v30a7.5,7.5,0,0,0,15,0v-30A7.5,7.5,0,0,0,402.5,174Z" fill="#003278"/>
  <path id="Path_6480" data-name="Path 6480" d="M392.947,106V449.085q-2.681,1.61-5.4,3.151c-.7.395-1.4,6.892-2.1,7.28a245.621,245.621,0,0,1-206.792,14.072V106a15,15,0,0,1,15-15H377.947a15,15,0,0,1,15,15Z" fill="#65befc"/>
  <path id="Path_6481" data-name="Path 6481" d="M202.372,91a15,15,0,0,0-15,15V476.769a243.835,243.835,0,0,1-46.319-21.578V106a15,15,0,0,1,15-15Z" fill="#49b6fc"/>
  <path id="Path_6482" data-name="Path 6482" d="M133.553,450.5V357.83a7.5,7.5,0,0,1,15,0V459.517q-7.658-4.239-15-9.015ZM392.947,350.33a7.5,7.5,0,0,0-7.5,7.5V459.517q7.659-4.238,15-9.015V357.83a7.5,7.5,0,0,0-7.5-7.5Z" fill="#003278"/>
  <path id="Path_6483" data-name="Path 6483" d="M400.447,106V388.213a7.5,7.5,0,0,1-15,0V106a7.508,7.508,0,0,0-7.5-7.5H156.053a7.508,7.508,0,0,0-7.5,7.5V388.213a7.5,7.5,0,0,1-15,0V106a22.526,22.526,0,0,1,22.5-22.5h221.9A22.525,22.525,0,0,1,400.447,106Z" fill="#00429c"/>
  <path id="Path_6484" data-name="Path 6484" d="M289.5,120.5A7.5,7.5,0,0,1,282,128H252a7.5,7.5,0,0,1,0-15h30a7.5,7.5,0,0,1,7.5,7.5Z" fill="#003278"/>
  <path id="Path_6485" data-name="Path 6485" d="M252.874,483.752a2.18,2.18,0,0,1,.938,3.633l-13.956,13.956a35.96,35.96,0,0,1-32.739,9.91c-41.606-8.739-98.264-46.3-130.6-78.632C44.28,400.382,9.666,346.781.793,305.222a36.169,36.169,0,0,1,9.831-33.112l13.96-13.96a2.175,2.175,0,0,1,3.627.936A284.58,284.58,0,0,0,73.928,349.96c4.028,12.988,25.325,39.357,35.608,49.64S149.017,434.009,162,438.037a284.627,284.627,0,0,0,90.87,45.715Z" fill="#ff4343"/>
  <path id="Path_6486" data-name="Path 6486" d="M222.219,396.333a18.116,18.116,0,0,1,25.619,0l35.7,35.7a18.116,18.116,0,0,1,0,25.619L253.65,487.548c-48.693-5.9-112.813-44.5-150.185-81.875S30.317,307.009,24.419,258.317l29.892-29.892a18.116,18.116,0,0,1,25.619,0l35.7,35.7a18.116,18.116,0,0,1,0,25.619L96.416,308.966a6.07,6.07,0,0,0-1.7,5.238c2.754,17.441,24.994,48.343,38.434,61.783s47.171,38.508,64.612,41.262a6.066,6.066,0,0,0,5.238-1.7Z" fill="#ff5757"/>
  <path id="Path_6487" data-name="Path 6487" d="M221.5,190v10a10,10,0,0,1-10,10h-30a10,10,0,0,1-10-10V190a10,10,0,0,1,10-10h30A10,10,0,0,1,221.5,190Zm55-10h-30a10,10,0,0,0-10,10v10a10,10,0,0,0,10,10h30a10,10,0,0,0,10-10V190A10,10,0,0,0,276.5,180Zm65,0h-30a10,10,0,0,0-10,10v10a10,10,0,0,0,10,10h30a10,10,0,0,0,10-10V190A10,10,0,0,0,341.5,180Zm-130,50h-30a10,10,0,0,0-10,10v10a10,10,0,0,0,10,10h30a10,10,0,0,0,10-10V240A10,10,0,0,0,211.5,230Zm65,0h-30a10,10,0,0,0-10,10v10a10,10,0,0,0,10,10h30a10,10,0,0,0,10-10V240A10,10,0,0,0,276.5,230Zm65,0h-30a10,10,0,0,0-10,10v10a10,10,0,0,0,10,10h30a10,10,0,0,0,10-10V240A10,10,0,0,0,341.5,230Zm-130,50h-30a10,10,0,0,0-10,10v10a10,10,0,0,0,10,10h30a10,10,0,0,0,10-10V290A10,10,0,0,0,211.5,280Zm65,0h-30a10,10,0,0,0-10,10v10a10,10,0,0,0,10,10h30a10,10,0,0,0,10-10V290A10,10,0,0,0,276.5,280Zm65,0h-30a10,10,0,0,0-10,10v10a10,10,0,0,0,10,10h30a10,10,0,0,0,10-10V290A10,10,0,0,0,341.5,280Zm-65,50h-30a10,10,0,0,0-10,10v10a10,10,0,0,0,10,10h30a10,10,0,0,0,10-10V340A10,10,0,0,0,276.5,330Z" fill="#bde2fd"/>
  <path id="Path_6488" data-name="Path 6488" d="M211.5,330h-30a10,10,0,0,0-10,10v10a10,10,0,0,0,10,10h30a10,10,0,0,0,10-10V340A10,10,0,0,0,211.5,330Zm130,0h-30a10,10,0,0,0-10,10v10a10,10,0,0,0,10,10h30a10,10,0,0,0,10-10V340A10,10,0,0,0,341.5,330Z" fill="#93d0fd"/>
  <path id="Path_6489" data-name="Path 6489" d="M172.728,372.066a7.5,7.5,0,0,1-15,0,20.678,20.678,0,0,0-20.654-20.654,7.5,7.5,0,0,1,0-15A35.7,35.7,0,0,1,172.728,372.066ZM138.759,269.825a7.5,7.5,0,0,0,0,15,85.653,85.653,0,0,1,85.556,85.556,7.5,7.5,0,0,0,15,0A100.671,100.671,0,0,0,138.759,269.825Zm3.053,33.883a7.5,7.5,0,0,0,0,15,48.675,48.675,0,0,1,48.62,48.621,7.5,7.5,0,0,0,15,0A63.693,63.693,0,0,0,141.812,303.708Z" fill="#fff"/>
</svg>
