<svg xmlns="http://www.w3.org/2000/svg" width="720" height="721" viewBox="0 0 720 721">
  <path id="phone_in_talk_FILL0_wght400_GRAD0_opsz48" d="M776-487q-5-121-89-205T482-781v-60q72,2,135.5,30.5A371.013,371.013,0,0,1,729-734a371.013,371.013,0,0,1,76.5,111.5Q834-559,836-487Zm-169,0q-5-50-40-84.5T482-611v-60q75,5,127.5,57T667-487ZM795-120q-116,0-236.5-56T335-335Q232-438,176-558.5T120-795q0-19.286,12.857-32.143T165-840H305a32.732,32.732,0,0,1,24,10,54.392,54.392,0,0,1,14,25l26.929,125.641Q372-665,369.5-653.5a39.04,39.04,0,0,1-10.729,19.726L259-533a836.074,836.074,0,0,0,55,82,650.56,650.56,0,0,0,64,72,727.165,727.165,0,0,0,78,69.5A619.438,619.438,0,0,0,542-254l95-98a51.069,51.069,0,0,1,23.151-15A57.238,57.238,0,0,1,686-369l119,26a47.772,47.772,0,0,1,25,16.044A41.134,41.134,0,0,1,840-300v135q0,19.286-12.857,32.143T795-120ZM229-588l81-82L287-780H180q2,42,13.5,88.5T229-588ZM598-225a499.115,499.115,0,0,0,89,31,469.3,469.3,0,0,0,93,14V-287L677-308ZM229-588ZM598-225Z" transform="translate(-120 841)" fill="#46a758"/>
</svg>
