<svg xmlns="http://www.w3.org/2000/svg" width="19" height="18.999" viewBox="0 0 19 18.999">
  <path id="check_circle_FILL1_wght400_GRAD0_opsz48_4_" data-name="check_circle_FILL1_wght400_GRAD0_opsz48 (4)" d="M88.1-866.178,94.82-872.9l-1.092-1.069L88.1-868.339l-2.85-2.85L84.18-870.12ZM89.5-861a9.191,9.191,0,0,1-3.681-.748,9.634,9.634,0,0,1-3.028-2.042,9.636,9.636,0,0,1-2.042-3.028A9.193,9.193,0,0,1,80-870.5a9.249,9.249,0,0,1,.748-3.7,9.493,9.493,0,0,1,2.042-3.016,9.739,9.739,0,0,1,3.028-2.031A9.193,9.193,0,0,1,89.5-880a9.252,9.252,0,0,1,3.7.748,9.594,9.594,0,0,1,3.016,2.031,9.593,9.593,0,0,1,2.031,3.016A9.249,9.249,0,0,1,99-870.5a9.193,9.193,0,0,1-.748,3.681,9.739,9.739,0,0,1-2.031,3.028,9.492,9.492,0,0,1-3.016,2.042A9.25,9.25,0,0,1,89.5-861Z" transform="translate(-80 880)" fill="#28c840"/>
</svg>
