<svg id="Layer_1" data-name="Layer 1" xmlns="http://www.w3.org/2000/svg" viewBox="0 0 512 512"><defs><style>.cls-1{fill:#fcad42;}.cls-2{fill:#f69500;}.cls-3{fill:#54c9f3;}.cls-4{fill:#00adeb;}.cls-5{fill:#e3edf6;}.cls-6{fill:#c5d9ec;}.cls-7{fill:#57758d;}.cls-8{fill:#4b6276;}.cls-10,.cls-9{fill:none;stroke-miterlimit:10;stroke-width:13.22px;}.cls-9{stroke:#fff;}.cls-10{stroke:#000;}</style></defs><rect class="cls-1" x="44.78" y="39.04" width="345.14" height="345.14"/><polygon class="cls-2" points="65.7 363.25 65.7 39.04 44.78 39.04 44.78 384.18 389.91 384.18 389.91 363.25 65.7 363.25"/><polygon class="cls-3" points="164.63 39.04 164.63 142.69 217.34 122.65 270.37 142.69 270.37 39.04 164.63 39.04"/><polygon class="cls-4" points="217.01 101.26 183.87 113.86 183.87 39.04 164.63 39.04 164.63 142.69 217.34 122.65 270.37 142.69 270.37 121.3 217.01 101.26"/><circle class="cls-5" cx="389.91" cy="384.18" r="92.8"/><path class="cls-6" d="M403.86,463A92.79,92.79,0,0,1,331.64,312,92.79,92.79,0,1,0,462.13,442.44,92.4,92.4,0,0,1,403.86,463Z"/><polygon class="cls-3" points="380.55 384.94 361.89 366.28 343.2 384.97 380.55 422.32 436.63 366.25 417.94 347.56 380.55 384.94"/><rect class="cls-4" x="358.95" y="370.19" width="19.92" height="52.83" transform="translate(-172.39 377.03) rotate(-45)"/><rect class="cls-7" x="85.33" y="264.95" width="66.08" height="26.43"/><rect class="cls-8" x="85.33" y="264.95" width="18.9" height="26.43"/><rect class="cls-5" x="85.33" y="317.59" width="171.88" height="26.43"/><rect class="cls-6" x="85.33" y="317.59" width="18.9" height="26.43"/><line class="cls-9" x1="72.31" y1="59.76" x2="72.31" y2="72.98"/><line class="cls-9" x1="98.63" y1="59.76" x2="98.63" y2="72.98"/><path class="cls-10" d="M369.48,474.72a92.81,92.81,0,1,1,39.65.26"/><path class="cls-10" d="M395.91,476.78q-3,.2-6,.19c-2.43,0-4.83-.09-7.22-.27"/><line class="cls-10" x1="336.44" y1="337.31" x2="349.65" y2="337.31"/><polygon class="cls-10" points="380.55 384.94 361.89 366.28 343.2 384.97 380.55 422.32 436.63 366.25 417.94 347.56 380.55 384.94"/><polyline class="cls-10" points="276.96 384.18 44.78 384.18 44.78 39.04 389.91 39.04 389.91 291.38"/><polyline class="cls-10" points="164.63 99.41 164.63 142.69 217.34 122.65 270.37 142.69 270.37 39.04"/><line class="cls-10" x1="164.63" y1="39.04" x2="164.63" y2="86.2"/><rect class="cls-10" x="85.33" y="264.95" width="66.08" height="26.43"/><rect class="cls-10" x="85.33" y="317.59" width="171.88" height="26.43"/></svg>