<svg xmlns="http://www.w3.org/2000/svg" width="205" height="205" viewBox="0 0 205 205">
  <g id="Group_16222" data-name="Group 16222" transform="translate(0 -26.667)">
    <path id="Path_5534" data-name="Path 5534" d="M191.335,174.458h-7.688v-31.57c0-13.659-11.689-25.639-25.015-25.639H106.772v-28.6H118.73c7.542-.016,13.653-6.837,13.667-15.256V41.923c-.014-8.419-6.125-15.24-13.667-15.256H86.271C78.729,26.683,72.619,33.5,72.6,41.923V73.388c.014,8.419,6.125,15.24,13.667,15.256H98.23v28.6H46.369c-13.325,0-25.015,11.98-25.015,25.639v31.57H13.667C6.125,174.474.014,181.295,0,189.714v26.7c.014,8.419,6.125,15.24,13.667,15.256H37.583c7.542-.016,13.653-6.837,13.667-15.256v-26.7c-.014-8.419-6.125-15.24-13.667-15.256H29.9v-31.57c0-9.22,8.7-16.1,16.473-16.1H98.229v47.675H90.542c-7.542.016-13.653,6.837-13.667,15.256v26.7c.014,8.419,6.125,15.24,13.667,15.256h23.917c7.542-.016,13.653-6.837,13.667-15.256v-26.7c-.014-8.419-6.125-15.24-13.667-15.256h-7.688V126.783h51.861c7.777,0,16.473,6.884,16.473,16.1v31.57h-7.688c-7.542.016-13.653,6.837-13.667,15.256v26.7c.014,8.419,6.125,15.24,13.667,15.256h23.917c7.542-.016,13.653-6.837,13.667-15.256v-26.7C204.987,181.295,198.876,174.474,191.335,174.458ZM37.584,183.993c2.83,0,5.125,2.561,5.125,5.721v26.7c0,3.159-2.295,5.721-5.125,5.721H13.667c-2.83,0-5.125-2.561-5.125-5.721v-26.7c0-3.159,2.295-5.721,5.125-5.721H37.584Zm76.875,0c2.83,0,5.125,2.561,5.125,5.721v26.7c0,3.159-2.295,5.721-5.125,5.721H90.542c-2.83,0-5.125-2.561-5.125-5.721v-26.7c0-3.159,2.295-5.721,5.125-5.721h23.917ZM86.271,79.109c-2.83,0-5.125-2.561-5.125-5.721V41.923c0-3.159,2.295-5.721,5.125-5.721H118.73c2.83,0,5.125,2.561,5.125,5.721V73.388c0,3.159-2.295,5.721-5.125,5.721Zm110.188,137.3c0,3.159-2.295,5.721-5.125,5.721H167.418c-2.83,0-5.125-2.561-5.125-5.721v-26.7c0-3.159,2.295-5.721,5.125-5.721h23.917c2.83,0,5.125,2.561,5.125,5.721Z" transform="translate(0 0)" fill="#fff"/>
  </g>
</svg>
