<svg id="Layer_1" data-name="Layer 1" xmlns="http://www.w3.org/2000/svg" xmlns:xlink="http://www.w3.org/1999/xlink" viewBox="0 0 512 512"><defs><style>.cls-1,.cls-9{fill:none;}.cls-2{clip-path:url(#clip-path);}.cls-3{fill:#6dc17d;}.cls-4{fill:#5ea570;}.cls-5{fill:#5392f9;}.cls-6{fill:#4071f7;}.cls-7{fill:#e9a52d;}.cls-8{fill:#e38523;}.cls-9{stroke:#000;stroke-linecap:round;stroke-linejoin:round;stroke-width:14.31px;}</style><clipPath id="clip-path"><rect class="cls-1" x="11.71" y="11.71" width="488.58" height="488.58"/></clipPath></defs><g id="g7212"><g id="g7214"><g class="cls-2"><g id="g7216"><g id="g7222"><path id="path7224" class="cls-3" d="M55.14,278.8v28.5a12.49,12.49,0,0,0,12.49,12.49H444.37a12.49,12.49,0,0,0,12.49-12.49V278.8a12.49,12.49,0,0,0-12.49-12.49H67.63A12.49,12.49,0,0,0,55.14,278.8"/></g><g id="g7226"><path id="path7228" class="cls-4" d="M444.37,266.31H418.61a12.49,12.49,0,0,1,12.48,12.49v28.5a12.49,12.49,0,0,1-12.48,12.49h25.76a12.49,12.49,0,0,0,12.49-12.49V278.8a12.49,12.49,0,0,0-12.49-12.49"/></g><g id="g7230"><path id="path7232" class="cls-5" d="M126.42,452.7l-31-132.91H416.56l-31,132.91a23.6,23.6,0,0,1-23,18.24H149.4a23.6,23.6,0,0,1-23-18.24"/></g><g id="g7234"><path id="path7236" class="cls-6" d="M390.79,319.79l-31,132.91a23.6,23.6,0,0,1-23,18.24H362.6a23.6,23.6,0,0,0,23-18.24l31-132.91Z"/></g><g id="g7238"><path id="path7240" class="cls-7" d="M129.77,45.83V221.37a4.77,4.77,0,0,0,4.77,4.77H377.46a4.77,4.77,0,0,0,4.77-4.77V45.83a4.77,4.77,0,0,0-4.77-4.77H134.54a4.77,4.77,0,0,0-4.77,4.77"/></g><g id="g7242"><path id="path7244" class="cls-8" d="M377.46,41.06H351.7a4.78,4.78,0,0,1,4.77,4.77V221.37a4.78,4.78,0,0,1-4.77,4.77h25.76a4.77,4.77,0,0,0,4.77-4.77V45.83a4.77,4.77,0,0,0-4.77-4.77"/></g><path id="path7246" class="cls-5" d="M129.76,183.74H382.23V139.41H129.76Z"/><path id="path7248" class="cls-6" d="M382.24,139.41H356.47v44.33h25.77Z"/><g id="g7250"><path id="path7252" class="cls-9" d="M55.14,278.8v28.5a12.49,12.49,0,0,0,12.49,12.49H444.37a12.49,12.49,0,0,0,12.49-12.49V278.8a12.49,12.49,0,0,0-12.49-12.49H67.63A12.49,12.49,0,0,0,55.14,278.8Z"/></g><g id="g7254"><path id="path7256" class="cls-9" d="M295.56,470.94H149.4a23.6,23.6,0,0,1-23-18.24l-31-132.91H416.56l-31,132.91a23.6,23.6,0,0,1-23,18.24H329"/></g><g id="g7258"><path id="path7260" class="cls-9" d="M307,297.62l141.19,95"/></g><g id="g7262"><path id="path7264" class="cls-9" d="M205,297.62l-141.19,95"/></g><g id="g7266"><path id="path7268" class="cls-9" d="M190.19,359.1v53.52"/></g><g id="g7270"><path id="path7272" class="cls-9" d="M256,359.1v53.52"/></g><g id="g7274"><path id="path7276" class="cls-9" d="M321.81,359.1v53.52"/></g><g id="g7278"><path id="path7280" class="cls-9" d="M171.69,41.06H134.54a4.78,4.78,0,0,0-4.78,4.77V221.37a4.78,4.78,0,0,0,4.78,4.77H377.46a4.78,4.78,0,0,0,4.78-4.77V45.83a4.78,4.78,0,0,0-4.78-4.77H205.08"/></g><g id="g7282"><path id="path7284" class="cls-9" d="M129.77,183.74H382.23"/></g><g id="g7286"><path id="path7288" class="cls-9" d="M382.23,139.41H129.77"/></g><g id="g7290"><path id="path7292" class="cls-9" d="M179.89,90.24h12.7"/></g><g id="g7294"><path id="path7296" class="cls-9" d="M235.62,90.24h12.69"/></g><g id="g7298"><path id="path7300" class="cls-9" d="M450.62,52.15A134.63,134.63,0,0,1,473,221.21"/></g><g id="g7302"><path id="path7304" class="cls-9" d="M75,44.92A134.71,134.71,0,0,0,42.93,219"/></g><g id="g7306"><path id="path7308" class="cls-9" d="M448.87,77.53l-.78-19.89A6.63,6.63,0,0,1,455,50.75l19.9.78"/></g><g id="g7310"><path id="path7312" class="cls-9" d="M51,195.34,46.3,214.69a6.63,6.63,0,0,1-8.52,4.72l-18.91-6.24"/></g></g></g></g></g></svg>