<svg id="Layer_1" data-name="Layer 1" xmlns="http://www.w3.org/2000/svg" viewBox="0 0 512 512"><defs><style>.cls-1{fill:#999;}</style></defs><path class="cls-1" d="M445.42,259.17H66.59a19.77,19.77,0,0,0-19.76,19.75v28.66a19.78,19.78,0,0,0,19.76,19.76H88.84l8,34.45L58.74,387.45a7.2,7.2,0,1,0,8,11.94l33.58-22.61,18.33,78.64a30.8,30.8,0,0,0,30.12,23.9h147a7.2,7.2,0,1,0,0-14.39h-147a16.45,16.45,0,0,1-16.1-12.78l-19.57-84,60.68-40.84H338.18l60.68,40.84-19.57,84a16.45,16.45,0,0,1-16.09,12.78H329.37a7.2,7.2,0,1,0,0,14.39H363.2a30.79,30.79,0,0,0,30.11-23.9l18.33-78.64,33.58,22.61a7.2,7.2,0,0,0,8-11.94l-38.13-25.66,8-34.45h22.26a19.77,19.77,0,0,0,19.75-19.76V278.92a19.77,19.77,0,0,0-19.75-19.75Zm-335.78,94-6-25.85H148Zm292.72,0L364,327.34h44.42Zm48.42-45.61a5.37,5.37,0,0,1-5.36,5.36H342.58l-31.3-21.06a7.2,7.2,0,1,0-8,11.94l13.56,9.12H195.2l13.56-9.12a7.2,7.2,0,1,0-8-11.94l-31.3,21.06H66.59a5.36,5.36,0,0,1-5.36-5.36V278.92a5.37,5.37,0,0,1,5.36-5.36H445.42a5.37,5.37,0,0,1,5.36,5.36Z"/><path class="cls-1" d="M182.63,359.67v53.82a7.2,7.2,0,1,0,14.4,0V359.67a7.2,7.2,0,0,0-14.4,0Z"/><path class="cls-1" d="M248.8,359.67v53.82a7.2,7.2,0,0,0,14.4,0V359.67a7.2,7.2,0,0,0-14.4,0Z"/><path class="cls-1" d="M329.37,413.49V359.67a7.2,7.2,0,0,0-14.39,0v53.82a7.2,7.2,0,1,0,14.39,0Z"/><path class="cls-1" d="M133.86,233.17H378.14a12,12,0,0,0,12-12V44.67a12,12,0,0,0-12-12H204.8a7.2,7.2,0,0,0,0,14.39H375.74v84.5H136.26V47.07h35a7.2,7.2,0,1,0,0-14.39H133.86a12,12,0,0,0-12,12V221.18a12,12,0,0,0,12,12Zm2.4-14.39V190.54H375.74v28.24ZM375.74,146v30.19H136.26V146Z"/><path class="cls-1" d="M172.28,89.32a7.19,7.19,0,0,0,7.19,7.2h12.76a7.2,7.2,0,1,0,0-14.4H179.47A7.19,7.19,0,0,0,172.28,89.32Z"/><path class="cls-1" d="M248.27,96.52a7.2,7.2,0,0,0,0-14.4H235.51a7.2,7.2,0,1,0,0,14.4Z"/><path class="cls-1" d="M467.56,57.27l8.25.32a7.2,7.2,0,1,0,.56-14.38l-20-.79a14.56,14.56,0,0,0-9.28,3.09A13.9,13.9,0,0,0,442,56.82l.79,20a7.21,7.21,0,0,0,7.19,6.91h.29a7.21,7.21,0,0,0,6.91-7.48l-.38-9.53a128.22,128.22,0,0,1,11.29,150.49,7.2,7.2,0,1,0,12.22,7.6A142.48,142.48,0,0,0,467.56,57.27Z"/><path class="cls-1" d="M52.13,216.17l4.75-19.45a7.2,7.2,0,0,0-14-3.42l-2,8.14A128.36,128.36,0,0,1,78.48,49.38a7.19,7.19,0,0,0-9-11.26A142.67,142.67,0,0,0,28.52,209l-8.71-2.87a7.2,7.2,0,1,0-4.51,13.67l19,6.27a13.87,13.87,0,0,0,17.81-9.87Z"/></svg>