<svg xmlns="http://www.w3.org/2000/svg" width="529.697" height="541.834" viewBox="0 0 529.697 541.834">
  <g id="Group_9697" data-name="Group 9697" transform="translate(-745.5 -528.293)">
    <path id="Path_6387" data-name="Path 6387" d="M816.892,23809.658h27.416c31.367,0,31.367-47.418,0-47.418H770.025c-31.367,0-31.367-47.418,0-47.418H842.8c31.367,0,31.367-47.418,0-47.418h-26.13c-31.367,0-31.367-47.4,0-47.4h247.076c31.367,0,31.367,47.4,0,47.4h-13.059c-31.367,0-31.367,47.418,0,47.418h35.632c31.354,0,31.354,47.418,0,47.418h-37.141c-31.367,0-31.367,47.418,0,47.418h11.418c31.354,0,31.354,47.418,0,47.418h-243.7C785.525,23857.076,785.525,23809.658,816.892,23809.658Z" transform="translate(0 -22787.949)" fill="#e6e6e6" stroke="#707070" stroke-width="2" fill-rule="evenodd"/>
    <path id="Path_6388" data-name="Path 6388" d="M10951.608,23619h244.175c31.367,0,31.354,47.418,0,47.418h-24.345c-33.139,0-36.065,47.416,3.622,47.416h68.469c31.367,0,31.367,47.418,0,47.418H11144.9c-31.367,0-31.367,47.418,0,47.418h23.86c31.366,0,31.366,47.418,0,47.418h-230.225c-31.367,0-31.367-47.418,0-47.418h13.071c31.577,0,32.889-47.418,0-47.418h-55.844c-31.354,0-31.354-47.418,0-47.418h40.475c34.728,1.076,38.835-47.416,0-47.416h-24.726c-31.367,0-31.367-47.406,0-47.406h40.095Zm274.741,189.67h-.131a23.709,23.709,0,1,0,0,47.418h.131a23.709,23.709,0,1,0,0-47.418Z" transform="translate(-9992.857 -22786.963)" fill="#c2c2c2" stroke="#707070" stroke-width="2" fill-rule="evenodd"/>
    <path id="Path_6389" data-name="Path 6389" d="M7820,7554h336.806v227.062H7820Z" transform="translate(-6980.666 -6932.803)" fill="#e6e6e6" stroke="#707070" stroke-width="2" fill-rule="evenodd"/>
    <path id="Path_6390" data-name="Path 6390" d="M8960,8546h306.856v201.01H8960Z" transform="translate(-8105.705 -7911.783)" fill="#fff" stroke="#707070" stroke-width="2" fill-rule="evenodd"/>
    <path id="Path_6391" data-name="Path 6391" d="M17637.783,17098.949l16.117,41.957-18.793,36.59H17533s13.373,60.752,44.912,76.266h96.227l23.518-76.266-3.74-40.291-31.262-53.191C17654.7,17066.309,17630.041,17078.225,17637.783,17098.949Z" transform="translate(-16566.191 -16329.25)" fill="#ff8527" stroke="#707070" stroke-width="2" fill-rule="evenodd"/>
    <path id="Path_6392" data-name="Path 6392" d="M20298,30512h112.658v31.8H20298Z" transform="translate(-19294.902 -29589.498)" fill="#fff" stroke="#707070" stroke-width="2" fill-rule="evenodd"/>
    <path id="Path_6393" data-name="Path 6393" d="M19334,32935h137.975v76.211H19334Z" transform="translate(-18343.555 -31980.697)" fill="#ffd027" stroke="#707070" stroke-width="2" fill-rule="evenodd"/>
    <path id="Path_6394" data-name="Path 6394" d="M10797.818,10670.479h4.515v-8.964c-2.835-2.821-5.591-5.42-6.365-9.607-.854-4.541-1.562-13.924-1.654-25.355-.223-27.4,44.57-27.4,44.347,0-.092,11.432-.8,20.814-1.641,25.355-.787,4.188-3.543,6.786-6.378,9.607v8.964h4.528a24.892,24.892,0,0,1,24.817,24.817v20.895a13.686,13.686,0,0,1-13.649,13.636h-59.7a13.684,13.684,0,0,1-13.637-13.636V10695.3A24.892,24.892,0,0,1,10797.818,10670.479Z" transform="translate(-9894.91 -9944.747)" fill="#ff8527" stroke="#707070" stroke-width="2" fill-rule="evenodd"/>
    <path id="Path_6395" data-name="Path 6395" d="M10797.818,15519c12.625,17.586,24.673,18.15,37.352,0a24.891,24.891,0,0,1,24.817,24.817v20.894a13.687,13.687,0,0,1-13.649,13.637h-59.7a13.685,13.685,0,0,1-13.637-13.637v-20.894A24.891,24.891,0,0,1,10797.818,15519Z" transform="translate(-9894.91 -14793.269)" fill="#ffd027" stroke="#707070" stroke-width="2" fill-rule="evenodd"/>
    <path id="Path_6396" data-name="Path 6396" d="M30889.738,3202a35.745,35.745,0,0,1,21.287,64.453l-21.287,45.292-21.289-45.292a35.745,35.745,0,0,1,21.289-64.453Z" transform="translate(-29712.363 -2637.919)" fill="#ff576b" stroke="#707070" stroke-width="2" fill-rule="evenodd"/>
    <circle id="Ellipse_30" data-name="Ellipse 30" cx="15.355" cy="15.355" r="15.355" transform="translate(1162.019 584.332)" fill="#fff" stroke="#707070" stroke-width="2"/>
    <circle id="Ellipse_31" data-name="Ellipse 31" cx="53.022" cy="53.022" r="53.022" transform="translate(786.312 795.224)" fill="#00dcab" stroke="#707070" stroke-width="2"/>
    <g id="Group_9696" data-name="Group 9696" transform="translate(747.937 529)">
      <path id="Path_6397" data-name="Path 6397" d="M5001.3,21874.957l-7.875,37.916c-1.233,5.92,12.021,5.408,19.292-4.135s17.193-43.531-18.361-48.861c-27.416-4.107-45.121,16.813-45.672,37.982-1.076,41.734,47.877,49.543,70.91,24.9" transform="translate(-4894.957 -21579.414)" fill="none" stroke="#fff" stroke-width="2" fill-rule="evenodd"/>
      <path id="Path_6398" data-name="Path 6398" d="M6324.577,23246.246c-.735-1.93-12.284-20.277-25.763-3.99s-5.5,44.793,21.55,24.607" transform="translate(-6221.04 -22937.564)" fill="none" stroke="#fff" stroke-width="2" fill-rule="evenodd"/>
      <path id="Path_6399" data-name="Path 6399" d="M1058.664,559.684c5.866-7.074,27.954,10.591,22.757,17.783-5,6.9-8.2,10.526-1.732,16.851l28.965,28.256c6.47,6.313,10.014,3.032,16.8-2.139,7.061-5.368,25.251,16.287,18.334,22.311-12.9,13.216-36,11.759-49.216-1.129L1061,608.848C1047.784,595.96,1045.776,572.887,1058.664,559.684Zm77.813,32.207a35.487,35.487,0,0,0-26.393-30.527m52.3,30.658a64.708,64.708,0,0,0-48.1-55.647m-257.72-4.62,5.079,5.079m13.833-5.079-5.079,5.079m-8.754,8.767-5.079,5.079M870.4,545.6l5.079,5.079m324.325,6.09,5.079,5.079m13.846-5.079-5.079,5.079m-8.767,8.767L1199.8,575.7m13.846-5.079,5.079,5.079M1363.211,529l5.079,5.079M1382.136,529l-5.079,5.079m-8.767,8.767-5.079,5.079m13.846-5.079,5.079,5.079M856,888.511l5.079,5.079m13.846-5.079-5.079,5.079m-8.767,8.754L856,907.423m13.846-5.079,5.079,5.079M856,1042.681l5.079,5.079m13.846-5.079-5.079,5.079m-8.767,8.767L856,1061.606m13.846-5.079,5.079,5.079m476.54-74.414,5.079,5.079m13.846-5.079-5.079,5.079m-8.767,8.767-5.079,5.079m13.846-5.079,5.079,5.079" transform="translate(-856 -529)" fill="none" stroke="#105286" stroke-width="2" fill-rule="evenodd"/>
      <circle id="Ellipse_32" data-name="Ellipse 32" cx="9.108" cy="9.108" r="9.108" transform="matrix(0.673, -0.739, 0.739, 0.673, 493.234, 141.033)" fill="none" stroke="#105286" stroke-width="2"/>
      <circle id="Ellipse_33" data-name="Ellipse 33" cx="9.108" cy="9.108" r="9.108" transform="matrix(0.673, -0.739, 0.739, 0.673, 493.234, 361.049)" fill="none" stroke="#105286" stroke-width="2"/>
      <circle id="Ellipse_34" data-name="Ellipse 34" cx="9.108" cy="9.108" r="9.108" transform="matrix(0.673, -0.739, 0.739, 0.673, 29.705, 205.116)" fill="none" stroke="#105286" stroke-width="2"/>
      <circle id="Ellipse_35" data-name="Ellipse 35" cx="9.108" cy="9.108" r="9.108" transform="matrix(0.673, -0.739, 0.739, 0.673, 130.101, 66.271)" fill="none" stroke="#105286" stroke-width="2"/>
      <circle id="Ellipse_36" data-name="Ellipse 36" cx="9.108" cy="9.108" r="9.108" transform="matrix(0.673, -0.739, 0.739, 0.673, 70.291, 476.398)" fill="none" stroke="#105286" stroke-width="2"/>
    </g>
  </g>
</svg>
