<svg xmlns="http://www.w3.org/2000/svg" width="25" height="25" viewBox="0 0 25 25">
  <path id="account_box_FILL0_wght300_GRAD0_opsz48" d="M141.67-797.83a17.552,17.552,0,0,1,4.89-3.264,14.3,14.3,0,0,1,5.937-1.233,14.331,14.331,0,0,1,5.941,1.233,17.534,17.534,0,0,1,4.894,3.264v-20.048a.433.433,0,0,0-.141-.311.433.433,0,0,0-.311-.141H142.122a.433.433,0,0,0-.311.141.433.433,0,0,0-.141.311Zm10.884-7.627a4.564,4.564,0,0,0,3.355-1.372,4.564,4.564,0,0,0,1.372-3.355,4.564,4.564,0,0,0-1.372-3.356,4.564,4.564,0,0,0-3.355-1.372,4.564,4.564,0,0,0-3.355,1.372,4.564,4.564,0,0,0-1.372,3.356,4.564,4.564,0,0,0,1.372,3.355A4.564,4.564,0,0,0,152.553-805.457ZM142.122-795a2.039,2.039,0,0,1-1.493-.628A2.039,2.039,0,0,1,140-797.12v-20.758a2.039,2.039,0,0,1,.628-1.493,2.039,2.039,0,0,1,1.493-.628H162.88a2.039,2.039,0,0,1,1.493.628,2.039,2.039,0,0,1,.628,1.493v20.758a2.039,2.039,0,0,1-.628,1.493,2.039,2.039,0,0,1-1.493.628Zm1-1.669H161.89v-.289a14.682,14.682,0,0,0-4.45-2.774,13.483,13.483,0,0,0-4.94-.928,13.532,13.532,0,0,0-4.926.921,14.7,14.7,0,0,0-4.449,2.753Zm9.434-10.458a2.957,2.957,0,0,1-2.173-.893,2.949,2.949,0,0,1-.893-2.166,2.949,2.949,0,0,1,.893-2.166,2.949,2.949,0,0,1,2.166-.893,2.944,2.944,0,0,1,2.166.9,2.944,2.944,0,0,1,.893,2.156,2.952,2.952,0,0,1-.9,2.173A2.944,2.944,0,0,1,152.56-807.126ZM152.5-808.1Z" transform="translate(-140.001 819.999)" fill="#fff"/>
</svg>
