<svg xmlns="http://www.w3.org/2000/svg" xmlns:xlink="http://www.w3.org/1999/xlink" width="512" height="512" viewBox="0 0 512 512">
  <defs>
    <clipPath id="clip-path">
      <rect id="Rectangle_316" data-name="Rectangle 316" width="512" height="512" transform="translate(532.17 532)" fill="none"/>
    </clipPath>
  </defs>
  <g id="contact" transform="translate(-532.17 -532)" clip-path="url(#clip-path)">
    <g id="Group_371" data-name="Group 371">
      <path id="Path_636" data-name="Path 636" d="M921.43,571.46H654.92a83.375,83.375,0,0,0-83.28,83.28V921.25a83.375,83.375,0,0,0,83.28,83.28H921.43a83.375,83.375,0,0,0,83.28-83.28V654.74a83.375,83.375,0,0,0-83.28-83.28Zm49.97,349.8a50.031,50.031,0,0,1-49.97,49.97H654.92a50.031,50.031,0,0,1-49.97-49.97V654.75a50.031,50.031,0,0,1,49.97-49.97H921.43a50.031,50.031,0,0,1,49.97,49.97Z" fill="#252525"/>
      <path id="Path_637" data-name="Path 637" d="M788.22,785.1a66.63,66.63,0,1,0-66.63-66.63A66.693,66.693,0,0,0,788.22,785.1Zm0-99.94a33.31,33.31,0,1,1-33.31,33.31A33.344,33.344,0,0,1,788.22,685.16Zm-.05,111.53a116.736,116.736,0,0,0-116.6,116.6,16.661,16.661,0,0,0,16.66,16.66H888.11a16.661,16.661,0,0,0,16.66-16.66A116.736,116.736,0,0,0,788.17,796.69Zm-81.6,99.94a83.282,83.282,0,0,1,163.2,0H706.57Z" fill="#252525"/>
    </g>
  </g>
</svg>
