<svg id="contactempty" xmlns="http://www.w3.org/2000/svg" width="512" height="512" viewBox="0 0 512 512">
  <path id="Path_6618" data-name="Path 6618" d="M130.334,479.085H381.667a256.349,256.349,0,0,1-251.333,0ZM256,0A255.66,255.66,0,0,0,48.526,106h387.91V437.6A255.21,255.21,0,0,0,512,256C512,114.615,397.385,0,256,0Z" fill="#ffc14f"/>
  <path id="Path_6619" data-name="Path 6619" d="M0,256A254.839,254.839,0,0,1,48.526,106H426.663V446.818a256.587,256.587,0,0,1-54.294,37.266H139.631A255.99,255.99,0,0,1,0,256Z" fill="#ffb52d"/>
  <path id="Path_6620" data-name="Path 6620" d="M466,441H60a10,10,0,0,1-10-10V121a10,10,0,0,1,10-10H466a10,10,0,0,1,10,10V431A10,10,0,0,1,466,441Z" fill="#fff5f5"/>
  <path id="Path_6621" data-name="Path 6621" d="M70,441H46a10,10,0,0,1-10-10V121a10,10,0,0,1,10-10H70a10,10,0,0,0-10,10V431A10,10,0,0,0,70,441Z" fill="#e9f3fe"/>
  <path id="Path_6622" data-name="Path 6622" d="M476,81v40H190l-10.064-7.362H90.064L80,121H59.883A9.883,9.883,0,0,1,50,111.117V87.84A16.841,16.841,0,0,1,66.84,71H466A10,10,0,0,1,476,81Z" fill="#203e76"/>
  <path id="Path_6623" data-name="Path 6623" d="M70,71A10,10,0,0,0,60,81v40H36V81A10,10,0,0,1,46,71Z" fill="#19305c"/>
  <path id="Path_6624" data-name="Path 6624" d="M190,121H80V101A10,10,0,0,1,90,91h90a10,10,0,0,1,10,10ZM430,96a10,10,0,1,0,10-10A10,10,0,0,0,430,96Zm-40,0a10,10,0,1,0,10-10A10,10,0,0,0,390,96Zm-40,0a10,10,0,1,0,10-10A10,10,0,0,0,350,96Z" fill="#6990d7"/>
  <path id="Path_6625" data-name="Path 6625" d="M129.974,255a257.894,257.894,0,0,0-3.141,130h43.531a35.163,35.163,0,0,1,33.3,23.743q.3.882.609,1.762C214.446,439.6,192.7,470,161.876,470H148.732a43.539,43.539,0,0,1-38.342-22.917A256.31,256.31,0,0,1,119.012,190.1,43.251,43.251,0,0,1,155.691,170h10.782c31.739,0,53.236,32.04,41.519,61.538q-.179.447-.354.9A35.372,35.372,0,0,1,174.761,255Z" fill="#274c91"/>
  <path id="Path_6626" data-name="Path 6626" d="M167.641,469.639c-1.881.238-5.8.361-7.766.361H146.731a43.539,43.539,0,0,1-38.342-22.917A256.314,256.314,0,0,1,117.012,190.1,43.251,43.251,0,0,1,153.691,170h10.782a76.084,76.084,0,0,1,8.954.526,43.093,43.093,0,0,0-29.9,19.573A256.314,256.314,0,0,0,134.9,447.081,43.552,43.552,0,0,0,167.641,469.639Z" fill="#203e76"/>
  <path id="Path_6627" data-name="Path 6627" d="M426.663,417.135a33.325,33.325,0,0,1-33.325,33.325H316.447a10,10,0,0,1-10-10V393.81a10,10,0,0,1,10-10h76.891a33.326,33.326,0,0,1,33.325,33.325Zm-33.326-227.6H316.446a10,10,0,0,0-10,10V246.19a10,10,0,0,0,10,10h76.891a33.326,33.326,0,0,0,0-66.651Zm0,95.818H316.446a10,10,0,0,0-10,10v46.651a10,10,0,0,0,10,10h76.891a33.326,33.326,0,0,0,0-66.651Z" fill="#55a4f9"/>
  <path id="Path_6628" data-name="Path 6628" d="M512,393.81v46.651a10,10,0,0,1-10,10H383a10,10,0,0,1-10-10V393.81a10,10,0,0,1,10-10H502A10,10,0,0,1,512,393.81ZM502,189.539H383a10,10,0,0,0-10,10V246.19a10,10,0,0,0,10,10H502a10,10,0,0,0,10-10V199.539A10,10,0,0,0,502,189.539Zm0,95.818H383a10,10,0,0,0-10,10v46.651a10,10,0,0,0,10,10H502a10,10,0,0,0,10-10V295.357A10,10,0,0,0,502,285.357Z" fill="#76b6fa"/>
  <path id="Path_6629" data-name="Path 6629" d="M386.138,416.327a7.5,7.5,0,0,1-7.5,7.5h-6.745a7.5,7.5,0,1,1,0-15h6.745a7.5,7.5,0,0,1,7.5,7.5Zm-7.5-103.827h-6.745a7.5,7.5,0,1,0,0,15h6.745a7.5,7.5,0,1,0,0-15Zm77.256-82.135h23.6a7.5,7.5,0,1,0,0-15h-23.6a7.5,7.5,0,0,0,0,15Zm-77.256-15h-6.745a7.5,7.5,0,0,0,0,15h6.745a7.5,7.5,0,1,0,0-15Zm50.3,0h-23.6a7.5,7.5,0,0,0,0,15h23.6a7.5,7.5,0,1,0,0-15Zm50.553,193.462h-23.6a7.5,7.5,0,0,0,0,15h23.6a7.5,7.5,0,1,0,0-15Zm-50.553,0h-23.6a7.5,7.5,0,0,0,0,15h23.6a7.5,7.5,0,1,0,0-15ZM479.489,312.5h-23.6a7.5,7.5,0,1,0,0,15h23.6a7.5,7.5,0,1,0,0-15Zm-50.553,0h-23.6a7.5,7.5,0,0,0,0,15h23.6a7.5,7.5,0,1,0,0-15Z" fill="#a7d0fc"/>
  <path id="Path_6630" data-name="Path 6630" d="M350,222.865a49.759,49.759,0,0,1-7.325,26.067,8.228,8.228,0,0,1-2.719,2.719,50.01,50.01,0,0,1-68.748-68.733,8.262,8.262,0,0,1,2.734-2.734A50.01,50.01,0,0,1,350,222.865Z" fill="#6dc54a"/>
  <path id="Path_6631" data-name="Path 6631" d="M343.144,248.151a50.006,50.006,0,1,1-68.43-68.43,50.012,50.012,0,0,0,68.43,68.43Z" fill="#5db33a"/>
  <path id="Path_6632" data-name="Path 6632" d="M350,318.683a49.759,49.759,0,0,1-7.325,26.067,8.228,8.228,0,0,1-2.719,2.719,50.01,50.01,0,0,1-68.748-68.733A8.263,8.263,0,0,1,273.942,276,50.01,50.01,0,0,1,350,318.683Z" fill="#4172cc"/>
  <path id="Path_6633" data-name="Path 6633" d="M343.144,343.969a50.006,50.006,0,1,1-68.43-68.43,50.012,50.012,0,0,0,68.43,68.43Z" fill="#2e5aac"/>
  <path id="Path_6634" data-name="Path 6634" d="M350,417.135a49.759,49.759,0,0,1-7.325,26.067,8.228,8.228,0,0,1-2.719,2.719,50.01,50.01,0,0,1-68.748-68.733,8.263,8.263,0,0,1,2.734-2.734A50.01,50.01,0,0,1,350,417.135Z" fill="#fb5858"/>
  <path id="Path_6635" data-name="Path 6635" d="M343.144,442.422a50.006,50.006,0,1,1-68.43-68.43,50.012,50.012,0,0,0,68.43,68.43Z" fill="#f44545"/>
  <path id="Path_6636" data-name="Path 6636" d="M285.766,207.824v-4.745a14.234,14.234,0,0,1,28.468,0v4.745a14.234,14.234,0,0,1-28.468,0Zm-5.781,49.061h40.029a4,4,0,0,0,4-4v-.447a24.018,24.018,0,1,0-48.036,0v.447a4,4,0,0,0,4,4ZM300,317.875a14.234,14.234,0,0,0,14.234-14.234V298.9a14.234,14.234,0,0,0-28.468,0v4.745A14.234,14.234,0,0,0,300,317.875ZM279.985,352.7h40.029a4,4,0,0,0,4-4v-.447a24.018,24.018,0,1,0-48.036,0v.447a4.005,4.005,0,0,0,4,4ZM300,416.327a14.234,14.234,0,0,0,14.234-14.234v-4.745a14.234,14.234,0,0,0-28.468,0v4.745A14.234,14.234,0,0,0,300,416.327Zm-20.015,34.828h40.029a4,4,0,0,0,4-4v-.447a24.018,24.018,0,1,0-48.036,0v.447a4.005,4.005,0,0,0,4,4Z" fill="#fff5f5"/>
</svg>
