<svg id="Group_39232" data-name="Group 39232" xmlns="http://www.w3.org/2000/svg" width="174.724" height="174.724" viewBox="0 0 174.724 174.724">
  <path id="Path_6494" data-name="Path 6494" d="M59.379,81.9H22.523A22.548,22.548,0,0,1,0,59.379V22.523A22.548,22.548,0,0,1,22.523,0H59.379A22.548,22.548,0,0,1,81.9,22.523V59.379A22.548,22.548,0,0,1,59.379,81.9ZM22.523,10.92a11.616,11.616,0,0,0-11.6,11.6V59.379a11.616,11.616,0,0,0,11.6,11.6H59.379a11.616,11.616,0,0,0,11.6-11.6V22.523a11.616,11.616,0,0,0-11.6-11.6ZM152.2,81.9H115.345A22.548,22.548,0,0,1,92.822,59.379V22.523A22.548,22.548,0,0,1,115.345,0H152.2a22.548,22.548,0,0,1,22.523,22.523V59.379A22.548,22.548,0,0,1,152.2,81.9ZM115.345,10.92a11.616,11.616,0,0,0-11.6,11.6V59.379a11.616,11.616,0,0,0,11.6,11.6H152.2a11.616,11.616,0,0,0,11.6-11.6V22.523a11.616,11.616,0,0,0-11.6-11.6Zm18.428,163.8a40.951,40.951,0,1,1,40.951-40.951A41,41,0,0,1,133.773,174.724Zm0-70.981A30.031,30.031,0,1,0,163.8,133.773,30.065,30.065,0,0,0,133.773,103.742ZM59.379,174.724H22.523A22.548,22.548,0,0,1,0,152.2V115.345A22.548,22.548,0,0,1,22.523,92.822H59.379A22.548,22.548,0,0,1,81.9,115.345V152.2A22.548,22.548,0,0,1,59.379,174.724ZM22.523,103.742a11.616,11.616,0,0,0-11.6,11.6V152.2a11.616,11.616,0,0,0,11.6,11.6H59.379a11.616,11.616,0,0,0,11.6-11.6V115.345a11.616,11.616,0,0,0-11.6-11.6Z" fill="#fff"/>
</svg>
