<svg id="dashboard" xmlns="http://www.w3.org/2000/svg" width="512" height="512" viewBox="0 0 512 512">
  <path id="Path_311" data-name="Path 311" d="M200,0H40A40.045,40.045,0,0,0,0,40V264a40.045,40.045,0,0,0,40,40H200a40.045,40.045,0,0,0,40-40V40A40.045,40.045,0,0,0,200,0Zm24,264a24.027,24.027,0,0,1-24,24H40a24.027,24.027,0,0,1-24-24V40A24.027,24.027,0,0,1,40,16H200a24.027,24.027,0,0,1,24,24Zm-24,72H40A40.045,40.045,0,0,0,0,376v96a40.045,40.045,0,0,0,40,40H200a40.045,40.045,0,0,0,40-40V376A40.045,40.045,0,0,0,200,336Zm24,136a24.027,24.027,0,0,1-24,24H40a24.027,24.027,0,0,1-24-24V376a24.027,24.027,0,0,1,24-24H200a24.027,24.027,0,0,1,24,24Zm288,0V248a40.045,40.045,0,0,0-40-40H312a40.045,40.045,0,0,0-40,40V472a40.045,40.045,0,0,0,40,40H472A40.045,40.045,0,0,0,512,472Zm-16,0a24.027,24.027,0,0,1-24,24H312a24.027,24.027,0,0,1-24-24V248a24.027,24.027,0,0,1,24-24H472a24.027,24.027,0,0,1,24,24Zm16-336V40A40.045,40.045,0,0,0,472,0H312a40.045,40.045,0,0,0-40,40v96a40.045,40.045,0,0,0,40,40H472A40.045,40.045,0,0,0,512,136Zm-16,0a24.027,24.027,0,0,1-24,24H312a24.027,24.027,0,0,1-24-24V40a24.027,24.027,0,0,1,24-24H472a24.027,24.027,0,0,1,24,24Z" fill="#fff"/>
</svg>
