<svg id="Layer_1" data-name="Layer 1" xmlns="http://www.w3.org/2000/svg" viewBox="0 0 50 50"><defs><style>.cls-1{fill:#fedbb0;}.cls-2{fill:#e59a5c;}.cls-3{fill:#e8c197;}.cls-4{fill:#c77b61;}.cls-5{fill:#8dc8d8;}.cls-6{fill:#6ea6af;}.cls-7{fill:#7eb7c4;}.cls-8{fill:#422618;}</style></defs><path class="cls-1" d="M5.23,11V35.86a1.59,1.59,0,0,0,1.58,1.59h26.5a1.59,1.59,0,0,0,1.58-1.59V11Z"/><path class="cls-2" d="M24,18.2H16.1a1.74,1.74,0,1,1,0-3.47H24a1.74,1.74,0,0,1,0,3.47Z"/><path class="cls-3" d="M28.75,11V35.86a1.59,1.59,0,0,1-1.58,1.59h6.14a1.59,1.59,0,0,0,1.58-1.59V11Z"/><path class="cls-2" d="M37,3H3.15A1.43,1.43,0,0,0,1.72,4.39V9.57A1.43,1.43,0,0,0,3.15,11H37A1.43,1.43,0,0,0,38.4,9.57V4.39A1.43,1.43,0,0,0,37,3Z"/><path class="cls-4" d="M37,3H30.83a1.43,1.43,0,0,1,1.43,1.43V9.57A1.43,1.43,0,0,1,30.83,11H37A1.43,1.43,0,0,0,38.4,9.57V4.39A1.43,1.43,0,0,0,37,3Z"/><circle class="cls-5" cx="34.47" cy="33.23" r="13.81"/><circle class="cls-6" cx="34.47" cy="33.23" r="11.28"/><path class="cls-7" d="M34.53,27.22a.74.74,0,0,1-.73-.74V24.13a.74.74,0,1,1,1.47,0v2.35A.74.74,0,0,1,34.53,27.22Z"/><path class="cls-7" d="M34.53,43.23a.73.73,0,0,1-.73-.73V40.15a.74.74,0,1,1,1.47,0V42.5A.74.74,0,0,1,34.53,43.23Z"/><path class="cls-7" d="M43.72,34.05H41.37a.74.74,0,1,1,0-1.47h2.35a.74.74,0,1,1,0,1.47Z"/><path class="cls-7" d="M27.7,34.05H25.35a.74.74,0,1,1,0-1.47H27.7a.74.74,0,1,1,0,1.47Z"/><path class="cls-1" d="M34.54,34.65a1.48,1.48,0,0,1-1-.43,1.49,1.49,0,0,1,0-2.09L38.64,27a1.48,1.48,0,1,1,2.09,2.09l-5.15,5.15A1.47,1.47,0,0,1,34.54,34.65Z"/><path class="cls-3" d="M40.73,27a1.47,1.47,0,0,0-.64-.36,1.47,1.47,0,0,1-.37,1.44l-5.15,5.15a1.47,1.47,0,0,1-1,.43,1.45,1.45,0,0,1-.41-.06,1.54,1.54,0,0,0,.37.64,1.48,1.48,0,0,0,2.09,0l5.15-5.15a1.49,1.49,0,0,0,0-2.09Z"/><circle class="cls-1" cx="34.51" cy="33.18" r="2.67"/><path class="cls-3" d="M34.54,30.5a2.53,2.53,0,0,0-1,.21,2.67,2.67,0,0,1,0,4.94,2.68,2.68,0,1,0,1-5.15Z"/><path class="cls-3" d="M34.6,40.05a.81.81,0,1,1,0-1.61,5.23,5.23,0,0,0,5.22-5.23,5.15,5.15,0,0,0-1.07-3.16.8.8,0,0,1,.16-1.13.81.81,0,0,1,1.13.15,6.84,6.84,0,0,1-5.44,11Z"/><path class="cls-1" d="M36.91,40.74l-3.29-.9a.45.45,0,0,1-.15-.79L36.15,37a.46.46,0,0,1,.73.27l.59,3a.45.45,0,0,1-.56.52Z"/><path class="cls-8" d="M34.47,47.45A14.17,14.17,0,0,1,21,37.85H6.81a2,2,0,0,1-2-2V11.41H3.15A1.85,1.85,0,0,1,1.31,9.57V4.39A1.85,1.85,0,0,1,3.15,2.55H37a1.84,1.84,0,0,1,1.84,1.84V9.57A1.84,1.84,0,0,1,37,11.41H35.3V19a14.22,14.22,0,0,1-.83,28.42ZM3.15,3.37a1,1,0,0,0-1,1V9.57a1,1,0,0,0,1,1H5.23a.41.41,0,0,1,.41.41V35.86A1.18,1.18,0,0,0,6.81,37h14.5a.4.4,0,0,1,.39.28A13.4,13.4,0,1,0,34.88,19.83a.42.42,0,0,1-.4-.41V11a.41.41,0,0,1,.41-.41H37a1,1,0,0,0,1-1V4.39a1,1,0,0,0-1-1Z"/></svg>