<svg id="Layer_1" data-name="Layer 1" xmlns="http://www.w3.org/2000/svg" viewBox="0 0 50 50"><defs><style>.cls-1{fill:#ffde7c;}.cls-2{fill:#ffc824;}.cls-3{fill:#ffbd85;}.cls-4{fill:#f0efef;}.cls-5{fill:#ffe9d6;}.cls-6{fill:#ffd3ae;}.cls-7{fill:#ff8660;}.cls-8{fill:#ff6838;}</style></defs><path class="cls-1" d="M5.68,4.13h24.7V27.29H5.68Z"/><path class="cls-2" d="M5.68,4.13H9.54V27.29H5.68Z"/><path class="cls-3" d="M20.34,10.31,18,9.54l-2.32.77V4.13h4.63Z"/><path class="cls-4" d="M8.76,14.17H18v3.09H8.76Z"/><path class="cls-5" d="M29.61,25.75c-1.55,0-3.86,1.54-3.86,1.54H21.89L18,24.2h5.4V22.66a1.54,1.54,0,0,0-1.54-1.54h-7L11.85,24.2H1.05v5.41h10.8l9.27,1.54,5.4-1.54,4.63-2.32A1.51,1.51,0,0,0,29.61,25.75Z"/><path class="cls-6" d="M23.43,22.66H18.8l0,1.54h4.65Z"/><path class="cls-6" d="M30.57,26l-4.05,2-5.4,1.55-9.27-1.55H1.05v1.55h10.8l9.27,1.54,5.4-1.54,4.63-2.32A1.72,1.72,0,0,0,30.57,26Z"/><path class="cls-7" d="M1.05,31.15V23.43H9.54v7.72Z"/><path class="cls-8" d="M1.05,28.84H9.54v2.31H1.05Z"/><path class="cls-6" d="M35.78,40.53H31.92S29.61,39,28.06,39a1.51,1.51,0,0,0-1.54,1.54l4.63,2.32,5,1.42-.22-3.85Z"/><path class="cls-5" d="M45.05,38.87,42,35.78H35a1.54,1.54,0,0,0-1.54,1.55v1.54H38.1l-7,3.09H27.29S25,40.42,23.43,40.42A1.51,1.51,0,0,0,21.89,42l4.63,2.31,5.4,1.55,9.27-1.55h7.72v-5.4Z"/><path class="cls-6" d="M33.47,37.33H38.1v1.54H33.47Z"/><path class="cls-6" d="M31.92,44.27l-5.4-1.54-4.05-2A1.71,1.71,0,0,0,21.89,42l4.63,2.31,5.4,1.55,9.27-1.55h7.72V42.73H41.19Z"/><path d="M8.76,13.44a.73.73,0,0,0-.72.73v3.09a.72.72,0,0,0,.72.72H18a.72.72,0,0,0,.72-.72V14.17a.73.73,0,0,0-.72-.73Zm8.54,3.09H9.49V14.89H17.3Z"/><path d="M21,31.87h.12a.63.63,0,0,0,.19,0l5.41-1.55.12-.05,4.64-2.31a.73.73,0,0,0,.4-.65,2.4,2.4,0,0,0-.78-1.75V12.21a.72.72,0,1,0-1.44,0V25h-.05a9.36,9.36,0,0,0-4.08,1.55H22.14l-2.05-1.64h3.34a.73.73,0,0,0,.73-.73V22.66a2.27,2.27,0,0,0-2.27-2.27h-7a.74.74,0,0,0-.51.21l-2.88,2.88H10.26v-.05a.72.72,0,0,0-.72-.72H6.4V4.86H15v5.45a.74.74,0,0,0,.95.69L18,10.3l2.09.7a.74.74,0,0,0,.95-.69V4.86h8.59V8.73a.72.72,0,1,0,1.44,0V4.13a.72.72,0,0,0-.72-.72H5.68A.73.73,0,0,0,5,4.13V22.71H1.05a.73.73,0,0,0-.73.72.73.73,0,0,0,.73.73H8.81v6.27H1.05a.73.73,0,0,0-.73.72.73.73,0,0,0,.73.73H9.54a.73.73,0,0,0,.72-.73v-.82h1.53Zm-1.38-27V9.3l-1.36-.45a.72.72,0,0,0-.46,0l-1.36.45V4.86ZM10.26,24.93h1.59a.74.74,0,0,0,.51-.21l2.88-2.88h6.65a.82.82,0,0,1,.82.82v.82H18a.74.74,0,0,0-.68.47.72.72,0,0,0,.23.82l3.86,3.09a.71.71,0,0,0,.45.16h3.86a.73.73,0,0,0,.4-.13,8.54,8.54,0,0,1,3.46-1.42.73.73,0,0,1,.73.42l-4.08,2-5.19,1.48L12,28.89H10.26Z"/><path d="M48.91,43.5H41.06L32,45,26.8,43.55l-4-2a.69.69,0,0,1,.67-.34,8.51,8.51,0,0,1,3.43,1.41.75.75,0,0,0,.43.13h3.86a.71.71,0,0,0,.32-.07l6.93-3.08a.77.77,0,0,0,.45-.87.76.76,0,0,0-.77-.61H34.24v-.77a.77.77,0,0,1,.77-.77h6.63l2.86,2.86a.78.78,0,0,0,.55.22h3.86a.77.77,0,0,0,0-1.54H45.37l-2.86-2.86A.78.78,0,0,0,42,35H35a2.31,2.31,0,0,0-2.31,2.32v1.54a.76.76,0,0,0,.77.77h1l-.26.12H32.15a9.33,9.33,0,0,0-4.09-1.54,2.21,2.21,0,0,0-2.29,2,6.21,6.21,0,0,0-2.34-.61A2.25,2.25,0,0,0,21.12,42a.77.77,0,0,0,.42.69L26.17,45l.14.05,5.4,1.54.21,0h.13l9.2-1.53h7.66a.78.78,0,0,0,0-1.55ZM27.4,40.11a.64.64,0,0,1,.66-.35,8,8,0,0,1,3.24,1.29l-.31.14H29.35a.79.79,0,0,0-.29-.25l-1.66-.83Z"/></svg>