<svg xmlns="http://www.w3.org/2000/svg" width="364.729" height="415.997" viewBox="0 0 364.729 415.997">
  <g id="department-store" transform="translate(-67.636 -42.001)">
    <path id="Path_327" data-name="Path 327" d="M250,59.678l35.184,60.97H214.815Zm-45.406,72.758H295.4a5.9,5.9,0,0,0,5.079-8.841l-45.4-78.653a5.911,5.911,0,0,0-10.221,0l-45.4,78.653a5.9,5.9,0,0,0,5.141,8.841ZM104,213.676a24.606,24.606,0,1,1,24.654-24.606A24.624,24.624,0,0,1,104,213.676Zm0-61a36.4,36.4,0,1,0,36.423,36.4A36.408,36.408,0,0,0,104,152.673Zm316.6,57.61H378.163V167.856h42.432Zm3.283-54.215h-49.06a8.455,8.455,0,0,0-8.425,8.471V213.6a8.457,8.457,0,0,0,8.425,8.471h49.06a8.468,8.468,0,0,0,8.486-8.471V164.539a8.466,8.466,0,0,0-8.486-8.471ZM226.585,269.3v6a5.916,5.916,0,0,1-11.832,0v-6a5.916,5.916,0,0,1,11.832,0Zm46.83,5.995v-6a5.916,5.916,0,0,1,11.831,0v6a5.916,5.916,0,0,1-11.831,0Zm-18.4-5.995v6a5.916,5.916,0,0,1-11.832,0v-6a5.916,5.916,0,0,1,11.832,0Zm84.43-80.228a5.906,5.906,0,0,1-5.885,5.894H285.246v48.321a5.916,5.916,0,0,1-11.831,0V189.07a5.905,5.905,0,0,1,5.884-5.9h54.264a5.906,5.906,0,0,1,5.885,5.9Zm-84.43,54.215a5.916,5.916,0,0,1-11.832,0v-80.43a5.916,5.916,0,0,1,11.832,0Zm-88.581-48.321a5.895,5.895,0,0,1,0-11.789h54.2a5.919,5.919,0,0,1,5.947,5.9v54.215a5.916,5.916,0,0,1-11.832,0V194.964ZM314.546,444.3a1.932,1.932,0,0,1-1.92,1.9H285.68v-12.96a35.68,35.68,0,0,0-71.36,0v12.96H187.374a1.932,1.932,0,0,1-1.92-1.9v-58.03a30.82,30.82,0,0,0,35.99-13.086c14.362,18.151,42.493,18.307,57.113,0a30.785,30.785,0,0,0,35.99,13.086V444.3Zm-40.7,1.9V433.25a23.879,23.879,0,0,0-47.759,0v12.96Zm-80.9-140.288h30.229l-8.053,45.27H178.392Zm128.659,45.271H284.875l-8.053-45.27h30.229Zm-94.466,0,7.991-45.27H264.8l8.052,45.27Zm44.105,11.791H228.753A24.747,24.747,0,0,0,271.247,362.984Zm-94.094,0a19,19,0,0,0,36.114,0Zm127.606,13.093a19.048,19.048,0,0,0,18.088-13.093H286.733A19.027,19.027,0,0,0,304.759,376.077Zm30.787-18.99a6.041,6.041,0,0,0-.248-1.81l-18.4-57.052a5.838,5.838,0,0,0-5.575-4.094H188.675a5.973,5.973,0,0,0-5.637,4.094L164.7,355.276l-.248,2.072a30.637,30.637,0,0,0,9.23,21.693V444.3A13.7,13.7,0,0,0,187.375,458H312.627a13.7,13.7,0,0,0,13.69-13.693V379.041a30.625,30.625,0,0,0,9.229-21.954Z" fill="#fff" fill-rule="evenodd"/>
  </g>
</svg>
