<svg id="Layer_1" data-name="Layer 1" xmlns="http://www.w3.org/2000/svg" viewBox="0 0 512 512"><defs><style>.cls-1{fill:#ea9d2d;}.cls-2{fill:#eaeae8;}.cls-3{fill:#fbb540;}.cls-4{fill:#e82f3e;}.cls-5{fill:#cbcbcb;}.cls-6{fill:#0bafea;}.cls-7{fill:#2cbff4;}.cls-8{fill:#c4f8ff;}</style></defs><g id="filled_outline" data-name="filled outline"><rect class="cls-1" x="49.52" y="66.04" width="330.37" height="429.48" rx="24.78"/><path class="cls-2" d="M82.55,99.08h264.3v363.4H82.55Z"/><path class="cls-3" d="M148.63,148.63H280.77V272.52H148.63Z"/><path class="cls-4" d="M198.18,148.63h33v33h-33Z"/><path class="cls-1" d="M247.74,223h-33a8.26,8.26,0,1,1,0-16.51h33a8.26,8.26,0,0,1,0,16.51Z"/><path class="cls-1" d="M231.22,247.74H214.7a8.26,8.26,0,1,1,0-16.52h16.52a8.26,8.26,0,0,1,0,16.52Z"/><path class="cls-5" d="M140.37,330.33H115.59a8.26,8.26,0,0,1,0-16.52h24.78a8.26,8.26,0,0,1,0,16.52Z"/><path class="cls-5" d="M198.18,363.37H115.59a8.26,8.26,0,0,1,0-16.52h82.59a8.26,8.26,0,0,1,0,16.52Z"/><path class="cls-5" d="M140.37,396.41H115.59a8.26,8.26,0,1,1,0-16.52h24.78a8.26,8.26,0,0,1,0,16.52Z"/><path class="cls-5" d="M198.18,396.41H173.4a8.26,8.26,0,1,1,0-16.52h24.78a8.26,8.26,0,0,1,0,16.52Z"/><path class="cls-5" d="M272.51,330.33H247.74a8.26,8.26,0,0,1,0-16.52h24.77a8.26,8.26,0,0,1,0,16.52Z"/><path class="cls-5" d="M289,363.37H247.74a8.26,8.26,0,0,1,0-16.52H289a8.26,8.26,0,1,1,0,16.52Z"/><path class="cls-6" d="M247.74,57.78V49.52a33,33,0,0,0-66.08,0v8.26h-33v33a24.77,24.77,0,0,0,24.77,24.77H256a24.77,24.77,0,0,0,24.78-24.77v-33Zm-33,2.07A10.33,10.33,0,1,1,225,49.52,10.33,10.33,0,0,1,214.7,59.85Z"/><circle class="cls-7" cx="371.62" cy="404.66" r="90.85"/><circle class="cls-8" cx="371.62" cy="363.37" r="16.52"/><path class="cls-8" d="M355.1,404.66h33v57.82h-33Z"/><path d="M355.1,57.78H289a8.26,8.26,0,0,0-8.26-8.26H256a41.3,41.3,0,0,0-82.59,0H148.63a8.26,8.26,0,0,0-8.26,8.26H74.29a33.07,33.07,0,0,0-33,33V470.74a33.07,33.07,0,0,0,33,33H371.62a99.11,99.11,0,0,0,16.52-196.83V90.82A33.08,33.08,0,0,0,355.1,57.78ZM289,74.3H355.1a16.54,16.54,0,0,1,16.52,16.52V305.55a100.55,100.55,0,0,0-16.52,1.39V99.08a8.25,8.25,0,0,0-8.25-8.26H289ZM156.89,66h24.77a8.26,8.26,0,0,0,8.26-8.26V49.52a24.78,24.78,0,1,1,49.56,0v8.26A8.26,8.26,0,0,0,247.74,66h24.77V90.82A16.54,16.54,0,0,1,256,107.34H173.4a16.54,16.54,0,0,1-16.51-16.52Zm-12.08,41.3a33.05,33.05,0,0,0,28.59,16.51H256a33,33,0,0,0,28.6-16.51h54V311.22A99.57,99.57,0,0,0,291,347.1a8.1,8.1,0,0,0-2-.25H247.74a8.26,8.26,0,0,0,0,16.52h33.8a99,99,0,0,0,4.28,90.85h-195V107.34ZM74.29,487.26a16.54,16.54,0,0,1-16.51-16.52V90.82A16.54,16.54,0,0,1,74.29,74.3h66.08V90.82H82.55a8.26,8.26,0,0,0-8.26,8.26v363.4a8.26,8.26,0,0,0,8.26,8.26H297.82a100,100,0,0,0,19.09,16.52Zm379.92-82.6a82.59,82.59,0,1,1-82.59-82.59A82.59,82.59,0,0,1,454.21,404.66Z"/><path d="M148.63,280.78H280.77a8.26,8.26,0,0,0,8.26-8.26V148.63a8.26,8.26,0,0,0-8.26-8.26H148.63a8.26,8.26,0,0,0-8.26,8.26V272.52A8.26,8.26,0,0,0,148.63,280.78Zm57.81-123.89H223v16.52H206.44Zm-49.55,0h33v24.78a8.26,8.26,0,0,0,8.26,8.26h33a8.26,8.26,0,0,0,8.26-8.26V156.89h33V264.26H156.89Z"/><path d="M247.74,206.45h-33a8.26,8.26,0,1,0,0,16.51h33a8.26,8.26,0,0,0,0-16.51Z"/><path d="M231.22,231.22H214.7a8.26,8.26,0,1,0,0,16.52h16.52a8.26,8.26,0,0,0,0-16.52Z"/><path d="M115.59,330.33h24.78a8.26,8.26,0,0,0,0-16.52H115.59a8.26,8.26,0,0,0,0,16.52Z"/><path d="M115.59,363.37h82.59a8.26,8.26,0,0,0,0-16.52H115.59a8.26,8.26,0,0,0,0,16.52Z"/><path d="M115.59,396.41h24.78a8.26,8.26,0,0,0,0-16.52H115.59a8.26,8.26,0,1,0,0,16.52Z"/><path d="M198.18,379.89H173.4a8.26,8.26,0,1,0,0,16.52h24.78a8.26,8.26,0,0,0,0-16.52Z"/><path d="M346.85,363.37a24.78,24.78,0,1,0,24.77-24.78A24.78,24.78,0,0,0,346.85,363.37Zm33,0a8.26,8.26,0,1,1-8.26-8.26A8.26,8.26,0,0,1,379.88,363.37Z"/><path d="M388.14,396.41h-33a8.25,8.25,0,0,0-8.25,8.25v57.82a8.25,8.25,0,0,0,8.25,8.26h33a8.26,8.26,0,0,0,8.26-8.26V404.66A8.25,8.25,0,0,0,388.14,396.41Zm-8.26,57.81H363.36v-41.3h16.52Z"/><path d="M272.51,313.81H247.74a8.26,8.26,0,0,0,0,16.52h24.77a8.26,8.26,0,0,0,0-16.52Z"/><circle cx="214.7" cy="49.52" r="10.32"/></g></svg>