<svg id="Layer_1" data-name="Layer 1" xmlns="http://www.w3.org/2000/svg" xmlns:xlink="http://www.w3.org/1999/xlink" viewBox="0 0 512 512"><defs><style>.cls-1,.cls-7{fill:none;}.cls-2{clip-path:url(#clip-path);}.cls-3{fill:#fff;}.cls-3,.cls-4,.cls-5,.cls-6{fill-rule:evenodd;}.cls-4{fill:#ffc144;}.cls-5{fill:#6d91ac;}.cls-6{fill:#cbe558;}.cls-7{stroke:#000;stroke-linecap:round;stroke-linejoin:round;stroke-width:18.9px;}</style><clipPath id="clip-path"><rect class="cls-1" x="14.03" y="14.03" width="483.94" height="483.94"/></clipPath></defs><g id="g3018"><g id="g3020"><g class="cls-2"><g id="g3022"><g id="g3028"><path id="path3030" class="cls-3" d="M70.74,155.81h89c7.21,0,13.17,4.87,15.69,11.17l18.22,45.54H373.2V32.93a9.48,9.48,0,0,0-9.45-9.45H80.19a9.49,9.49,0,0,0-9.45,9.45Z"/></g><g id="g3032"><path id="path3034" class="cls-4" d="M175.4,167c-2.52-6.3-8.49-11.17-15.69-11.17H32.93a9.49,9.49,0,0,0-9.45,9.45V439.37a19,19,0,0,0,18.91,18.9H353.07c-72.38-69.4-50.48-161.48-50.48-161.48,23.21,0,74.12-18,91.41-35.12,5.8,5.74,15.4,11.58,26.46,16.81V231.43a19,19,0,0,0-18.9-18.91H193.62Z"/></g><g id="g3036"><path id="path3038" class="cls-5" d="M345.32,360.31a18.9,18.9,0,0,1,26.73,0l11.12,11.12,32.77-32.77a18.9,18.9,0,1,1,26.73,26.73l-46.13,46.14a18.9,18.9,0,0,1-26.73,0L345.32,387a18.9,18.9,0,0,1,0-26.73M394,261.67c-17.29,17.09-68.2,35.12-91.41,35.12,0,0-21.9,92.08,50.48,161.48A207.1,207.1,0,0,0,394,488.52c120.63-68.87,91.4-191.73,91.4-191.73-15.41,0-43-8-64.94-18.3-11.06-5.24-20.66-11.08-26.46-16.82"/></g><g id="g3040"><path id="path3042" class="cls-6" d="M383.17,371.43l-11.12-11.12A18.9,18.9,0,0,0,345.32,387l24.49,24.49a18.9,18.9,0,0,0,26.73,0l46.13-46.14a18.9,18.9,0,1,0-26.73-26.73Z"/></g><g id="g3044"><path id="path3046" class="cls-7" d="M352.09,458.27H42.39a19,19,0,0,1-18.91-18.9V165.26a9.49,9.49,0,0,1,9.45-9.45H159.71c7.2,0,13.17,4.87,15.69,11.17l18.22,45.55H401.56a19,19,0,0,1,18.9,18.9v45.75"/></g><g id="g3048"><path id="path3050" class="cls-7" d="M70.74,146.36V32.93a9.49,9.49,0,0,1,9.45-9.45H363.75a9.48,9.48,0,0,1,9.45,9.45V203.07"/></g><g id="g3052"><path id="path3054" class="cls-7" d="M394,488.52c120.63-68.87,91.4-191.73,91.4-191.73-23.2,0-74.12-18-91.4-35.12-17.29,17.09-68.2,35.12-91.41,35.12C302.59,296.79,273.37,419.65,394,488.52Z"/></g><g id="g3056"><path id="path3058" class="cls-7" d="M114.69,61.29H329.25"/></g><g id="g3060"><path id="path3062" class="cls-7" d="M114.69,99.1H329.25"/></g><g id="g3064"><path id="path3066" class="cls-7" d="M222,136.91H329.25"/></g><g id="g3068"><path id="path3070" class="cls-7" d="M273.48,174.71h55.77"/></g><g id="g3072"><path id="path3074" class="cls-7" d="M345.32,387a18.9,18.9,0,0,1,26.73-26.73l11.12,11.12,32.77-32.77a18.9,18.9,0,1,1,26.73,26.73l-46.13,46.14a18.9,18.9,0,0,1-26.73,0Z"/></g><g id="g3076"><path id="path3078" class="cls-7" d="M82.08,420.46h-52m94.52,0h0"/></g></g></g></g></g></svg>