<svg id="Layer_1" data-name="Layer 1" xmlns="http://www.w3.org/2000/svg" viewBox="0 0 512 512"><defs><style>.cls-1{opacity:0.2;}</style></defs><g class="cls-1"><path d="M331.05,271l148.57,86.65L416.19,375.8l45.34,78.53-36.95,21.33-45.34-78.51L331.82,443ZM288.38,121.67h42.67v42.67H437.72a21.34,21.34,0,0,1,21.33,21.33V271H416.38V207H203.05V420.34h85.33V463H181.72a21.34,21.34,0,0,1-21.34-21.34V335H117.72V292.34h42.66V185.67a21.34,21.34,0,0,1,21.34-21.33H288.38ZM75.05,292.34V335H32.38V292.34Zm0-85.33v42.66H32.38V207Zm0-85.34v42.67H32.38V121.67Zm0-85.33V79H32.38V36.34Zm85.33,0V79H117.72V36.34Zm85.34,0V79H203.05V36.34Zm85.33,0V79H288.38V36.34Z"/></g></svg>