<svg id="Layer_1" data-name="Layer 1" xmlns="http://www.w3.org/2000/svg" viewBox="0 0 512 512"><defs><style>.cls-1{opacity:0.2;}</style></defs><g class="cls-1"><path d="M471.82,80.14H40.18a24,24,0,0,0-24,24V407.88a24,24,0,0,0,24,24H471.82a24,24,0,0,0,24-24V289.33h0V104.12A24,24,0,0,0,471.82,80.14ZM40.18,415.87a8,8,0,0,1-8-8V308.71l74.35-74.35a7.94,7.94,0,0,1,11.21,0l79,78.93L94.18,415.87Zm439.64-8a8,8,0,0,1-8,8h-355L354.33,178.4a8,8,0,0,1,11.21,0L479.82,292.65V407.88Zm0-137.84L376.87,167.17C367.81,158,352,158,343,167.13L208.05,302l-79-78.91c-9.07-9.17-24.89-9.13-33.89,0l-63,63v-182a8,8,0,0,1,8-8H471.82a8,8,0,0,1,8,8V270Z"/><path d="M216,136.1a48,48,0,1,0,48,48A48,48,0,0,0,216,136.1ZM216,216a32,32,0,1,1,32-32A32,32,0,0,1,216,216Z"/></g></svg>