<svg id="Layer_1" data-name="Layer 1" xmlns="http://www.w3.org/2000/svg" viewBox="0 0 512 512"><defs><style>.cls-1{opacity:0.2;}</style></defs><g class="cls-1"><path d="M360.37,466.57a38.29,38.29,0,0,1-9.76-1.26L54.61,386a38.63,38.63,0,0,1-27.07-46.9L64.89,199.93a9.57,9.57,0,1,1,18.49,4.94L46.05,344a19.42,19.42,0,0,0,13.59,23.52L355.53,446.8a19.06,19.06,0,0,0,23.3-13.48l14.95-55.4a9.57,9.57,0,1,1,18.49,5l-14.93,55.32a38.23,38.23,0,0,1-37,28.35Z"/><path d="M447.42,351.71H141.13a38.32,38.32,0,0,1-38.28-38.28V83.71a38.32,38.32,0,0,1,38.28-38.28H447.42A38.32,38.32,0,0,1,485.7,83.71V313.43A38.32,38.32,0,0,1,447.42,351.71ZM141.13,64.57A19.17,19.17,0,0,0,122,83.71V313.43a19.17,19.17,0,0,0,19.14,19.14H447.42a19.17,19.17,0,0,0,19.14-19.14V83.71a19.18,19.18,0,0,0-19.14-19.14Z"/><path d="M198.56,179.43a38.29,38.29,0,1,1,38.29-38.29A38.33,38.33,0,0,1,198.56,179.43Zm0-57.43a19.15,19.15,0,1,0,19.14,19.14A19.17,19.17,0,0,0,198.56,122Z"/><path d="M113.76,331.23A9.56,9.56,0,0,1,107,314.9l90.41-90.41c10.84-10.83,29.77-10.83,40.6,0l26.92,26.92,74.5-89.4a28.77,28.77,0,0,1,21.86-10.34h.21a28.72,28.72,0,0,1,21.81,10L483.41,278.49A9.57,9.57,0,1,1,468.88,291L368.76,174.15a9.46,9.46,0,0,0-7.28-3.34,10.18,10.18,0,0,0-7.35,3.45l-81.22,97.46a9.53,9.53,0,0,1-6.93,3.42,9.24,9.24,0,0,1-7.2-2.79L224.46,238a9.84,9.84,0,0,0-13.53,0l-90.42,90.42a9.53,9.53,0,0,1-6.75,2.79Z"/></g></svg>