<svg xmlns="http://www.w3.org/2000/svg" width="23.25" height="23.25" viewBox="0 0 23.25 23.25">
  <path id="error_FILL1_wght200_GRAD0_opsz48" d="M17.657,19.207a.538.538,0,0,0,.371-.129.451.451,0,0,0,.145-.355V11.748a.465.465,0,0,0-.145-.339.5.5,0,0,0-.371-.145.465.465,0,0,0-.339.145.5.5,0,0,0-.145.371v6.975a.414.414,0,0,0,.145.323A.494.494,0,0,0,17.657,19.207Zm-.032,4.166a.618.618,0,1,0-.5-.178A.677.677,0,0,0,17.625,23.373Zm0,5.877A11.533,11.533,0,0,1,6,17.625,11.533,11.533,0,0,1,17.625,6,11.533,11.533,0,0,1,29.25,17.625,11.533,11.533,0,0,1,17.625,29.25Z" transform="translate(-6 -6)" fill="#3096ff"/>
</svg>
