<svg id="Layer_1" data-name="Layer 1" xmlns="http://www.w3.org/2000/svg" viewBox="0 0 48 48"><defs><style>.cls-1{fill:#ee4f63;}</style></defs><path class="cls-1" d="M24.18,26.75A1.68,1.68,0,0,0,25.93,25V13.63a1.58,1.58,0,0,0-.52-1.2,1.78,1.78,0,0,0-1.23-.5,1.71,1.71,0,0,0-1.26.5,1.67,1.67,0,0,0-.5,1.26V25.05A1.59,1.59,0,0,0,23,26.26,1.73,1.73,0,0,0,24.18,26.75Zm-.18,9a1.88,1.88,0,0,0,1.93-1.93,1.93,1.93,0,1,0-3.86,0A1.88,1.88,0,0,0,24,35.71Zm0,11.72a23.76,23.76,0,0,1-9.25-1.79A22.68,22.68,0,0,1,2.36,33.25,23.76,23.76,0,0,1,.57,24a23.65,23.65,0,0,1,1.79-9.2A22.71,22.71,0,0,1,7.31,7.37,23.38,23.38,0,0,1,24,.57,23.25,23.25,0,0,1,47.43,24a23.38,23.38,0,0,1-6.8,16.69,22.71,22.71,0,0,1-7.43,5A23.65,23.65,0,0,1,24,47.43Z"/></svg>