<svg id="Layer_1" data-name="Layer 1" xmlns="http://www.w3.org/2000/svg" viewBox="0 0 50 50"><defs><style>.cls-1{fill:#f4f6fd;}.cls-2{fill:#e6ebfa;}.cls-3{fill:#dae1f2;}.cls-4{fill:#ffe36b;}.cls-5{fill:#f5708f;}.cls-6{fill:#666e92;}</style></defs><path class="cls-1" d="M14.29,2.05H41.83v15.3H14.29Z"/><path class="cls-2" d="M15.82,3.58h26V17.35h-26Z"/><path class="cls-2" d="M35.71,32.65H8.17l6.12-15.3H41.83Z"/><path class="cls-3" d="M15.82,17.35,9.7,32.65h26l6.12-15.3Z"/><path class="cls-1" d="M8.17,32.65H35.71V48H8.17Z"/><path class="cls-2" d="M9.7,32.65h26V48H9.7Z"/><path class="cls-4" d="M18.12,11.61A1.91,1.91,0,0,1,20,9.7h2.68v3.83H20A1.91,1.91,0,0,1,18.12,11.61Z"/><path class="cls-5" d="M22.71,13.53V9.7h2.67a1.92,1.92,0,0,1,0,3.83Z"/><path class="cls-6" d="M38,10.47H31.12a.78.78,0,0,1-.77-.77.77.77,0,0,1,.77-.76H38a.76.76,0,0,1,.77.76A.77.77,0,0,1,38,10.47Z"/><path class="cls-6" d="M38,14.29H31.12a.77.77,0,1,1,0-1.53H38a.77.77,0,1,1,0,1.53Z"/><path class="cls-6" d="M38,6.64H18.12a.76.76,0,0,1-.77-.76.77.77,0,0,1,.77-.77H38a.77.77,0,0,1,.77.77A.76.76,0,0,1,38,6.64Z"/><path class="cls-6" d="M19.65,37.24H12.76a.77.77,0,0,1,0-1.53h6.89a.77.77,0,0,1,0,1.53Z"/><path class="cls-6" d="M17.35,41.06H12.76A.76.76,0,0,1,12,40.3a.77.77,0,0,1,.76-.77h4.59a.78.78,0,0,1,.77.77A.77.77,0,0,1,17.35,41.06Z"/><path class="cls-6" d="M31.88,37.24H22.71a.77.77,0,1,1,0-1.53h9.17a.77.77,0,1,1,0,1.53Z"/><path class="cls-6" d="M31.88,41.06H20.41a.76.76,0,0,1-.76-.76.77.77,0,0,1,.76-.77H31.88a.77.77,0,0,1,.77.77A.76.76,0,0,1,31.88,41.06Z"/><path class="cls-6" d="M31.88,44.89H26.53a.78.78,0,0,1-.77-.77.77.77,0,0,1,.77-.76h5.35a.76.76,0,0,1,.77.76A.77.77,0,0,1,31.88,44.89Z"/><path class="cls-6" d="M24.24,21.94H17.35a.77.77,0,0,1,0-1.53h6.89a.77.77,0,0,1,0,1.53Z"/><path class="cls-6" d="M28.06,25.76H15.82a.76.76,0,1,1,0-1.52H28.06a.76.76,0,0,1,0,1.52Z"/><path class="cls-6" d="M35.71,21.94H27.29a.77.77,0,0,1,0-1.53h8.42a.77.77,0,0,1,0,1.53Z"/><path class="cls-6" d="M34.18,25.76H31.12a.76.76,0,1,1,0-1.52h3.06a.76.76,0,1,1,0,1.52Z"/><path class="cls-6" d="M19.65,29.59H14.29a.77.77,0,0,1,0-1.53h5.36a.77.77,0,0,1,0,1.53Z"/><path class="cls-6" d="M32.65,29.59H22.71a.77.77,0,1,1,0-1.53h9.94a.77.77,0,0,1,0,1.53Z"/></svg>