<svg id="Layer_1" data-name="Layer 1" xmlns="http://www.w3.org/2000/svg" viewBox="0 0 512 512"><defs><style>.cls-1{fill:#607882;}.cls-2{fill:#f1f6f7;}.cls-3{fill:#ffe17d;}.cls-4{fill:#ffd164;}.cls-5{fill:#526970;}.cls-6{fill:#d2e4e7;}.cls-7{fill:#e2ae83;}.cls-8{fill:#f27a55;}</style></defs><path class="cls-1" d="M37.89,45.55h330.7v451H37.89Z"/><path class="cls-2" d="M68.43,75.61h270.1V466.45H68.43Z"/><path class="cls-3" d="M421.36,481.46a15,15,0,0,1-15-15V436.37h30.07v30.06A15,15,0,0,1,421.36,481.46Z"/><path class="cls-4" d="M420.84,466.43V436.37H406.32v30.06a15,15,0,0,0,22.29,13.16A15,15,0,0,1,420.84,466.43Z"/><path class="cls-3" d="M398.66,165.79h45.39V338.51H398.66Z"/><path class="cls-4" d="M398.66,165.79H418V338.51H398.66Z"/><path class="cls-1" d="M436.39,165.79H406.32v-15a15,15,0,1,1,30.07,0Z"/><path class="cls-5" d="M428.61,137.59a15,15,0,0,0-22.29,13.17v15h14.52v-15a15,15,0,0,1,7.77-13.17Z"/><path class="cls-1" d="M398.66,338.51h45.39v97.86H398.66Z"/><path class="cls-5" d="M398.66,338.51H418v97.86H398.66Z"/><path class="cls-5" d="M37.89,45.55H57.24v451H37.89Z"/><path class="cls-6" d="M68.43,75.61H87.79V466.45H68.43Z"/><path class="cls-7" d="M158.14,135.72h90.19v90.2H158.14Z"/><path class="cls-8" d="M188.21,135.72h30.06v30.07H188.21Z"/><circle class="cls-8" cx="128.08" cy="301.1" r="15.03"/><circle class="cls-8" cx="128.08" cy="361.22" r="15.03"/><circle class="cls-8" cx="128.08" cy="421.35" r="15.03"/><path class="cls-3" d="M248.33,45.55a30.06,30.06,0,0,0-30.06-30.06H188.21a30.06,30.06,0,0,0-30.07,30.06,30.06,30.06,0,0,0-30.06,30.06v15H278.4v-15A30.06,30.06,0,0,0,248.33,45.55Z"/><path class="cls-4" d="M177.5,45.55a30.06,30.06,0,0,1,30.06-30.06H188.21a30.06,30.06,0,0,0-30.07,30.06,30.06,30.06,0,0,0-30.06,30.06v15h19.36v-15A30.06,30.06,0,0,1,177.5,45.55Z"/><path d="M203.24,52.8a7.26,7.26,0,1,1,7.26-7.25A7.26,7.26,0,0,1,203.24,52.8Z"/><path d="M368.59,38.29H254.88A37.37,37.37,0,0,0,218.27,8.23H188.21a37.39,37.39,0,0,0-36.62,30.06H37.88a7.26,7.26,0,0,0-7.26,7.26V210.09a7.26,7.26,0,0,0,14.52,0V52.81h83.45a37,37,0,0,0-7.07,15.55H68.43a7.26,7.26,0,0,0-7.26,7.26V466.44a7.26,7.26,0,0,0,7.26,7.26h270.1a7.26,7.26,0,0,0,7.26-7.26V75.62a7.26,7.26,0,0,0-7.26-7.26H285a37.16,37.16,0,0,0-7.09-15.55h83.47V489.26H45.14V241.73a7.26,7.26,0,1,0-14.52,0V496.52a7.26,7.26,0,0,0,7.26,7.25H368.59a7.26,7.26,0,0,0,7.26-7.25v-451A7.26,7.26,0,0,0,368.59,38.29Zm-97.45,45.1H219.06a7.26,7.26,0,1,0,0,14.52H278.4a7.26,7.26,0,0,0,7.26-7.26V82.88h45.61v376.3H75.69V82.88h45.13v7.77a7.26,7.26,0,0,0,7.26,7.26h59.34a7.26,7.26,0,1,0,0-14.52H135.34c-.41-17.41,5.55-30.58,22.8-30.58a7.26,7.26,0,0,0,7.26-7.26,22.83,22.83,0,0,1,22.81-22.81h30.06a22.83,22.83,0,0,1,22.81,22.81c0,4,3.27,6.81,7.25,7.26C265.27,54.68,271.4,65.65,271.14,83.39Z"/><path d="M158.14,128.46a7.26,7.26,0,0,0-7.26,7.26v90.2a7.26,7.26,0,0,0,7.26,7.25h90.19a7.26,7.26,0,0,0,7.26-7.25v-90.2a7.26,7.26,0,0,0-7.26-7.26Zm82.94,90.2H165.4V143H181v22.81a7.26,7.26,0,0,0,7.26,7.26h30.06a7.26,7.26,0,0,0,7.26-7.26V143h15.54v75.68ZM211,143v15.55H195.47V143Z"/><path d="M128.08,278.8a22.3,22.3,0,1,0,22.29,22.3A22.32,22.32,0,0,0,128.08,278.8Zm0,30.07a7.78,7.78,0,1,1,7.77-7.77A7.79,7.79,0,0,1,128.08,308.87Z"/><path d="M128.08,338.93a22.3,22.3,0,1,0,22.29,22.29A22.32,22.32,0,0,0,128.08,338.93Zm0,30.07a7.78,7.78,0,1,1,7.77-7.78A7.79,7.79,0,0,1,128.08,369Z"/><path d="M128.08,399.06a22.29,22.29,0,1,0,22.29,22.29A22.32,22.32,0,0,0,128.08,399.06Zm0,30.07a7.78,7.78,0,1,1,7.77-7.78A7.79,7.79,0,0,1,128.08,429.13Z"/><path d="M165.91,301.1a7.26,7.26,0,0,0,7.26,7.25H293.43a7.26,7.26,0,1,0,0-14.51H173.17a7.26,7.26,0,0,0-7.26,7.26Z"/><path d="M293.43,354H173.17a7.26,7.26,0,1,0,0,14.51H293.43a7.26,7.26,0,1,0,0-14.51Z"/><path d="M293.43,414.09H173.17a7.26,7.26,0,1,0,0,14.52H293.43a7.26,7.26,0,0,0,0-14.52Z"/><path d="M459.6,203.62h-8.29V165.79a7.26,7.26,0,0,0-7.26-7.26h-.4v-7.77a22.3,22.3,0,0,0-44.59,0v7.77h-.4a7.26,7.26,0,0,0-7.26,7.26v89.49a7.26,7.26,0,1,0,14.51,0V218.14h30.88V331.25H405.91V286.91a7.26,7.26,0,1,0-14.51,0V436.37a7.26,7.26,0,0,0,7.26,7.25h.4v22.81a22.34,22.34,0,0,0,15,21.08v9a7.26,7.26,0,1,0,14.51,0v-9a22.34,22.34,0,0,0,15-21.08V443.62h.4a7.26,7.26,0,0,0,7.26-7.25V218.14h8.29a7.27,7.27,0,0,1,7.26,7.26v75.68a7.26,7.26,0,1,0,14.52,0V225.4A21.8,21.8,0,0,0,459.6,203.62ZM436.8,429.11H405.91V345.77H436.8Zm-7.67,37.32a7.78,7.78,0,0,1-15.55,0v-22.8h15.55ZM413.58,150.76a7.78,7.78,0,1,1,15.55,0v7.77H413.58Zm-7.67,52.86V173h30.88v30.58Z"/></svg>