<svg id="Layer_1" data-name="Layer 1" xmlns="http://www.w3.org/2000/svg" viewBox="0 0 512 512"><defs><style>.cls-1{fill:#999;}</style></defs><g id="Page-1"><g id="_002---Pen-and-Paper" data-name="002---Pen-and-Paper"><path id="Shape" class="cls-1" d="M39.64,496.43H352.2a24,24,0,0,0,24-24V344.16a8,8,0,1,0-16,0V472.39a8,8,0,0,1-8,8H39.64a8,8,0,0,1-8-8V143.8h80.14a32.06,32.06,0,0,0,32.06-32.06V31.6H352.2a8,8,0,0,1,8,8V167.84a8,8,0,1,0,16,0V39.61a24,24,0,0,0-24-24H142.46a23.88,23.88,0,0,0-17,7.05L22.65,125.42a23.88,23.88,0,0,0-7,17v330A24,24,0,0,0,39.64,496.43ZM127.8,42.93v68.81a16,16,0,0,1-16,16H43Z"/><path id="Shape-2" data-name="Shape" class="cls-1" d="M63.69,183.87a8,8,0,0,0,8,8H320.14a8,8,0,1,0,0-16H71.7A8,8,0,0,0,63.69,183.87Z"/><path id="Shape-3" data-name="Shape" class="cls-1" d="M71.7,232H262.2a8,8,0,1,0,0-16H71.7a8,8,0,0,0,0,16Z"/><path id="Shape-4" data-name="Shape" class="cls-1" d="M71.7,272H204.18a8,8,0,0,0,0-16H71.7a8,8,0,0,0,0,16Z"/><path id="Shape-5" data-name="Shape" class="cls-1" d="M71.7,344.16H132a8,8,0,0,0,0-16H71.7a8,8,0,0,0,0,16Z"/><path id="Shape-6" data-name="Shape" class="cls-1" d="M71.7,384.23h32.94a8,8,0,1,0,0-16H71.7a8,8,0,0,0,0,16Z"/><path id="Shape-7" data-name="Shape" class="cls-1" d="M348.84,212.72l-157,108.57a16,16,0,0,0-4.13,4.16l-50.32,73.78a16.1,16.1,0,0,0-2.81,9H71.7a8,8,0,0,0,0,16h78.9a16.47,16.47,0,0,0,3.84-.46l86.76-21a16,16,0,0,0,5.37-2.4L403.49,291.84l33-22.79,46.14-31.91a32.09,32.09,0,0,0,8.13-44.6l-18.24-26.36a32.05,32.05,0,0,0-44.6-8.14L381.74,190Zm35.48-5.05,36.47,52.74L401,274.1l-36.47-52.74Zm3.51,75.53-145,100.3-36.48-52.73L351.4,230.48ZM195.24,342.87l32.32,46.73-33.39,8.09-18.28-26.42Zm-29,42.57,11.28,16.32-26.83,6.51ZM437.05,171.22a16,16,0,0,1,22.3,4.07l18.24,26.37a16,16,0,0,1-4.08,22.28L434,251.3l-36.48-52.73Z"/><path id="Shape-8" data-name="Shape" class="cls-1" d="M320.14,408.27v32.06H288.09a8,8,0,1,0,0,16h40.07a8,8,0,0,0,8-8V408.27a8,8,0,0,0-16,0Z"/><path id="Shape-9" data-name="Shape" class="cls-1" d="M328.16,55.64H264a8,8,0,0,0,0,16h64.12a8,8,0,0,0,0-16Z"/><path id="Shape-10" data-name="Shape" class="cls-1" d="M328.16,87.7H288.09a8,8,0,1,0,0,16h40.07a8,8,0,0,0,0-16Z"/></g></g></svg>