<svg id="Layer_1" data-name="Layer 1" xmlns="http://www.w3.org/2000/svg" viewBox="0 0 512 512"><defs><style>.cls-1{fill:#fff;}</style></defs><path class="cls-1" d="M338.6,67.55H269.21a1.85,1.85,0,0,1-1.36-.6L242.68,39.41A44.48,44.48,0,0,0,209.92,25H127A44.41,44.41,0,0,0,82.6,69.34V286.16A44.42,44.42,0,0,0,127,330.54h257a44.43,44.43,0,0,0,44.38-44.38V156.43a44.43,44.43,0,0,0-44.38-44.38h-1v-.13A44.44,44.44,0,0,0,338.6,67.55ZM160.44,286.16a29.61,29.61,0,0,1-29.58,29.57H127A29.6,29.6,0,0,1,97.4,286.16V69.34A29.61,29.61,0,0,1,127,39.77h82.95a29.67,29.67,0,0,1,21.83,9.62l25.17,27.55a16.71,16.71,0,0,0,12.29,5.42H338.6a29.61,29.61,0,0,1,29.58,29.56v.13H204.81a44.43,44.43,0,0,0-44.37,44.38Zm223.5-159.31a29.61,29.61,0,0,1,29.57,29.58V286.16a29.6,29.6,0,0,1-29.57,29.57h-220a44.16,44.16,0,0,0,11.32-29.57V156.43a29.61,29.61,0,0,1,29.57-29.58ZM261.17,407.57V350.11a7.41,7.41,0,0,0-14.81,0v58.12a39.11,39.11,0,1,0,14.81-.66Zm-5.71,63a24.32,24.32,0,1,1,24.32-24.32,24.32,24.32,0,0,1-24.32,24.32ZM465,379.66a39.17,39.17,0,0,0-38.78,33.95H384.3a34.93,34.93,0,0,1-34.9-34.89V350.11a7.4,7.4,0,1,0-14.8,0v28.61a49.76,49.76,0,0,0,49.7,49.7h42.76A39.12,39.12,0,1,0,465,379.66Zm0,63.44a24.32,24.32,0,1,1,24.32-24.32A24.31,24.31,0,0,1,465,443.1ZM168.91,342.71a7.4,7.4,0,0,0-7.4,7.4v28.61a34.93,34.93,0,0,1-34.89,34.89H84.7a39.09,39.09,0,1,0-.85,14.81h42.77a49.75,49.75,0,0,0,49.69-49.7V350.11a7.4,7.4,0,0,0-7.4-7.4ZM45.93,443.1a24.32,24.32,0,1,1,24.32-24.32A24.31,24.31,0,0,1,45.93,443.1Z"/></svg>