<svg xmlns="http://www.w3.org/2000/svg" width="16.419" height="16.483" viewBox="0 0 16.419 16.483">
  <g id="Group_5652" data-name="Group 5652" transform="translate(-1 -0.001)">
    <g id="Group_5651" data-name="Group 5651" transform="translate(1 0.001)">
      <path id="Path_2656" data-name="Path 2656" d="M17.089,8.429,13.556,7.251V1.772a.483.483,0,0,0-.33-.458L9.362.026a.484.484,0,0,0-.305,0L5.194,1.314a.483.483,0,0,0-.33.458V7.251L1.33,8.429A.483.483,0,0,0,1,8.887v5.827a.483.483,0,0,0,.33.458L5.194,16.46a.483.483,0,0,0,.305,0L9.21,15.223,12.92,16.46a.483.483,0,0,0,.305,0l3.863-1.288a.483.483,0,0,0,.33-.458V8.887a.483.483,0,0,0-.33-.458ZM13.073,9.666l-2.336-.779,2.336-.779,2.336.779ZM5.346,8.108l2.336.779-2.336.779L3.01,8.887Zm3.38-4.7V8.217l-2.9-.966V2.442ZM12.59,7.251l-2.9.966V3.408l2.9-.966ZM5.829,10.523l2.9-.966v4.809l-2.9.966ZM9.21.993l2.336.779L9.21,2.551,6.873,1.772ZM1.966,9.557l2.9.966v4.809l-2.9-.966Zm7.727,0,2.9.966v4.809l-2.9-.966Zm3.863,5.775V10.523l2.9-.966v4.809Z" transform="translate(-1 -0.001)" fill="#e1e1e1"/>
    </g>
  </g>
</svg>
