<svg id="Layer_1" data-name="Layer 1" xmlns="http://www.w3.org/2000/svg" viewBox="0 0 50 50"><defs><style>.cls-1{fill:#e6f9ff;}.cls-2{fill:#ccefff;}.cls-3{fill:#48cc4e;}.cls-4{fill:#0c61c6;}.cls-5{fill:#0a4eaf;}</style></defs><polygon class="cls-1" points="29.16 36.29 3.38 36.29 3.38 6.77 47.82 6.77 47.82 34.98 29.16 36.29"/><polygon class="cls-2" points="25.6 6.77 25.6 36.29 29.16 36.29 47.82 34.98 47.82 6.77 25.6 6.77"/><path class="cls-3" d="M37.84,45a10,10,0,1,1,10-10A10,10,0,0,1,37.84,45Z"/><circle class="cls-1" cx="37.84" cy="31.08" r="1.74"/><rect class="cls-1" x="36.54" y="34.55" width="2.6" height="6.08"/><rect class="cls-4" x="9.45" y="12.85" width="2.6" height="17.36"/><rect class="cls-4" x="14.66" y="12.85" width="2.6" height="12.15"/><rect class="cls-4" x="19.87" y="12.85" width="5.21" height="12.15"/><rect class="cls-5" x="27.68" y="12.85" width="2.6" height="12.15"/><rect class="cls-5" x="33.93" y="12.85" width="2.6" height="12.15"/><rect class="cls-5" x="39.14" y="12.85" width="2.6" height="12.15"/><rect class="cls-4" x="14.66" y="27.61" width="5.21" height="2.6"/><rect class="cls-4" x="22.47" y="27.61" width="4.34" height="2.6"/><rect class="cls-5" x="25.6" y="27.61" width="1.22" height="2.6"/></svg>