<svg id="Layer_1" data-name="Layer 1" xmlns="http://www.w3.org/2000/svg" viewBox="0 0 512 512"><defs><style>.cls-1{fill:none;stroke:#999;stroke-linecap:round;stroke-linejoin:round;stroke-width:13.84px;}</style></defs><g id="g6525"><g id="g6527"><g id="g6529"><g id="g6535"><path id="path6537" class="cls-1" d="M221.46,128.13V156.2a2,2,0,0,1-2,2H174.21a2,2,0,0,0-1.42,3.44l82.5,82.71a2,2,0,0,0,2.84,0l82.5-82.71a2,2,0,0,0-1.42-3.44H294a2,2,0,0,1-2-2v-133a2,2,0,0,0-2-2H223.47a2,2,0,0,0-2,2V95.8"/></g><g id="g6539"><path id="path6541" class="cls-1" d="M92.7,298H75V477.7a2.48,2.48,0,0,0,2.48,2.48H256.71V298H124.94"/></g><g id="g6543"><path id="path6545" class="cls-1" d="M438.39,382.77V477.7a2.47,2.47,0,0,1-2.47,2.48H256.71"/></g><g id="g6547"><path id="path6549" class="cls-1" d="M256.71,298H438.39v52.42"/></g><g id="g6551"><path id="path6553" class="cls-1" d="M177,422.76h50a2.07,2.07,0,0,1,2.06,2.07v25.58a2.07,2.07,0,0,1-2.06,2.07H177a2.07,2.07,0,0,1-2.06-2.07V424.83A2.07,2.07,0,0,1,177,422.76Z"/></g><g id="g6555"><path id="path6557" class="cls-1" d="M407.44,452.48H390.35a3.34,3.34,0,0,1-3.32-3.34V432a3.33,3.33,0,0,1,3.32-3.33h17.09a3.33,3.33,0,0,1,3.32,3.33v17.12A3.34,3.34,0,0,1,407.44,452.48Z"/></g><g id="g6559"><path id="path6561" class="cls-1" d="M360.68,452.48H343.59a3.34,3.34,0,0,1-3.32-3.34V432a3.33,3.33,0,0,1,3.32-3.33h17.09A3.33,3.33,0,0,1,364,432v17.12A3.34,3.34,0,0,1,360.68,452.48Z"/></g><g id="g6563"><path id="path6565" class="cls-1" d="M75,298l-30.2-45.48a5.26,5.26,0,0,1,4.37-8.18H218.27a5.23,5.23,0,0,1,4.37,2.35L256.71,298"/></g><g id="g6567"><path id="path6569" class="cls-1" d="M438.39,298l30.2-45.48a5.27,5.27,0,0,0-4.38-8.18H295.15a5.23,5.23,0,0,0-4.37,2.35L256.71,298"/></g></g></g></g></svg>