<svg id="Layer_1" data-name="Layer 1" xmlns="http://www.w3.org/2000/svg" viewBox="0 0 512 512"><defs><style>.cls-1{fill:#ccd3eb;}.cls-2{fill:#96a1c3;}.cls-3{fill:#647499;}.cls-4{fill:#0074ff;}.cls-5{fill:#f5f7ff;}.cls-6{fill:#033c59;}</style></defs><g id="Box_In" data-name="Box In"><path class="cls-1" d="M428.39,204.51V409.93L267,483.29l-161.4-73.36V204.51Z"/><path class="cls-2" d="M105.59,380.58v29.35L267,483.29l161.4-73.36V380.58L267,453.94Z"/><path class="cls-2" d="M230.31,329.23,68.91,255.86l36.68-51.35L267,277.87Z"/><path class="cls-2" d="M303.67,329.23l161.41-73.37-36.69-51.35L267,277.87Z"/><path class="cls-3" d="M428.39,204.51,267,277.87l-161.4-73.36L267,131.14Z"/><path class="cls-4" d="M193.63,145.81h36.68V28.43h73.36V145.81h36.69l-73.37,88Z"/><path class="cls-4" d="M443.07,43.1V72.45a14.67,14.67,0,0,1-14.68,14.67h-66l-22,14.68V43.1A14.67,14.67,0,0,1,355,28.43h73.36A14.67,14.67,0,0,1,443.07,43.1Z"/><path class="cls-5" d="M406.38,50.44a7.34,7.34,0,1,0,7.34,7.34A7.34,7.34,0,0,0,406.38,50.44Z"/><path class="cls-5" d="M377,50.44a7.34,7.34,0,1,0,7.33,7.34A7.34,7.34,0,0,0,377,50.44Z"/><path class="cls-5" d="M347.69,380.58v36.68a7.34,7.34,0,0,1-4,6.53c-47.32,23.77-44.9,22.82-47.32,22.82a7.34,7.34,0,0,1-7.34-7.34V402.59a7.34,7.34,0,0,1,4-6.53l44-22a7.33,7.33,0,0,1,10.64,6.53Z"/><circle class="cls-4" cx="105.59" cy="424.6" r="58.69"/><path class="cls-6" d="M344.68,439.93l-16.14,7.34a7.34,7.34,0,0,0,5.2,13.72,6.66,6.66,0,0,0,.82-.37l16.14-7.34a7.34,7.34,0,0,0-6-13.35Z"/><path class="cls-6" d="M471,251.61c-39.84-55.83-37-52.61-39.62-53.78l-90.53-41.16,5.13-6.16a7.34,7.34,0,0,0-5.64-12H311v-110a7.33,7.33,0,0,0-7.34-7.33H230.31A7.34,7.34,0,0,0,223,28.43v110H193.63a7.33,7.33,0,0,0-5.65,12l73.36,88a7.34,7.34,0,0,0,10.33,1,8.08,8.08,0,0,0,1-1l58.69-70.21,79.31,36.17L267,269.8,123.34,204.51l49.89-22.67a7.34,7.34,0,0,0-6.09-13.36l-64.56,29.35c-2.57,1.17,0-2.05-39.61,53.78a7.34,7.34,0,0,0,1.72,10.23,7.62,7.62,0,0,0,1.21.7l32.35,14.67V359a66,66,0,1,0,69.63,87.6L264,490.26a7.35,7.35,0,0,0,6,0l36.68-16.65a7.34,7.34,0,1,0-5.19-13.73,7.59,7.59,0,0,0-.82.37l-26.34,11.67V300.76l23.4,32.72a7.33,7.33,0,0,0,8.95,2.42L421.06,284V405.23l-47,21.35a7.33,7.33,0,1,0,5.19,13.72,6.79,6.79,0,0,0,.83-.37L431.4,416.6a7.33,7.33,0,0,0,4.33-6.67V277.28l32.35-14.67a7.35,7.35,0,0,0,3.7-9.7,7.63,7.63,0,0,0-.76-1.3Zm-204-29.2-57.66-69.26h21a7.34,7.34,0,0,0,7.34-7.34v-110h58.69v110a7.33,7.33,0,0,0,7.33,7.34h21Zm-158.91-8.73c12.26,5.94-42.62-19.37,147.76,67.2l-28,39.17L80.06,252.85ZM105.59,476a51.36,51.36,0,1,1,51.35-51.35A51.36,51.36,0,0,1,105.59,476ZM112.93,359V284L227.3,335.9a7.33,7.33,0,0,0,8.95-2.42l23.41-32.72V471.92l-88-40a66,66,0,0,0-58.37-72.89l-.32,0Zm193.24-39-28-39.17,147.76-67.2,28,39.17C163.18,385,408.51,273.54,306.17,320.05Z"/><path class="cls-6" d="M344.39,107.89l20.18-13.43h63.82a22,22,0,0,0,22-22V43.1a22,22,0,0,0-22-22H355a22,22,0,0,0-22,22v58.7a7.35,7.35,0,0,0,11.37,6.09Zm3.3-64.79A7.34,7.34,0,0,1,355,35.77h73.36a7.34,7.34,0,0,1,7.34,7.33V72.45a7.34,7.34,0,0,1-7.34,7.34h-66c-2.94,0-3.45.8-14.68,8.29Z"/><path class="cls-5" d="M105.59,446.61c-4,0-4.18-1.1-19.88-16.8a7.37,7.37,0,0,1,10.42-10.42l9.46,9.54,24.14-24.21a7.36,7.36,0,1,1,10.41,10.41L110.8,444.48A7.37,7.37,0,0,1,105.59,446.61Z"/><path class="cls-4" d="M440.94,125.93a7.35,7.35,0,0,0-10.38,0l0,0-9.46,9.54-9.47-9.54a7.37,7.37,0,1,0-10.42,10.42L415.85,151a7.33,7.33,0,0,0,10.37,0l0,0,14.67-14.67A7.33,7.33,0,0,0,441,126Z"/><path class="cls-4" d="M122.39,52.57l-9.46,9.54-9.47-9.54A7.37,7.37,0,0,0,93,63c16,16,15.92,16.8,19.89,16.8s4.18-1.1,19.88-16.8a7.37,7.37,0,0,0-10.42-10.42Z"/></g></svg>