<svg id="Layer_1" data-name="Layer 1" xmlns="http://www.w3.org/2000/svg" viewBox="0 0 512 512"><defs><style>.cls-1{fill:#999;}</style></defs><path class="cls-1" d="M486.05,110h0c-.08-.22-.17-.42-.27-.63a6.18,6.18,0,0,0-.28-.64L440,32.93a7.59,7.59,0,0,0-6.5-3.67H84.83a7.58,7.58,0,0,0-6.5,3.67L32.85,108.74a6.18,6.18,0,0,0-.28.64c-.1.21-.19.41-.27.63a7.66,7.66,0,0,0-.53,2.63V476.49a7.58,7.58,0,0,0,7.58,7.58H479a7.58,7.58,0,0,0,7.58-7.58V112.64A7.66,7.66,0,0,0,486.05,110ZM433.52,51.57l32.09,53.49H433.52ZM100,44.42H418.36v60.64H100ZM84.83,51.57v53.49H52.73ZM471.42,468.91H46.93V120.22H471.42Z"/><path class="cls-1" d="M365.3,249.09H153.05a7.58,7.58,0,0,0,0,15.16h45.48v95.4l-19.22-19.22a7.58,7.58,0,0,0-10.72,10.72l32.16,32.15a7.58,7.58,0,0,0,10.72,0h0l32.15-32.15a7.58,7.58,0,0,0-10.71-10.72l-19.23,19.22v-95.4h91v95.4l-19.23-19.22A7.58,7.58,0,1,0,274.53,351l.18.18,32.16,32.15a7.58,7.58,0,0,0,10.72,0h0l32.16-32.15a7.58,7.58,0,0,0-10.54-10.9l-.18.18-19.22,19.22v-95.4H365.3a7.58,7.58,0,0,0,0-15.16Z"/><path class="cls-1" d="M213.69,196h91a22.74,22.74,0,0,0,0-45.48h-91a22.74,22.74,0,0,0,0,45.48Zm0-30.32h91a7.58,7.58,0,0,1,0,15.16h-91a7.58,7.58,0,1,1,0-15.16Z"/><rect class="cls-1" x="251.59" y="446.17" width="15.16" height="15.16"/><rect class="cls-1" x="251.59" y="446.17" width="15.16" height="15.16"/><rect class="cls-1" x="251.59" y="446.17" width="15.16" height="15.16"/><rect class="cls-1" x="251.59" y="446.17" width="15.16" height="15.16"/><rect class="cls-1" x="251.59" y="446.17" width="15.16" height="15.16"/><rect class="cls-1" x="251.59" y="446.17" width="15.16" height="15.16"/><rect class="cls-1" x="251.59" y="446.17" width="15.16" height="15.16"/><rect class="cls-1" x="251.59" y="446.17" width="15.16" height="15.16"/><rect class="cls-1" x="251.59" y="446.17" width="15.16" height="15.16"/><rect class="cls-1" x="251.59" y="446.17" width="15.16" height="15.16"/><rect class="cls-1" x="251.59" y="446.17" width="15.16" height="15.16"/><rect class="cls-1" x="251.59" y="446.17" width="15.16" height="15.16"/><rect class="cls-1" x="251.59" y="446.17" width="15.16" height="15.16"/><rect class="cls-1" x="251.59" y="446.17" width="15.16" height="15.16"/></svg>