<svg xmlns="http://www.w3.org/2000/svg" width="28" height="28" viewBox="0 0 28 28">
  <g id="Incoming_call" data-name="Incoming call" transform="translate(-2 -2)">
    <path id="Path_5331" data-name="Path 5331" d="M29.393,23.36c-.874-.733-6-3.979-6.852-3.83-.4.071-.706.412-1.525,1.389a11.687,11.687,0,0,1-1.244,1.347,10.757,10.757,0,0,1-2.374-.88A14.7,14.7,0,0,1,10.614,14.6a10.757,10.757,0,0,1-.88-2.374,11.687,11.687,0,0,1,1.347-1.244c.976-.819,1.318-1.123,1.389-1.525.149-.854-3.1-5.978-3.83-6.852C8.334,2.243,8.056,2,7.7,2,6.668,2,2,7.772,2,8.52c0,.061.1,6.07,7.689,13.791C17.41,29.9,23.419,30,23.48,30c.748,0,6.52-4.668,6.52-5.7,0-.356-.243-.634-.607-.94Z" fill="#28c840"/>
    <path id="Path_5332" data-name="Path 5332" d="M18,15h7V13H20.414l8.793-8.793L27.793,2.793,19,11.586V7H17v7A1,1,0,0,0,18,15Z" fill="#41a5ee"/>
  </g>
</svg>
