<svg id="Layer_1" data-name="Layer 1" xmlns="http://www.w3.org/2000/svg" viewBox="0 0 50 50"><defs><style>.cls-1{fill:#009aca;}.cls-2{fill:#f8f8f8;}.cls-3{fill:#41c28d;}.cls-4{fill:#96edf7;}.cls-5{fill:#003f6b;}</style></defs><path class="cls-1" d="M5.83,2.77V47.23H38V2.77Z"/><path class="cls-2" d="M36.72,41.88,34.09,44.1l-.72-3.38Z"/><path class="cls-2" d="M44.17,20.06a1.74,1.74,0,0,1-.1.59l-.58,1.67-3.36-1.15.59-1.68a1.77,1.77,0,0,1,3.45.57Z"/><path class="cls-3" d="M43.49,22.32,38,38.09l-1.31,3.79-3.35-1.16L34.3,38,35,36.11,38,27.24l2.1-6.07Z"/><path class="cls-4" d="M35,24.23V36.11L34.3,38H8.9V24.23Z"/><path class="cls-4" d="M8.9,15h6.9V18.1H8.9Z"/><path class="cls-4" d="M8.9,8.9h6.9V12H8.9Z"/><path class="cls-4" d="M18.87,8.9H35V12H18.87Z"/><path class="cls-4" d="M18.87,15H35V18.1H18.87Z"/><path class="cls-5" d="M8.13,5.07h8.44V6.6H8.13Z"/><path class="cls-5" d="M8.9,18.87h6.9a.78.78,0,0,0,.77-.77V15a.77.77,0,0,0-.77-.76H8.9a.77.77,0,0,0-.77.76V18.1A.78.78,0,0,0,8.9,18.87Zm.77-3.07H15v1.53H9.67Z"/><path class="cls-5" d="M18.87,18.87H35a.77.77,0,0,0,.76-.77V15a.76.76,0,0,0-.76-.76H18.87a.76.76,0,0,0-.77.76V18.1A.77.77,0,0,0,18.87,18.87Zm.76-3.07H34.2v1.53H19.63Z"/><path class="cls-5" d="M8.9,12.73h6.9a.77.77,0,0,0,.77-.76V8.9a.78.78,0,0,0-.77-.77H8.9a.78.78,0,0,0-.77.77V12A.77.77,0,0,0,8.9,12.73Zm.77-3.06H15V11.2H9.67Z"/><path class="cls-5" d="M18.87,12.73H35a.76.76,0,0,0,.76-.76V8.9A.77.77,0,0,0,35,8.13H18.87a.77.77,0,0,0-.77.77V12A.76.76,0,0,0,18.87,12.73Zm.76-3.06H34.2V11.2H19.63Z"/><path class="cls-5" d="M8.13,20.4h9.2v1.53H8.13Z"/><path class="cls-5" d="M43.22,17.67A2.54,2.54,0,0,0,40,19.24l-.58,1.68h0l-.61,1.76V2.77A.76.76,0,0,0,38,2H5.83a.76.76,0,0,0-.76.77V47.23a.76.76,0,0,0,.76.77H38a.76.76,0,0,0,.77-.77v-9l5.42-15.64h0l.57-1.67a2.35,2.35,0,0,0,.14-.84,2.53,2.53,0,0,0-1.71-2.39ZM42,19.16a1,1,0,0,1,.77,0,1,1,0,0,1,.68.94,1,1,0,0,1-.06.34l-.32,1-1-.33-1-.33.33-1a1,1,0,0,1,.51-.58ZM34.2,36l-.45,1.29H9.67V25H34.2Zm3.07,10.49H6.6V3.53H37.27V27.11l-1.54,4.43V24.23a.76.76,0,0,0-.76-.76H8.9a.77.77,0,0,0-.77.76V38a.77.77,0,0,0,.77.77H33.22l-.57,1.67a.82.82,0,0,0,0,.41h0l.71,3.38a.77.77,0,0,0,.5.56.72.72,0,0,0,.74-.13l2.65-2.22h0l.06,0ZM34.4,41.89l.8.28-.63.52Zm1.85-1-1.9-.66,6.26-18.11,1.91.66Z"/><path class="cls-5" d="M8.9,40.33H25.77v1.54H8.9Z"/></svg>