<svg xmlns="http://www.w3.org/2000/svg" xmlns:xlink="http://www.w3.org/1999/xlink" width="219.027" height="211.27" viewBox="0 0 219.027 211.27">
  <defs>
    <linearGradient id="linear-gradient" x1="-3.347" y1="0.5" x2="4.347" y2="0.5" gradientUnits="objectBoundingBox">
      <stop offset="0" stop-color="#312f5a"/>
      <stop offset="1" stop-color="#56c0a2"/>
    </linearGradient>
    <linearGradient id="linear-gradient-2" x1="-5.663" y1="0.5" x2="6.662" y2="0.5" xlink:href="#linear-gradient"/>
    <linearGradient id="linear-gradient-3" x1="0" y1="0.5" x2="1" y2="0.5" xlink:href="#linear-gradient"/>
    <linearGradient id="linear-gradient-4" x1="0" y1="0.5" x2="1" y2="0.5" xlink:href="#linear-gradient"/>
    <linearGradient id="linear-gradient-5" x1="0" y1="0.5" x2="1" y2="0.5" xlink:href="#linear-gradient"/>
    <linearGradient id="linear-gradient-6" x1="0.056" y1="0.499" x2="0.944" y2="0.499" xlink:href="#linear-gradient"/>
  </defs>
  <g id="Inventory_copy" data-name="Inventory copy" transform="translate(-92.27 -100.503)">
    <rect id="Rectangle_9" data-name="Rectangle 9" width="11.531" height="157.459" transform="translate(92.27 139.694) rotate(-30)" fill="url(#linear-gradient)"/>
    <rect id="Rectangle_10" data-name="Rectangle 10" width="11.531" height="157.459" transform="translate(305.532 193.754) rotate(60)" fill="url(#linear-gradient-2)"/>
    <circle id="Ellipse_8" data-name="Ellipse 8" cx="13.081" cy="13.081" r="13.081" transform="translate(160.316 285.611)" fill="url(#linear-gradient-3)"/>
    <path id="Path_142" data-name="Path 142" d="M192.739,224.574l-30.506-54.3c-.092-.348-.153-.708-.275-1.043-1.867-5.143-1.635-10.091,1.367-14.777a21.219,21.219,0,0,1,7.828-6.937q39.212-22.007,78.431-44.032a25.327,25.327,0,0,1,3.777-1.769c4.722-1.7,9.414-1.745,13.947.726a19.809,19.809,0,0,1,7.626,8.151q13.691,24.38,27.388,48.785c.342.61.689,1.22.988,1.867,2.642,5.613,2.953,11.171-.451,16.613a21.278,21.278,0,0,1-8,7.108q-39.047,21.964-78.132,43.874a26.32,26.32,0,0,1-4.015,1.861c-6.1,2.166-11.842,1.556-16.925-2.892C194.685,226.82,193.751,225.648,192.739,224.574Zm44.435-74.849c-.311-.5-.561-.866-.775-1.257-1.409-2.489-2.794-4.991-4.216-7.48-1.538-2.7-3.594-3.221-6.315-1.629-3.947,2.318-7.932,4.576-11.958,6.711-2.88,1.531-3.5,3.563-1.934,6.376,1.391,2.5,2.8,4.991,4.2,7.486.214.384.4.781.61,1.22-2.983,1.678-5.845,3.264-8.688,4.881-2.654,1.507-3.228,3.5-1.757,6.132q3.49,6.254,7.01,12.477,2.172,3.832,6.065,1.684c2.4-1.324,4.777-2.678,7.163-4.021l1.647-.927c1.7,3.051,3.295,5.888,4.881,8.737,1.507,2.648,3.52,3.234,6.138,1.775q6.3-3.526,12.581-7.071a4.375,4.375,0,0,0,1.69-5.882c-1.415-2.581-2.88-5.137-4.32-7.706-.22-.384-.433-.769-.7-1.251l1.318-.738c2.562-1.446,5.149-2.855,7.694-4.338,2.264-1.318,2.9-3.392,1.684-5.595q-3.661-6.626-7.407-13.191a4.051,4.051,0,0,0-5.253-1.647c-1.269.61-2.477,1.348-3.71,2.038Z" transform="translate(-26.706)" fill="url(#linear-gradient-4)"/>
    <path id="Path_143" data-name="Path 143" d="M286.415,188.852l-8.151,4.588-1.519.854c-2.233,1.275-2.581,2.44-1.348,4.68,1.574,2.831,3.167,5.65,4.753,8.468l.683,1.22-11.11,6.242c-.238-.421-.451-.811-.671-1.22-1.623-2.892-3.234-5.8-4.881-8.676-1.11-1.952-2.373-2.312-4.332-1.22-2.868,1.58-5.717,3.2-8.578,4.808L250,209.3l-6.254-11.1,1.275-.72c2.825-1.586,5.65-3.154,8.462-4.759,2.074-1.178,2.44-2.44,1.22-4.521-1.574-2.825-3.167-5.644-4.753-8.462l-.708-1.263,11.141-6.254c.22.378.433.763.647,1.147,1.611,2.861,3.2,5.723,4.82,8.572,1.22,2.093,2.44,2.44,4.509,1.287,2.868-1.586,5.717-3.2,8.578-4.808l1.22-.677Z" transform="translate(-59.059 -27.961)" fill="url(#linear-gradient-5)"/>
    <rect id="Rectangle_11" data-name="Rectangle 11" width="31.964" height="2.581" rx="1.29" transform="matrix(0.877, -0.48, 0.48, 0.877, 172.059, 136.572)" fill="url(#linear-gradient-6)"/>
  </g>
</svg>
