<svg id="Layer_1" data-name="Layer 1" xmlns="http://www.w3.org/2000/svg" viewBox="0 0 512 512"><defs><style>.cls-1{fill:#957856;}.cls-2{fill:#806749;}.cls-3{fill:#ff9478;}.cls-4{fill:#ffbcab;}.cls-5{fill:#a78966;}.cls-6{fill:#ffda44;}.cls-7{fill:#ffcd00;}.cls-8{fill:#7ed63e;}.cls-9{fill:#231f20;}</style></defs><g id="delivery-logistic-parcel_box-shipping-send" data-name="delivery-logistic-parcel box-shipping-send"><path class="cls-1" d="M120,184H488V488H120Z"/><path class="cls-2" d="M184,488H488V184C488,351.9,351.89,488,184,488Z"/><path class="cls-3" d="M101.44,269.28A63.84,63.84,0,0,1,56.24,288H24v40H56.21a64,64,0,0,0,45.25-18.74L120,290.72v-40Z"/><path class="cls-4" d="M243.28,387.28A15.61,15.61,0,0,1,232,392H216a16,16,0,0,1,0,32H184a16,16,0,0,1,0,32H81.68a31.89,31.89,0,0,1-17.76-5.36l-7.84-5.28A32,32,0,0,0,38.32,440H24V328H56.24a63.84,63.84,0,0,0,45.2-18.72l49.2-49.2,5.68,5.68a24,24,0,0,1,0,33.92l-17,17L128,328h87.12a16.73,16.73,0,0,1,16.4,12.08,16.09,16.09,0,0,1-11.79,19.46A15.61,15.61,0,0,1,216,360h15.12a16.73,16.73,0,0,1,16.4,12.08,15.7,15.7,0,0,1-4.24,15.2Z"/><path class="cls-5" d="M488,184H120l48-80H440Z"/><path class="cls-6" d="M352,184H256l16-80h64Z"/><path class="cls-7" d="M256,184h96v96H256Z"/><circle class="cls-8" cx="424" cy="88" r="64"/><path class="cls-9" d="M471.92,141.6A72,72,0,1,0,352,88a66.71,66.71,0,0,0,.48,8H168a7.94,7.94,0,0,0-6.88,3.92l-48,80A8.05,8.05,0,0,0,112,184v63.44L95.76,263.6A55.47,55.47,0,0,1,56.24,280H24a8,8,0,0,0-8,8V440a8,8,0,0,0,8,8H38.32a23.84,23.84,0,0,1,13.28,4l7.92,5.28A39.57,39.57,0,0,0,81.68,464H112v24a8,8,0,0,0,8,8H488a8,8,0,0,0,8-8V184a8.05,8.05,0,0,0-1.12-4.08ZM424,32a56,56,0,1,1-56,56A56,56,0,0,1,424,32Zm-67.76,80a71.79,71.79,0,0,0,102.64,39l15,25H358.56l-12.8-64Zm-77.68,0h50.88l12.8,64H265.76ZM264,192h80v80H264Zm-91.44-80h89.68l-12.8,64H134.16ZM32,296H56.24a71.77,71.77,0,0,0,50.88-21l4.88-5v17.44L95.84,303.6A55.77,55.77,0,0,1,56.24,320H32ZM81.68,448a23.68,23.68,0,0,1-13.28-4l-7.92-5.28A39.72,39.72,0,0,0,38.32,432H32V336H56.24a71.51,71.51,0,0,0,50.88-21.12l18.56-18.48,25-25a15.84,15.84,0,0,1,.16,22.4l-.16.16-28.32,28.32a8,8,0,0,0-1.68,8.72,7.87,7.87,0,0,0,7.36,5h87.12a8.8,8.8,0,0,1,8.64,6,7.69,7.69,0,0,1-2.24,7.68A7.39,7.39,0,0,1,216,352H152a8,8,0,0,0,0,16h79.12a8.8,8.8,0,0,1,8.64,6,7.69,7.69,0,0,1-2.24,7.68A7.39,7.39,0,0,1,232,384H152a8,8,0,0,0,0,16h64a8,8,0,0,1,8,8,7.57,7.57,0,0,1-2.48,5.68A7.39,7.39,0,0,1,216,416H152a8,8,0,0,0,0,16h32a8,8,0,0,1,8,8,7.57,7.57,0,0,1-2.48,5.68A7.39,7.39,0,0,1,184,448ZM480,480H128V464h56a24,24,0,0,0,24-24h0a24.23,24.23,0,0,0-1.36-8H216a24,24,0,0,0,24-24,23.11,23.11,0,0,0-1.68-8.8,24,24,0,0,0-.08-46.24,23,23,0,0,0,1-14.88A24.43,24.43,0,0,0,215.12,320H147.28L162,305.36a32.06,32.06,0,0,0,0-45.28l-5.68-5.68a8.12,8.12,0,0,0-11.36,0l-17,17V192H248v88a8,8,0,0,0,8,8h96a8,8,0,0,0,8-8V192H480Z"/><path class="cls-9" d="M421.66,338.35a8,8,0,0,0-11.32,0l-24,24a8,8,0,0,0,11.32,11.31L408,363.32V440a8,8,0,0,0,16,0V363.32l10.34,10.34a8,8,0,0,0,11.32-11.31Z"/><path class="cls-9" d="M410.34,109.66a8,8,0,0,0,11.32,0L455.6,75.72A8,8,0,0,0,444.29,64.4L416,92.69,404.69,81.38a8,8,0,0,0-11.31,11.31Z"/></g></svg>