<svg id="Layer_1" data-name="Layer 1" xmlns="http://www.w3.org/2000/svg" viewBox="0 0 512 512"><defs><style>.cls-1{fill:#ff9811;}.cls-2{fill:#ab2300;}.cls-3{fill:#83d8f4;}.cls-4{fill:#ffda44;}.cls-5{fill:#e2bcaf;}.cls-6{fill:#d8a595;}.cls-7{fill:#f6e7c6;}.cls-8{fill:#fff;}.cls-9{fill:#f9f6f6;}.cls-10{fill:#fcf05a;}.cls-11{fill:#fdbd40;}.cls-12{fill:#e9686a;}</style></defs><rect class="cls-1" x="16" y="16" width="224" height="224" rx="20"/><rect class="cls-2" x="272" y="16" width="224" height="224" rx="20"/><rect class="cls-3" x="16" y="272" width="224" height="224" rx="20"/><rect class="cls-4" x="272" y="272" width="224" height="224" rx="20"/><path d="M220,8H36A28,28,0,0,0,8,36V220a28,28,0,0,0,28,28H220a28,28,0,0,0,28-28V36A28,28,0,0,0,220,8Zm12,212a12,12,0,0,1-12,12H36a12,12,0,0,1-12-12V36A12,12,0,0,1,36,24H220a12,12,0,0,1,12,12Z"/><path d="M476,8H292a28,28,0,0,0-28,28V220a28,28,0,0,0,28,28H476a28,28,0,0,0,28-28V36A28,28,0,0,0,476,8Zm12,212a12,12,0,0,1-12,12H292a12,12,0,0,1-12-12V36a12,12,0,0,1,12-12H476a12,12,0,0,1,12,12Z"/><path d="M220,264H36A28,28,0,0,0,8,292V476a28,28,0,0,0,28,28H220a28,28,0,0,0,28-28V292A28,28,0,0,0,220,264Zm12,212a12,12,0,0,1-12,12H36a12,12,0,0,1-12-12V292a12,12,0,0,1,12-12H220a12,12,0,0,1,12,12Z"/><path d="M476,264H292a28,28,0,0,0-28,28V476a28,28,0,0,0,28,28H476a28,28,0,0,0,28-28V292A28,28,0,0,0,476,264Zm12,212a12,12,0,0,1-12,12H292a12,12,0,0,1-12-12V292a12,12,0,0,1,12-12H476a12,12,0,0,1,12,12Z"/><path class="cls-5" d="M382.11,122.5H310.06a3.53,3.53,0,0,0-3.53,3.53v72.05h75.58Z"/><path class="cls-5" d="M454.16,122.5H382.11v75.58H457.7V126a3.53,3.53,0,0,0-3.54-3.53Z"/><path class="cls-5" d="M416.37,46.92H347.85a3.53,3.53,0,0,0-3.53,3.53V122.5H419.9v-72a3.53,3.53,0,0,0-3.53-3.53Z"/><path class="cls-6" d="M362.42,122.5V170a18.2,18.2,0,0,1-18.2,18.2H306.53v9.85h75.58V122.5Z"/><path class="cls-6" d="M454.16,122.5H438V170a18.2,18.2,0,0,1-18.2,18.2H382.11v9.85H457.7V126a3.53,3.53,0,0,0-3.54-3.53Z"/><path class="cls-6" d="M416.37,46.92H400.21V94.45a18.2,18.2,0,0,1-18.2,18.2H344.32v9.85H419.9v-72A3.53,3.53,0,0,0,416.37,46.92Z"/><path class="cls-7" d="M351.93,140H336.72a1.14,1.14,0,0,1-1.14-1.14V122.5h17.49v16.35A1.14,1.14,0,0,1,351.93,140Z"/><path class="cls-8" d="M368,185.48H352.28a1.53,1.53,0,0,1-1.54-1.54v-9.68a1.53,1.53,0,0,1,1.54-1.54H368a1.54,1.54,0,0,1,1.54,1.54v9.68a1.54,1.54,0,0,1-1.54,1.54Z"/><path class="cls-9" d="M368,172.72h-5.75a18.25,18.25,0,0,1-8.37,12.76H368a1.54,1.54,0,0,0,1.54-1.54v-9.68a1.54,1.54,0,0,0-1.54-1.54Z"/><path class="cls-7" d="M427.51,140H412.3a1.14,1.14,0,0,1-1.14-1.14V122.5h17.49v16.35a1.14,1.14,0,0,1-1.14,1.14Z"/><path class="cls-8" d="M443.55,185.48H427.86a1.54,1.54,0,0,1-1.54-1.54v-9.68a1.54,1.54,0,0,1,1.54-1.54h15.69a1.54,1.54,0,0,1,1.54,1.54v9.68a1.54,1.54,0,0,1-1.54,1.54Z"/><path class="cls-9" d="M443.55,185.48a1.54,1.54,0,0,0,1.54-1.54v-9.68a1.54,1.54,0,0,0-1.54-1.54H437.8a18.21,18.21,0,0,1-8.37,12.76Z"/><path class="cls-7" d="M389.72,64.4H374.51a1.14,1.14,0,0,1-1.14-1.14V46.92h17.49V63.26a1.14,1.14,0,0,1-1.14,1.14Z"/><path class="cls-8" d="M405.76,109.9H390.07a1.54,1.54,0,0,1-1.54-1.54V98.68a1.54,1.54,0,0,1,1.54-1.54h15.69a1.54,1.54,0,0,1,1.54,1.54v9.68A1.54,1.54,0,0,1,405.76,109.9Z"/><path class="cls-9" d="M405.76,109.9a1.54,1.54,0,0,0,1.54-1.54V98.68a1.54,1.54,0,0,0-1.54-1.54H400a18.25,18.25,0,0,1-8.37,12.76Z"/><path d="M461.46,200.46c0-.24,0-.42,0-.49a18,18,0,0,0-.06-2.4l0-3.18V126a7.23,7.23,0,0,0-7.23-7.22H423.6V50.45a7.23,7.23,0,0,0-7.23-7.23H347.85a7.23,7.23,0,0,0-7.22,7.23v18a3.7,3.7,0,1,0,7.39,0V50.61h21.66V63.26a4.84,4.84,0,0,0,4.83,4.84h15.21a4.84,4.84,0,0,0,4.83-4.84V50.61h21.66v68.2H348V85.74a3.7,3.7,0,0,0-7.39,0v33.07H310.06a7.23,7.23,0,0,0-7.22,7.22v68.36c0,1.08-.06,2.18-.08,3.29,0,1.35,0,2.67,0,4l157.49.11.68,0h.59C461.47,201.44,461.45,201,461.46,200.46ZM387.16,60.71h-10.1V50.61h10.1Zm27.69,65.48H425v10.1H414.85Zm-75.58,0h10.1v10.1h-10.1Zm39.15,68.2h-68.2v-68.2h21.67v12.66a4.83,4.83,0,0,0,4.83,4.83h15.21a4.84,4.84,0,0,0,4.83-4.83V126.19h21.66Zm75.58,0H385.81v-68.2h21.66v12.66a4.84,4.84,0,0,0,4.83,4.83h15.21a4.84,4.84,0,0,0,4.83-4.83V126.19H454Z"/><path d="M368,169H352.28a5.24,5.24,0,0,0-5.24,5.23v9.68a5.24,5.24,0,0,0,5.24,5.23H368a5.23,5.23,0,0,0,5.23-5.23v-9.68A5.23,5.23,0,0,0,368,169Zm-2.15,12.76H354.43v-5.37h11.39Z"/><path d="M427.86,169a5.24,5.24,0,0,0-5.24,5.23v9.68a5.24,5.24,0,0,0,5.24,5.23h15.69a5.24,5.24,0,0,0,5.24-5.23v-9.68a5.24,5.24,0,0,0-5.24-5.23Zm13.54,12.76H430v-5.37H441.4Z"/><path d="M405.76,113.59a5.24,5.24,0,0,0,5.24-5.23V98.68a5.24,5.24,0,0,0-5.24-5.23H390.07a5.24,5.24,0,0,0-5.24,5.23v9.68a5.24,5.24,0,0,0,5.24,5.23Zm-13.54-12.76h11.39v5.37H392.22Z"/><path d="M175.83,461.57c0-.6,0-.91,0-1.64s0-1.07,0-1.39v-.71c0-.44,0-.65,0-1s0-.69,0-1.18v-88a3.83,3.83,0,0,0-3.83-3.82H145.26V314.15a3.82,3.82,0,0,0-3.82-3.82H72.58a3.82,3.82,0,0,0-3.83,3.82v49.74H64.92a3.82,3.82,0,0,0-3.82,3.82v77.87l-.12-.14c0,.19,0,.39,0,.59a48.93,48.93,0,0,1-.09,7.87c-.13,2.15-.18,4.41-.12,6.77q0,.79.06,1.56a1.43,1.43,0,0,0,.35.75,1.66,1.66,0,0,0,1.43.45c.79-.05,1.6-.08,2.44-.1,1.2,0,2.34,0,3.43,0H175.89C175.83,462.6,175.83,462,175.83,461.57ZM99.35,318h15.31v15.3H99.35ZM76.4,318H91.7v19.13a3.83,3.83,0,0,0,3.83,3.82h23a3.82,3.82,0,0,0,3.83-3.82V318h15.3v45.91H76.4ZM130,371.54v45.9H107v-45.9Zm38.26,84.16H68.75V371.54h30.6v49.73a3.84,3.84,0,0,0,3.83,3.83h30.61a3.83,3.83,0,0,0,3.82-3.83V371.54h30.61Z"/><path class="cls-10" d="M72.58,314.15h68.86v53.56H72.58V314.15Z"/><path class="cls-11" d="M64.92,367.71H172v91.82H64.92V367.71Z"/><path class="cls-11" d="M95.53,314.15h23v23h-23v-23Z"/><path class="cls-12" d="M103.18,367.71h30.61v53.56H103.18Z"/></svg>