<svg id="Layer_1" data-name="Layer 1" xmlns="http://www.w3.org/2000/svg" viewBox="0 0 40.5 45.49"><defs><style>.cls-1{fill:#bdf0ff;}.cls-2{fill:#9587ff;}.cls-3{fill:#9ea4ff;}.cls-4{fill:#ff9457;}.cls-5{fill:#ff6145;}.cls-6{fill:#ff7e4f;}.cls-7{fill:#fff;}.cls-8{fill:#ffae6b;}</style></defs><path class="cls-1" d="M39.76,18.14H42.5V31.87H39.76Z" transform="translate(-4.75 -2.25)"/><path class="cls-1" d="M26.43,8.79l1.38-2.38L39.7,13.27l-1.38,2.38Z" transform="translate(-4.75 -2.25)"/><path class="cls-1" d="M11.68,15.65,10.3,13.27,22.19,6.41l1.38,2.38Z" transform="translate(-4.75 -2.25)"/><path class="cls-1" d="M10.24,31.86H7.5V18.13h2.74Z" transform="translate(-4.75 -2.25)"/><path class="cls-1" d="M23.57,41.21l-1.38,2.38L10.3,36.73l1.38-2.38Z" transform="translate(-4.75 -2.25)"/><path class="cls-1" d="M38.32,34.35l1.38,2.38L27.81,43.59l-1.38-2.38Z" transform="translate(-4.75 -2.25)"/><path class="cls-2" d="M25,2.25v8.24a4.12,4.12,0,1,0,0-8.24Z" transform="translate(-4.75 -2.25)"/><path class="cls-3" d="M26.37,6.37c0-2.27-.61-4.12-1.37-4.12a4.12,4.12,0,0,0,0,8.24C25.76,10.49,26.37,8.65,26.37,6.37Z" transform="translate(-4.75 -2.25)"/><path class="cls-2" d="M8.87,11.57v8.24a4.12,4.12,0,1,0,0-8.24Z" transform="translate(-4.75 -2.25)"/><path class="cls-3" d="M10.24,15.69c0-2.28-.61-4.12-1.37-4.12a4.12,4.12,0,0,0,0,8.24C9.63,19.81,10.24,18,10.24,15.69Z" transform="translate(-4.75 -2.25)"/><path class="cls-2" d="M41.13,11.57v8.24a4.12,4.12,0,0,0,0-8.24Z" transform="translate(-4.75 -2.25)"/><path class="cls-3" d="M42.5,15.69c0-2.28-.61-4.12-1.37-4.12a4.12,4.12,0,0,0,0,8.24C41.89,19.81,42.5,18,42.5,15.69Z" transform="translate(-4.75 -2.25)"/><path class="cls-2" d="M41.13,30.19v8.24a4.12,4.12,0,0,0,0-8.24Z" transform="translate(-4.75 -2.25)"/><path class="cls-3" d="M42.5,34.31c0-2.27-.61-4.12-1.37-4.12a4.12,4.12,0,0,0,0,8.24C41.89,38.43,42.5,36.59,42.5,34.31Z" transform="translate(-4.75 -2.25)"/><path class="cls-2" d="M8.87,30.19v8.24a4.12,4.12,0,1,0,0-8.24Z" transform="translate(-4.75 -2.25)"/><path class="cls-3" d="M10.24,34.31c0-2.27-.61-4.12-1.37-4.12a4.12,4.12,0,0,0,0,8.24C9.63,38.43,10.24,36.59,10.24,34.31Z" transform="translate(-4.75 -2.25)"/><path class="cls-2" d="M25,39.51v8.24a4.12,4.12,0,1,0,0-8.24Z" transform="translate(-4.75 -2.25)"/><path class="cls-3" d="M26.37,43.63c0-2.28-.61-4.12-1.37-4.12a4.12,4.12,0,0,0,0,8.24C25.76,47.75,26.37,45.9,26.37,43.63Z" transform="translate(-4.75 -2.25)"/><path class="cls-4" d="M14.91,19.17a.68.68,0,0,0-.1.35v11a.7.7,0,0,0,.35.6l9.5,5.48a.67.67,0,0,0,.34.1l7.44-17.54Z" transform="translate(-4.75 -2.25)"/><path class="cls-5" d="M35.09,19.17,25,19.12l7.44,13.35,2.4-1.39a.68.68,0,0,0,.35-.6v-11a.68.68,0,0,0-.1-.35Z" transform="translate(-4.75 -2.25)"/><path class="cls-6" d="M32.44,20.7,25,19.12V36.66a.67.67,0,0,0,.34-.1l7.1-4.09V29.3l-1.37-1.59,1.37-1.59Z" transform="translate(-4.75 -2.25)"/><path class="cls-7" d="M32.44,26.12l-4.69,2.71V32l4.69-2.71Z" transform="translate(-4.75 -2.25)"/><path class="cls-4" d="M34.84,18.92l-9.5-5.48a.64.64,0,0,0-.68,0l-4.75,2.74,1.37,5.88h8.81l5-2.89A.67.67,0,0,0,34.84,18.92Z" transform="translate(-4.75 -2.25)"/><path class="cls-8" d="M19.91,16.18l-4.75,2.74a.67.67,0,0,0-.25.25L25,25l5.09-2.94Z" transform="translate(-4.75 -2.25)"/></svg>