<svg width="500" height="495" viewBox="0 0 500 495" fill="none" xmlns="http://www.w3.org/2000/svg">
<g clip-path="url(#clip0_38_905)">
<path d="M265.479 239.227C273.927 239.227 282.029 235.871 288.003 229.897C293.977 223.923 297.333 215.821 297.333 207.373C297.333 198.925 293.977 190.823 288.003 184.849C282.029 178.875 273.927 175.519 265.479 175.519H180.461C176.278 175.519 172.136 176.343 168.271 177.944C164.406 179.545 160.895 181.891 157.937 184.849C154.979 187.807 152.633 191.318 151.032 195.183C149.431 199.048 148.607 203.19 148.607 207.373C148.607 211.556 149.431 215.698 151.032 219.563C152.633 223.428 154.979 226.939 157.937 229.897C160.895 232.855 164.406 235.201 168.271 236.802C172.136 238.403 176.278 239.227 180.461 239.227H265.479ZM164.684 207.374C164.688 203.191 166.352 199.18 169.31 196.222C172.268 193.264 176.279 191.6 180.462 191.596H265.48C269.664 191.596 273.676 193.258 276.635 196.217C279.593 199.175 281.255 203.188 281.255 207.372C281.255 211.555 279.593 215.568 276.635 218.526C273.676 221.485 269.664 223.147 265.48 223.147H180.462C176.279 223.144 172.268 221.482 169.31 218.524C166.352 215.567 164.688 211.557 164.684 207.374ZM446.068 296.574C443.781 294.205 441.049 292.312 438.028 291.002C435.008 289.692 431.758 288.991 428.466 288.94C425.174 288.889 421.904 289.489 418.844 290.704C415.785 291.92 412.995 293.728 410.636 296.025L338.365 366.084L313.822 343.189C311.427 340.928 308.61 339.163 305.531 337.994C302.453 336.825 299.174 336.275 295.882 336.377C292.591 336.478 289.352 337.229 286.351 338.585C283.35 339.941 280.647 341.877 278.396 344.28C276.145 346.684 274.391 349.509 273.234 352.592C272.077 355.675 271.541 358.956 271.656 362.247C271.77 365.538 272.533 368.774 273.902 371.77C275.27 374.765 277.216 377.461 279.629 379.702L321.571 419.018C326.285 423.372 332.484 425.761 338.901 425.696C345.318 425.63 351.467 423.115 356.091 418.666L445.554 331.944C450.268 327.297 452.964 320.983 453.06 314.364C453.156 307.746 450.645 301.356 446.068 296.574ZM434.33 320.438L344.93 407.11C343.242 408.646 341.05 409.51 338.768 409.54C336.486 409.571 334.272 408.764 332.544 407.274L290.6 367.958C289.277 366.743 288.353 365.156 287.949 363.406C287.545 361.656 287.68 359.824 288.336 358.152C288.992 356.48 290.139 355.046 291.626 354.038C293.112 353.03 294.869 352.495 296.665 352.504C298.965 352.507 301.179 353.382 302.859 354.954L332.985 383.054C334.493 384.46 336.483 385.232 338.544 385.213C340.605 385.193 342.58 384.382 344.061 382.948L421.861 307.535C423.577 305.908 425.865 305.024 428.229 305.076C430.593 305.127 432.841 306.11 434.484 307.81C436.127 309.51 437.033 311.79 437.004 314.154C436.975 316.518 436.014 318.776 434.33 320.435V320.438ZM445.82 247.966V86.988C445.82 85.3929 445.346 83.8338 444.457 82.509L391.468 3.561C390.733 2.46565 389.74 1.56791 388.576 0.946911C387.413 0.325909 386.114 0.000717113 384.795 0H61.027C59.7075 0.000399899 58.4083 0.325432 57.2441 0.946441C56.0799 1.56745 55.0863 2.46536 54.351 3.561L1.362 82.509C0.474199 83.8341 0.000138647 85.393 0 86.988V406.707C-1.48406e-07 408.839 0.846657 410.883 2.3538 412.391C3.86094 413.899 5.90518 414.746 8.037 414.747H237.3C248.308 438.678 265.94 458.955 288.111 473.178C310.282 487.401 336.064 494.975 362.405 495.004C438.273 495.004 499.998 433.224 499.998 357.292C499.996 336.127 495.105 315.249 485.707 296.286C476.309 277.322 462.658 260.785 445.818 247.965L445.82 247.966ZM422.707 78.952H261.924L255.684 16.081H380.51L422.707 78.952ZM246.691 130.489L243.791 128.196C242.368 127.069 240.606 126.457 238.791 126.46C236.976 126.463 235.215 127.081 233.796 128.212L222.968 136.845L212.141 128.212C210.721 127.08 208.96 126.462 207.144 126.459C205.328 126.456 203.564 127.068 202.141 128.196L199.211 130.513V95.026H246.611L246.691 130.489ZM200.05 78.952L206.267 16.081H239.534L245.771 78.952H200.05ZM65.313 16.081H190.113L183.893 78.952H23.114L65.313 16.081ZM16.076 95.025H183.139V147.125C183.14 148.635 183.566 150.114 184.369 151.393C185.172 152.672 186.318 153.698 187.678 154.356C189.037 155.013 190.554 155.275 192.055 155.11C193.555 154.945 194.98 154.361 196.164 153.425L207.113 144.761L217.961 153.407C219.384 154.543 221.15 155.161 222.971 155.161C224.791 155.161 226.557 154.543 227.98 153.407L238.827 144.761L249.777 153.425C250.963 154.362 252.388 154.946 253.891 155.11C255.393 155.273 256.911 155.01 258.271 154.351C259.631 153.691 260.777 152.662 261.578 151.381C262.38 150.099 262.804 148.618 262.802 147.107L262.702 95.025H429.745V237.365C409.2 225.764 386.002 219.678 362.408 219.697C292.59 219.697 234.779 271.891 225.914 339.271C224.606 338.742 223.182 338.569 221.785 338.769C220.389 338.968 219.07 339.533 217.962 340.407L207.114 349.051L196.165 340.391C194.981 339.453 193.557 338.868 192.055 338.702C190.554 338.537 189.036 338.798 187.676 339.455C186.317 340.113 185.17 341.141 184.367 342.421C183.565 343.7 183.14 345.18 183.14 346.691V398.668H16.076V95.025ZM199.217 398.666V363.296L202.147 365.619C203.571 366.746 205.335 367.357 207.151 367.353C208.967 367.35 210.728 366.731 212.147 365.598L222.98 356.962L224.725 358.353C224.815 372.031 226.95 385.619 231.061 398.665H199.221L199.217 398.666ZM362.407 478.924C330.159 478.888 299.242 466.061 276.439 443.259C253.636 420.457 240.808 389.54 240.771 357.292C240.771 290.285 295.337 235.774 362.407 235.774C394.624 235.81 425.512 248.624 448.293 271.406C471.074 294.187 483.888 325.075 483.923 357.292C483.923 424.359 429.412 478.924 362.407 478.924Z" fill="#999999"/>
</g>
<defs>
<clipPath id="clip0_38_905">
<rect width="500" height="495.004" fill="white"/>
</clipPath>
</defs>
</svg>
