<svg id="Layer_1" data-name="Layer 1" xmlns="http://www.w3.org/2000/svg" viewBox="0 0 512 512"><defs><style>.cls-1{fill:#999;}</style></defs><g id="Exp-1.-O"><path class="cls-1" d="M328,58a9,9,0,0,0-9-9H193a9,9,0,0,0-9,9V202a9,9,0,0,0,13.46,7.81L256,176.37l58.53,33.44A9,9,0,0,0,328,202Zm-18,9V186.49l-49.54-28.3a9,9,0,0,0-8.93,0L202,186.49V67Z"/><path class="cls-1" d="M499,94a45,45,0,0,0-45-45H58A45,45,0,0,0,13,94V418a45,45,0,0,0,45,45H454a45,45,0,0,0,45-45Zm-18,0V418a27,27,0,0,1-27,27H58a27,27,0,0,1-27-27V94A27,27,0,0,1,58,67H454a27,27,0,0,1,27,27Z"/><path class="cls-1" d="M499,382a9,9,0,0,0-9-9H22a9,9,0,0,0-9,9v36a45,45,0,0,0,45,45H454a45,45,0,0,0,45-45V382Zm-18,9v27a27,27,0,0,1-27,27H58a27,27,0,0,1-27-27V391Z"/><path class="cls-1" d="M436,310H382a9,9,0,0,0,0,18h54a9,9,0,0,0,0-18Z"/></g></svg>