<svg id="Layer_1" data-name="Layer 1" xmlns="http://www.w3.org/2000/svg" viewBox="0 0 512 512"><defs><style>.cls-1{fill:#fff06d;}.cls-2{fill:#54528e;}.cls-3{fill:#ffbf2d;}</style></defs><path class="cls-1" d="M24.76,24H488.67V488H24.76Z"/><path class="cls-2" d="M347.93,255.63l-91.59-74.47-90.85,74.47V24H347.93Z"/><path class="cls-3" d="M68,372.42H172.2v39H68Z"/><path d="M487.18,12.13H24.76A12.55,12.55,0,0,0,12.1,24.79V487.21a12.55,12.55,0,0,0,12.66,12.66H487.18a12.55,12.55,0,0,0,12.66-12.66V24.79c.74-7.45-5.21-12.66-12.66-12.66ZM37.41,474.55V37.45H151.35V255.63c0,11.17,12.65,17.12,21.59,10.42l90.85-74.46c5.95-4.47,6.7-12.66,2.23-18.62s-12.66-6.7-18.61-2.23c-17.13,14.15-70,57.34-70,57.34V37.45H333.78V228.08l-11.91-9.68c-5.21-4.47-13.4-3.73-18.62,1.48-4.46,5.22-3.72,13.41,1.49,18.62l32.77,26.81c8.19,6.7,21.59.74,21.59-10.43V37.45H473v437.1ZM66.48,364.78c-7.45,0-12.66,3.8-12.66,8.08v38.05c0,4.75,6,8.08,12.66,8.08H170.73c7.45,0,12.66-3.8,12.66-8.08V372.86c0-4.75-6-8.08-12.66-8.08Zm88,43.72H76.26V375h78.18Z"/></svg>