<svg id="Layer_1" data-name="Layer 1" xmlns="http://www.w3.org/2000/svg" viewBox="0 0 512 512"><defs><style>.cls-1{fill:#999;}</style></defs><g id="Layer_44" data-name="Layer 44"><path class="cls-1" d="M80.66,20.16A61.84,61.84,0,1,0,142.5,82,61.84,61.84,0,0,0,80.66,20.16Zm0,99.68a26.76,26.76,0,1,1,.32.32h-.32Z"/><path class="cls-1" d="M80.66,194.32a61.84,61.84,0,1,0,61.84,61.84A61.84,61.84,0,0,0,80.66,194.32Zm0,99.68a37.84,37.84,0,1,1,37.84-37.84A37.84,37.84,0,0,1,80.66,294Z"/><path class="cls-1" d="M80.66,368.16A61.84,61.84,0,1,0,142.5,430,61.84,61.84,0,0,0,80.66,368.16Zm0,99.68a26.76,26.76,0,1,1,.32.32h-.32Z"/><path class="cls-1" d="M238.5,118.88h216A37,37,0,0,0,457.94,45c-1.15,0-2.29,0-3.44,0h-216a37,37,0,0,0,0,73.84Zm0-49.84h216a13,13,0,0,1,2,25.84,13.89,13.89,0,0,1-2,0h-216a13,13,0,0,1,0-25.84Z"/><path class="cls-1" d="M454.5,219.2h-216a37,37,0,1,0,0,73.92h216a37,37,0,0,0,0-73.92Zm0,49.92h-216a13,13,0,0,1,0-25.92h216a13,13,0,0,1,0,25.92Z"/><path class="cls-1" d="M454.5,393.36h-216a37,37,0,0,0,0,73.84h216a37,37,0,1,0,3.44-73.84C456.79,393.31,455.65,393.31,454.5,393.36Zm0,49.84h-216a13,13,0,0,1,0-25.84h216a13,13,0,0,1,2,25.84A13.89,13.89,0,0,1,454.5,443.2Z"/></g></svg>