<svg xmlns="http://www.w3.org/2000/svg" width="505.006" height="505.006" viewBox="0 0 505.006 505.006">
  <g id="Group_9695" data-name="Group 9695" transform="translate(-4 -4)">
    <path id="Path_6366" data-name="Path 6366" d="M134.216,120.144H26L37.994,48h84.228Z" transform="translate(176.395 352.79)" fill="#074f77"/>
    <path id="Path_6367" data-name="Path 6367" d="M120,75.054H26.84L31.259,48h84.228Z" transform="translate(183.13 352.79)" fill="#00325a"/>
    <path id="Path_6368" data-name="Path 6368" d="M117.18,66.036H27L29.976,48H114.2Z" transform="translate(184.413 352.79)" fill="#00325a"/>
    <path id="Path_6369" data-name="Path 6369" d="M509.006,30.036V336.647a18.089,18.089,0,0,1-18.036,18.036H22.036A18.089,18.089,0,0,1,4,336.647V30.036A18.089,18.089,0,0,1,22.036,12H490.97A18.089,18.089,0,0,1,509.006,30.036Z" transform="translate(0 64.144)" fill="#01a0c8"/>
    <path id="Path_6370" data-name="Path 6370" d="M61.018,65.036H97.09A9.018,9.018,0,0,0,97.09,47H61.018a9.018,9.018,0,1,0,0,18.036Z" transform="translate(384.862 344.772)" fill="#0082aa"/>
    <circle id="Ellipse_7" data-name="Ellipse 7" cx="9" cy="9" r="9" transform="translate(401 392)" fill="#0082aa"/>
    <path id="Path_6371" data-name="Path 6371" d="M474.934,23.018v252.5a9.044,9.044,0,0,1-9.018,9.018H15.018A9.044,9.044,0,0,1,6,275.521V23.018A9.044,9.044,0,0,1,15.018,14h450.9A9.044,9.044,0,0,1,474.934,23.018Z" transform="translate(16.036 80.18)" fill="#fab400"/>
    <path id="Path_6372" data-name="Path 6372" d="M465.916,14H15.018A9.044,9.044,0,0,0,6,23.018v9.018a9.044,9.044,0,0,1,9.018-9.018h9.018V248.467a9.044,9.044,0,0,0,9.018,9.018H447.88a9.044,9.044,0,0,0,9.018-9.018V23.018h9.018a9.044,9.044,0,0,1,9.018,9.018V23.018A9.044,9.044,0,0,0,465.916,14Z" transform="translate(16.036 80.18)" fill="#dc9600"/>
    <path id="Path_6373" data-name="Path 6373" d="M440.862,13.018v45.09H8V13.018A9.044,9.044,0,0,1,17.018,4H431.844A9.044,9.044,0,0,1,440.862,13.018Z" transform="translate(32.072)" fill="#00325a"/>
    <path id="Path_6374" data-name="Path 6374" d="M440.862,10V271.521a9.044,9.044,0,0,1-9.018,9.018H17.018A9.044,9.044,0,0,1,8,271.521V10Z" transform="translate(32.072 48.108)" fill="#f0f0f0"/>
    <circle id="Ellipse_8" data-name="Ellipse 8" cx="27" cy="27" r="27" transform="translate(94 257)" fill="#d2d2d2"/>
    <ellipse id="Ellipse_9" data-name="Ellipse 9" cx="27.5" cy="27" rx="27.5" ry="27" transform="translate(229 257)" fill="#d2d2d2"/>
    <circle id="Ellipse_10" data-name="Ellipse 10" cx="27" cy="27" r="27" transform="translate(365 257)" fill="#d2d2d2"/>
    <path id="Path_6375" data-name="Path 6375" d="M200.442,14a54.072,54.072,0,0,0-9.018,107.4v9.83a9.018,9.018,0,1,0,18.036,0V121.4A54.072,54.072,0,0,0,200.442,14ZM65.173,14a54.072,54.072,0,0,0-9.018,107.4v9.83a9.018,9.018,0,1,0,18.036,0V121.4A54.072,54.072,0,0,0,65.173,14Zm270.539,0a54.072,54.072,0,0,0-9.018,107.4v9.83a9.018,9.018,0,1,0,18.036,0V121.4A54.072,54.072,0,0,0,335.712,14Z" transform="translate(56.061 80.18)" fill="#d2d2d2"/>
    <circle id="Ellipse_11" data-name="Ellipse 11" cx="9" cy="9" r="9" transform="translate(437 22)" fill="#c80a50"/>
    <circle id="Ellipse_12" data-name="Ellipse 12" cx="9" cy="9" r="9" transform="translate(401 22)" fill="#01a0c8"/>
    <circle id="Ellipse_13" data-name="Ellipse 13" cx="9" cy="9" r="9" transform="translate(365 22)" fill="#fab400"/>
    <path id="Path_6376" data-name="Path 6376" d="M172.323,24.036H19.018A9.018,9.018,0,1,1,19.018,6H172.323a9.018,9.018,0,0,1,0,18.036Z" transform="translate(48.108 16.036)" fill="#f0f0f0"/>
    <path id="Path_6377" data-name="Path 6377" d="M227.413,92.072H29.018A9.018,9.018,0,0,1,20,83.054V74.036A18.036,18.036,0,0,1,38.036,56H218.4a18.036,18.036,0,0,1,18.036,18.036v9.018A9.018,9.018,0,0,1,227.413,92.072Z" transform="translate(128.287 416.934)" fill="#01a0c8"/>
    <path id="Path_6378" data-name="Path 6378" d="M61.018,64.036H97.09A9.018,9.018,0,0,0,97.09,46H61.018a9.018,9.018,0,1,0,0,18.036Z" transform="translate(384.862 336.754)" fill="#f0f0f0"/>
    <circle id="Ellipse_14" data-name="Ellipse 14" cx="9" cy="9" r="9" transform="translate(401 383)" fill="#f0f0f0"/>
    <path id="Path_6379" data-name="Path 6379" d="M16,33H304.575V51.036H16Z" transform="translate(96.216 232.521)" fill="#00325a"/>
    <ellipse id="Ellipse_15" data-name="Ellipse 15" cx="27" cy="27.5" rx="27" ry="27.5" transform="translate(94 247)" fill="#c80a50"/>
    <circle id="Ellipse_16" data-name="Ellipse 16" cx="27.5" cy="27.5" r="27.5" transform="translate(229 247)" fill="#c80a50"/>
    <ellipse id="Ellipse_17" data-name="Ellipse 17" cx="27" cy="27.5" rx="27" ry="27.5" transform="translate(365 247)" fill="#c80a50"/>
    <circle id="Ellipse_18" data-name="Ellipse 18" cx="9" cy="9" r="9" transform="translate(112 275)" fill="#a00028"/>
    <ellipse id="Ellipse_19" data-name="Ellipse 19" cx="9.5" cy="9" rx="9.5" ry="9" transform="translate(247 275)" fill="#a00028"/>
    <circle id="Ellipse_20" data-name="Ellipse 20" cx="9" cy="9" r="9" transform="translate(383 275)" fill="#a00028"/>
    <circle id="Ellipse_21" data-name="Ellipse 21" cx="9" cy="9" r="9" transform="translate(383 266)" fill="#fab400"/>
    <path id="Path_6380" data-name="Path 6380" d="M134.216,67.108A54.108,54.108,0,1,0,71.09,120.4v9.83a9.018,9.018,0,0,0,18.036,0V120.4A54.072,54.072,0,0,0,134.216,67.108Z" transform="translate(176.395 72.162)" fill="#01a0c8"/>
    <path id="Path_6381" data-name="Path 6381" d="M48.677,68.464,30.641,50.428A9.017,9.017,0,0,1,43.392,37.677l11.66,11.66,29.7-29.7A9.017,9.017,0,0,1,97.5,32.392L61.428,68.464a9.009,9.009,0,0,1-12.751,0Z" transform="translate(192.432 104.235)" fill="#0082aa"/>
    <path id="Path_6382" data-name="Path 6382" d="M48.677,67.464,30.641,49.428A9.017,9.017,0,0,1,43.392,36.677l11.66,11.66,29.7-29.7A9.017,9.017,0,0,1,97.5,31.392L61.428,67.464a9.009,9.009,0,0,1-12.751,0Z" transform="translate(192.432 96.217)" fill="#f0f0f0"/>
    <path id="Path_6383" data-name="Path 6383" d="M119.216,67.108A54.108,54.108,0,1,0,56.09,120.4v9.83a9.018,9.018,0,0,0,18.036,0V120.4A54.072,54.072,0,0,0,119.216,67.108Z" transform="translate(56.126 72.162)" fill="#01a0c8"/>
    <path id="Path_6384" data-name="Path 6384" d="M33.677,68.464,15.641,50.428A9.017,9.017,0,1,1,28.392,37.677l11.66,11.66,29.7-29.7A9.017,9.017,0,0,1,82.5,32.392L46.428,68.464a9.009,9.009,0,0,1-12.751,0Z" transform="translate(72.163 104.235)" fill="#0082aa"/>
    <path id="Path_6385" data-name="Path 6385" d="M33.677,67.464,15.641,49.428A9.017,9.017,0,0,1,28.392,36.677l11.66,11.66,29.7-29.7A9.017,9.017,0,0,1,82.5,31.392L46.428,67.464a9.009,9.009,0,0,1-12.751,0Z" transform="translate(72.163 96.217)" fill="#f0f0f0"/>
    <path id="Path_6386" data-name="Path 6386" d="M149.216,67.108A54.108,54.108,0,1,0,86.09,120.4v9.83a9.018,9.018,0,1,0,18.036,0V120.4A54.072,54.072,0,0,0,149.216,67.108Z" transform="translate(296.665 72.162)" fill="#0a5078"/>
    <circle id="Ellipse_22" data-name="Ellipse 22" cx="9" cy="9" r="9" transform="translate(356 139)" fill="#00325a"/>
    <circle id="Ellipse_23" data-name="Ellipse 23" cx="9" cy="9" r="9" transform="translate(383 139)" fill="#00325a"/>
    <circle id="Ellipse_24" data-name="Ellipse 24" cx="9" cy="9" r="9" transform="translate(410 139)" fill="#00325a"/>
    <circle id="Ellipse_25" data-name="Ellipse 25" cx="9" cy="9" r="9" transform="translate(356 130)" fill="#f0f0f0"/>
    <circle id="Ellipse_26" data-name="Ellipse 26" cx="9" cy="9" r="9" transform="translate(383 130)" fill="#f0f0f0"/>
    <circle id="Ellipse_27" data-name="Ellipse 27" cx="9" cy="9" r="9" transform="translate(410 130)" fill="#f0f0f0"/>
    <ellipse id="Ellipse_28" data-name="Ellipse 28" cx="9.5" cy="9" rx="9.5" ry="9" transform="translate(247 266)" fill="#fab400"/>
    <circle id="Ellipse_29" data-name="Ellipse 29" cx="9" cy="9" r="9" transform="translate(112 266)" fill="#fab400"/>
  </g>
</svg>
