<svg id="leadsempty" xmlns="http://www.w3.org/2000/svg" width="512" height="512" viewBox="0 0 512 512">
  <path id="Path_6637" data-name="Path 6637" d="M512,256c0,141.387-114.613,256-256,256S0,397.387,0,256,114.613,0,256,0,512,114.613,512,256Zm0,0" fill="#ffd400"/>
  <path id="Path_6638" data-name="Path 6638" d="M510.215,286.242,443.633,219.66l-5.1,15.66L310.094,106.883,137.816,284.512l58.157,58.152-55.7,74.559L234.1,511.059c7.22.613,14.516.941,21.9.941,131.152,0,239.25-98.629,254.215-225.758Zm0,0" fill="#fdba12"/>
  <g id="Group_9790" data-name="Group 9790">
    <path id="Path_6639" data-name="Path 6639" d="M324.672,194.035A102.43,102.43,0,1,1,222.242,91.609,102.431,102.431,0,0,1,324.672,194.035Zm0,0" fill="#fa5d0f"/>
    <path id="Path_6640" data-name="Path 6640" d="M324.672,194.035A102.421,102.421,0,0,0,222.855,91.617v204.84A102.427,102.427,0,0,0,324.672,194.035ZM222.242,91.61a102.427,102.427,0,1,0,0,204.855c.207,0,.41-.008.613-.008V91.617q-.306-.007-.613-.008Zm0,0" fill="#fa5d0f"/>
  </g>
  <path id="Path_6641" data-name="Path 6641" d="M267.707,172.375a45.465,45.465,0,1,1-45.465-45.469A45.465,45.465,0,0,1,267.707,172.375Zm0,0" fill="#fff"/>
  <path id="Path_6642" data-name="Path 6642" d="M267.707,172.375a45.457,45.457,0,0,0-44.852-45.45v90.9a45.46,45.46,0,0,0,44.852-45.45Zm0,0" fill="#e9edf5"/>
  <path id="Path_6643" data-name="Path 6643" d="M222.242,303.336a102.169,102.169,0,0,0,76.36-34.18,82.471,82.471,0,0,0-152.72,0,102.173,102.173,0,0,0,76.36,34.18Zm0,0" fill="#fff"/>
  <path id="Path_6644" data-name="Path 6644" d="M222.832,217.852h0v85.476c-.973,0-.781.008-.59.008a102.155,102.155,0,0,0,76.36-34.18C286.309,239.059,257.352,217.852,222.832,217.852Zm0,0" fill="#e9edf5"/>
  <path id="Path_6645" data-name="Path 6645" d="M232.559,380.41a53.494,53.494,0,1,1-53.493-53.5A53.493,53.493,0,0,1,232.559,380.41Zm0,0" fill="#fa5d0f"/>
  <path id="Path_6646" data-name="Path 6646" d="M202.809,369.1a23.744,23.744,0,1,1-23.743-23.746A23.745,23.745,0,0,1,202.809,369.1Zm0,0" fill="#fff"/>
  <path id="Path_6647" data-name="Path 6647" d="M179.066,392.844a43.058,43.058,0,0,0-38.8,24.379,53.448,53.448,0,0,0,77.589,0,43.054,43.054,0,0,0-38.793-24.38Zm0,0" fill="#fff"/>
  <path id="Path_6648" data-name="Path 6648" d="M457.23,249.86A40.354,40.354,0,1,1,416.875,209.5,40.351,40.351,0,0,1,457.23,249.86Zm0,0" fill="#fa5d0f"/>
  <path id="Path_6649" data-name="Path 6649" d="M434.79,241.324a17.913,17.913,0,1,1-17.915-17.914,17.913,17.913,0,0,1,17.915,17.914Zm0,0" fill="#e9edf5"/>
  <path id="Path_6650" data-name="Path 6650" d="M416.875,259.234a32.488,32.488,0,0,0-29.266,18.391,40.319,40.319,0,0,0,58.532,0,32.478,32.478,0,0,0-29.266-18.39Zm0,0" fill="#e9edf5"/>
  <path id="Path_6651" data-name="Path 6651" d="M260.047,294.3,313.4,240.941,424.543,352.082l-53.356,53.356Zm0,0" fill="#414952"/>
  <path id="Path_6652" data-name="Path 6652" d="M286.836,267.5,313.4,240.937,424.543,352.078l-26.566,26.567Zm0,0" fill="#333940"/>
  <path id="Path_6653" data-name="Path 6653" d="M222.242,317.848A123.811,123.811,0,1,1,346.055,194.035,123.953,123.953,0,0,1,222.242,317.848Zm0-210.965A87.152,87.152,0,1,0,309.4,194.035a87.25,87.25,0,0,0-87.153-87.152Zm0,0" fill="#707789"/>
  <path id="Path_6654" data-name="Path 6654" d="M222.242,106.883a87.118,87.118,0,0,1,57,153.027L305.2,285.863A123.755,123.755,0,1,0,130.414,111.078l25.953,25.953a86.98,86.98,0,0,1,65.875-30.148Zm0,0" fill="#636978"/>
</svg>
