<svg xmlns="http://www.w3.org/2000/svg" width="495.014" height="509.979" viewBox="0 0 495.014 509.979">
  <g id="link-new-category" transform="translate(-7.469 0.028)">
    <g id="Group_85" data-name="Group 85">
      <path id="Path_363" data-name="Path 363" d="M154.469,254.973l-11.064-15H7.469v30H143.4Zm34.457-94.756L119.159,90.45H98.969l-1.023,21.213,69.767,69.767H186.8Zm-21.213,168.3L71.858,424.37l3.578,19.352,17.635,1.862,95.855-95.856L185.8,328.515Z" fill="#cbe6fd"/>
    </g>
    <path id="Path_364" data-name="Path 364" d="M423.08,115.574v-19.1l-21.213-2.111-65.855,65.855,1.207,21.213h20.005Zm-71.521,219.7,39.211,39.211,19.449-1.765,1.764-19.448-43.027-43.027-18.987,2.226Z" fill="#a1d9fd"/>
    <path id="Path_365" data-name="Path 365" d="M247.469,59.973v75.935l7.07,10.065,7.93-11,10-34.25-10-40.75Zm0,420h15L272.219,427l-9.75-52.033-7.486-12-7.514,11.063Z" fill="#cbe6fd"/>
    <path id="Path_366" data-name="Path 366" d="M262.469,134.973l7.544,11,7.456-10.065V59.973h-15Zm15,345V374.036l-7.915-11.063-7.085,12v105Z" fill="#a1d9fd"/>
    <path id="Path_367" data-name="Path 367" d="M142.469,254.973a120.135,120.135,0,0,0,120,120l15-120-15-120a120.135,120.135,0,0,0-120,120Z" fill="#543f85"/>
    <path id="Path_368" data-name="Path 368" d="M262.469,134.973v240a120,120,0,1,0,0-240Z" fill="#403069"/>
    <path id="Path_369" data-name="Path 369" d="M172.469,254.973a90.1,90.1,0,0,0,90,90l15-90-15-90a90.1,90.1,0,0,0-90,90Z" fill="#e7f2ff"/>
    <path id="Path_370" data-name="Path 370" d="M262.469,164.973v180a90,90,0,0,0,0-180Z" fill="#cbe6fd"/>
    <circle id="Ellipse_16" data-name="Ellipse 16" cx="60" cy="60" r="60" transform="translate(7.469 -0.028)" fill="#00f0c6"/>
    <path id="Path_371" data-name="Path 371" d="M20.649,496.792a45,45,0,1,1,63.64,0,45.051,45.051,0,0,1-63.64,0Z" fill="#fbd62e"/>
    <path id="Path_372" data-name="Path 372" d="M410.649,106.793a45,45,0,1,1,63.639,0h0A45.053,45.053,0,0,1,410.649,106.793Z" fill="#6678e8"/>
    <path id="Path_373" data-name="Path 373" d="M400.043,447.4a60,60,0,1,1,84.852,0,59.964,59.964,0,0,1-84.852,0Z" fill="#e5036f"/>
    <path id="Path_374" data-name="Path 374" d="M202.469,254.973a60.068,60.068,0,0,0,60,60l15-60-15-60a60.068,60.068,0,0,0-60,60Z" fill="#fd4282"/>
    <path id="Path_375" data-name="Path 375" d="M262.469,194.973v120a60,60,0,0,0,0-120Z" fill="#e5036f"/>
  </g>
</svg>
