<svg xmlns="http://www.w3.org/2000/svg" width="568" height="568" viewBox="0 0 568 568">
  <path id="list_alt_FILL0_wght100_GRAD0_opsz20" d="M329.86-312A23.555,23.555,0,0,0,347-318.86a22.848,22.848,0,0,0,7-17A23.555,23.555,0,0,0,347.14-353a22.848,22.848,0,0,0-17-7A23.555,23.555,0,0,0,313-353.14a22.848,22.848,0,0,0-7,17A23.555,23.555,0,0,0,312.86-319,22.848,22.848,0,0,0,329.86-312Zm0-144A23.555,23.555,0,0,0,347-462.86a22.848,22.848,0,0,0,7-17A23.555,23.555,0,0,0,347.14-497a22.848,22.848,0,0,0-17-7A23.555,23.555,0,0,0,313-497.14a22.848,22.848,0,0,0-7,17A23.555,23.555,0,0,0,312.86-463,22.848,22.848,0,0,0,329.86-456Zm0-144A23.555,23.555,0,0,0,347-606.86a22.848,22.848,0,0,0,7-17A23.555,23.555,0,0,0,347.14-641a22.848,22.848,0,0,0-17-7A23.555,23.555,0,0,0,313-641.14a22.848,22.848,0,0,0-7,17A23.555,23.555,0,0,0,312.86-607,22.848,22.848,0,0,0,329.86-600ZM442-326H650v-20H442Zm0-144H650v-20H442Zm0-144H650v-20H442ZM248-196q-22.7,0-37.35-14.65T196-248V-712q0-22.7,14.65-37.35T248-764H712q22.7,0,37.35,14.65T764-712v464q0,22.7-14.65,37.35T712-196Zm0-20H712q12,0,22-10t10-22V-712q0-12-10-22t-22-10H248q-12,0-22,10t-10,22v464q0,12,10,22T248-216ZM216-744v0Z" transform="translate(-196 764)" fill="#999"/>
</svg>
