<svg width="18" height="21" viewBox="0 0 18 21" fill="none" xmlns="http://www.w3.org/2000/svg">
<path fill-rule="evenodd" clip-rule="evenodd" d="M3.75635 8.75C3.75635 7.49022 4.25679 6.28204 5.14759 5.39124C6.03839 4.50045 7.24657 4 8.50635 4C9.76613 4 10.9743 4.50045 11.8651 5.39124C12.7559 6.28204 13.2563 7.49022 13.2563 8.75C13.2563 10.0098 12.7559 11.218 11.8651 12.1088C10.9743 12.9996 9.76613 13.5 8.50635 13.5C7.24657 13.5 6.03839 12.9996 5.14759 12.1088C4.25679 11.218 3.75635 10.0098 3.75635 8.75ZM8.50635 5.5C7.64439 5.5 6.81774 5.84241 6.20825 6.4519C5.59876 7.0614 5.25635 7.88805 5.25635 8.75C5.25635 9.61195 5.59876 10.4386 6.20825 11.0481C6.81774 11.6576 7.64439 12 8.50635 12C9.3683 12 10.195 11.6576 10.8044 11.0481C11.4139 10.4386 11.7563 9.61195 11.7563 8.75C11.7563 7.88805 11.4139 7.0614 10.8044 6.4519C10.195 5.84241 9.3683 5.5 8.50635 5.5Z" fill="#C5C5C5"/>
<path fill-rule="evenodd" clip-rule="evenodd" d="M0.0302357 7.607C0.201162 5.5338 1.14546 3.60069 2.67565 2.19147C4.20584 0.782256 6.21 -6.33557e-06 8.29024 0H8.72224C10.8025 -6.33557e-06 12.8066 0.782256 14.3368 2.19147C15.867 3.60069 16.8113 5.5338 16.9822 7.607C17.1724 9.91628 16.459 12.2093 14.9922 14.003L10.1992 19.864C9.99412 20.1148 9.73582 20.317 9.44303 20.4557C9.15024 20.5945 8.83026 20.6665 8.50624 20.6665C8.18221 20.6665 7.86224 20.5945 7.56944 20.4557C7.27665 20.317 7.01836 20.1148 6.81324 19.864L2.02024 14.003C0.553352 12.2093 -0.160079 9.9163 0.0302357 7.607ZM8.29024 1.5C6.58672 1.50026 4.94557 2.14103 3.69256 3.29512C2.43954 4.44921 1.66627 6.03225 1.52624 7.73C1.36784 9.65186 1.96152 11.5602 3.18224 13.053L7.97524 18.915C8.03967 18.9939 8.12083 19.0574 8.21283 19.101C8.30484 19.1447 8.4054 19.1673 8.50724 19.1673C8.60907 19.1673 8.70963 19.1447 8.80164 19.101C8.89365 19.0574 8.9748 18.9939 9.03924 18.915L13.8322 13.053C15.0522 11.5599 15.6452 9.65159 15.4862 7.73C15.3462 6.03208 14.5728 4.4489 13.3195 3.29478C12.0663 2.14066 10.4249 1.50001 8.72124 1.5H8.29024Z" fill="#C5C5C5"/>
</svg>
