<svg id="Group_75" data-name="Group 75" xmlns="http://www.w3.org/2000/svg" width="60" height="60" viewBox="0 0 60 60">
  <g id="Group_74" data-name="Group 74">
    <g id="Group_72" data-name="Group 72" transform="translate(1 1)">
      <rect id="Rectangle_30" data-name="Rectangle 30" width="58" height="14" rx="2" transform="translate(0 33)" fill="#00bcd4"/>
      <path id="Path_21" data-name="Path 21" d="M56,33H53a2.006,2.006,0,0,1,2,2V45a2.006,2.006,0,0,1-2,2h3a2.006,2.006,0,0,0,2-2V35a2.006,2.006,0,0,0-2-2Z" fill="#00838f"/>
      <path id="Path_22" data-name="Path 22" d="M50,26v7H8V26a4,4,0,0,1,4-4H46A4,4,0,0,1,50,26Zm0,21v7a4,4,0,0,1-4,4H12a4,4,0,0,1-4-4V47Z" fill="#ffeb3a"/>
      <path id="Path_23" data-name="Path 23" d="M45,16v6H39V16a10,10,0,0,0-20,0v6H13V16a16,16,0,0,1,32,0Z" fill="#9e9e9e"/>
      <g id="Group_71" data-name="Group 71">
        <path id="Path_24" data-name="Path 24" d="M26,6A10.015,10.015,0,0,0,16,16v6h3V16a10.014,10.014,0,0,1,8.5-9.875A9.921,9.921,0,0,0,26,6ZM40.32,4.68A15.987,15.987,0,0,0,29,0c-.506,0-1.006.03-1.5.076A15.964,15.964,0,0,1,42,16v6h3V16A15.987,15.987,0,0,0,40.32,4.68Z" fill="#707070"/>
      </g>
    </g>
    <g id="Group_73" data-name="Group 73">
      <path id="Path_25" data-name="Path 25" d="M3,49H8v6a5.006,5.006,0,0,0,5,5H47a5.006,5.006,0,0,0,5-5V49h5a3,3,0,0,0,3-3V36a3,3,0,0,0-3-3H52V27a5.006,5.006,0,0,0-5-5V17a17,17,0,0,0-34,0v5a5.006,5.006,0,0,0-5,5v6H3a3,3,0,0,0-3,3V46a3,3,0,0,0,3,3Zm47,6a3,3,0,0,1-3,3H13a3,3,0,0,1-3-3V49H50ZM15,17a15,15,0,0,1,30,0v5H41V17a11,11,0,0,0-22,0v5H15Zm6,5V17a9,9,0,1,1,18,0v5ZM10,27a3,3,0,0,1,3-3H47a3,3,0,0,1,3,3v6H10ZM2,36a1,1,0,0,1,1-1H57a1,1,0,0,1,1,1V46a1,1,0,0,1-1,1H3a1,1,0,0,1-1-1Z"/>
      <path id="Path_26" data-name="Path 26" d="M4.168,43.555a1,1,0,0,0,1.387.277L7,42.868V44a1,1,0,0,0,2,0V42.868l1.445.964a1,1,0,0,0,1.11-1.664L9.8,41l1.752-1.168a1,1,0,0,0-1.11-1.664L9,39.132V38a1,1,0,0,0-2,0v1.132l-1.445-.964a1,1,0,0,0-1.11,1.664L6.2,41,4.445,42.168a1,1,0,0,0-.277,1.387Zm11,0a1,1,0,0,0,1.387.277L18,42.868V44a1,1,0,0,0,2,0V42.868l1.445.964a1,1,0,0,0,1.11-1.664L20.8,41l1.752-1.168a1,1,0,0,0-1.11-1.664L20,39.132V38a1,1,0,0,0-2,0v1.132l-1.445-.964a1,1,0,0,0-1.11,1.664L17.2,41l-1.752,1.168a1,1,0,0,0-.28,1.387Zm22,0a1,1,0,0,0,1.387.277L40,42.868V44a1,1,0,0,0,2,0V42.868l1.445.964a1,1,0,0,0,1.11-1.664L42.8,41l1.752-1.168a1,1,0,1,0-1.11-1.664L42,39.132V38a1,1,0,0,0-2,0v1.132l-1.445-.964a1,1,0,0,0-1.11,1.664L39.2,41l-1.752,1.168a1,1,0,0,0-.28,1.387Zm-11,0a1,1,0,0,0,1.387.277L29,42.868V44a1,1,0,0,0,2,0V42.868l1.445.964a1,1,0,1,0,1.11-1.664L31.8,41l1.752-1.168a1,1,0,1,0-1.11-1.664L31,39.132V38a1,1,0,0,0-2,0v1.132l-1.445-.964a1,1,0,1,0-1.11,1.664L28.2,41l-1.752,1.168a1,1,0,0,0-.28,1.387ZM16,26H13a1,1,0,0,0-1,1v3a1,1,0,0,0,2,0V28h2a1,1,0,0,0,0-2ZM49,45h6a1,1,0,0,0,0-2H49a1,1,0,0,0,0,2Z"/>
    </g>
  </g>
</svg>
