<svg id="Layer_1" data-name="Layer 1" xmlns="http://www.w3.org/2000/svg" xmlns:xlink="http://www.w3.org/1999/xlink" viewBox="0 0 512 512"><defs><style>.cls-1,.cls-17{fill:none;}.cls-2{clip-path:url(#clip-path);}.cls-3{fill:#ffc344;}.cls-4{fill:#feb137;}.cls-5{fill:#eaf6ff;}.cls-6{fill:#c8effe;}.cls-7{fill:#6ed5a1;}.cls-8{fill:#46cc8d;}.cls-9{fill:#cb97e7;}.cls-10{fill:#b289c9;}.cls-11{fill:#fd5426;}.cls-12{fill:#ef4423;}.cls-13{fill:#99e6fc;}.cls-14{fill:#62dbfb;}.cls-15{fill:#ffe177;}.cls-16{fill:#ffd15c;}.cls-17{stroke:#000;stroke-linecap:round;stroke-linejoin:round;stroke-width:14.16px;}</style><clipPath id="clip-path"><rect class="cls-1" x="15.72" y="14.05" width="483.46" height="483.46"/></clipPath></defs><g id="g1098"><g id="g1100"><g class="cls-2"><g id="g1102"><g id="g1108"><path id="path1110" class="cls-3" d="M480.44,107.57V469.44a21,21,0,0,1-21,21H97.58a21,21,0,0,1-21-21V107.57a21,21,0,0,1,21-21H459.44a21,21,0,0,1,21,21"/></g><g id="g1112"><path id="path1114" class="cls-4" d="M480.44,107.57V469.44a21,21,0,0,1-21,21H434.55a21,21,0,0,0,21-21V107.57a21,21,0,0,0-21-21h24.89a21,21,0,0,1,21,21"/></g><g id="g1116"><path id="path1118" class="cls-4" d="M404.15,98.89V350.73h-301V86.57H401.47a29.46,29.46,0,0,1,2.68,12.32"/></g><g id="g1120"><path id="path1122" class="cls-5" d="M429,98.89V350.73H128V41.64a20.5,20.5,0,0,1,20.51-20.5H351.26a29.84,29.84,0,0,1,21,8.7l48,48a29.76,29.76,0,0,1,6,8.7A29.46,29.46,0,0,1,429,98.89"/></g><g id="g1124"><path id="path1126" class="cls-6" d="M429,222.48V350.73H128V272.84h99.37a24.78,24.78,0,0,0,20.1-10.28L269,232.77a24.76,24.76,0,0,1,20.1-10.29Z"/></g><g id="g1128"><path id="path1130" class="cls-7" d="M224.33,272.83h-50V110.93a11,11,0,0,1,11-11h27.9a11,11,0,0,1,11,11Z"/></g><g id="g1132"><path id="path1134" class="cls-8" d="M224.33,110.94v161.9h-25V110.94a11.05,11.05,0,0,0-11-11h25a11.05,11.05,0,0,1,11.05,11"/></g><g id="g1136"><path id="path1138" class="cls-9" d="M303.5,146.5V272.84h-50V146.5a11,11,0,0,1,11-11h27.9a11,11,0,0,1,11,11"/></g><g id="g1140"><path id="path1142" class="cls-10" d="M303.5,146.5V272.84H278.65V146.5a11,11,0,0,0-11-11h24.85a11,11,0,0,1,11,11"/></g><g id="g1144"><path id="path1146" class="cls-10" d="M303.5,222.48v50.36h-50V254.18L269,232.77a24.79,24.79,0,0,1,20.1-10.29Z"/></g><g id="g1148"><path id="path1150" class="cls-11" d="M382.68,222.48h-50v-42a11,11,0,0,1,11-11h27.9a11,11,0,0,1,11,11Z"/></g><g id="g1152"><path id="path1154" class="cls-12" d="M382.68,180.51v42h-25v-42a11.05,11.05,0,0,0-11.05-11h25a11,11,0,0,1,11,11"/></g><g id="g1156"><path id="path1158" class="cls-6" d="M429,98.89V350.73H404.15V98.89a29.46,29.46,0,0,0-2.68-12.32,29.76,29.76,0,0,0-6-8.7l-48-48a29.13,29.13,0,0,0-8.7-6,29.46,29.46,0,0,0-12.32-2.68h24.86a29.84,29.84,0,0,1,21,8.7l48,48a29.76,29.76,0,0,1,6,8.7A29.46,29.46,0,0,1,429,98.89"/></g><g id="g1160"><path id="path1162" class="cls-13" d="M426.33,86.57h-43.2A19.55,19.55,0,0,1,363.58,67V23.82a29.26,29.26,0,0,1,8.7,6l48,48a29.76,29.76,0,0,1,6,8.7"/></g><g id="g1164"><path id="path1166" class="cls-14" d="M426.33,86.57H401.47a29.76,29.76,0,0,0-6-8.7L363.58,46V23.82a29.26,29.26,0,0,1,8.7,6l48,48a29.76,29.76,0,0,1,6,8.7"/></g><g id="g1168"><path id="path1170" class="cls-15" d="M480.44,222.48v247a21,21,0,0,1-21,21H97.58a21,21,0,0,1-21-21V272.84h175.7a24.78,24.78,0,0,0,20.1-10.28l21.48-29.79A24.76,24.76,0,0,1,314,222.48Z"/></g><g id="g1172"><path id="path1174" class="cls-16" d="M480.44,222.48v247a21,21,0,0,1-21,21H434.55a21,21,0,0,0,21-21V222.48Z"/></g><g id="g1176"><path id="path1178" class="cls-13" d="M352.6,447.27H52.22A17.77,17.77,0,0,1,34.45,429.5V340.12a17.78,17.78,0,0,1,17.77-17.77H352.6a17.77,17.77,0,0,1,17.76,17.77V429.5a17.76,17.76,0,0,1-17.76,17.77"/></g><g id="g1180"><path id="path1182" class="cls-14" d="M370.37,340.13V429.5a17.77,17.77,0,0,1-17.78,17.77H322.17a17.76,17.76,0,0,0,17.77-17.77V340.13a17.77,17.77,0,0,0-17.77-17.78h30.42a17.78,17.78,0,0,1,17.78,17.78"/></g><g id="g1184"><path id="path1186" class="cls-17" d="M76.58,272.83V107.57a21,21,0,0,1,21-21H128"/></g><g id="g1188"><path id="path1190" class="cls-17" d="M480.44,164.41v58.07"/></g><g id="g1192"><path id="path1194" class="cls-17" d="M426.33,86.57h33.11a21,21,0,0,1,21,21V131.8"/></g><g id="g1196"><path id="path1198" class="cls-17" d="M195.73,490.43H97.58a21,21,0,0,1-21-21V447.27"/></g><g id="g1200"><path id="path1202" class="cls-17" d="M76.58,322.35V272.83h175.7a24.77,24.77,0,0,0,20.1-10.27l21.48-29.79A24.76,24.76,0,0,1,314,222.48H480.44v247a21,21,0,0,1-21,21H229.11"/></g><g id="g1204"><path id="path1206" class="cls-17" d="M128,272.83V41.64a20.5,20.5,0,0,1,20.51-20.5H351.26a29.84,29.84,0,0,1,21,8.7l48,48a29.76,29.76,0,0,1,6,8.7A29.46,29.46,0,0,1,429,98.89V222.48"/></g><g id="g1208"><path id="path1210" class="cls-17" d="M426.33,86.57h-43.2A19.55,19.55,0,0,1,363.58,67V23.82a29.26,29.26,0,0,1,8.7,6l48,48A29.76,29.76,0,0,1,426.33,86.57Z"/></g><g id="g1212"><path id="path1214" class="cls-17" d="M352.6,322.35a17.77,17.77,0,0,1,17.76,17.77V429.5a17.76,17.76,0,0,1-17.76,17.77H52.22A17.77,17.77,0,0,1,34.45,429.5V340.12a17.78,17.78,0,0,1,17.77-17.77Z"/></g><g id="g1216"><path id="path1218" class="cls-17" d="M326.41,256.2H439.59"/></g><g id="g1220"><path id="path1222" class="cls-17" d="M224.33,272.83h-50V110.93a11,11,0,0,1,11-11h27.9a11,11,0,0,1,11,11Z"/></g><g id="g1224"><path id="path1226" class="cls-17" d="M253.52,187.31V146.5a11,11,0,0,1,11-11h27.9a11,11,0,0,1,11,11v78.31"/></g><g id="g1228"><path id="path1230" class="cls-17" d="M253.52,272.8v-52"/></g><g id="g1232"><path id="path1234" class="cls-17" d="M382.68,222.48h-50v-42a11,11,0,0,1,11-11h27.9a11,11,0,0,1,11,11Z"/></g><g id="g1236"><path id="path1238" class="cls-17" d="M174.35,61.34h50"/></g><g id="g1240"><path id="path1242" class="cls-17" d="M77.91,347.93v73.7c.82.14,25.83,0,25.83,0"/></g><g id="g1244"><path id="path1246" class="cls-17" d="M315.68,354.23a36.88,36.88,0,1,0-20.62,67.46c20.37,0,31.84-16.51,31.84-36.88H304.84"/></g><g id="g1248"><path id="path1250" class="cls-17" d="M216.52,384.81a36.88,36.88,0,1,1-36.88-36.88A36.88,36.88,0,0,1,216.52,384.81Z"/></g></g></g></g></g></svg>