<svg xmlns="http://www.w3.org/2000/svg" width="557.312" height="557.233" viewBox="0 0 557.312 557.233">
  <g id="main-store" transform="translate(0.009)">
    <path id="Path_315" data-name="Path 315" d="M430.9,445.485H12.107c-5.224,0-8.707-3.483-8.707-8.707V206.049c0-5.224,3.483-8.707,8.707-8.707s8.707,3.483,8.707,8.707V428.072H422.2V255.678c0-5.224,3.483-8.707,8.707-8.707s8.707,3.483,8.707,8.707v181.1C439.609,442,436.126,445.485,430.9,445.485ZM173.182,139.877h-94.9c-2.612,0-6.095-1.741-6.965-4.353s-1.741-5.224-.871-8.707L119.2,19.724q2.612-5.224,7.836-5.224h62.689a9.887,9.887,0,0,1,6.965,2.612,6.772,6.772,0,0,1,1.741,6.965L181.889,131.171C181.018,136.395,177.535,139.877,173.182,139.877ZM92.209,122.464h73.137l13.931-89.68H132.26Zm216.8,17.414H268.956c-4.353,0-7.836-3.483-8.707-7.836L255.9,101.568,243.707,25.819c0-2.612,0-5.224,1.741-6.965s4.353-3.483,6.965-3.483h16.543c5.224,0,8.707,3.483,8.707,8.707s-3.483,8.707-8.707,8.707h-6.095l13.931,89.68h32.215c5.224,0,8.707,3.483,8.707,8.707s-3.483,8.707-8.707,8.707Z" transform="translate(26.273 111.748)" fill="#fff"/>
    <path id="Path_316" data-name="Path 316" d="M104.551,139.107H8.776q-5.224,0-7.836-5.224c-1.741-3.483-.871-6.095.871-8.707L75.818,28.531C81.042,19.824,91.491,14.6,103.68,14.6h49.629c2.612,0,6.095,1.741,6.965,4.353s1.741,5.224.871,8.707L112.387,134.753a9.144,9.144,0,0,1-7.836,4.353ZM26.19,121.693H98.456l40.922-89.68h-35.7c-3.483,0-10.448.871-13.931,6.095Zm269.039,17.414H199.455a9.887,9.887,0,0,1-6.965-2.612,6.772,6.772,0,0,1-1.741-6.965L207.291,22.436A8.479,8.479,0,0,1,216,15.471h62.689a9.374,9.374,0,0,1,8.707,6.965l16.543,107.093c0,2.612,0,5.224-1.741,6.965A9.887,9.887,0,0,1,295.229,139.107ZM209.9,121.693h75.749l-13.931-89.68H223.833Z" transform="translate(0 112.519)" fill="#fff"/>
    <path id="Path_317" data-name="Path 317" d="M67.594,121.8C37.12,121.8,11,95.683,11,65.21v-29.6c0-5.224,3.483-8.707,8.707-8.707h95.774c5.224,0,8.707,3.483,8.707,8.707v29.6C124.188,95.683,98.068,121.8,67.594,121.8Zm-39.18-77.49v20.9c0,20.9,18.284,39.18,39.18,39.18s39.18-18.284,39.18-39.18v-20.9ZM258.272,121.8c-30.474,0-56.594-26.12-56.594-56.594v-29.6c0-5.224,3.483-8.707,8.707-8.707h40.051c5.224,0,8.707,3.483,8.707,8.707s-3.483,8.707-8.707,8.707H219.092v20.9c0,20.9,18.284,39.18,39.18,39.18a37.587,37.587,0,0,0,22.638-7.836c3.483-2.612,9.577-2.612,12.189,1.741,2.612,3.483,2.612,9.577-1.741,12.189C281.781,117.45,270.462,121.8,258.272,121.8Z" transform="translate(84.844 207.312)" fill="#fff"/>
    <path id="Path_318" data-name="Path 318" d="M56.594,121.8C26.12,121.8,0,95.683,0,65.21v-29.6C0,30.383,3.483,26.9,8.707,26.9h95.774c5.224,0,8.707,3.483,8.707,8.707v29.6C113.188,95.683,87.068,121.8,56.594,121.8Zm-39.18-77.49v20.9c0,20.9,18.284,39.18,39.18,39.18s39.18-18.284,39.18-39.18v-20.9ZM247.272,121.8c-30.474,0-56.594-26.12-56.594-56.594v-29.6c0-5.224,3.483-8.707,8.707-8.707h95.774c5.224,0,8.707,3.483,8.707,8.707v29.6c0,30.474-26.12,56.594-56.594,56.594Zm-39.18-77.49v20.9c0,20.9,18.284,39.18,39.18,39.18s39.18-18.284,39.18-39.18v-20.9Zm181.1,305.608H267.3c-5.224,0-8.707-3.483-8.707-8.707V193.2c0-16.543,12.189-28.732,28.732-28.732H368.3c16.543,0,29.6,13.06,29.6,28.732V341.214C397.9,346.438,394.417,349.921,389.193,349.921ZM276,332.508H380.486V193.2c0-5.224-4.353-11.319-12.189-11.319H287.323c-6.965,0-11.319,4.353-11.319,11.319Z" transform="translate(0.069 207.312)" fill="#fff"/>
    <path id="Path_319" data-name="Path 319" d="M357.378,464.941h-64.43c-5.224,0-8.707-3.483-8.707-8.707V415.313c0-5.224,3.483-8.707,8.707-8.707h64.43c5.224,0,8.707,3.483,8.707,8.707v40.922C366.084,461.459,362.6,464.941,357.378,464.941Zm-55.723-17.414h47.017V424.02H301.654ZM479.272,557.233H9.107C3.883,557.233.4,553.75.4,548.526s3.483-8.707,8.707-8.707H479.272c5.224,0,8.707,3.483,8.707,8.707S484.5,557.233,479.272,557.233Zm-44.4-213.316a30.751,30.751,0,0,1-26.991-15.672c-41.792-72.266-91.421-167.17-91.421-209.833A118.536,118.536,0,0,1,434.868,0C499.3,0,554.151,53.982,554.151,118.412c0,42.663-49.629,137.567-91.421,209.833A33.271,33.271,0,0,1,434.868,343.917Zm0-326.5a101.071,101.071,0,0,0-101,101c0,30.474,31.344,101.869,89.68,201.126a14.149,14.149,0,0,0,24.379,0c57.465-99.257,88.809-170.653,88.809-201.126C536.737,63.559,489.72,17.414,434.868,17.414Z" transform="translate(3.152)" fill="#fff"/>
    <path id="Path_320" data-name="Path 320" d="M369.46,158.039a76.179,76.179,0,0,1-76.62-76.62,76.62,76.62,0,1,1,153.239,0A76.179,76.179,0,0,1,369.46,158.039Zm0-135.826A59.267,59.267,0,0,0,310.254,81.42c0,32.215,26.991,59.206,59.206,59.206s59.206-26.991,59.206-59.206S401.675,22.214,369.46,22.214Zm-240.307,433.6H35.12A25.654,25.654,0,0,1,9,429.69V365.26a25.654,25.654,0,0,1,26.12-26.12h94.033a25.654,25.654,0,0,1,26.12,26.12v64.43A25.654,25.654,0,0,1,129.153,455.811ZM35.12,356.553c-5.224,0-8.707,3.483-8.707,8.707v64.43c0,5.224,3.483,8.707,8.707,8.707h94.033c5.224,0,8.707-3.483,8.707-8.707V365.26c0-5.224-3.483-8.707-8.707-8.707ZM225.8,474.966c-5.224,0-8.707-3.483-8.707-8.707V454.94c0-5.224,3.483-8.707,8.707-8.707s8.707,3.483,8.707,8.707v11.319C234.505,471.483,231.023,474.966,225.8,474.966Z" transform="translate(69.43 36.992)" fill="#fff"/>
  </g>
</svg>
