<svg id="Layer_1" data-name="Layer 1" xmlns="http://www.w3.org/2000/svg" viewBox="0 0 50 50"><defs><style>.cls-1{fill:#506590;}.cls-2{fill:#6a7aa6;}.cls-3{fill:#ffdaaa;}.cls-4{fill:#ffcd8d;}.cls-5{fill:#ffbd69;}.cls-6{fill:#ebebf9;}.cls-7{fill:#3c4f77;}</style></defs><path class="cls-1" d="M23.64,13.06c1.24.83,1.21,1.76,0,2.79l-4.78,1.3v3.41a1.37,1.37,0,1,1-2.73,0V17.34a2.92,2.92,0,0,1,2.15-2.82Z"/><path class="cls-1" d="M33.87,17.34v3.22a1.37,1.37,0,1,1-2.73,0V17.15l-4.78-1.3c-1.21-1-1.17-2,0-2.79l5.36,1.46a2.92,2.92,0,0,1,2.15,2.82Z"/><path class="cls-2" d="M26.36,16.47a1.36,1.36,0,1,1-2.72,0v-7h2.72Z"/><path class="cls-1" d="M29.09,6.69V8.87a1.45,1.45,0,0,1-1.45,1.46H22.36a1.45,1.45,0,0,1-1.45-1.46V6.69Z"/><path class="cls-3" d="M14.65,24.66H13.44l-2.5.93a8.19,8.19,0,0,0-.42,9.3,4.37,4.37,0,0,0,5.95,0V26.48a1.81,1.81,0,0,0-1.82-1.82Z"/><path class="cls-4" d="M10.94,25.59l-1.67-.93H8.06a1.81,1.81,0,0,0-1.82,1.82v8.89c1.49,1.19,2.92,1.15,4.28-.48a16.44,16.44,0,0,1,.42-9.3Z"/><path class="cls-4" d="M11.79,27.53l.78.57a.55.55,0,0,0,.87-.44v-3H11.36A2.78,2.78,0,0,0,10.29,28l.63-.46a.74.74,0,0,1,.87,0Z"/><path class="cls-5" d="M9.27,24.66v3a.55.55,0,0,0,.87.44l.15-.11a11.24,11.24,0,0,1,1.07-3.33Z"/><path class="cls-3" d="M28.3,24.66H27.09l-2.5.93a8.17,8.17,0,0,0-.42,9.3,4.37,4.37,0,0,0,5.95,0V26.48a1.82,1.82,0,0,0-1.82-1.82Z"/><path class="cls-4" d="M24.58,25.59l-1.67-.93H21.7a1.82,1.82,0,0,0-1.82,1.82v8.89c1.49,1.19,2.92,1.15,4.29-.48a16.35,16.35,0,0,1,.41-9.3Z"/><path class="cls-4" d="M25.44,27.53l.78.57a.55.55,0,0,0,.87-.44v-3H25A2.78,2.78,0,0,0,23.93,28l.63-.46a.75.75,0,0,1,.88,0Z"/><path class="cls-5" d="M22.91,24.66v3a.55.55,0,0,0,.87.44l.15-.11A11.23,11.23,0,0,1,25,24.66Z"/><path class="cls-3" d="M41.94,24.66H40.73l-2.5.93a8.19,8.19,0,0,0-.42,9.3,4.37,4.37,0,0,0,5.95,0V26.48a1.81,1.81,0,0,0-1.82-1.82Z"/><path class="cls-4" d="M38.23,25.59l-1.67-.93H35.35a1.81,1.81,0,0,0-1.82,1.82v8.89c1.49,1.19,2.92,1.15,4.28-.48a16.44,16.44,0,0,1,.42-9.3Z"/><path class="cls-4" d="M39.08,27.53l.78.57a.55.55,0,0,0,.87-.44v-3H38.65A2.78,2.78,0,0,0,37.58,28l.63-.46a.74.74,0,0,1,.87,0Z"/><path class="cls-5" d="M36.56,24.66v3a.55.55,0,0,0,.87.44l.15-.11a11.24,11.24,0,0,1,1.07-3.33Z"/><path class="cls-2" d="M47.51,41a6.13,6.13,0,0,0-6.14-6.14H16.17c-6.32.5-5.69,3.44-5.69,6.14s-1.54,5.46,5.69,6.14h25.2A6.13,6.13,0,0,0,47.51,41Z"/><path class="cls-1" d="M12.33,41a6.83,6.83,0,0,1,3.84-6.14H8.63a6.14,6.14,0,0,0,0,12.28h7.54A6.82,6.82,0,0,1,12.33,41Z"/><path class="cls-2" d="M47.51,4.87a2.72,2.72,0,0,0-2.72-2.73H10.33c-3.58,0-3.58,1.23-3.58,2.73S6.65,7.6,10.33,7.6H44.79A2.72,2.72,0,0,0,47.51,4.87Z"/><path class="cls-1" d="M7.6,4.87a2.73,2.73,0,0,1,2.73-2.73H5.21a2.73,2.73,0,0,0,0,5.46h5.12A2.73,2.73,0,0,1,7.6,4.87Z"/><circle class="cls-6" cx="8.63" cy="41.03" r="2.05"/><circle class="cls-6" cx="16.81" cy="41.03" r="2.05"/><circle class="cls-6" cx="25" cy="41.03" r="2.05"/><circle class="cls-6" cx="33.19" cy="41.03" r="2.05"/><circle class="cls-6" cx="41.37" cy="41.03" r="2.05"/><path class="cls-1" d="M48.2,41a6.82,6.82,0,0,0-6.83-6.82H19.15c-2.12,0-3.82.48-4.1,1.36H41.37A5.55,5.55,0,0,1,43.5,36h0a5.46,5.46,0,0,1-2.13,10.49H15.05c.59.91,2.18,1.4,4.1,1.36H41.37A6.82,6.82,0,0,0,48.2,41Z"/><path class="cls-7" d="M8.63,46.49a5.46,5.46,0,0,1,0-10.92h6.42a6.84,6.84,0,0,1,4.1-1.36H8.63a6.82,6.82,0,1,0,0,13.64H19.15a6.78,6.78,0,0,1-4.1-1.36Z"/></svg>