<svg xmlns="http://www.w3.org/2000/svg" xmlns:xlink="http://www.w3.org/1999/xlink" width="245.952" height="245.952" viewBox="0 0 245.952 245.952">
  <defs>
    <clipPath id="clip-path">
      <path id="Path_6365" data-name="Path 6365" d="M0-682.665H245.952v245.952H0Z" transform="translate(0 682.665)" fill="#fff"/>
    </clipPath>
  </defs>
  <g id="Group_9694" data-name="Group 9694" transform="translate(0 -0.002)">
    <g id="Group_9693" data-name="Group 9693" transform="translate(0 0.002)" clip-path="url(#clip-path)">
      <path id="Path_6359" data-name="Path 6359" d="M0,0V16.189A10.4,10.4,0,0,0,10.4,26.583H227.648a10.4,10.4,0,0,0,10.4-10.395V0Z" transform="translate(3.954 164.44)" fill="none" stroke="#fff" stroke-linecap="round" stroke-linejoin="round" stroke-miterlimit="10" stroke-width="10"/>
      <path id="Path_6360" data-name="Path 6360" d="M-119.568-166.469a28.317,28.317,0,0,1-30.093-30.093,28.377,28.377,0,0,1,26.415-26.414,28.316,28.316,0,0,1,30.092,30.092A28.376,28.376,0,0,1-119.568-166.469Zm53.17-41.608a9.415,9.415,0,0,1-6.7-16.073,10.528,10.528,0,0,0,0-14.89l-4.237-4.237a10.25,10.25,0,0,0-14.623.214,9.415,9.415,0,0,1-16.1-6.631,10.529,10.529,0,0,0-10.529-10.528h-5.652a10.529,10.529,0,0,0-10.529,10.528,9.415,9.415,0,0,1-16.073,6.658,10.529,10.529,0,0,0-14.89,0l-4,4a10.528,10.528,0,0,0,0,14.89,9.415,9.415,0,0,1-6.7,16.073,10.251,10.251,0,0,0-10.491,10.188v5.993a10.529,10.529,0,0,0,10.529,10.528,9.416,9.416,0,0,1,6.658,16.073,10.528,10.528,0,0,0,0,14.89l4,4a10.528,10.528,0,0,0,14.89,0,9.415,9.415,0,0,1,16.073,6.658h0a10.529,10.529,0,0,0,10.529,10.528h5.652a10.529,10.529,0,0,0,10.529-10.528,9.415,9.415,0,0,1,16.073-6.658,10.528,10.528,0,0,0,14.89,0l4-4a10.528,10.528,0,0,0,0-14.89,9.415,9.415,0,0,1,6.7-16.072,10.251,10.251,0,0,0,10.491-10.188v-6.333A10.251,10.251,0,0,0-66.4-208.077Z" transform="translate(244.383 263.825)" fill="none" stroke="#fff" stroke-linecap="round" stroke-linejoin="round" stroke-miterlimit="10" stroke-width="10"/>
      <path id="Path_6361" data-name="Path 6361" d="M-92.193,0H-133.72a10.4,10.4,0,0,0-10.4,10.395V127.346H93.928V10.395A10.4,10.4,0,0,0,83.533,0H42.084" transform="translate(148.07 37.094)" fill="none" stroke="#fff" stroke-linecap="round" stroke-linejoin="round" stroke-miterlimit="10" stroke-width="10"/>
      <path id="Path_6362" data-name="Path 6362" d="M-195.229-33.287H-295.805a9.374,9.374,0,0,1-9.374-9.374,9.374,9.374,0,0,1,9.374-9.374h100.577a9.374,9.374,0,0,1,9.374,9.374A9.374,9.374,0,0,1-195.229-33.287Z" transform="translate(368.493 275.637)" fill="none" stroke="#fff" stroke-linecap="round" stroke-linejoin="round" stroke-miterlimit="10" stroke-width="10"/>
      <path id="Path_6363" data-name="Path 6363" d="M-25.45-57.847A35.035,35.035,0,0,1-39.783-86.109v-4.318" transform="translate(185.616 281.45)" fill="none" stroke="#fff" stroke-linecap="round" stroke-linejoin="round" stroke-miterlimit="10" stroke-width="10"/>
      <path id="Path_6364" data-name="Path 6364" d="M-25.45,0V4.318A35.035,35.035,0,0,1-39.783,32.579" transform="translate(125.568 191.023)" fill="none" stroke="#fff" stroke-linecap="round" stroke-linejoin="round" stroke-miterlimit="10" stroke-width="10"/>
    </g>
  </g>
</svg>
