<svg xmlns="http://www.w3.org/2000/svg" width="495.586" height="496" viewBox="0 0 495.586 496">
  <g id="masters" transform="translate(-8.208 -8)">
    <path id="Path_312" data-name="Path 312" d="M373.619,383.862a174.992,174.992,0,0,0-74.542-39.917,92.653,92.653,0,1,0-86.151,0,175.5,175.5,0,0,0-131.342,151.2A8,8,0,0,0,89.538,504H422.463a8,8,0,0,0,7.954-8.851,175.037,175.037,0,0,0-56.8-111.286Zm-99.15,79.794L256,484.074l-18.469-20.418L250.3,401.782,256,395.017l5.7,6.765ZM255.961,354.588h.081A161.784,161.784,0,0,1,277.3,356L256,372.49,234.705,356a161.768,161.768,0,0,1,21.256-1.407Zm-11.452,29.239-19.067,22.607-23.783-42.385q6.069-2.191,12.3-3.883Zm22.984,0,30.547-23.661q6.255,1.7,12.3,3.883l-23.783,42.385ZM179.349,261.936a76.653,76.653,0,1,1,76.679,76.652h-.053a76.739,76.739,0,0,1-76.626-76.652ZM186.8,370.27l30.336,54.062a7.983,7.983,0,0,0,11.639,2.575l-7.733,37.49a7.994,7.994,0,0,0,1.9,6.982L237.979,488H98.687A158.869,158.869,0,0,1,186.8,370.27ZM274.023,488l15.032-16.62a8,8,0,0,0,1.9-6.982l-7.733-37.49a7.985,7.985,0,0,0,11.639-2.575L325.2,370.27A158.877,158.877,0,0,1,413.314,488ZM187.257,72.6,217.189,96.66l-10.073,37.055a11.064,11.064,0,0,0,16.757,12.176L256,124.858l32.129,21.031a11.078,11.078,0,0,0,16.758-12.173L294.812,96.66,324.741,72.6a11.078,11.078,0,0,0-6.4-19.7l-38.355-1.87-13.63-35.9h0a11.085,11.085,0,0,0-20.713,0l-13.63,35.9L193.66,52.9a11.079,11.079,0,0,0-6.4,19.7Zm48.751-5.744a11.071,11.071,0,0,0,9.82-7.132L256,32.932l10.173,26.795a11.074,11.074,0,0,0,9.816,7.131l28.624,1.4L282.277,86.208a11.079,11.079,0,0,0-3.75,11.541l7.519,27.654-23.979-15.7a11.077,11.077,0,0,0-12.133,0l-23.977,15.7,7.518-27.655a11.072,11.072,0,0,0-3.75-11.54L207.387,68.254ZM48.968,227.2,81.1,206.164,113.228,227.2a11.078,11.078,0,0,0,16.755-12.176l-10.074-37.056,29.933-24.058a11.079,11.079,0,0,0-6.4-19.7l-38.356-1.87-13.63-35.9a11.084,11.084,0,0,0-20.712,0l-13.63,35.9-38.358,1.87a11.078,11.078,0,0,0-6.4,19.7l29.932,24.057L32.211,215.02A11.079,11.079,0,0,0,48.968,227.2ZM32.481,149.559l28.624-1.4a11.077,11.077,0,0,0,9.819-7.132L81.1,114.239l10.173,26.793a11.074,11.074,0,0,0,9.816,7.131l28.626,1.4-22.335,17.952a11.074,11.074,0,0,0-3.754,11.543l7.519,27.655L87.16,191.01a11.077,11.077,0,0,0-12.131,0l-23.978,15.7,7.518-27.655a11.08,11.08,0,0,0-3.749-11.541Zm470.927-4.887a10.99,10.99,0,0,0-9.572-8.159l-38.205-3.874L443.9,96.076a11.078,11.078,0,0,0-20.685-1.086l-15.491,35.139-38.4-.141h-.039a11.078,11.078,0,0,0-7.381,19.338l28.63,25.59-12,36.48a11.079,11.079,0,0,0,16.1,13.032l33.186-19.321L458.8,227.791a11.078,11.078,0,0,0,17.372-11.28l-8.122-37.533L499.2,156.52a10.99,10.99,0,0,0,4.21-11.848Zm-47.331,23.212a11.076,11.076,0,0,0-4.35,11.328l6.062,28.011-23.124-16.93a11.075,11.075,0,0,0-12.118-.635l-24.767,14.42,8.956-27.225a11.078,11.078,0,0,0-3.141-11.721l-21.367-19.1,28.662.1h.035a11.082,11.082,0,0,0,10.138-6.608l11.561-26.224,8.758,27.291a11.078,11.078,0,0,0,9.43,7.633l28.513,2.892ZM81.1,262.547a8,8,0,0,1,8,8V287.16a8,8,0,0,1-16,0V270.547A8,8,0,0,1,81.1,262.547Zm32.63,32.63a8,8,0,0,1,0,16H97.113a8,8,0,0,1,0-16Zm-40.647,8a8,8,0,0,1-8,8H48.467a8,8,0,0,1,0-16H65.08a8,8,0,0,1,8,8Zm8.017,40.63a8,8,0,0,1-8-8V319.194a8,8,0,0,1,16,0v16.613A8,8,0,0,1,81.1,343.807Zm317.266-32.63a8,8,0,1,1,0-16h16.613a8,8,0,0,1,0,16Zm40.63,8.017v16.613a8,8,0,0,1-16,0V319.194a8,8,0,0,1,16,0Zm32.631-16.017a8,8,0,0,1-8,8H447.011a8,8,0,0,1,0-16h16.613A8,8,0,0,1,471.624,303.177Zm-32.631-32.63V287.16a8,8,0,0,1-16,0V270.547a8,8,0,0,1,16,0Z" fill="#fff"/>
  </g>
</svg>
