<svg id="Layer_1" data-name="Layer 1" xmlns="http://www.w3.org/2000/svg" viewBox="0 0 50 50"><defs><style>.cls-1{fill:#efcb9a;}.cls-2{fill:#fff;}.cls-3{fill:#fd614b;}.cls-4{fill:#fecd0d;}.cls-5{fill:#8ce2ff;}.cls-6{fill:#27ae60;}</style></defs><path class="cls-1" d="M44.89,20.79a2.29,2.29,0,0,0-3,.59L37.63,27a5.38,5.38,0,0,1-3.47,2.09L19.72,31l9.94-4a1.65,1.65,0,0,0,1.08-1.6,1.61,1.61,0,0,0-1.69-1.53,1.78,1.78,0,0,0-.39.07L15.45,28.05a6.34,6.34,0,0,0-3.8,3l-2.5,4.5L5.38,46.89H16.7l.57-4.54a2.38,2.38,0,0,1,1.61-2L38.08,34a5.43,5.43,0,0,0,3-2.54L45.68,24a2.3,2.3,0,0,0-.77-3.16Z"/><path class="cls-2" d="M42.67,11.74,39.37,15a3.11,3.11,0,0,1-4.4-4.4l3.3-3.29Z"/><path class="cls-3" d="M42.67,11.73,46,8.43A3.11,3.11,0,0,0,41.58,4h0l-3.31,3.3Z"/><path class="cls-4" d="M11.73,7.33l-4.4,4.4L4,8.43A3.11,3.11,0,0,1,8.43,4Z"/><path class="cls-2" d="M15,10.63l-3.3-3.29-4.4,4.4L10.63,15a3.11,3.11,0,0,0,4.4-4.4Z"/><circle class="cls-5" cx="25" cy="7.64" r="4.53"/><path class="cls-5" d="M21.8,10.94l6.4-6.4"/><path class="cls-2" d="M20.47,15.19a3,3,0,0,0,0,6H25v-6Z"/><path class="cls-6" d="M29.53,15.19H25v6h4.53a3,3,0,0,0,0-6Z"/><path class="cls-3" d="M10.84,19.52a4.47,4.47,0,0,1,0,6.32l0,0a4.56,4.56,0,0,1-6.4,0,4.48,4.48,0,0,1,0-6.32l0,0a4.56,4.56,0,0,1,6.4,0Z"/><path d="M29.93,27.75a2.35,2.35,0,0,0,.55-4.16,2.32,2.32,0,0,0-2-.32l-13.2,4.06A7.06,7.06,0,0,0,11,30.7l-2.5,4.5a.5.5,0,0,0-.05.13L4.66,46.65a.75.75,0,0,0,.48,1,.64.64,0,0,0,.24,0H16.7a.76.76,0,0,0,.75-.66L18,42.44a1.64,1.64,0,0,1,1.11-1.35l19.2-6.4a6.15,6.15,0,0,0,3.44-2.86l4.56-7.47a3.06,3.06,0,0,0-5.06-3.43L37,26.57a4.59,4.59,0,0,1-3,1.8L25.58,29.5Zm4.35,2.12a6.16,6.16,0,0,0,4-2.39l4.23-5.65A1.55,1.55,0,0,1,45,23.57l-4.58,7.5a4.63,4.63,0,0,1-2.61,2.19l-19.2,6.4a3.15,3.15,0,0,0-2.12,2.59L16,46.13H6.43L9.84,35.87l2.47-4.43a5.61,5.61,0,0,1,3.36-2.67l13.21-4.06a.87.87,0,0,1,1.11.78.92.92,0,0,1-.61.86l-9.94,4a.74.74,0,0,0-.42,1,.77.77,0,0,0,.8.47Z"/><path d="M25,2.36a5.29,5.29,0,1,0,5.28,5.28A5.28,5.28,0,0,0,25,2.36Zm0,1.51a3.74,3.74,0,0,1,2.14.67L21.9,9.78A3.76,3.76,0,0,1,25,3.87Zm0,7.55a3.78,3.78,0,0,1-2-.6l5.19-5.19A3.75,3.75,0,0,1,27,10.82,3.8,3.8,0,0,1,25,11.42Z"/><path d="M29.53,14.44H20.47a3.77,3.77,0,0,0,0,7.54h9.06a3.77,3.77,0,0,0,0-7.54ZM18.21,18.21a2.27,2.27,0,0,1,2.26-2.27h3.78v4.53H20.47A2.26,2.26,0,0,1,18.21,18.21Zm11.32,2.26H25.75V15.94h3.78a2.27,2.27,0,0,1,0,4.53Z"/><path d="M7.64,28A5.26,5.26,0,0,0,11.42,19l-.05,0a5.31,5.31,0,0,0-7.46,0,5.21,5.21,0,0,0,0,7.38l0,0A5.27,5.27,0,0,0,7.64,28Zm3.78-5.25a3.69,3.69,0,0,1-1.11,2.64,3.79,3.79,0,0,1-1.84,1V19.06a3.79,3.79,0,0,1,1.84,1,3.71,3.71,0,0,1,1.11,2.64ZM5,20.06a3.72,3.72,0,0,1,2-1v7.34a3.73,3.73,0,0,1-2-6.28l0,0Z"/><path d="M15.57,10.1,9,3.49A3.87,3.87,0,0,0,3.49,9h0l6.61,6.61a3.87,3.87,0,0,0,5.47-5.47Zm-11-5.54a2.35,2.35,0,0,1,3.33,0l2.77,2.77L7.33,10.66,4.56,7.9A2.37,2.37,0,0,1,4.56,4.56ZM14.5,14.5a2.37,2.37,0,0,1-3.34,0L8.39,11.73l3.34-3.34,2.77,2.77A2.37,2.37,0,0,1,14.5,14.5Z"/><path d="M37.17,16.7a3.86,3.86,0,0,0,2.73-1.13L46.51,9A3.87,3.87,0,0,0,41,3.49h0L34.43,10.1a3.87,3.87,0,0,0,2.74,6.6ZM42.11,4.56A2.36,2.36,0,0,1,45.44,7.9h0l-2.77,2.76L39.34,7.33Zm-6.61,6.6L38.27,8.4l3.34,3.33L38.84,14.5a2.36,2.36,0,0,1-3.34-3.34Z"/></svg>