<svg xmlns="http://www.w3.org/2000/svg" width="44.002" height="30.744" viewBox="0 0 44.002 30.744">
  <g id="Missed_call" data-name="Missed call" transform="translate(-2 -9)">
    <path id="Path_5326" data-name="Path 5326" d="M24,23.007a4.37,4.37,0,0,1-3.109-1.288l-9.305-9.305,2.828-2.828,9.306,9.3a.344.344,0,0,0,.56,0l9.307-9.305,2.828,2.828-9.306,9.3A4.366,4.366,0,0,1,24,23.007Z" fill="#f44336"/>
    <path id="Path_5327" data-name="Path 5327" d="M31.411,31.19l-.572,4a1.861,1.861,0,0,0,1.308,2.046l8.086,2.426a1.862,1.862,0,0,0,2.141-.841l3.24-5.524a2.786,2.786,0,0,0-1.186-3.925A47.574,47.574,0,0,0,24,25,47.563,47.563,0,0,0,3.572,29.376,2.787,2.787,0,0,0,2.386,33.3l3.24,5.524a1.862,1.862,0,0,0,2.141.841l8.086-2.426a1.862,1.862,0,0,0,1.308-2.046l-.573-4.007A1.86,1.86,0,0,1,18.2,29.073a48.145,48.145,0,0,1,11.606,0,1.858,1.858,0,0,1,1.608,2.113Z" fill="#d32f2f"/>
    <path id="Path_5328" data-name="Path 5328" d="M37,9V19L27,9Z" fill="#f44336"/>
  </g>
</svg>
