<svg id="Layer_1" data-name="Layer 1" xmlns="http://www.w3.org/2000/svg" xmlns:xlink="http://www.w3.org/1999/xlink" viewBox="0 0 50 50"><defs><style>.cls-1,.cls-15{fill:none;}.cls-2{clip-path:url(#clip-path);}.cls-3{fill:#ff4155;}.cls-4{fill:#e80054;}.cls-5{fill:#3c58a0;}.cls-6{fill:#2a428c;}.cls-7{fill:#e9efff;}.cls-8{fill:#d3dcfb;}.cls-9{fill:#9bd8f9;}.cls-10{fill:#73c3f9;}.cls-11{fill:#4fabf7;}.cls-12{fill:#ffdd40;}.cls-13{fill:#ffb332;}.cls-14{fill:#bec8f7;}.cls-15{stroke:#000;stroke-linecap:round;stroke-linejoin:round;stroke-width:1.41px;}</style><clipPath id="clip-path"><rect class="cls-1" x="1.02" y="1.02" width="47.96" height="47.96"/></clipPath></defs><g id="g3222"><g id="g3224"><g class="cls-2"><g id="g3226"><g id="g3232"><path id="path3234" class="cls-3" d="M35.86,10.42v13L34.31,25l1.55,1.55v4.66a1.54,1.54,0,0,1-1.55,1.55H32.76L25,31.21l-7.76,1.55H15.69a1.54,1.54,0,0,1-1.55-1.55V26.55L15.69,25l-1.55-1.55v-13L25,3.48Z"/></g><g id="g3236"><path id="path3238" class="cls-4" d="M33.71,9V31.21a1.54,1.54,0,0,1-1.18,1.5l.23,0h1.55a1.54,1.54,0,0,0,1.55-1.55V26.55L34.31,25l1.55-1.55v-13Z"/></g><g id="g3240"><path id="path3242" class="cls-5" d="M37.46,13.45l-12-8a.79.79,0,0,0-.86,0l-12,8a.79.79,0,0,1-1.08-.22l-.86-1.29a.78.78,0,0,1,.22-1.08L24.14,2a1.54,1.54,0,0,1,1.72,0l13.32,8.88a.78.78,0,0,1,.22,1.08l-.86,1.29a.79.79,0,0,1-1.08.22"/></g><g id="g3244"><path id="path3246" class="cls-6" d="M39.18,10.86,25.86,2a1.54,1.54,0,0,0-1.72,0l-.22.15L37,10.86a.77.77,0,0,1,.21,1.08l-.62.94.84.57a.79.79,0,0,0,1.08-.22l.86-1.29a.78.78,0,0,0-.22-1.08"/></g><g id="g3248"><path id="path3250" class="cls-7" d="M14.14,23.45h2.35a.75.75,0,0,1,.75.75v1.6a.75.75,0,0,1-.75.75H14.14Z"/></g><g id="g3252"><path id="path3254" class="cls-7" d="M35.86,26.55H33.51a.75.75,0,0,1-.75-.75V24.2a.75.75,0,0,1,.75-.75h2.35Z"/></g><path id="path3256" class="cls-8" d="M33.71,26.55h2.15v-3.1H33.71Z"/><g id="g3258"><path id="path3260" class="cls-9" d="M26.55,35.09V32h-3.1v3.11a.77.77,0,0,1-.78.77H7.93a1.55,1.55,0,0,0-1.55,1.56v5.12h3.1v-2.8a.78.78,0,0,1,.78-.77H22.67a.78.78,0,0,1,.78.77v2.8h3.1v-2.8a.78.78,0,0,1,.78-.77H39.74a.78.78,0,0,1,.78.77v2.8h3.1V37.42a1.55,1.55,0,0,0-1.55-1.56H27.33a.77.77,0,0,1-.78-.77"/></g><g id="g3262"><path id="path3264" class="cls-10" d="M25.18,35.86h2.15a.77.77,0,0,1-.78-.77V32H24.4v3.11a.77.77,0,0,0,.78.77"/></g><g id="g3266"><path id="path3268" class="cls-10" d="M42.07,35.86H39.92a1.55,1.55,0,0,1,1.55,1.56v5.12h2.15V37.42a1.55,1.55,0,0,0-1.55-1.56"/></g><g id="g3270"><path id="path3272" class="cls-9" d="M26.55,12.58A1.55,1.55,0,1,1,25,11a1.55,1.55,0,0,1,1.55,1.55"/></g><path id="path3274" class="cls-11" d="M28.1,27.1H21.9V19.8h6.2Z"/><g id="g3276"><path id="path3278" class="cls-7" d="M28.91,20.34H21.09a.75.75,0,0,1-.75-.75V18a.76.76,0,0,1,.75-.75h7.82a.76.76,0,0,1,.75.75v1.6a.75.75,0,0,1-.75.75"/></g><g id="g3280"><path id="path3282" class="cls-8" d="M28.91,17.24H26.75a.75.75,0,0,1,.75.75v1.6a.74.74,0,0,1-.75.75h2.16a.75.75,0,0,0,.75-.75V18a.76.76,0,0,0-.75-.75"/></g><g id="g3284"><path id="path3286" class="cls-7" d="M29.66,30.2H20.34V27.3a.76.76,0,0,1,.75-.75h7.82a.76.76,0,0,1,.75.75Z"/></g><g id="g3288"><path id="path3290" class="cls-8" d="M32.76,32.76H17.24V30.41a.75.75,0,0,1,.75-.75H32a.75.75,0,0,1,.75.75Z"/></g><g id="g3292"><path id="path3294" class="cls-12" d="M11.09,48.28H4.77a1.5,1.5,0,0,1-1.5-1.5V43.57a1.5,1.5,0,0,1,1.5-1.5h6.32a1.5,1.5,0,0,1,1.49,1.5v3.21a1.5,1.5,0,0,1-1.49,1.5"/></g><g id="g3296"><path id="path3298" class="cls-12" d="M28.16,48.28H21.84a1.5,1.5,0,0,1-1.5-1.5V43.57a1.5,1.5,0,0,1,1.5-1.5h6.32a1.5,1.5,0,0,1,1.5,1.5v3.21a1.5,1.5,0,0,1-1.5,1.5"/></g><g id="g3300"><path id="path3302" class="cls-12" d="M45.23,48.28H38.91a1.5,1.5,0,0,1-1.49-1.5V43.57a1.5,1.5,0,0,1,1.49-1.5h6.32a1.5,1.5,0,0,1,1.5,1.5v3.21a1.5,1.5,0,0,1-1.5,1.5"/></g><g id="g3304"><path id="path3306" class="cls-13" d="M45.23,42.07H43.06a1.5,1.5,0,0,1,1.5,1.5v3.21a1.5,1.5,0,0,1-1.5,1.5h2.17a1.5,1.5,0,0,0,1.5-1.5V43.57a1.5,1.5,0,0,0-1.5-1.5"/></g><g id="g3308"><path id="path3310" class="cls-13" d="M28.16,42.07H26a1.5,1.5,0,0,1,1.5,1.5v3.21a1.5,1.5,0,0,1-1.5,1.5h2.17a1.5,1.5,0,0,0,1.5-1.5V43.57a1.5,1.5,0,0,0-1.5-1.5"/></g><g id="g3312"><path id="path3314" class="cls-13" d="M11.09,42.07H8.92a1.5,1.5,0,0,1,1.5,1.5v3.21a1.5,1.5,0,0,1-1.5,1.5h2.17a1.5,1.5,0,0,0,1.49-1.5V43.57a1.5,1.5,0,0,0-1.49-1.5"/></g><g id="g3316"><path id="path3318" class="cls-8" d="M28.91,26.55H26.75a.75.75,0,0,1,.75.75v2.9h2.16V27.3a.76.76,0,0,0-.75-.75"/></g><g id="g3320"><path id="path3322" class="cls-14" d="M32,29.66H29.86a.75.75,0,0,1,.75.75v2.35h2.15V30.41a.75.75,0,0,0-.75-.75"/></g><g id="g3324"><path id="path3326" class="cls-15" d="M37.46,13.45l-12-8a.79.79,0,0,0-.86,0l-12,8a.79.79,0,0,1-1.08-.22l-.86-1.29a.78.78,0,0,1,.22-1.08L24.14,2a1.54,1.54,0,0,1,1.72,0l13.32,8.88a.78.78,0,0,1,.22,1.08l-.86,1.29A.79.79,0,0,1,37.46,13.45Z"/></g><g id="g3328"><path id="path3330" class="cls-15" d="M26.55,12.58A1.55,1.55,0,1,1,25,11,1.55,1.55,0,0,1,26.55,12.58Z"/></g><path id="path3332" class="cls-15" d="M28.1,26.55H21.9V20.34h6.2Z"/><g id="g3334"><path id="path3336" class="cls-15" d="M28.91,20.34H21.09a.75.75,0,0,1-.75-.75V18a.76.76,0,0,1,.75-.75h7.82a.76.76,0,0,1,.75.75v1.6A.75.75,0,0,1,28.91,20.34Z"/></g><g id="g3338"><path id="path3340" class="cls-15" d="M25,20.34v6.21"/></g><g id="g3342"><path id="path3344" class="cls-15" d="M29.66,29.66H20.34V27.3a.76.76,0,0,1,.75-.75h7.82a.76.76,0,0,1,.75.75Z"/></g><g id="g3346"><path id="path3348" class="cls-15" d="M32.76,32.76H17.24V30.41a.75.75,0,0,1,.75-.75H32a.75.75,0,0,1,.75.75Z"/></g><g id="g3350"><path id="path3352" class="cls-15" d="M14.14,15.83V12.58"/></g><g id="g3354"><path id="path3356" class="cls-15" d="M17.24,32.76H15.69a1.54,1.54,0,0,1-1.55-1.55V18.65"/></g><g id="g3358"><path id="path3360" class="cls-15" d="M32.76,32.76h1.55a1.54,1.54,0,0,0,1.55-1.55V12.58"/></g><g id="g3362"><path id="path3364" class="cls-15" d="M14.14,23.45h2.35a.75.75,0,0,1,.75.75v1.6a.75.75,0,0,1-.75.75H14.14Z"/></g><g id="g3366"><path id="path3368" class="cls-15" d="M35.86,26.55H33.51a.75.75,0,0,1-.75-.75V24.2a.75.75,0,0,1,.75-.75h2.35Z"/></g><g id="g3370"><path id="path3372" class="cls-15" d="M11.09,48.28H4.77a1.5,1.5,0,0,1-1.5-1.5V43.57a1.5,1.5,0,0,1,1.5-1.5h6.32a1.5,1.5,0,0,1,1.49,1.5v3.21A1.5,1.5,0,0,1,11.09,48.28Z"/></g><g id="g3374"><path id="path3376" class="cls-15" d="M28.16,48.28H21.84a1.5,1.5,0,0,1-1.5-1.5V43.57a1.5,1.5,0,0,1,1.5-1.5h6.32a1.5,1.5,0,0,1,1.5,1.5v3.21A1.5,1.5,0,0,1,28.16,48.28Z"/></g><g id="g3378"><path id="path3380" class="cls-15" d="M45.23,48.28H38.91a1.5,1.5,0,0,1-1.49-1.5V43.57a1.5,1.5,0,0,1,1.49-1.5h6.32a1.5,1.5,0,0,1,1.5,1.5v3.21A1.5,1.5,0,0,1,45.23,48.28Z"/></g><g id="g3382"><path id="path3384" class="cls-15" d="M15.54,39h7.13a.78.78,0,0,1,.78.77v2.33h3.1V39.74a.78.78,0,0,1,.78-.77H39.74a.78.78,0,0,1,.78.77v2.33h3.1V37.42a1.55,1.55,0,0,0-1.55-1.56H27.33a.77.77,0,0,1-.78-.77V32.76h-3.1v2.33a.77.77,0,0,1-.78.77H7.93a1.55,1.55,0,0,0-1.55,1.56v4.65h3.1V39.74a.78.78,0,0,1,.78-.77h2.47"/></g></g></g></g></g></svg>