<svg xmlns="http://www.w3.org/2000/svg" width="645.601" height="538" viewBox="0 0 645.601 538">
  <g id="my-store" transform="translate(-2 -7)">
    <path id="Path_313" data-name="Path 313" d="M620.163,50.04H464.681v-14.2A28.837,28.837,0,0,0,435.844,7H213.757A28.837,28.837,0,0,0,184.92,35.837v14.2H29.438A27.438,27.438,0,0,0,2,77.478v95.764a27.546,27.546,0,0,0,21.52,26.792V515.949A29.052,29.052,0,0,0,52.572,545H597.029a29.052,29.052,0,0,0,29.052-29.052V200.035a27.546,27.546,0,0,0,21.52-26.792V77.478A27.438,27.438,0,0,0,620.163,50.04ZM206.44,35.837a7.209,7.209,0,0,1,7.317-7.317H435.844a7.209,7.209,0,0,1,7.317,7.317V193.363a7.209,7.209,0,0,1-7.317,7.317H213.757a7.209,7.209,0,0,1-7.317-7.317ZM23.52,77.478a5.918,5.918,0,0,1,5.918-5.918H184.92V93.08H23.52Zm0,37.122h161.4v21.52H23.52Zm5.918,64.56a5.918,5.918,0,0,1-5.918-5.918v-15.6h161.4v21.52Zm467.523,344.32h-43.04V285.254A9.361,9.361,0,0,1,463.174,276h33.786Zm64.56,0h-43.04V276h33.786a9.361,9.361,0,0,1,9.254,9.254Zm43.04-7.532a7.532,7.532,0,0,1-7.532,7.532H583.041V285.254a30.774,30.774,0,0,0-30.774-30.774H463.174A30.774,30.774,0,0,0,432.4,285.254V523.481H52.572a7.532,7.532,0,0,1-7.532-7.532V200.68H186a28.729,28.729,0,0,0,27.761,21.52H435.844A28.729,28.729,0,0,0,463.6,200.68H604.561Zm21.52-342.706a5.918,5.918,0,0,1-5.918,5.918H464.681V157.64h161.4Zm0-37.122h-161.4V114.6h161.4Zm0-43.04h-161.4V71.56H620.163a5.918,5.918,0,0,1,5.918,5.918Z" transform="translate(0 0)" fill="#fff"/>
    <path id="Path_314" data-name="Path 314" d="M142.285,225.2H34.685A27.115,27.115,0,0,0,8,252.318v161.4A27.115,27.115,0,0,0,35.115,440.4h107.6A27.115,27.115,0,0,0,169.4,413.288v-161.4A27.115,27.115,0,0,0,142.285,225.2Zm5.6,188.085a5.6,5.6,0,0,1-5.6,5.6H34.685a5.6,5.6,0,0,1-5.6-5.6v-161.4a5.6,5.6,0,0,1,5.6-5.6h107.6a5.6,5.6,0,0,1,5.6,5.6ZM325.205,225.2h-107.6a27.115,27.115,0,0,0-26.685,27.115v161.4A27.115,27.115,0,0,0,218.036,440.4h107.6a27.115,27.115,0,0,0,26.685-27.115v-161.4A27.115,27.115,0,0,0,325.205,225.2Zm5.6,188.085a5.6,5.6,0,0,1-5.6,5.6h-107.6a5.6,5.6,0,0,1-5.6-5.6v-161.4a5.6,5.6,0,0,1,5.6-5.6h107.6a5.6,5.6,0,0,1,5.6,5.6ZM220.941,160.643h90.6a30.558,30.558,0,0,0,22.488-9.9,29.805,29.805,0,0,0,7.532-22.381L332.092,36.58A29.805,29.805,0,0,0,302.071,10H230.41A29.805,29.805,0,0,0,200.5,36.472l-9.576,91.891a29.805,29.805,0,0,0,7.424,22.488A30.559,30.559,0,0,0,220.941,160.643Zm34.54-129.12H277v21.52H255.48Zm-33.571,7.209a8.285,8.285,0,0,1,8.5-7.209h3.551V63.8a10.76,10.76,0,0,0,10.76,10.76h43.04A10.76,10.76,0,0,0,298.52,63.8V31.522h3.551a8.285,8.285,0,0,1,8.5,7.209l9.469,91.675A7.963,7.963,0,0,1,318,136.325a8.931,8.931,0,0,1-6.456,2.8h-90.6a8.931,8.931,0,0,1-6.456-2.8,7.962,7.962,0,0,1-2.044-5.918Z" transform="translate(58.56 29.278)" fill="#fff"/>
  </g>
</svg>
