<svg xmlns="http://www.w3.org/2000/svg" width="205.165" height="205.161" viewBox="0 0 205.165 205.161">
  <g id="Group_9692" data-name="Group 9692" transform="translate(0 -0.005)">
    <path id="Path_6357" data-name="Path 6357" d="M198.72,75.98a18.01,18.01,0,0,0-25.336,2.206L156.275,98.432V39.725a18.107,18.107,0,0,0-5.613-13.073L127.83,4.963A17.957,17.957,0,0,0,115.412,0H18.032A18.052,18.052,0,0,0,0,18.037v169.1a18.052,18.052,0,0,0,18.032,18.032H138.243a18.052,18.052,0,0,0,18.032-18.032V154.291l44.667-52.908A18.021,18.021,0,0,0,198.72,75.98ZM120.212,14.306C144.26,37.15,142.552,35.481,143,36.069H120.212Zm24.042,172.828a6.018,6.018,0,0,1-6.011,6.011H18.032a6.018,6.018,0,0,1-6.011-6.011V18.037a6.018,6.018,0,0,1,6.011-6.011H108.19V42.079a6.011,6.011,0,0,0,6.011,6.011h30.053v64.567L118.7,142.894a18.123,18.123,0,0,0-3.725,7.4l-5.586,23.384a6.01,6.01,0,0,0,8.237,6.911l22.059-9.562a18.123,18.123,0,0,0,4.569-2.866v18.971Zm-14.3-38.937,9.208,7.726-2.048,2.425A6.033,6.033,0,0,1,134.9,160l-11.029,4.781,2.793-11.692a6.018,6.018,0,0,1,1.228-2.451l2.061-2.44Zm16.962-1.46-9.2-7.722L170.939,99.7l9.184,7.706Zm44.826-53.1-3.866,4.58-9.18-7.7,3.88-4.591a5.99,5.99,0,0,1,9.166,7.713Z" fill="#fff"/>
    <path id="Path_6358" data-name="Path 6358" d="M126.115,90H66.009a6.011,6.011,0,0,0,0,12.021h60.106a6.011,6.011,0,0,0,0-12.021Zm36.063,36.464H66.009a6.011,6.011,0,0,0,0,12.021h96.169a6.011,6.011,0,0,0,0-12.021Zm0,36.064H66.009a6.011,6.011,0,0,0,0,12.021h96.169a6.011,6.011,0,0,0,0-12.021Zm-36.063,36.063H66.009a6.011,6.011,0,0,0,0,12.021h60.106a6.011,6.011,0,0,0,0-12.021Z" transform="translate(-35.956 -53.935)" fill="#fff"/>
  </g>
</svg>
