<svg xmlns="http://www.w3.org/2000/svg" width="64" height="64.001" viewBox="0 0 64 64.001">
  <g id="Night" transform="translate(0 -0.001)">
    <g id="Half_Moon" data-name="Half Moon">
      <path id="Path_5508" data-name="Path 5508" d="M63.787,47.142a1,1,0,0,0-1.111-.33,33.686,33.686,0,0,1-10.936,1.8c-17.9,0-32.467-13.874-32.467-30.926A29.717,29.717,0,0,1,24.047,1.542,1,1,0,0,0,22.885.054C9.2,4.715,0,17.181,0,31.073,0,49.229,15.462,64,34.467,64A34.63,34.63,0,0,0,63.841,48.3,1,1,0,0,0,63.787,47.142Z" fill="#ffd747"/>
      <path id="Path_5509" data-name="Path 5509" d="M32.5,25.5a4,4,0,0,1,4,4,1,1,0,0,0,2,0,4,4,0,0,1,4-4,1,1,0,0,0,0-2,4,4,0,0,1-4-4,1,1,0,0,0-2,0,4,4,0,0,1-4,4,1,1,0,0,0,0,2ZM47,19a4,4,0,0,1,4,4,1,1,0,0,0,2,0,4,4,0,0,1,4-4,1,1,0,0,0,0-2,4,4,0,0,1-4-4,1,1,0,0,0-2,0,4,4,0,0,1-4,4,1,1,0,0,0,0,2ZM41,37a1,1,0,0,0,1,1,4,4,0,0,1,4,4,1,1,0,0,0,2,0,4,4,0,0,1,4-4,1,1,0,0,0,0-2,4,4,0,0,1-4-4,1,1,0,0,0-2,0,4,4,0,0,1-4,4A1,1,0,0,0,41,37Z" fill="#ffd747"/>
    </g>
  </g>
</svg>
