<svg id="Group_9932" data-name="Group 9932" xmlns="http://www.w3.org/2000/svg" width="59.992" height="60" viewBox="0 0 59.992 60">
  <g id="Group_9932-2" data-name="Group 9932">
    <path id="Path_6460" data-name="Path 6460" d="M3,60H42a3,3,0,0,0,3-3V41a1,1,0,0,0-2,0V57a1,1,0,0,1-1,1H3a1,1,0,0,1-1-1V16H12a4,4,0,0,0,4-4V2H42a1,1,0,0,1,1,1V19a1,1,0,0,0,2,0V3a3,3,0,0,0-3-3H15.829a2.978,2.978,0,0,0-2.122.879L.879,13.707A2.978,2.978,0,0,0,0,15.829V57a3,3,0,0,0,3,3ZM14,3.414V12a2,2,0,0,1-2,2H3.414Z" fill="#999"/>
    <path id="Path_6461" data-name="Path 6461" d="M6,21a1,1,0,0,0,1,1H38a1,1,0,0,0,0-2H7A1,1,0,0,0,6,21Zm1,6H30.77a1,1,0,1,0,0-2H7a1,1,0,0,0,0,2Zm0,5H23.53a1,1,0,0,0,0-2H7a1,1,0,0,0,0,2Zm0,9h7.52a1,1,0,1,0,0-2H7a1,1,0,0,0,0,2Zm0,5h4.11a1,1,0,1,0,0-2H7a1,1,0,0,0,0,2Z" fill="#999"/>
    <path id="Path_6462" data-name="Path 6462" d="M41.58,24.6,21.994,38.147a2,2,0,0,0-.515.519L15.2,47.872A2,2,0,0,0,14.85,49H7a1,1,0,0,0,0,2h9.845a2.038,2.038,0,0,0,.479-.058L28.15,48.316a1.98,1.98,0,0,0,.669-.3L48.4,34.472l4.112-2.844,5.757-3.981a4.005,4.005,0,0,0,1.015-5.565l-2.276-3.29a4,4,0,0,0-5.565-1.015l-5.757,3.982Zm4.427-.63,4.551,6.58L48.09,32.258l-4.55-6.58Zm.438,9.424L28.351,45.909,23.8,39.33,41.9,26.816ZM22.415,40.84l4.032,5.83-4.166,1.01L20,44.383Zm-3.622,5.311L20.2,48.187,16.852,49Zm33.794-26.73a2,2,0,0,1,2.783.508l2.275,3.29A2,2,0,0,1,57.137,26L52.2,29.414l-4.551-6.58ZM38,49v4H34a1,1,0,0,0,0,2h5a1,1,0,0,0,1-1V49a1,1,0,0,0-2,0ZM39,5H31a1,1,0,0,0,0,2h8a1,1,0,0,0,0-2Zm0,4H34a1,1,0,0,0,0,2h5a1,1,0,0,0,0-2Z" fill="#999"/>
  </g>
</svg>
