<svg xmlns="http://www.w3.org/2000/svg" xmlns:xlink="http://www.w3.org/1999/xlink" width="512" height="512" viewBox="0 0 512 512">
  <defs>
    <clipPath id="clip-path">
      <rect id="Rectangle_4236" data-name="Rectangle 4236" width="512" height="512" transform="translate(12333 305)" fill="#252525" stroke="#252525" stroke-width="1"/>
    </clipPath>
  </defs>
  <g id="notes" transform="translate(-12333 -305)" clip-path="url(#clip-path)">
    <g id="Group_9771" data-name="Group 9771" transform="translate(12388 360.74)">
      <path id="Path_6564" data-name="Path 6564" d="M370.59,250.973a10,10,0,0,0-10,10v88.789a30.031,30.031,0,0,1-30,30H50a30.031,30.031,0,0,1-30-30V89.172a30.036,30.036,0,0,1,30-30h88.79a10,10,0,0,0,0-20H50a50.055,50.055,0,0,0-50,50V349.766a50.057,50.057,0,0,0,50,50H330.59a50.057,50.057,0,0,0,50-50V260.973a10,10,0,0,0-10-10Zm0,0" fill="#252525" stroke="#252525" stroke-width="8"/>
      <path id="Path_6565" data-name="Path 6565" d="M376.629,13.441a45,45,0,0,0-63.64,0L134.581,191.848a10,10,0,0,0-2.566,4.4l-23.461,84.7a10,10,0,0,0,12.3,12.308l84.7-23.465a10,10,0,0,0,4.4-2.566l178.4-178.41a45.05,45.05,0,0,0,0-63.641ZM156.37,198.348,302.383,52.332l47.09,47.09L203.457,245.438Zm-9.406,18.875,37.62,37.625-52.038,14.418ZM374.223,74.676l-10.606,10.6-47.094-47.09,10.61-10.6a25,25,0,0,1,35.351,0L374.223,39.32a25.037,25.037,0,0,1,0,35.36Zm0,0" fill="#252525" stroke="#252525" stroke-width="8"/>
    </g>
  </g>
</svg>
