<svg xmlns="http://www.w3.org/2000/svg" width="188.698" height="207.556" viewBox="0 0 188.698 207.556">
  <g id="Group_51434" data-name="Group 51434" transform="translate(-3.999 -2)">
    <path id="Path_20868" data-name="Path 20868" d="M175.4,166.38H21.3a17.293,17.293,0,0,1-10.373-31.133l7.769-5.826a14.09,14.09,0,0,0,5.472-9.024l9.75-59.172a65.2,65.2,0,0,1,128.873.047L172.53,120.4A14.09,14.09,0,0,0,178,129.421l7.769,5.826a17.293,17.293,0,0,1-10.378,31.133ZM98.348,15.431a55.46,55.46,0,0,0-55.12,47.28L33.473,121.93a23.487,23.487,0,0,1-9.118,15.034l-7.774,5.83A7.864,7.864,0,0,0,21.3,156.946h154.1a7.859,7.859,0,0,0,4.717-14.152l-7.774-5.83a23.487,23.487,0,0,1-9.118-15.034l-9.755-59.172A55.469,55.469,0,0,0,98.358,15.431Z" transform="translate(0 14.872)" fill="#fff"/>
    <path id="Path_20869" data-name="Path 20869" d="M64.172,32a4.717,4.717,0,0,1-4.717-4.717V20.869a9.434,9.434,0,0,0-18.869,0v6.415a4.717,4.717,0,1,1-9.434,0V20.869a18.869,18.869,0,0,1,37.737,0v6.415A4.717,4.717,0,0,1,64.172,32ZM50.02,209.556A33.058,33.058,0,0,1,17,176.535a4.717,4.717,0,1,1,9.434,0,23.586,23.586,0,0,0,47.172,0,4.717,4.717,0,1,1,9.434,0A33.058,33.058,0,0,1,50.02,209.556Z" transform="translate(48.328 0)" fill="#fff"/>
  </g>
</svg>
