<svg id="Layer_1" data-name="Layer 1" xmlns="http://www.w3.org/2000/svg" viewBox="0 0 50 50"><defs><style>.cls-1{fill:#acd5df;}.cls-2{fill:#9abbd0;}.cls-3{fill:#c5f3ff;}.cls-4{fill:#e5faff;}.cls-5{fill:#fff;}.cls-6{fill:#ff3e3a;}.cls-7{fill:#4a527b;}</style></defs><path class="cls-1" d="M38.57,35.78,8.46,42.91v2.85a2.85,2.85,0,0,0,2.85,2.85H41.42Z"/><path class="cls-2" d="M35.72,35.78v4.28a2.84,2.84,0,0,1,2.85,2.85v2.85a2.86,2.86,0,0,0,2.85,2.85h2.85V35.78Z"/><path class="cls-3" d="M44.27,1.39H11.12A2.86,2.86,0,0,0,8.43,3.3a.71.71,0,0,0,.67.94h5.06l30.11,5.7Z"/><path class="cls-3" d="M44.27,1.39a2.75,2.75,0,0,0-1.42.39V48.22a2.75,2.75,0,0,0,1.42.39,2.85,2.85,0,0,0,2.85-2.85V4.24a2.85,2.85,0,0,0-2.85-2.85Z"/><path class="cls-4" d="M42.85,1.78a2.81,2.81,0,0,0-1.37,1.89.71.71,0,0,1-.7.57H14.16V41.48H35.39a4.22,4.22,0,0,1,3.2-1.42,2.85,2.85,0,0,1,2.83,2.86v2.84a2.85,2.85,0,0,0,1.43,2.46,2.84,2.84,0,0,0,1.42-2.46V4.24a2.84,2.84,0,0,0-1.42-2.46Z"/><path class="cls-3" d="M38.57,40.06h-33A2.85,2.85,0,0,0,2.92,42a.72.72,0,0,0,.67.95H35.08a.72.72,0,0,0,.7-.57A2.84,2.84,0,0,1,38.57,40.06Z"/><path class="cls-5" d="M31.45,25H40v8.55H31.45Z"/><path class="cls-5" d="M31.45,10.75H40V19.3H31.45Z"/><path class="cls-6" d="M35.22,31.2l-1.43-1.42a.73.73,0,0,1,0-1,.71.71,0,0,1,1,0l.92.92,5.2-5.19a.71.71,0,0,1,1,1l-5.7,5.7a.71.71,0,0,1-1,0Z"/><path class="cls-6" d="M35.22,17l-1.43-1.42a.73.73,0,0,1,0-1,.71.71,0,0,1,1,0l.92.92,5.2-5.19a.71.71,0,0,1,1,1L36.23,17a.71.71,0,0,1-1,0Z"/><path class="cls-7" d="M28.6,11.46H21.28a.71.71,0,0,1,0-1.42H28.6a.71.71,0,1,1,0,1.42Z"/><path class="cls-7" d="M28.6,14.31H21.28a.71.71,0,1,1,0-1.42H28.6a.71.71,0,0,1,0,1.42Z"/><path class="cls-7" d="M28.6,17.16H21.28a.71.71,0,0,1,0-1.42H28.6a.71.71,0,0,1,0,1.42Z"/><path class="cls-7" d="M28.6,20H21.28a.71.71,0,0,1,0-1.42H28.6a.71.71,0,1,1,0,1.42Z"/><path class="cls-7" d="M28.6,25.71H21.28a.71.71,0,0,1,0-1.42H28.6a.71.71,0,1,1,0,1.42Z"/><path class="cls-7" d="M28.6,28.56H21.28a.71.71,0,1,1,0-1.42H28.6a.71.71,0,1,1,0,1.42Z"/><path class="cls-7" d="M28.6,31.41H21.28a.71.71,0,0,1,0-1.42H28.6a.71.71,0,1,1,0,1.42Z"/><path class="cls-7" d="M28.6,34.26H21.28a.71.71,0,1,1,0-1.42H28.6a.71.71,0,0,1,0,1.42Z"/></svg>