<svg id="Layer_1" data-name="Layer 1" xmlns="http://www.w3.org/2000/svg" viewBox="0 0 512 512"><defs><style>.cls-1{fill:#999;}</style></defs><path class="cls-1" d="M496,103.87h0c-.09-.23-.19-.44-.29-.67s-.19-.46-.3-.68l-48.12-80.2a8,8,0,0,0-6.87-3.88H71.51a8,8,0,0,0-6.87,3.88l-48.12,80.2a5.85,5.85,0,0,0-.3.68c-.1.22-.2.44-.29.67a8.06,8.06,0,0,0-.56,2.78V491.59a8,8,0,0,0,8,8H488.53a8,8,0,0,0,8-8V106.65A8.06,8.06,0,0,0,496,103.87ZM440.41,42.05l34,56.58h-34ZM87.55,34.47H424.37V98.63H87.55Zm-16,7.58V98.63h-34Zm409,441.52H31.41V114.67h449.1Z"/><path class="cls-1" d="M143.68,395.36H368.23a8,8,0,0,0,0-16H320.12V278.38l20.33,20.33a8,8,0,0,0,11.34-11.34l-34-34a8,8,0,0,0-11.34,0h0l-34,34a8,8,0,0,0,11.34,11.34l20.34-20.33V379.32H207.84V278.38l20.34,20.33a8,8,0,0,0,11.54-11.14l-.2-.2-34-34a8,8,0,0,0-11.34,0h0l-34,34a8,8,0,1,0,11.14,11.54,1.8,1.8,0,0,0,.19-.2l20.34-20.33V379.32H143.68a8,8,0,0,0,0,16Z"/><path class="cls-1" d="M207.84,194.87h96.24a24.06,24.06,0,0,0,0-48.12H207.84a24.06,24.06,0,1,0,0,48.12Zm0-32.08h96.24a8,8,0,1,1,0,16H207.84a8,8,0,1,1,0-16Z"/><rect class="cls-1" x="71.51" y="459.51" width="16.04" height="16.04"/><rect class="cls-1" x="39.43" y="459.51" width="16.04" height="16.04"/><rect class="cls-1" x="103.59" y="459.51" width="16.04" height="16.04"/><rect class="cls-1" x="135.67" y="459.51" width="16.04" height="16.04"/><rect class="cls-1" x="167.74" y="459.51" width="16.04" height="16.04"/><rect class="cls-1" x="199.82" y="459.51" width="16.04" height="16.04"/><rect class="cls-1" x="231.9" y="459.51" width="16.04" height="16.04"/><rect class="cls-1" x="263.98" y="459.51" width="16.04" height="16.04"/><rect class="cls-1" x="296.06" y="459.51" width="16.04" height="16.04"/><rect class="cls-1" x="328.14" y="459.51" width="16.04" height="16.04"/><rect class="cls-1" x="360.21" y="459.51" width="16.04" height="16.04"/><rect class="cls-1" x="392.29" y="459.51" width="16.04" height="16.04"/><rect class="cls-1" x="424.37" y="459.51" width="16.04" height="16.04"/><rect class="cls-1" x="456.45" y="459.51" width="16.04" height="16.04"/></svg>