<svg id="Layer_1" data-name="Layer 1" xmlns="http://www.w3.org/2000/svg" viewBox="0 0 512 512"><defs><style>.cls-1{fill:none;stroke:#999;stroke-linecap:round;stroke-linejoin:round;stroke-width:13.84px;}</style></defs><path id="path6537" class="cls-1" d="M288.64,131.2V103.13a2,2,0,0,1,2-2h45.24a2,2,0,0,0,1.42-3.44L254.81,15A2,2,0,0,0,252,15l-82.5,82.71a2,2,0,0,0,1.42,3.44h45.24a2,2,0,0,1,2,2v133a2,2,0,0,0,2,2h66.48a2,2,0,0,0,2-2V163.53"/><path id="path6541" class="cls-1" d="M92,315.48H74.32V495.15a2.47,2.47,0,0,0,2.47,2.48H256V315.48H124.23"/><path id="path6545" class="cls-1" d="M437.68,400.22v94.93a2.47,2.47,0,0,1-2.47,2.48H256"/><path id="path6549" class="cls-1" d="M256,315.48H437.68v52.41"/><path id="path6553" class="cls-1" d="M176.31,440.21h50a2.06,2.06,0,0,1,2.06,2.06v25.58a2.06,2.06,0,0,1-2.06,2.07h-50a2.06,2.06,0,0,1-2.06-2.07V442.27A2.06,2.06,0,0,1,176.31,440.21Z"/><path id="path6557" class="cls-1" d="M406.73,469.92H389.64a3.33,3.33,0,0,1-3.32-3.33V449.46a3.33,3.33,0,0,1,3.32-3.33h17.09a3.33,3.33,0,0,1,3.32,3.33v17.13A3.33,3.33,0,0,1,406.73,469.92Z"/><path id="path6561" class="cls-1" d="M360,469.92H342.89a3.33,3.33,0,0,1-3.33-3.33V449.46a3.33,3.33,0,0,1,3.33-3.33H360a3.33,3.33,0,0,1,3.32,3.33v17.13A3.33,3.33,0,0,1,360,469.92Z"/><path id="path6565" class="cls-1" d="M74.32,315.48,44.12,270a5.27,5.27,0,0,1,4.38-8.18H217.56a5.23,5.23,0,0,1,4.37,2.35L256,315.48"/><path id="path6569" class="cls-1" d="M437.68,315.48,467.88,270a5.27,5.27,0,0,0-4.38-8.18H294.44a5.23,5.23,0,0,0-4.37,2.35L256,315.48"/></svg>