<svg id="Layer_1" data-name="Layer 1" xmlns="http://www.w3.org/2000/svg" viewBox="0 0 512 512"><defs><style>.cls-1{fill:#9bc9ff;}.cls-2{fill:#1e81ce;}</style></defs><path class="cls-1" d="M256,102.75H22.1V489.9H489.9V102.75Z"/><path class="cls-2" d="M497.4,100c-.09-.23-.18-.44-.29-.67a4.54,4.54,0,0,0-.3-.68L448.42,17.94A8.08,8.08,0,0,0,441.51,14h-371a8.08,8.08,0,0,0-6.91,3.91L15.19,98.6a4.54,4.54,0,0,0-.3.68c-.11.23-.2.45-.29.68a7.9,7.9,0,0,0-.57,2.79V489.9A8.07,8.07,0,0,0,22.1,498H489.9A8.07,8.07,0,0,0,498,489.9V102.75A8,8,0,0,0,497.4,100Zm-21.74-5.26H264.07V30.16H436.94ZM75.06,30.16H247.93V94.69H36.34ZM481.84,481.84H30.16v-371H481.84Z"/><path class="cls-2" d="M183.41,143.08a8.07,8.07,0,0,0,8.07,8.07h129a8.07,8.07,0,1,0,0-16.13h-129A8.06,8.06,0,0,0,183.41,143.08Z"/><path class="cls-2" d="M315.54,248.56a8.06,8.06,0,0,0-8.78,1.74l-34.23,34.22a8.07,8.07,0,0,0,11.41,11.41l20.45-20.46V377H207.61V275.47l20.45,20.46a8.07,8.07,0,1,0,11.41-11.41L205.24,250.3a8.06,8.06,0,0,0-11.4,0l-34.23,34.22A8.07,8.07,0,1,0,171,295.93l20.46-20.46V377H135a8.07,8.07,0,0,0,0,16.14H377A8.07,8.07,0,0,0,377,377H320.52V275.47L341,295.93a8.07,8.07,0,0,0,11.41-11.41L318.16,250.3A8,8,0,0,0,315.54,248.56Z"/></svg>