<svg id="Layer_1" data-name="Layer 1" xmlns="http://www.w3.org/2000/svg" viewBox="0 0 512 512"><defs><style>.cls-1{fill:#ccd3eb;}.cls-2{fill:#96a1c3;}.cls-3{fill:#647499;}.cls-4{fill:#0074ff;}.cls-5{fill:#f5f7ff;}.cls-6{fill:#033c59;}</style></defs><path class="cls-1" d="M428.39,204.51V409.93L267,483.29l-161.4-73.36V204.51Z"/><path class="cls-2" d="M105.59,380.58v29.35L267,483.29l161.4-73.36V380.58L267,453.94Z"/><path class="cls-2" d="M230.31,329.23,68.91,255.86l36.68-51.35L267,277.87Z"/><path class="cls-2" d="M303.67,329.23l161.41-73.37-36.69-51.35L267,277.87Z"/><path class="cls-3" d="M428.39,204.51,267,277.87l-161.4-73.36L267,131.14Z"/><path class="cls-4" d="M320.48,105.37H283.8V222.75H210.44V105.37H173.76l73.36-88Z"/><path class="cls-4" d="M443.07,43.1V72.45a14.67,14.67,0,0,1-14.68,14.67h-66l-22,14.68V43.1A14.67,14.67,0,0,1,355,28.43h73.36A14.67,14.67,0,0,1,443.07,43.1Z"/><path class="cls-5" d="M406.38,50.44a7.34,7.34,0,1,0,7.34,7.34A7.34,7.34,0,0,0,406.38,50.44Z"/><path class="cls-5" d="M377,50.44a7.34,7.34,0,1,0,7.33,7.34A7.34,7.34,0,0,0,377,50.44Z"/><path class="cls-5" d="M347.69,380.58v36.68a7.34,7.34,0,0,1-4,6.53c-47.32,23.77-44.9,22.82-47.32,22.82a7.34,7.34,0,0,1-7.34-7.34V402.59a7.34,7.34,0,0,1,4-6.53l44-22a7.33,7.33,0,0,1,10.64,6.53Z"/><circle class="cls-4" cx="105.59" cy="424.6" r="58.69"/><path class="cls-6" d="M344.68,439.93l-16.14,7.34a7.34,7.34,0,0,0,5.2,13.72,6.66,6.66,0,0,0,.82-.37l16.14-7.34a7.34,7.34,0,0,0-6-13.35Z"/><path class="cls-6" d="M257.38,18.11a7.33,7.33,0,0,0-10.33-1,8.08,8.08,0,0,0-1,1L188,87.62a1.91,1.91,0,0,1-.21,1.48,38.51,38.51,0,0,1-2.64,3.59l-1.26,1.57-.08.11h0l-.28.38c-.14.19-.28.39-.41.59-1.06,1.66-2.18,3.64-3.86,4.78l-4.93,5.78a7.47,7.47,0,0,0-.69,9,7.56,7.56,0,0,0,6.27,3.29h27.5V227.84a7.34,7.34,0,0,0,7.33,7.34h73.33a7.34,7.34,0,0,0,7.34-7.34V118.18h29.66a7.34,7.34,0,0,0,5.65-12Zm30.42,86a7.34,7.34,0,0,0-7.33,7.34v110H221.78v-110a7.34,7.34,0,0,0-7.34-7.34h-21l57.66-69.25,57.67,69.25Z"/><path class="cls-6" d="M472.85,252.44a7.5,7.5,0,0,0-.77-1.31h0c-40.73-55.83-37.88-52.6-40.51-53.78l-88.74-39.46a12.45,12.45,0,0,0-4.22-1.12,3.81,3.81,0,0,0-2.51.39c-.3.19-.33.3-1.16,1.26-1,1.18-1.14,1.2-1.75,1.93a9.67,9.67,0,0,0-1.45,2c-.62,1.34-.91,3.61.2,4.93.8,1,2.29,1.38,2.16,1.8a.19.19,0,0,1-.09.12L410.25,204,266.67,269.32,123.08,204,173,181.36A7.34,7.34,0,1,0,166.86,168l-64.53,29.34c-2.57,1.18,0-2-39.6,53.78a7.34,7.34,0,0,0,1.72,10.23,6.93,6.93,0,0,0,1.21.7L98,276.73v81.8a66,66,0,1,0,69.59,87.6l96.07,43.65a7.32,7.32,0,0,0,6,0l36.67-16.65a7.34,7.34,0,0,0-5.19-13.73,7.65,7.65,0,0,0-.82.38L274,471.44V300.74l23.45,32.78a7.34,7.34,0,0,0,9,2.43l114.59-52V404.75L372.92,426.1a7.3,7.3,0,0,0-4.36,9.46,7.56,7.56,0,0,0,9.67,4.27,9.19,9.19,0,0,0,.85-.38l52.5-23.33a7.34,7.34,0,0,0,4.42-6.67V276.81l33.08-14.68A7.28,7.28,0,0,0,472.85,252.44Zm-392.79.41,28-39.17c12.26,5.94-42.62-19.37,147.76,67.2l-28,39.17ZM105.59,476a51.36,51.36,0,1,1,51.35-51.35A51.36,51.36,0,0,1,105.59,476Zm154.07-4-88-40a66,66,0,0,0-58.37-72.89l-.32,0V284L227.3,335.9a7.33,7.33,0,0,0,8.95-2.42l23.41-32.72Zm46.51-151.87,0,0C311.35,317.68,363.71,293.9,306.17,320.05Zm0,0-28-39.15,147.76-67.2,28,39.17C342.83,303.34,310,318.26,306.15,320Z"/><path class="cls-6" d="M344.39,107.89l20.18-13.43h63.82a22,22,0,0,0,22-22V43.1a22,22,0,0,0-22-22H355a22,22,0,0,0-22,22v58.7a7.35,7.35,0,0,0,11.37,6.09Zm3.3-64.79A7.34,7.34,0,0,1,355,35.77h73.36a7.34,7.34,0,0,1,7.34,7.33V72.45a7.34,7.34,0,0,1-7.34,7.34h-66c-2.94,0-3.45.8-14.68,8.29Z"/><path class="cls-5" d="M105.59,446.61c-4,0-4.18-1.1-19.88-16.8a7.37,7.37,0,0,1,10.42-10.42l9.46,9.54,24.14-24.21a7.36,7.36,0,1,1,10.41,10.41L110.8,444.48A7.37,7.37,0,0,1,105.59,446.61Z"/><path class="cls-4" d="M440.94,125.93a7.35,7.35,0,0,0-10.38,0l0,0-9.46,9.54-9.47-9.54a7.37,7.37,0,1,0-10.42,10.42L415.85,151a7.33,7.33,0,0,0,10.37,0l0,0,14.67-14.67A7.33,7.33,0,0,0,441,126Z"/><path class="cls-4" d="M122.39,52.57l-9.46,9.54-9.47-9.54A7.37,7.37,0,0,0,93,63c16,16,15.92,16.8,19.89,16.8s4.18-1.1,19.88-16.8a7.37,7.37,0,0,0-10.42-10.42Z"/></svg>