<svg id="Layer_1" data-name="Layer 1" xmlns="http://www.w3.org/2000/svg" viewBox="0 0 50 50"><defs><style>.cls-1{isolation:isolate;}.cls-2{fill:#afafaf;}.cls-3{fill:#686868;}.cls-4{fill:#e8e8e8;}.cls-5{fill:#bfbfbf;}.cls-6{fill:#929393;}.cls-7{fill:#f1f1f2;}.cls-8{fill:#d8d8d8;}.cls-9{fill:#fff;}.cls-10{fill:#579409;}.cls-11{fill:#81bd1f;}</style></defs><g class="cls-1"><path class="cls-2" d="M4.55,5.86l.09,23L30,43.66v-23Z"/><path class="cls-3" d="M30,20.64v23l7.2-4.07-.1-23.12Z"/><path class="cls-4" d="M4.55,5.86,30,20.64l7.1-4.17L11.75,1.7Z"/></g><path class="cls-5" d="M44.33,17.61l-7.2-1.14V39.59l7.2-1a1.34,1.34,0,0,0,1.14-1.33V18.94a1.33,1.33,0,0,0-1.14-1.33Z"/><path class="cls-6" d="M30,43.66,29,48.3l5.4-2.93,2.46-5.78Z"/><path class="cls-5" d="M30,43.66l-.66,4.08,5-2.37,2.74-5.78Z"/><path class="cls-7" d="M42.82,23.29l-8.72-5-1,.57,8.72,5a2.69,2.69,0,0,1,.57.48,5.42,5.42,0,0,1,.76,1.23,1.67,1.67,0,0,1,.09.66l-.09,17a1.78,1.78,0,0,1-.48.85c.67-.47,1.42-.38,1.42-1.42l.1-17a3.45,3.45,0,0,0-1.42-2.37Z"/><path class="cls-5" d="M43.1,25.47a2.11,2.11,0,0,0-.76-1.23c-.19-.19-.38-.28-.56-.47l-8.72-5H30.69l2.37,20v.09l8.72,5a.84.84,0,0,0,1.13-.09.92.92,0,0,0,.19-.67l.1-17a1.56,1.56,0,0,0-.1-.67Z"/><path class="cls-7" d="M39.69,24.34,31.54,19.7l-.85.56,8.15,4.65a2.36,2.36,0,0,1,.57.47,5.26,5.26,0,0,1,.75,1.23,1.52,1.52,0,0,1,.1.66l-.1,17a1.77,1.77,0,0,1-.47.85l1-.57c.28-.09.38-.47.38-.85l.09-16.95a3.43,3.43,0,0,0-1.42-2.37Z"/><path class="cls-8" d="M40,26.52a2.15,2.15,0,0,0-.76-1.24c-.19-.19-.38-.28-.57-.47l-8-4.55-.66.38V40.06l8.71,5A.85.85,0,0,0,39.88,45a.92.92,0,0,0,.19-.67l.09-17.14a2.45,2.45,0,0,0-.18-.66Z"/><path class="cls-4" d="M35.9,34.19c-1.42-.85-2.56-.19-2.56,1.51a5.64,5.64,0,0,0,2.56,4.46c1.42.85,2.56.19,2.56-1.52A5.76,5.76,0,0,0,35.9,34.19Z"/><path class="cls-4" d="M35.9,31.35c1.42.85,2.56.19,2.56-1.52a5.62,5.62,0,0,0-2.56-4.45c-1.42-.85-2.56-.19-2.56,1.51A5.49,5.49,0,0,0,35.9,31.35Z"/><path class="cls-9" d="M35,33.43a1.83,1.83,0,0,0-1.8-.19L31.83,34a1.82,1.82,0,0,1,1.8.19,5.76,5.76,0,0,1,2.56,4.45c0,.85-.29,1.42-.76,1.61l1.32-.76a1.76,1.76,0,0,0,.76-1.61A5.73,5.73,0,0,0,35,33.43Z"/><path class="cls-7" d="M33.63,34.19a5.76,5.76,0,0,1,2.56,4.45c0,1.61-1.14,2.27-2.56,1.52a5.79,5.79,0,0,1-2.56-4.46C31,34.09,32.21,33.43,33.63,34.19Z"/><path class="cls-2" d="M33.63,34.19a.2.2,0,0,1,.19.19v5.87c-.1,0-.19-.09-.29-.09s-.19-.1-.28-.19V34.09c.19,0,.28.1.38.1Z"/><path class="cls-9" d="M35,24.72a1.8,1.8,0,0,0-1.8-.19l-1.32.75a1.82,1.82,0,0,1,1.8.19,5.79,5.79,0,0,1,2.56,4.46c0,.85-.29,1.42-.76,1.61l1.32-.76a1.77,1.77,0,0,0,.76-1.61A5.43,5.43,0,0,0,35,24.72Z"/><path class="cls-7" d="M33.63,25.47a5.79,5.79,0,0,1,2.56,4.46c0,1.61-1.14,2.27-2.56,1.51A5.76,5.76,0,0,1,31.07,27c-.09-1.71,1.14-2.37,2.56-1.52Z"/><path class="cls-2" d="M33.63,25.47a.21.21,0,0,1,.19.19v5.88c-.1,0-.19-.1-.29-.1s-.19-.09-.28-.19V25.38c.19,0,.28,0,.38.09Z"/><path class="cls-10" d="M29.84,43.57C3,26.33,4.55,5.86,4.55,5.86V29Z"/><path class="cls-11" d="M4.93,5.68C10.51,3.12,16.39,5,37.13,16.57L11.75,1.7Z"/><path class="cls-6" d="M27.47,14.2,30,20.64l6.82-4.17-3.6-6.34Z"/><path class="cls-5" d="M28,14.3l2,6.34,7.2-4.17-4-6.34Z"/><path class="cls-6" d="M27.19,24.43a1.44,1.44,0,0,1,.56,1c0,.38-.28.57-.56.38l-9.76-5.68a1.45,1.45,0,0,1-.57-1c0-.38.29-.57.57-.38Z"/><path class="cls-6" d="M27.09,27.56a1.42,1.42,0,0,1,.57,1c0,.38-.28.57-.57.38l-9.66-5.69a1.44,1.44,0,0,1-.57-1c0-.38.29-.57.57-.38Z"/><path class="cls-6" d="M23.4,28.51a1.44,1.44,0,0,1,.57,1c0,.38-.29.57-.57.38l-6-3.51a1.45,1.45,0,0,1-.57-1c0-.38.29-.57.57-.38Z"/></svg>