<svg id="Layer_1" data-name="Layer 1" xmlns="http://www.w3.org/2000/svg" viewBox="0 0 512 512"><defs><style>.cls-1{fill:#999;}</style></defs><path class="cls-1" d="M387.59,90.86c.21,0,.43,0,.65,0a8,8,0,0,0,1.1-.09,17.9,17.9,0,0,1,17.54,17.87,8,8,0,1,0,16,0,33.94,33.94,0,0,0-26.64-33.11v-7.7a8,8,0,0,0-16,0v8.06A33.91,33.91,0,0,0,389,142.59a17.89,17.89,0,1,1-17.89,17.89,8,8,0,0,0-16,0,34,34,0,0,0,25.15,32.75V202a8,8,0,0,0,16,0v-8.4a33.9,33.9,0,0,0-7.26-67,17.88,17.88,0,0,1-1.4-35.71Z"/><path class="cls-1" d="M389.45,20.71c-49.27,0-91.31,32.15-107.06,75.19H83.64c-4.4,0-8,4-8,8.37L73.74,385.18H17.09c-4.42,0-8.22,3.2-8.22,7.63v35.65a62.9,62.9,0,0,0,60.06,62.65v.18H316.17v-.24c2,.08,2.82.24,4.09.24h.17a62.9,62.9,0,0,0,62.8-62.9V248.15c2,.11,4.12.17,6.2.17,62.69,0,113.7-51.11,113.7-113.81S452.14,20.71,389.45,20.71ZM72,475.27h0a47.11,47.11,0,0,1-47-46.89V401.2H257.11v27.07a62.83,62.83,0,0,0,18.54,44.51c.84.84,1.89,1.49,2.77,2.49Zm295.25-46.89a46.89,46.89,0,0,1-46.79,46.89h-.16a47.23,47.23,0,0,1-47.14-47V392.81a7.4,7.4,0,0,0-7.65-7.63H89.76l1.83-273.26H278a120.29,120.29,0,0,0-2.2,22.24A113,113,0,0,0,285.42,180H209.78a8,8,0,0,0,0,16h84.33a113,113,0,0,0,73.11,50.15Zm22.23-196.07a97.68,97.68,0,1,1,97.67-97.68A97.68,97.68,0,0,1,389.45,232.31Z"/><path class="cls-1" d="M158.38,233.28c-14.13,0-25.63,11.13-25.63,24.81s11.5,24.82,25.63,24.82S184,271.78,184,258.09,172.52,233.28,158.38,233.28Zm0,33.62c-5.3,0-9.61-3.95-9.61-8.81s4.31-8.8,9.61-8.8,9.62,4,9.62,8.8S163.68,266.9,158.38,266.9Z"/><path class="cls-1" d="M201.78,258.06a8,8,0,0,0,8,8H316.54a8,8,0,0,0,0-16H209.78A8,8,0,0,0,201.78,258.06Z"/><path class="cls-1" d="M158.38,163.67c-14.13,0-25.63,11.13-25.63,24.82s11.5,24.81,25.63,24.81S184,202.17,184,188.49,172.52,163.67,158.38,163.67Zm0,33.62c-5.3,0-9.61-3.95-9.61-8.8s4.31-8.81,9.61-8.81,9.62,3.95,9.62,8.81-4.32,8.8-9.62,8.8Z"/><path class="cls-1" d="M158.38,302.88c-14.13,0-25.63,11.13-25.63,24.82s11.5,24.81,25.63,24.81S184,341.38,184,327.7,172.52,302.88,158.38,302.88Zm0,33.62c-5.3,0-9.61-3.95-9.61-8.8s4.31-8.8,9.61-8.8,9.62,3.94,9.62,8.8S163.68,336.5,158.38,336.5Z"/><path class="cls-1" d="M316.54,320.12H209.78a8,8,0,0,0,0,16H316.54a8,8,0,1,0,0-16Z"/></svg>