<svg id="Layer_1" data-name="Layer 1" xmlns="http://www.w3.org/2000/svg" viewBox="0 0 50 50"><defs><style>.cls-1{fill:#e6e9ed;}.cls-2{fill:#ef7385;}.cls-3{fill:#fcd770;}.cls-4{fill:#969faa;}.cls-5{fill:#69d6f4;}.cls-6{fill:#d3a06c;}.cls-7{fill:#b27946;}</style></defs><path class="cls-1" d="M2,46.23V40.16a1.52,1.52,0,0,1,1.52-1.51H14.15a1.52,1.52,0,0,1,1.51,1.51v6.07a1.52,1.52,0,0,1-1.51,1.51H3.54A1.52,1.52,0,0,1,2,46.23Z"/><path class="cls-1" d="M44.47,40.16v7.58h-9.1V40.16Z"/><path class="cls-2" d="M46.75,40.16H33.1l6.82-6.06,1.54,1.36Z"/><path class="cls-3" d="M41.36,14.39a6.07,6.07,0,0,1-6-6V8.32a6.07,6.07,0,1,1,6.07,6.07Z"/><path class="cls-2" d="M2,2.26H14.15V14.39H2Z"/><path class="cls-3" d="M2,2.26H6.57V6.81H2Z"/><path class="cls-4" d="M32.34,32.58v2.27a2.27,2.27,0,0,1-2.27,2.28H19.45a2.28,2.28,0,0,1-2.27-2.28V32.58Z"/><path class="cls-4" d="M32.34,15.15v2.27H17.18V15.15a2.28,2.28,0,0,1,2.27-2.28H30.07A2.27,2.27,0,0,1,32.34,15.15Z"/><path class="cls-5" d="M32.34,17.42V32.58H17.18V17.42Z"/><path class="cls-6" d="M28.55,29.55H21a.76.76,0,0,1-.76-.76V21.21a.76.76,0,0,1,.76-.76h7.58a.76.76,0,0,1,.76.76v7.58A.76.76,0,0,1,28.55,29.55Z"/><path class="cls-7" d="M23.25,20.45h3v3h-3Z"/><path d="M33.1,34.85V15.15a3,3,0,0,0-3-3H19.45a3,3,0,0,0-3,3v19.7a3,3,0,0,0,3,3H30.07A3,3,0,0,0,33.1,34.85Zm-1.52-3H17.94V18.18H31.58ZM19.45,13.63H30.07a1.52,1.52,0,0,1,1.51,1.52v1.51H17.94V15.15A1.52,1.52,0,0,1,19.45,13.63ZM30.07,36.37H19.45a1.52,1.52,0,0,1-1.51-1.52V33.34H31.58v1.51A1.52,1.52,0,0,1,30.07,36.37Z"/><path d="M4.29,40.92H5.81v1.52H4.29Z"/><path d="M8.84,40.92h4.55v1.52H8.84Z"/><path d="M4.29,44h9.1v1.52H4.29Z"/><circle cx="4.29" cy="4.53" r="0.76"/><path d="M11.87,6.05H10.36V4.53H8.84v3h3Z"/><path d="M4.29,10.6H5.81v1.51H7.33v-3h-3Z"/><path d="M21,30.31h7.58a1.52,1.52,0,0,0,1.52-1.52V21.21a1.52,1.52,0,0,0-1.52-1.52H21a1.52,1.52,0,0,0-1.52,1.52v7.58A1.52,1.52,0,0,0,21,30.31Zm3-9.1h1.52v1.52H24Zm-3,0h1.52v3H27v-3h1.51v7.58H21Z"/><path d="M45.23,40.92h3.51l-6.31-5.61A20.4,20.4,0,0,0,42.63,15a6.82,6.82,0,1,0-7.9-7.9,20.39,20.39,0,0,0-19.82-.06V1.5H1.26V15.15H6.83a20.4,20.4,0,0,0,2,22.74H3.54a2.28,2.28,0,0,0-2.28,2.27v6.07A2.28,2.28,0,0,0,3.54,48.5H14.15a2.27,2.27,0,0,0,2.27-2.27V43.69a20.42,20.42,0,0,0,18.2-.76v4H33.1V48.5H46.75V47H45.23ZM43.71,47h-3V40.92h3ZM35.09,39.4l4.83-4.29,4.83,4.29ZM46.75,8.32a5.32,5.32,0,0,1-4.55,5.25V12.11a2.28,2.28,0,0,0,0-4.55H40.68a.76.76,0,1,1,0-1.51H42.2a.75.75,0,0,1,.75.76h1.52A2.28,2.28,0,0,0,42.2,4.53V3.08A5.31,5.31,0,0,1,46.75,8.32ZM40.68,3.08V4.53a2.28,2.28,0,0,0,0,4.55H42.2a.76.76,0,0,1,0,1.52H40.68a.76.76,0,0,1-.76-.76H38.41a2.27,2.27,0,0,0,2.27,2.27v1.46a5.3,5.3,0,0,1,0-10.49ZM5.81,3v3h-3V3Zm-3,4.54H7.33V3h6.06V13.63h-3V12.11h1.51V10.6H10.36V9.08H8.84v4.55H2.78ZM14.91,46.23a.76.76,0,0,1-.76.75H3.54a.76.76,0,0,1-.76-.75V40.16a.76.76,0,0,1,.76-.76H14.15a.76.76,0,0,1,.76.76ZM24.76,44A18.77,18.77,0,0,1,16.42,42V40.16a2.27,2.27,0,0,0-2.27-2.27H10.88A18.89,18.89,0,0,1,8.59,15.15h6.32V8.83a18.86,18.86,0,0,1,19.73,0,6.84,6.84,0,0,0,6.28,6.28,18.88,18.88,0,0,1,.35,19.16l-1.35-1.2-8.81,7.84h3.51v.25A18.84,18.84,0,0,1,24.76,44Zm11.37-3h3V47h-3Z"/></svg>