<svg id="Group_39229" data-name="Group 39229" xmlns="http://www.w3.org/2000/svg" width="174.105" height="174.765" viewBox="0 0 174.105 174.765">
  <path id="Path_6491" data-name="Path 6491" d="M36.193,116.172A185.408,185.408,0,0,0,97.864,164.48c9.017,4.273,21.076,9.343,34.511,10.212.833.036,1.63.072,2.462.072,9.017,0,16.26-3.114,22.163-9.524a.79.79,0,0,0,.145-.181,93.313,93.313,0,0,1,6.989-7.243c1.7-1.63,3.44-3.332,5.106-5.07,7.713-8.039,7.713-18.251-.072-26.037L147.4,104.946c-3.694-3.839-8.112-5.867-12.747-5.867s-9.09,2.028-12.892,5.83L108.8,117.874c-1.2-.688-2.426-1.3-3.585-1.883a44.776,44.776,0,0,1-3.983-2.173c-11.806-7.5-22.525-17.274-32.773-29.84C63.281,77.424,59.8,71.919,57.378,66.306c3.4-3.078,6.591-6.3,9.669-9.452,1.086-1.123,2.209-2.245,3.332-3.368,3.911-3.911,6.011-8.438,6.011-13.037s-2.064-9.126-6.011-13.037L59.587,16.622c-1.267-1.267-2.463-2.5-3.694-3.766-2.39-2.462-4.889-5-7.351-7.279A18.053,18.053,0,0,0,35.795,0C31.2,0,26.778,1.919,22.9,5.613L9.359,19.157A27.828,27.828,0,0,0,1.066,36.974C.378,45.629,1.972,54.827,6.1,65.944c6.337,17.2,15.9,33.171,30.093,50.228ZM9.9,37.734A19.155,19.155,0,0,1,15.66,25.422L29.132,11.95a9.752,9.752,0,0,1,6.663-3.078,9.253,9.253,0,0,1,6.518,3.151c2.426,2.245,4.708,4.6,7.17,7.1,1.231,1.267,2.5,2.535,3.766,3.839L64.041,33.751c2.245,2.245,3.4,4.527,3.4,6.772s-1.159,4.527-3.4,6.772c-1.123,1.123-2.245,2.281-3.368,3.4-3.368,3.4-6.518,6.627-9.995,9.705l-.181.181a7.08,7.08,0,0,0-1.811,8.039c.036.109.072.181.109.29,2.788,6.7,6.663,13.073,12.711,20.678,10.864,13.4,22.307,23.792,34.91,31.8a51.831,51.831,0,0,0,4.78,2.607,44.788,44.788,0,0,1,3.983,2.173c.145.072.253.145.4.217a7.57,7.57,0,0,0,3.513.905,7.681,7.681,0,0,0,5.4-2.463l13.544-13.544c2.1-2.1,4.382-3.223,6.627-3.223a9.1,9.1,0,0,1,6.41,3.223l21.837,21.8c4.346,4.346,4.309,9.053-.109,13.652-1.521,1.63-3.114,3.187-4.816,4.816a104.289,104.289,0,0,0-7.569,7.858A19.882,19.882,0,0,1,134.874,166c-.616,0-1.267-.036-1.883-.072-11.878-.76-22.923-5.4-31.216-9.343a176.136,176.136,0,0,1-58.7-45.991c-13.508-16.26-22.6-31.4-28.608-47.62C10.735,53.016,9.323,45.013,9.9,37.734Z" transform="translate(-0.912 0)" fill="#fff"/>
</svg>
