<svg id="Layer_1" data-name="Layer 1" xmlns="http://www.w3.org/2000/svg" viewBox="0 0 512 512"><defs><style>.cls-1{fill:#70d6f9;}.cls-2{fill:#fc657e;}.cls-3{fill:#f5c84c;}.cls-4{fill:#87d147;}.cls-5{fill:#dae6f1;}.cls-6{fill:#edf4fc;}</style></defs><path class="cls-1" d="M405.37,448.24h5.4v5.39a7.41,7.41,0,0,0,7.5,7.51,7.52,7.52,0,0,0,7.51-7.28v-5.62h5.39a7.42,7.42,0,0,0,7.51-7.51,7.51,7.51,0,0,0-7.27-7.5h-5.63v-5.4a7.41,7.41,0,0,0-7.51-7.5,7.51,7.51,0,0,0-7.5,7.27v5.63h-5.4a7.4,7.4,0,0,0-7.5,7.5,7.26,7.26,0,0,0,7.5,7.51Z"/><path class="cls-2" d="M104.69,243.22a18.29,18.29,0,0,1-14.54-14.31c0-.23-.7-.23-.7,0a18.29,18.29,0,0,1-14.54,14.31c-.24,0-.24.47,0,.7a18.29,18.29,0,0,1,14.54,14.31c0,.23.7.23.7,0a18.29,18.29,0,0,1,14.54-14.31C104.93,243.69,104.93,243.22,104.69,243.22Z"/><circle class="cls-3" cx="361.12" cy="497.73" r="7.97"/><circle class="cls-4" cx="251.69" cy="16.2" r="7.97" transform="translate(183.59 259.04) rotate(-78.02)"/><path class="cls-3" d="M170.89,65a26,26,0,0,0,20.87-20.41c0-.47.94-.47.94,0A26,26,0,0,0,213.58,65c.46,0,.46.7,0,.93A26,26,0,0,0,192.7,86.32c0,.47-.94.47-.94,0a26,26,0,0,0-20.87-20.41C170.42,65.68,170.42,65,170.89,65Z"/><path class="cls-3" d="M278.73,161.76h-51.9a5.71,5.71,0,0,0-5.71,5.71v29.47h63.32V167.47A5.71,5.71,0,0,0,278.73,161.76Z"/><path class="cls-1" d="M343.81,173.49H284.44v23.45H221.12V173.49H161.75a16.85,16.85,0,0,0-16.85,16.85v236a16.86,16.86,0,0,0,16.85,16.86H343.81a16.86,16.86,0,0,0,16.86-16.86v-236a16.86,16.86,0,0,0-16.86-16.85Z"/><path class="cls-5" d="M337.21,381.69V202.22a5.28,5.28,0,0,0-5.28-5.28H173.63a5.29,5.29,0,0,0-5.28,5.28V414.46a5.28,5.28,0,0,0,5.28,5.28H299.16Z"/><path class="cls-6" d="M299.16,387v32.77l38-38.06H304.44a5.28,5.28,0,0,0-5.28,5.29Z"/><path d="M221.12,200.2a5.86,5.86,0,0,1-5.86-5.86V167.47a11.58,11.58,0,0,1,11.57-11.57h51.9a11.59,11.59,0,0,1,11.58,11.57v26.72a5.87,5.87,0,1,1-11.73,0V167.47l-51.75.15.15,26.72A5.86,5.86,0,0,1,221.12,200.2Z"/><path d="M270.37,163.68a5.86,5.86,0,0,1-5.86-5.86v-5.67a11.73,11.73,0,1,0-23.46,0v5.67a5.86,5.86,0,0,1-11.72,0v-5.67a23.45,23.45,0,1,1,46.9,0v5.67A5.86,5.86,0,0,1,270.37,163.68Z"/><path d="M343.81,449.06H161.75A22.75,22.75,0,0,1,139,426.34v-236a22.76,22.76,0,0,1,22.72-22.72h56.87a5.87,5.87,0,0,1,0,11.73H161.75a11,11,0,0,0-11,11v236a11,11,0,0,0,11,11H343.81a11,11,0,0,0,11-11v-236a11,11,0,0,0-11-11H286.93a5.87,5.87,0,1,1,0-11.73h56.88a22.74,22.74,0,0,1,22.72,22.72v236a22.74,22.74,0,0,1-22.72,22.72Z"/><path d="M208.91,269.2a5.87,5.87,0,0,1-4.15-1.72l-12.21-12.21a5.86,5.86,0,1,1,8.29-8.29l8.07,8.06,15.75-15.75a5.86,5.86,0,1,1,8.29,8.29l-19.9,19.9a5.84,5.84,0,0,1-4.14,1.72Z"/><path d="M286.63,247.94H256.14a5.87,5.87,0,0,1,0-11.73h30.49a5.87,5.87,0,1,1,0,11.73Z"/><path d="M308.65,270.56H256.14a5.87,5.87,0,0,1,0-11.73h52.51a5.87,5.87,0,1,1,0,11.73Z"/><path d="M208.91,316.1a5.9,5.9,0,0,1-4.15-1.71l-12.21-12.22a5.86,5.86,0,1,1,8.29-8.29l8.07,8.07,15.75-15.76a5.86,5.86,0,0,1,8.29,8.29l-19.9,19.9a5.8,5.8,0,0,1-4.14,1.72Z"/><path d="M286.63,294.85H256.14a5.87,5.87,0,0,1,0-11.73h30.49a5.87,5.87,0,1,1,0,11.73Z"/><path d="M308.65,317.46H256.14a5.87,5.87,0,0,1,0-11.73h52.51a5.87,5.87,0,1,1,0,11.73Z"/><path d="M208.91,363a5.87,5.87,0,0,1-4.15-1.72l-12.21-12.21a5.86,5.86,0,1,1,8.29-8.29l8.07,8.06,15.75-15.75a5.86,5.86,0,1,1,8.29,8.29l-19.9,19.9a5.84,5.84,0,0,1-4.14,1.72Z"/><path d="M286.63,341.75H256.14a5.86,5.86,0,1,1,0-11.72h30.49a5.86,5.86,0,1,1,0,11.72Z"/><path d="M308.65,364.37H256.14a5.87,5.87,0,0,1,0-11.73h52.51a5.87,5.87,0,1,1,0,11.73Z"/><path d="M299.16,425.61H173.63a11.16,11.16,0,0,1-11.14-11.15V202.22a11.16,11.16,0,0,1,11.14-11.14h158.3a11.16,11.16,0,0,1,11.15,11.14V381.69a5.87,5.87,0,0,1-1.72,4.15L303.3,423.89A5.84,5.84,0,0,1,299.16,425.61Zm-125-11.73H296.73l34.62-34.62V202.8H174.21Zm163-32.19h0Z"/><path d="M299.16,423.49a5.86,5.86,0,0,1-5.86-5.86V387a11.16,11.16,0,0,1,11.14-11.14H335.1a5.87,5.87,0,1,1,0,11.73H305v30.07A5.86,5.86,0,0,1,299.16,423.49Z"/></svg>