<svg id="Layer_1" data-name="Layer 1" xmlns="http://www.w3.org/2000/svg" viewBox="0 0 512 512"><defs><style>.cls-1{fill:none;stroke:#999;stroke-linecap:round;stroke-linejoin:round;stroke-width:14.23px;}</style></defs><path class="cls-1" d="M143.58,41.11H98.79A30.22,30.22,0,0,0,68.57,71.34V461.48A30.22,30.22,0,0,0,98.79,491.7H320.85"/><path class="cls-1" d="M368.42,41.11h44.79a30.22,30.22,0,0,1,30.22,30.23V461.48a30.22,30.22,0,0,1-30.22,30.22H354.05"/><path class="cls-1" d="M99.87,180.46V93.14A20.73,20.73,0,0,1,120.6,72.41h22.81"/><path class="cls-1" d="M368.59,72.41H391.4a20.73,20.73,0,0,1,20.73,20.73V439.67A20.73,20.73,0,0,1,391.4,460.4H120.6a20.73,20.73,0,0,1-20.73-20.73v-226"/><path class="cls-1" d="M341.82,20.3h2.51a24.33,24.33,0,0,1,24.34,24.33V70.44a24.34,24.34,0,0,1-24.34,24.34H167.67a24.34,24.34,0,0,1-24.34-24.34V44.63A24.33,24.33,0,0,1,167.67,20.3h141"/><path class="cls-1" d="M195.93,208.26H143.2a13.7,13.7,0,0,1-13.7-13.71V141.82a13.7,13.7,0,0,1,13.7-13.71h52.73a13.71,13.71,0,0,1,13.71,13.71v52.73A13.71,13.71,0,0,1,195.93,208.26Z"/><polyline class="cls-1" points="152.95 166.95 166.72 184.24 185.27 151.06"/><line class="cls-1" x1="242.11" y1="151.06" x2="337.45" y2="151.06"/><line class="cls-1" x1="242.11" y1="182.82" x2="368.67" y2="182.82"/><path class="cls-1" d="M195.93,319.18H143.2a13.7,13.7,0,0,1-13.7-13.7V252.74A13.7,13.7,0,0,1,143.2,239h52.73a13.71,13.71,0,0,1,13.71,13.7v52.74A13.7,13.7,0,0,1,195.93,319.18Z"/><polyline class="cls-1" points="152.95 277.88 166.72 295.17 185.27 261.99"/><line class="cls-1" x1="242.11" y1="261.99" x2="337.45" y2="261.99"/><line class="cls-1" x1="242.11" y1="293.74" x2="368.67" y2="293.74"/><path class="cls-1" d="M195.93,430.11H143.2a13.7,13.7,0,0,1-13.7-13.71V363.67A13.7,13.7,0,0,1,143.2,350h52.73a13.7,13.7,0,0,1,13.71,13.7V416.4A13.71,13.71,0,0,1,195.93,430.11Z"/><polyline class="cls-1" points="152.95 388.8 166.72 406.09 185.27 372.92"/><line class="cls-1" x1="242.11" y1="372.91" x2="337.45" y2="372.91"/><line class="cls-1" x1="242.11" y1="404.67" x2="368.67" y2="404.67"/></svg>