<svg id="Layer_1" data-name="Layer 1" xmlns="http://www.w3.org/2000/svg" viewBox="0 0 512 512"><defs><style>.cls-1{fill:#c7e2fb;}.cls-2{fill:#ebf7fe;}.cls-3{fill:#c18e5c;}.cls-4{fill:#cda57d;}.cls-5{fill:#4472b0;}.cls-6{fill:#fff;}</style></defs><path class="cls-1" d="M16,16H336V432H16Z"/><path class="cls-2" d="M16,351.9c1.34,0,2.66.1,4,.1,152.43,0,276-125.36,276-280a285.28,285.28,0,0,0-5.53-56H16Z"/><path class="cls-3" d="M288,224H448V352H288Z"/><path class="cls-4" d="M288,224V327.06a145.64,145.64,0,0,0,16,.94A144,144,0,0,0,442.25,224Z"/><path class="cls-3" d="M320,352H496V496H320Z"/><path class="cls-4" d="M320,471.54C391.06,466.68,451.36,419,479.31,352H320Z"/><path class="cls-5" d="M48,48h64v64H48Z"/><path class="cls-5" d="M48,144h64v64H48Z"/><path class="cls-5" d="M48,240h64v64H48Z"/><path class="cls-5" d="M48,336h64v64H48Z"/><path class="cls-6" d="M384,352h48v48H384Z"/><path class="cls-3" d="M144,352H320V496H144Z"/><path class="cls-4" d="M144,471.54C215.06,466.68,275.36,419,303.31,352H144Z"/><path class="cls-6" d="M208,352h48v48H208Z"/><path class="cls-6" d="M352,224h32v48H352Z"/><path d="M48,216h64a8,8,0,0,0,8-8V144a8,8,0,0,0-8-8H48a8,8,0,0,0-8,8v64A8,8,0,0,0,48,216Zm8-64h48v48H56Z"/><path d="M112,328H48a8,8,0,0,0-8,8v64a8,8,0,0,0,8,8h64a8,8,0,0,0,8-8V336A8,8,0,0,0,112,328Zm-8,64H56V344h48Z"/><path d="M136,56H312V72H136Z"/><path d="M136,88H312v16H136Z"/><path d="M136,152H312v16H136Z"/><path d="M136,184H312v16H136Z"/><path d="M108.69,40H48a8,8,0,0,0-8,8v64a8,8,0,0,0,8,8h64a8,8,0,0,0,8-8V51.31l13.66-13.65L122.34,26.34Zm-16,16L56,92.69V56ZM104,104H67.31L104,67.31Z"/><path d="M122.34,218.34,108.69,232H48a8,8,0,0,0-8,8v64a8,8,0,0,0,8,8h64a8,8,0,0,0,8-8V243.31l13.66-13.65ZM92.69,248,56,284.69V248ZM104,296H67.31L104,259.31Z"/><path d="M496,504a8,8,0,0,0,8-8V352a8,8,0,0,0-8-8H456V224a8,8,0,0,0-8-8H344V16a8,8,0,0,0-8-8H16a8,8,0,0,0-8,8V432a8,8,0,0,0,8,8H136v56a8,8,0,0,0,8,8ZM392,360h32v32H392Zm-96-16V232h48v40a8,8,0,0,0,8,8h32a8,8,0,0,0,8-8V232h48V344Zm64-112h16v32H360ZM136,352v72H24V24H328V216H288a8,8,0,0,0-8,8v24H136v16H280v16H136v16H280v48H144A8,8,0,0,0,136,352Zm80,8h32v32H216Zm-64,0h48v40a8,8,0,0,0,8,8h48a8,8,0,0,0,8-8V360h48V488H152ZM488,488H328V360h48v40a8,8,0,0,0,8,8h48a8,8,0,0,0,8-8V360h48Z"/><path d="M440,456h32v16H440Z"/><path d="M392,312h32v16H392Z"/><path d="M440,424h32v16H440Z"/><path d="M264,456h32v16H264Z"/><path d="M264,424h32v16H264Z"/></svg>