<svg id="Layer_1" data-name="Layer 1" xmlns="http://www.w3.org/2000/svg" viewBox="0 0 512 512"><defs><style>.cls-1{fill:#999;}</style></defs><g id="Order-Shopping_Cart-Wishlist-Paper-Commerce" data-name="Order-Shopping Cart-Wishlist-Paper-Commerce"><path class="cls-1" d="M408,16H144a48,48,0,0,0-8,95.28V232h16V112H408a8,8,0,0,0,0-16,32,32,0,1,1,32-32V448a32,32,0,1,1-32-32,8,8,0,0,0,0-16H152V344H136v56.72A48,48,0,0,0,144,496H408a48,48,0,0,0,48-48V64A48,48,0,0,0,408,16ZM372.24,96H144a32,32,0,0,1,0-64H372.32a47.83,47.83,0,0,0-.08,64ZM144,480a32,32,0,0,1,0-64H372.24a47.83,47.83,0,0,0,.08,64Z"/><path class="cls-1" d="M384,312H264V296H384a8.07,8.07,0,0,0,8-7.36l8-96a8.12,8.12,0,0,0-2.08-6.08A8.23,8.23,0,0,0,392,184H259.28l-13.6-13.68A8.31,8.31,0,0,0,240,168h-9.44A24.07,24.07,0,0,0,208,152H192a24,24,0,0,0,0,48h16a24.07,24.07,0,0,0,22.56-16h6.16L248,195.28V320a8,8,0,0,0,8,8h9.44a24,24,0,1,0,45.12,0h18.88a24,24,0,1,0,45.12,0H384a8,8,0,0,1,8,8h16A24.07,24.07,0,0,0,384,312ZM360,200h23.28L382,216H360Zm0,32h20.64l-1.36,16H360Zm0,32h18l-1.36,16H360Zm-32-64h16v16H328Zm0,32h16v16H328Zm0,32h16v16H328Zm-32-64h16v16H296Zm0,32h16v16H296Zm0,32h16v16H296Zm-32-64h16v16H264Zm0,32h16v16H264Zm0,32h16v16H264Zm-56-80H192a8,8,0,0,1,0-16h16a8,8,0,0,1,0,16Zm80,160a8,8,0,1,1,8-8A8,8,0,0,1,288,344Zm64,0a8,8,0,1,1,8-8A8,8,0,0,1,352,344Z"/><path class="cls-1" d="M56,312H72v16H56Z"/><path class="cls-1" d="M88,312h32v16H88Z"/><path class="cls-1" d="M136,312h96v16H136Z"/><path class="cls-1" d="M112,280h80v16H112Z"/><path class="cls-1" d="M152,248h64v16H152Z"/><path class="cls-1" d="M120,248h16v16H120Z"/><path class="cls-1" d="M80,280H96v16H80Z"/></g></svg>