<svg xmlns="http://www.w3.org/2000/svg" width="584.222" height="573.053" viewBox="0 0 584.222 573.053">
  <g id="Group_9700" data-name="Group 9700" transform="translate(-7.996 -12.737)">
    <path id="Path_6420" data-name="Path 6420" d="M310.763,61.472a209.8,209.8,0,0,1,61.43,25.467l39.917-17.728,47.048,47.045-17.723,39.905a209.83,209.83,0,0,1,25.472,61.447l40.725,15.676v66.533L466.9,315.5a209.8,209.8,0,0,1-25.467,61.43l17.728,39.918-47.045,47.048-39.905-17.723a209.826,209.826,0,0,1-61.447,25.471l-15.675,40.726H228.55L212.87,471.633a209.788,209.788,0,0,1-61.43-25.467l-39.917,17.728L64.475,416.848,82.2,376.943a209.833,209.833,0,0,1-25.471-61.448L16,299.819V233.285l40.732-15.678A209.8,209.8,0,0,1,82.2,156.17L64.475,116.258l47.045-47.049,39.918,17.73A209.792,209.792,0,0,1,212.87,61.472L228.55,20.736h66.533Z" transform="translate(1.424 1.423)" fill="#ffe177" fill-rule="evenodd"/>
    <path id="Path_6421" data-name="Path 6421" d="M137.951,446.164,98.034,463.892l-6.178-6.178L129.267,441.1q4.28,2.637,8.684,5.065ZM297.273,61.472a209.791,209.791,0,0,1,60.66,25q.375.253.77.472L347.3,92c-19-11.7-48.412-25.367-70.115-30.532L261.506,20.737h20.088ZM91.854,75.388l6.178-6.178L137.95,86.94q-4.4,2.428-8.684,5.065Zm292.856,0,13.91-6.178,47.048,47.045-17.723,39.905a209.83,209.83,0,0,1,25.472,61.447l40.725,15.676v66.533L453.407,315.5a209.8,209.8,0,0,1-25.467,61.43l17.728,39.918-47.045,47.048-13.91-6.178,40.868-40.87-17.728-39.918a209.788,209.788,0,0,0,25.467-61.43l40.736-15.681V233.285l-40.725-15.676a209.829,209.829,0,0,0-25.472-61.447l17.723-39.905ZM357.94,446.646a209.812,209.812,0,0,1-60.669,24.995L281.6,512.367H261.508l15.675-40.726c21.709-5.166,51.129-18.835,70.13-30.536l11.405,5.065Q358.319,446.391,357.94,446.646Z" transform="translate(14.914 1.423)" fill="#ffd064" fill-rule="evenodd"/>
    <circle id="Ellipse_43" data-name="Ellipse 43" cx="142.916" cy="142.916" r="142.916" transform="translate(61.071 267.974) rotate(-45)" fill="#eceff1"/>
    <path id="Path_6422" data-name="Path 6422" d="M246.28,108.1c3.378,0,6.725.126,10.045.356a142.912,142.912,0,0,0,0,285.118c-3.319.231-6.667.357-10.045.357a142.915,142.915,0,1,1,0-285.831Z" transform="translate(16.96 16.959)" fill="#d1d1d6" fill-rule="evenodd"/>
    <path id="Path_6423" data-name="Path 6423" d="M152.609,222.022a26.286,26.286,0,0,1,37.067,0l26.557,26.557,71.855-71.855a26.288,26.288,0,0,1,37.067,0h0a26.286,26.286,0,0,1,0,37.067l-89.876,89.876c-13,13-30.379,7.713-41.9-3.81L152.608,259.09a26.29,26.29,0,0,1,0-37.068Z" transform="translate(24.359 27.804)" fill="#8ac9fe" fill-rule="evenodd"/>
    <path id="Path_6424" data-name="Path 6424" d="M526.554,370.523V490.306a22.5,22.5,0,0,1-22.431,22.431H269.807a22.5,22.5,0,0,1-22.431-22.431V370.527Z" transform="translate(42.572 63.63)" fill="#ecba78" fill-rule="evenodd"/>
    <path id="Path_6425" data-name="Path 6425" d="M336.337,321.134H315.088V291.817a24.073,24.073,0,0,1,24-24h71.66a24.076,24.076,0,0,1,24,24v29.318H413.506V291.817a2.82,2.82,0,0,0-2.755-2.754h-71.66a2.817,2.817,0,0,0-2.753,2.754v29.317Z" transform="translate(54.614 45.364)" fill="#837683" fill-rule="evenodd"/>
    <path id="Path_6426" data-name="Path 6426" d="M336.337,321.134h-8.9V291.817a2.818,2.818,0,0,1,2.754-2.754h8.9a2.819,2.819,0,0,0-2.754,2.754Zm65.512-53.321h8.9a24.076,24.076,0,0,1,24,24v29.318h-8.9V291.815A24.074,24.074,0,0,0,401.849,267.813Z" transform="translate(54.614 45.363)" fill="#685e68" fill-rule="evenodd"/>
    <path id="Path_6427" data-name="Path 6427" d="M490.476,370.523V490.306a22.5,22.5,0,0,1-22.431,22.431h-17.8a22.5,22.5,0,0,0,22.431-22.431V370.523Z" transform="translate(78.65 63.63)" fill="#e3a76f" fill-rule="evenodd"/>
    <path id="Path_6428" data-name="Path 6428" d="M256.422,405.5a70,70,0,0,1-6.983-5c-8.069-6.624-13.661-14.9-13.661-25.752V320.066a11.516,11.516,0,0,1,11.493-11.493H530.784a11.516,11.516,0,0,1,11.493,11.493v54.681c0,10.856-5.592,19.127-13.659,25.751a69.987,69.987,0,0,1-6.985,5c-46.665,29.523-218.888,29.307-265.211,0Z" transform="translate(40.509 52.612)" fill="#e3a76f" fill-rule="evenodd"/>
    <path id="Path_6429" data-name="Path 6429" d="M458,308.573H297.945v37.373a14.452,14.452,0,0,0,14.41,14.41H443.588A14.452,14.452,0,0,0,458,345.946Zm41.76,0h19.97a11.515,11.515,0,0,1,11.492,11.493v54.681c0,10.856-5.591,19.127-13.659,25.751a69.99,69.99,0,0,1-6.985,5,70.765,70.765,0,0,1-10.818,5.452Z" transform="translate(51.565 52.612)" fill="#c48958" fill-rule="evenodd"/>
    <path id="Path_6430" data-name="Path 6430" d="M398.4,416.941A28.246,28.246,0,1,1,370.153,388.7,28.246,28.246,0,0,1,398.4,416.941Z" transform="translate(59.384 66.861)" fill="#837683" fill-rule="evenodd"/>
    <path id="Path_6431" data-name="Path 6431" d="M394.808,416.941a28.265,28.265,0,0,1-32.7,27.9,28.249,28.249,0,0,0,0-55.792,28.553,28.553,0,0,1,4.451-.35A28.248,28.248,0,0,1,394.808,416.941Z" transform="translate(62.976 66.861)" fill="#685e68" fill-rule="evenodd"/>
    <path id="Path_6432" data-name="Path 6432" d="M546.7,566.945H312.358a13.007,13.007,0,0,1-12.973-13.006V470.164c25.114,12.025,65.308,16.577,92.806,18.3a37.651,37.651,0,0,0,74.732-.028c24.616-1.591,66.971-6.038,92.806-18.3v83.8A13.053,13.053,0,0,1,546.7,566.945ZM236.461,504.37h44.075V457.329c-9.092-8.659-13.694-18.722-13.694-29.97v-1.436c-1.164.028-2.384.045-3.6.045-87.1,0-158-70.874-158-157.992s70.907-158,158-158c87.151,0,158,70.879,158,158a157.8,157.8,0,0,1-4.1,35.776h48.233a33.529,33.529,0,0,1,8.26,1.036l26-10.018V241.177l-34.705-13.35a9.438,9.438,0,0,1-5.766-6.614,200.317,200.317,0,0,0-24.338-58.688,9.441,9.441,0,0,1-.555-8.764l15.08-33.99-37.921-37.9-33.984,15.1a9.423,9.423,0,0,1-8.76-.588A199.652,199.652,0,0,0,310.03,72.066a9.527,9.527,0,0,1-6.652-5.782l-13.361-34.7H236.462L223.1,66.284a9.439,9.439,0,0,1-6.6,5.782,200.622,200.622,0,0,0-58.711,24.321,9.413,9.413,0,0,1-8.76.588L115.048,81.869l-37.921,37.9,15.135,34a9.611,9.611,0,0,1-.61,8.764A200.256,200.256,0,0,0,67.315,221.21a9.455,9.455,0,0,1-5.766,6.614L26.844,241.18v53.593l34.705,13.35a9.432,9.432,0,0,1,5.766,6.614,200.1,200.1,0,0,0,24.338,58.683,9.444,9.444,0,0,1,.555,8.766l-15.08,34,37.921,37.9,33.984-15.1a9.4,9.4,0,0,1,8.76.588A200.749,200.749,0,0,0,216.5,463.886a9.444,9.444,0,0,1,6.6,5.782ZM477.568,351.761V337.181a12.211,12.211,0,0,0-12.2-12.18H393.688a12.164,12.164,0,0,0-12.141,12.18v14.581h-2.439V337.181A14.594,14.594,0,0,1,393.688,322.6h71.684a14.594,14.594,0,0,1,14.581,14.581v14.581ZM500.132,370.6v27.953a5.048,5.048,0,0,1-4.989,4.989H363.917a5.047,5.047,0,0,1-4.989-4.989V370.6Zm-41.413-18.843H400.4v-7.916h58.322ZM266.842,372.679v34.367c-1.164.027-2.384.078-3.6.078-76.728,0-139.154-62.42-139.154-139.148S186.51,128.828,263.239,128.828s139.154,62.42,139.154,139.148a138.438,138.438,0,0,1-4.657,35.776h-4.047a33.438,33.438,0,0,0-33.375,33.43v14.581H287.8a20.973,20.973,0,0,0-20.956,20.917ZM448.351,483.8a18.821,18.821,0,1,0-18.794,18.827A18.827,18.827,0,0,0,448.351,483.8ZM573.368,372.679v54.68c0,6.88-3.271,12.745-10.2,18.467a67.6,67.6,0,0,1-6.042,4.324c-15.412,9.757-49.73,16.959-92.64,19.559a37.653,37.653,0,0,0-69.853.016c-42.855-2.578-77.172-9.786-92.64-19.576a58.828,58.828,0,0,1-6.042-4.324c-6.986-5.722-10.257-11.588-10.257-18.467v-54.68a2.1,2.1,0,0,1,2.107-2.073h52.28v27.953a23.869,23.869,0,0,0,23.84,23.834H495.145a23.87,23.87,0,0,0,23.84-23.834V370.6h52.335a2.091,2.091,0,0,1,2.048,2.074Zm-2.052-20.917H498.8V337.181a33.313,33.313,0,0,0-6.265-19.476l19.9-7.668a9.4,9.4,0,0,0,6.042-8.8V234.706a9.392,9.392,0,0,0-6.042-8.793L476.292,212a216.52,216.52,0,0,0-22.841-55.063L469.2,121.5a9.341,9.341,0,0,0-1.94-10.484L420.188,63.968a9.4,9.4,0,0,0-10.478-1.946l-35.426,15.74a219.412,219.412,0,0,0-55.051-22.818L305.318,18.775a9.455,9.455,0,0,0-8.815-6.038H229.976a9.51,9.51,0,0,0-8.815,6.038L207.245,54.943a218.191,218.191,0,0,0-55,22.818L116.767,62.021a9.413,9.413,0,0,0-10.478,1.946L59.22,111.02A9.536,9.536,0,0,0,57.28,121.5l15.745,35.442a220.532,220.532,0,0,0-22.841,55.045L14.038,225.912A9.477,9.477,0,0,0,8,234.705v66.539a9.479,9.479,0,0,0,6.042,8.793l36.147,13.916a220.53,220.53,0,0,0,22.841,55.063L57.28,414.447a9.55,9.55,0,0,0,1.94,10.49l47.068,47.045a9.411,9.411,0,0,0,10.478,1.946l35.481-15.74a218.237,218.237,0,0,0,55,22.819l13.915,36.169a9.51,9.51,0,0,0,8.815,6.038h50.561V553.94a31.89,31.89,0,0,0,31.823,31.85H546.7a31.9,31.9,0,0,0,31.878-31.85v-96.6c9.036-8.659,13.638-18.722,13.638-29.976v-54.68a20.927,20.927,0,0,0-20.9-20.92ZM342.85,234.934l-89.868,89.873c-12.03,12.036-26.943-2.151-28.606-3.809l-40.749-40.77A16.753,16.753,0,0,1,195.491,251.6a16.506,16.506,0,0,1,11.864,4.883l26.556,26.556a9.463,9.463,0,0,0,13.36,0l71.85-71.855a16.785,16.785,0,0,1,23.729,23.745Zm13.36-37.067a35.731,35.731,0,0,1,0,50.389l-89.924,89.879a33.967,33.967,0,0,1-24.338,10.372c-10.478,0-21.456-4.773-30.88-14.181l-40.749-40.77a35.634,35.634,0,0,1,50.394-50.4l19.9,19.9,65.2-65.191a35.675,35.675,0,0,1,50.4,0Z" transform="translate(0 0)" fill="#242222" fill-rule="evenodd"/>
  </g>
</svg>
