<svg id="Layer_1" data-name="Layer 1" xmlns="http://www.w3.org/2000/svg" viewBox="0 0 512 512"><defs><style>.cls-1{fill:#fbe9d8;}.cls-2{fill:#ffe76c;}.cls-3{fill:#e3d3c2;}</style></defs><path class="cls-1" d="M448,488H64V24H416a32,32,0,0,1,32,32Z"/><circle class="cls-2" cx="168" cy="128" r="72"/><path class="cls-3" d="M448,56V88H400V48a24,24,0,0,0-24-24h40A32,32,0,0,1,448,56Z"/><path d="M56,488a8,8,0,0,0,8,8H448a8,8,0,0,0,8-8V56a40,40,0,0,0-40-40H64a8,8,0,0,0-8,8ZM440,56V80H408V48a31.77,31.77,0,0,0-4.3-16H416A24,24,0,0,1,440,56ZM72,32H376a16,16,0,0,1,16,16V88a8,8,0,0,0,8,8h40V480H72Z"/><path d="M400,416H336a8,8,0,0,0,0,16h64a8,8,0,0,0,0-16Z"/><path d="M400,448H272a8,8,0,0,0,0,16H400a8,8,0,0,0,0-16Z"/><path d="M168,104a8,8,0,0,1,8,8,8,8,0,0,0,16,0,24,24,0,0,0-16-22.62V88a8,8,0,0,0-16,0v1.38A24,24,0,0,0,168,136a8,8,0,1,1-8,8,8,8,0,0,0-16,0,24,24,0,0,0,16,22.62V168a8,8,0,0,0,16,0v-1.38A24,24,0,0,0,168,120a8,8,0,0,1,0-16Z"/><path d="M248,128a80,80,0,1,0-80,80A80,80,0,0,0,248,128Zm-80,64a64,64,0,1,1,64-64A64,64,0,0,1,168,192Z"/><path d="M144,240H112a8,8,0,0,0,0,16h32a8,8,0,0,0,0-16Z"/><path d="M320,240H192a8,8,0,0,0,0,16H320a8,8,0,0,0,0-16Z"/><path d="M400,240H384a8,8,0,0,0,0,16h16a8,8,0,0,0,0-16Z"/><path d="M144,272H112a8,8,0,0,0,0,16h32a8,8,0,0,0,0-16Z"/><path d="M320,272H192a8,8,0,0,0,0,16H320a8,8,0,0,0,0-16Z"/><path d="M400,272H384a8,8,0,0,0,0,16h16a8,8,0,0,0,0-16Z"/><path d="M144,304H112a8,8,0,0,0,0,16h32a8,8,0,0,0,0-16Z"/><path d="M320,304H192a8,8,0,0,0,0,16H320a8,8,0,0,0,0-16Z"/><path d="M400,304H384a8,8,0,0,0,0,16h16a8,8,0,0,0,0-16Z"/><path d="M144,336H112a8,8,0,0,0,0,16h32a8,8,0,0,0,0-16Z"/><path d="M320,336H192a8,8,0,0,0,0,16H320a8,8,0,0,0,0-16Z"/><path d="M400,336H384a8,8,0,0,0,0,16h16a8,8,0,0,0,0-16Z"/><path d="M144,368H112a8,8,0,0,0,0,16h32a8,8,0,0,0,0-16Z"/><path d="M328,376a8,8,0,0,0-8-8H192a8,8,0,0,0,0,16H320A8,8,0,0,0,328,376Z"/><path d="M400,368H384a8,8,0,0,0,0,16h16a8,8,0,0,0,0-16Z"/><path d="M400,128H320a8,8,0,0,0,0,16h80a8,8,0,0,0,0-16Z"/><path d="M400,160H280a8,8,0,0,0,0,16H400a8,8,0,0,0,0-16Z"/><path d="M400,192H280a8,8,0,0,0,0,16H400a8,8,0,0,0,0-16Z"/></svg>