<svg id="Layer_1" data-name="Layer 1" xmlns="http://www.w3.org/2000/svg" viewBox="0 0 50 50"><defs><style>.cls-1{fill:#c8effe;}.cls-2{fill:#99e6fc;}.cls-3{fill:#678d98;}.cls-4{fill:#537983;}.cls-5{fill:#f6a96c;}.cls-6{fill:#ea9b58;}.cls-7{fill:#fed2a4;}.cls-8{fill:#ffbd86;}.cls-9{fill:#60b7ff;}</style></defs><path class="cls-1" d="M7.54,43.73H43v2.83H7.54Z"/><path class="cls-2" d="M38,43.73H43v2.83H38Z"/><path class="cls-1" d="M7.54,22.69H43v2.83H7.54Z"/><path class="cls-2" d="M38,22.69H43v2.83H38Z"/><path class="cls-3" d="M9.35,48.16H4.74a.8.8,0,0,1-.8-.8V1.84h6.21V47.36A.8.8,0,0,1,9.35,48.16Z"/><path class="cls-3" d="M9.35,48.16H4.74a.8.8,0,0,1-.8-.8V1.84h6.21V47.36A.8.8,0,0,1,9.35,48.16Z"/><path class="cls-4" d="M8.55,1.84V47.36a.8.8,0,0,1-.8.8h1.6a.8.8,0,0,0,.8-.8V1.84Z"/><path class="cls-3" d="M45.26,48.16H40.65a.8.8,0,0,1-.8-.8V1.84h6.21V47.36A.8.8,0,0,1,45.26,48.16Z"/><path class="cls-3" d="M45.26,48.16H40.65a.8.8,0,0,1-.8-.8V1.84h6.21V47.36A.8.8,0,0,1,45.26,48.16Z"/><path class="cls-4" d="M44.46,1.84V47.36a.8.8,0,0,1-.8.8h1.6a.8.8,0,0,0,.8-.8V1.84Z"/><path class="cls-5" d="M10.15,36.31h9.9v7.42h-9.9Z"/><path class="cls-6" d="M18.21,36.31h1.84v7.42H18.21Z"/><path class="cls-7" d="M20.05,36.31H30v7.42h-9.9Z"/><path class="cls-8" d="M28.12,36.31H30v7.42H28.12Z"/><path class="cls-5" d="M30,36.31h9.9v7.42H30Z"/><path class="cls-6" d="M38,36.31h1.83v7.42H38Z"/><path class="cls-8" d="M20.05,36.31h-9.9V28.88h8.94a1,1,0,0,1,1,1Z"/><path class="cls-8" d="M20.05,36.31h-9.9V28.88h8.94a1,1,0,0,1,1,1Z"/><path class="cls-7" d="M20.05,36.31h-9.9V28.88h8.94a1,1,0,0,1,1,1Z"/><path class="cls-8" d="M19.09,28.88H17.25a1,1,0,0,1,1,1v6.47h1.84V29.84A1,1,0,0,0,19.09,28.88Z"/><path class="cls-7" d="M39.85,36.31H30V29.84a1,1,0,0,1,1-1h8.94v7.43Z"/><path class="cls-8" d="M38,28.88h1.83v7.43H38Z"/><path class="cls-9" d="M22.17,22.69H28v2.83H22.17Z"/><path class="cls-9" d="M22.17,43.73H28v2.83H22.17Z"/><path class="cls-7" d="M10.15,15.27h9.9v7.42h-9.9Z"/><path class="cls-8" d="M18.21,15.27h1.84v7.42H18.21Z"/><path class="cls-5" d="M20.05,15.27H30v7.42h-9.9Z"/><path class="cls-6" d="M28.12,15.27H30v7.42H28.12Z"/><path class="cls-7" d="M30,15.27h9.9v7.42H30Z"/><path class="cls-8" d="M38,15.27h1.83v7.42H38Z"/><path class="cls-5" d="M10.15,7.84h9.9v7.43h-9.9Z"/><path class="cls-6" d="M18.21,7.84h1.84v7.43H18.21Z"/><path class="cls-7" d="M30,15.27h-9.9V7.84H29a1,1,0,0,1,1,1Z"/><path class="cls-8" d="M29,7.84H27.15a1,1,0,0,1,1,1v6.47H30V8.8A1,1,0,0,0,29,7.84Z"/><path d="M48,1.14H37.87a.7.7,0,0,0,0,1.4h1.28v12h-8.5V8.8A1.66,1.66,0,0,0,29,7.14H13.44a.7.7,0,1,0,0,1.4h5.91v6h-8.5v-12h1.28a.7.7,0,1,0,0-1.4H2a.7.7,0,0,0,0,1.4H3.24V47.36a1.5,1.5,0,0,0,1.5,1.5H9.35a1.5,1.5,0,0,0,1.5-1.5v-.1H36.47a.7.7,0,0,0,0-1.4H28.68V44.43H39.15v2.93a1.5,1.5,0,0,0,1.5,1.5h4.61a1.5,1.5,0,0,0,1.5-1.5V5.19a.7.7,0,0,0-1.4,0V47.36a.1.1,0,0,1-.1.1H43.65V42.7a.7.7,0,1,0-1.39,0v4.76H40.65a.1.1,0,0,1-.1-.1V2.54H48a.7.7,0,0,0,0-1.4ZM39.15,35.61h-8.5V29.84a.26.26,0,0,1,.26-.26h8.24ZM27.28,23.39v1.43H22.87V23.39Zm-5.81,1.43H10.85V23.39H21.47Zm7.21-1.43H39.15v1.43H28.68ZM19.35,35.61h-8.5v-6h8.24a.26.26,0,0,1,.26.26ZM22.17,43H20.75V41.91a.7.7,0,1,0-1.4,0V43h-8.5V37h8.5v1.6a.7.7,0,0,0,1.4,0V37h8.5v6H22.17Zm8.48-6h8.5v6h-8.5Zm.26-8.82a1.66,1.66,0,0,0-1.66,1.66v5.77h-8.5V29.84a1.66,1.66,0,0,0-1.66-1.66H10.85v-2h28.3v2ZM29.25,22h-8.5V16h8.5Zm9.9,0h-8.5V16h8.5ZM29.25,8.8v5.77h-8.5v-6H29A.26.26,0,0,1,29.25,8.8ZM19.35,16v6h-8.5V16Zm-10,31.49H7.74V42.7a.7.7,0,1,0-1.39,0v4.76H4.74a.1.1,0,0,1-.1-.1V2.54H9.45v44h0v.8a.1.1,0,0,1-.1.1Zm1.5-1.6V44.43H21.47v1.43Zm16.43,0H22.87V44.43h4.41Z"/><circle cx="42.96" cy="25.67" r="0.76"/><circle cx="42.96" cy="22.23" r="0.76"/><circle cx="42.96" cy="18.78" r="0.76"/><circle cx="42.96" cy="15.34" r="0.76"/><circle cx="42.96" cy="11.89" r="0.76"/><circle cx="42.96" cy="8.45" r="0.76"/><circle cx="42.96" cy="5.01" r="0.76"/><circle cx="42.96" cy="39.64" r="0.76"/><circle cx="42.96" cy="36.19" r="0.76"/><circle cx="42.96" cy="32.75" r="0.76"/><circle cx="42.96" cy="29.3" r="0.76"/><circle cx="7.04" cy="25.67" r="0.76"/><circle cx="7.04" cy="22.23" r="0.76"/><circle cx="7.04" cy="18.78" r="0.76"/><circle cx="7.04" cy="15.34" r="0.76"/><circle cx="7.04" cy="11.89" r="0.76"/><circle cx="7.04" cy="8.45" r="0.76"/><circle cx="7.04" cy="5.01" r="0.76"/><circle cx="7.04" cy="39.64" r="0.76"/><circle cx="7.04" cy="36.19" r="0.76"/><circle cx="7.04" cy="32.75" r="0.76"/><circle cx="7.04" cy="29.3" r="0.76"/><path d="M33.77,32h2.55a.7.7,0,0,0,0-1.4H33.77a.7.7,0,1,0,0,1.4Z"/><path d="M36.32,38.18H33.77a.7.7,0,1,0,0,1.4h2.55a.7.7,0,0,0,0-1.4Z"/><path d="M26.43,38.18H23.88a.7.7,0,1,0,0,1.4h2.55a.7.7,0,0,0,0-1.4Z"/><path d="M16.37,30.63H13.83a.7.7,0,0,0,0,1.4h2.54a.7.7,0,0,0,0-1.4Z"/><path d="M16.37,38.18H13.83a.7.7,0,1,0,0,1.4h2.54a.7.7,0,1,0,0-1.4Z"/><path d="M33.77,18.58h2.55a.7.7,0,0,0,0-1.39H33.77a.7.7,0,1,0,0,1.39Z"/><path d="M23.88,11h2.55a.7.7,0,1,0,0-1.4H23.88a.7.7,0,0,0,0,1.4Z"/><path d="M23.88,18.58h2.55a.7.7,0,1,0,0-1.39H23.88a.7.7,0,1,0,0,1.39Z"/><path d="M16.37,11a.7.7,0,0,0,0-1.4H13.83a.7.7,0,0,0,0,1.4Z"/><path d="M13.83,18.58h2.54a.7.7,0,1,0,0-1.39H13.83a.7.7,0,1,0,0,1.39Z"/></svg>