<svg xmlns="http://www.w3.org/2000/svg" width="491.636" height="480" viewBox="0 0 491.636 480">
  <g id="rate-contract" transform="translate(4.375 -16)">
    <g id="Group_88" data-name="Group 88">
      <path id="Path_376" data-name="Path 376" d="M80.921,60.21H309.054a7.189,7.189,0,0,1,5.262,2.18L356.1,104.173a7.188,7.188,0,0,1,2.179,5.262V421.893a7.456,7.456,0,0,1-7.442,7.442H80.921a7.456,7.456,0,0,1-7.442-7.442V67.652A7.456,7.456,0,0,1,80.921,60.21Z" fill="#eceff1" fill-rule="evenodd"/>
      <path id="Path_377" data-name="Path 377" d="M80.921,60.21H94.535V429.336H80.921a7.456,7.456,0,0,1-7.442-7.442V67.652A7.456,7.456,0,0,1,80.921,60.21Z" fill="#d1d1d6" fill-rule="evenodd"/>
      <g id="Group_87" data-name="Group 87">
        <path id="Path_378" data-name="Path 378" d="M312.136,60.855a7.482,7.482,0,0,1,2.18,1.534L356.1,104.172a7.451,7.451,0,0,1,1.534,2.18H315.857a3.728,3.728,0,0,1-3.721-3.721ZM131.6,381.146a8,8,0,0,1,0-16H300.163a8,8,0,0,1,0,16Zm0-149.029a8,8,0,0,1,0-16H300.163a8,8,0,0,1,0,16Zm0,49.676a8,8,0,0,1,0-16H300.163a8,8,0,0,1,0,16Zm0,49.677a8,8,0,0,1,0-16H300.163a8,8,0,0,1,0,16Z" fill="#a79ba7" fill-rule="evenodd"/>
      </g>
      <path id="Path_379" data-name="Path 379" d="M262.761,127.06l-35.435,29.386,19,44.123a1.907,1.907,0,0,0,3.373.251l12.268-19.768,22.792,4.668A1.9,1.9,0,0,0,286.9,183.1Z" fill="#fe646f" fill-rule="evenodd"/>
      <path id="Path_380" data-name="Path 380" d="M262.761,127.06l-4.685,3.885L280.537,183.1a1.883,1.883,0,0,1-.112,1.735l4.337.888A1.9,1.9,0,0,0,286.9,183.1ZM245.17,197.877l11.158-17.98,5.642,1.156L249.7,200.821a1.907,1.907,0,0,1-3.373-.251Z" fill="#fd4755" fill-rule="evenodd"/>
      <path id="Path_381" data-name="Path 381" d="M210.483,154.167l-25.478,54.725a1.907,1.907,0,0,1-3.379.153L169.937,188.93l-22.918,4.005a1.906,1.906,0,0,1-2.058-2.685l25.2-54.126Z" fill="#fe646f" fill-rule="evenodd"/>
      <path id="Path_382" data-name="Path 382" d="M210.483,154.167l-25.478,54.725a1.907,1.907,0,0,1-3.379.153L169.937,188.93l-22.918,4.005a1.906,1.906,0,0,1-2.058-2.685l1.549-3.328,20.208-3.531,11.689,20.115a1.907,1.907,0,0,0,3.379-.153l23.9-51.333Z" fill="#fd4755" fill-rule="evenodd"/>
      <path id="Path_383" data-name="Path 383" d="M225.6,19.285c15.235,11.4,11.78,10.146,30.78,11.2a16.024,16.024,0,0,1,14.893,12.5c1.574,6.722,2.345,15.2,7.477,20.014l8.9,8.354A16.024,16.024,0,0,1,291.027,90.5c-8.585,16.984-7.946,13.363-5.688,32.258a16.023,16.023,0,0,1-9.72,16.836c-17.493,7.492-14.677,5.128-25.093,21.055a16.024,16.024,0,0,1-18.268,6.649c-18.216-5.505-14.54-5.505-32.756,0a16.026,16.026,0,0,1-18.269-6.649c-10.416-15.926-7.6-13.563-25.092-21.055a16.023,16.023,0,0,1-9.72-16.836c2.258-18.9,2.9-15.275-5.688-32.258a16.024,16.024,0,0,1,3.376-19.146c13.876-13.023,12.037-9.839,16.378-28.367a16.024,16.024,0,0,1,14.893-12.5c19-1.057,15.546.2,30.78-11.2a16.021,16.021,0,0,1,19.44,0Z" fill="#ffe177" fill-rule="evenodd"/>
      <path id="Path_384" data-name="Path 384" d="M225.6,19.285c15.235,11.4,11.78,10.146,30.78,11.2a16.024,16.024,0,0,1,14.893,12.5c1.574,6.722,2.345,15.2,7.477,20.014l8.9,8.354A16.024,16.024,0,0,1,291.027,90.5c-8.585,16.984-7.946,13.363-5.688,32.258a16.023,16.023,0,0,1-9.721,16.836c-17.493,7.492-14.677,5.128-25.092,21.055a16.011,16.011,0,0,1-17.65,6.823,16.111,16.111,0,0,0,9.318-6.823c10.416-15.927,7.6-13.564,25.093-21.055a16.024,16.024,0,0,0,9.721-16.836c-2.259-18.9-2.9-15.275,5.688-32.258a16.025,16.025,0,0,0-3.376-19.146L270.419,63c-5.132-4.817-5.9-13.292-7.477-20.014a16.024,16.024,0,0,0-14.893-12.5c-19-1.057-15.546.2-30.781-11.2a16.466,16.466,0,0,0-5.554-2.727A16.023,16.023,0,0,1,225.6,19.285ZM211.714,163.7c-2.783.633-6.371,1.831-12.212,3.6a16.255,16.255,0,0,1-8.95.174c.206-.054.413-.112.619-.174C203.545,163.556,205.818,162.358,211.714,163.7Z" fill="#ffd064" fill-rule="evenodd"/>
      <ellipse id="Ellipse_17" data-name="Ellipse 17" cx="44.083" cy="44.082" rx="44.083" ry="44.082" transform="matrix(0.989, -0.151, 0.151, 0.989, 165.659, 55.053)" fill="#ffc338"/>
      <path id="Path_385" data-name="Path 385" d="M215.88,47.926q1.779,0,3.522.14a44.083,44.083,0,0,0,0,87.884q-1.743.138-3.522.14a44.082,44.082,0,1,1,0-88.164Z" fill="#f5b829" fill-rule="evenodd"/>
      <path id="Path_386" data-name="Path 386" d="M236,75.76a8,8,0,0,1-9.95,10.665,23.519,23.519,0,0,1,2.8,1.436,17.37,17.37,0,0,1,8.782,13.346c.052.432.087,1.019.1,1.744a15.973,15.973,0,0,1-6.679,13.607,22.784,22.784,0,0,1-7.21,3.577,8,8,0,0,1-15.948-.177,22.373,22.373,0,0,1-5.288-2.569,19.689,19.689,0,0,1-8.372-11.827,7.981,7.981,0,0,1,9.264-9.744l-.176-.114A16.338,16.338,0,0,1,195.465,82.2a17.325,17.325,0,0,1,6.607-14.679,20.788,20.788,0,0,1,5.818-3.3,8,8,0,0,1,15.975-.1A20.616,20.616,0,0,1,236,75.76ZM225.118,86.04a7.96,7.96,0,0,1-3.865-4.092,5.058,5.058,0,0,0-3.495-3.015,7.353,7.353,0,0,0-3.237-.089,5.521,5.521,0,0,0-2.386,1.05,1.855,1.855,0,0,0-.732,1.554,1.16,1.16,0,0,0,.612.881,14.366,14.366,0,0,0,5.186,1.648,39.361,39.361,0,0,1,7.917,2.063Zm-10.48,13.687a34.975,34.975,0,0,1-7.23-1.931,7.94,7.94,0,0,1,2.331,3.953,3.914,3.914,0,0,0,1.685,2.327,8.446,8.446,0,0,0,4.834,1.239q.348-.007,1.19-.11a8.587,8.587,0,0,0,3.983-1.334.752.752,0,0,0,.367-.545c0-.079-.012,0-.042-.244a2.141,2.141,0,0,0-1.157-1.533,17.724,17.724,0,0,0-5.961-1.822Z" fill="#ffe177" fill-rule="evenodd"/>
      <circle id="Ellipse_18" data-name="Ellipse 18" cx="70.185" cy="70.185" r="70.185" transform="translate(-4.375 287.79) rotate(-45)" fill="#8ac9fe"/>
      <path id="Path_387" data-name="Path 387" d="M94.922,217.624a70.185,70.185,0,0,1,0,140.37c-2.16,0-4.3-.1-6.407-.294a70.184,70.184,0,0,0,0-139.782q3.2-.291,6.407-.294Z" fill="#60b7ff" fill-rule="evenodd"/>
      <path id="Path_388" data-name="Path 388" d="M116.382,308.881a4.627,4.627,0,1,0,3.276,1.355,4.619,4.619,0,0,0-3.276-1.355Zm-42.92-51.407a4.626,4.626,0,1,0,3.277,1.355,4.614,4.614,0,0,0-3.277-1.355Zm-14.588-9.956a20.632,20.632,0,1,1-6.043,14.589,20.571,20.571,0,0,1,6.043-14.589Zm56.275-1.206a7.97,7.97,0,0,1,12.937,9.313L75.159,329.28a7.97,7.97,0,1,1-12.937-9.313Zm-13.356,52.612a20.632,20.632,0,1,1-6.043,14.589A20.567,20.567,0,0,1,101.793,298.924Z" fill="#eceff1" fill-rule="evenodd"/>
      <circle id="Ellipse_19" data-name="Ellipse 19" cx="91.25" cy="91.25" r="91.25" transform="translate(267.032 224.491)" fill="#ffe177"/>
      <path id="Path_389" data-name="Path 389" d="M358.282,224.491a91.25,91.25,0,0,1,0,182.5c-2.067,0-4.116-.075-6.148-.211a91.246,91.246,0,0,0,0-182.078q3.07-.208,6.148-.211Z" fill="#ffd064" fill-rule="evenodd"/>
      <circle id="Ellipse_20" data-name="Ellipse 20" cx="69.678" cy="69.678" r="69.678" transform="translate(278.22 258.208) rotate(-9.25)" fill="#ffc338"/>
      <path id="Path_390" data-name="Path 390" d="M358.282,246.062a69.678,69.678,0,1,0,0,139.356q2.838,0,5.62-.226a69.679,69.679,0,0,1,0-138.9q-2.8-.225-5.62-.226Z" fill="#f5b829" fill-rule="evenodd"/>
      <path id="Path_391" data-name="Path 391" d="M386.171,291.479a8,8,0,1,1-14.751,6.189,12.911,12.911,0,0,0-8.937-7.689,16.687,16.687,0,0,0-7.342-.182,13.76,13.76,0,0,0-5.952,2.68,7.694,7.694,0,0,0-2.968,6.5,6.459,6.459,0,0,0,3.193,5.263c2.719,1.775,6.549,2.774,10.213,3.376,5.639.926,11.808,2.479,17.014,5.621,6.137,3.7,10.767,9.287,11.81,17.878.077.64.127,1.426.149,2.35a21.057,21.057,0,0,1-8.825,17.918,33.35,33.35,0,0,1-13.492,5.818v2.633a8,8,0,0,1-16,0v-2.794a32.211,32.211,0,0,1-10.668-4.51,26.887,26.887,0,0,1-11.436-16.139,7.981,7.981,0,1,1,15.5-3.812,11.1,11.1,0,0,0,4.748,6.639A18.429,18.429,0,0,0,359,342.009c.62-.015,1.413-.08,2.373-.2a18.58,18.58,0,0,0,8.772-3.118,5.789,5.789,0,0,0,2.513-4.855q-.029-.426-.086-.85a8.053,8.053,0,0,0-4.185-6.065c-3.128-1.888-7.35-2.906-11.326-3.559-5.472-.9-11.427-2.545-16.338-5.751-5.839-3.812-10.034-9.458-10.443-17.888a23.167,23.167,0,0,1,8.843-19.624,29.38,29.38,0,0,1,11.155-5.531v-2.924a8,8,0,1,1,16,0v2.813l.077.019a28.6,28.6,0,0,1,19.811,17Z" fill="#ffe177" fill-rule="evenodd"/>
      <path id="Path_392" data-name="Path 392" d="M169.252,397.6l67.882-39.328c12.74-7.381,25.694-12.615,39.7-8.072,15.612,5.063,41.106,15.934,67.105,20.623,9.65,3.129,15.667,12.792,13.041,22.59s-10.906,14.852-22.59,13.044l9.088,1.455c10.414,1.666,19.979.24,29.094-5.068l65.265-38.013c50.732-29.547,58.184,15.909,41.316,26.294L360.71,464.053c-10.893,6.706-22.813,8.271-35.17,4.959l-85.908-23.019-31.815,18.368a12.849,12.849,0,0,1-17.518-4.694l-25.727-44.561a12.851,12.851,0,0,1,4.68-17.509Z" fill="#f6dccd" fill-rule="evenodd"/>
      <path id="Path_393" data-name="Path 393" d="M355.43,397.475c-3.628,7.089-11.1,10.517-21.041,8.98-14.072-3.721-28.128-7.536-42.189-11.3a7.06,7.06,0,1,1,3.654-13.638Zm-186.178.121,67.882-39.328c12.74-7.381,25.694-12.615,39.7-8.072,8.353,2.708,19.534,7.079,32.108,11.277l-131.5,75.92-12.868-22.288A12.849,12.849,0,0,1,169.252,397.6Z" fill="#f1cbbc" fill-rule="evenodd"/>
      <path id="Path_394" data-name="Path 394" d="M176.02,376.177,229.856,471.3a9.636,9.636,0,0,1-3.63,13.1l-18.312,10.364a9.638,9.638,0,0,1-13.1-3.63l-53.836-95.125a9.638,9.638,0,0,1,3.63-13.1l18.312-10.363A9.637,9.637,0,0,1,176.02,376.177Z" fill="#d1d1d6" fill-rule="evenodd"/>
      <path id="Path_395" data-name="Path 395" d="M204.335,441.533l9.529,16.837,9.423,16.649a9.637,9.637,0,0,1-3.6,13.079l6.541-3.7a9.636,9.636,0,0,0,3.63-13.1L220.4,454.6l-18.984-33.544L182.411,387.47l-6.392-11.293a9.647,9.647,0,0,0-11.192-4.449l11.066,19.552,18.984,33.544,9.455,16.706Z" fill="#b1b1b5" fill-rule="evenodd"/>
      <path id="Path_396" data-name="Path 396" d="M163.713,390.392a6.538,6.538,0,1,0,7.415,5.523,6.538,6.538,0,0,0-7.415-5.523Z" fill="#685e68" fill-rule="evenodd"/>
    </g>
  </g>
</svg>
