<svg id="Layer_1" data-name="Layer 1" xmlns="http://www.w3.org/2000/svg" viewBox="0 0 512 512"><defs><style>.cls-1{fill:#047fa7;}.cls-2{fill:#0093ba;}.cls-3{fill:#ccdce5;}.cls-4{fill:#abbac2;}.cls-5{fill:#88bf40;}.cls-6{fill:#ef5249;}.cls-7{fill:#ffc119;}</style></defs><g id="FilledOutline"><path class="cls-1" d="M86,248.72h42.49v59.49h-68v-34A25.5,25.5,0,0,1,86,248.72Z"/><path class="cls-2" d="M120,78.74H451.47V478.18H120Z"/><path class="cls-3" d="M94.53,53.25H417.47V444.18H94.53Z"/><path class="cls-1" d="M120,444.18H417.47V78.74h17V461.18H120Z"/><path class="cls-4" d="M94.53,316.71h255a17,17,0,0,1,17,17v51a17,17,0,0,1-17,17H94.53v-85Z"/><path class="cls-2" d="M60.53,274.21A25.5,25.5,0,0,0,86,299.71H332.49a17,17,0,0,1,17,17v51a17,17,0,0,1-17,17H86a25.5,25.5,0,0,1-25.5-25.49Z"/><path class="cls-5" d="M196.51,138.23a59.49,59.49,0,1,0,42.07,101.56l-42.07-42.07Z"/><path class="cls-6" d="M238.58,155.66a59.31,59.31,0,0,0-42.07-17.43v59.49Z"/><path class="cls-7" d="M238.58,155.66l-42.07,42.06,42.07,42.07a59.49,59.49,0,0,0,0-84.13Z"/><path d="M307,95.74h17v17H307Z"/><path d="M341,95.74h42.49v17H341Z"/><path d="M290,129.74h93.49v17H290Z"/><path d="M290,163.73h93.49v17H290Z"/><path d="M290,197.72h93.49v17H290Z"/><path d="M290,231.72h76.49v17H290Z"/><path d="M86,393.19H332.49A25.51,25.51,0,0,0,358,367.7v-51a25.52,25.52,0,0,0-25.49-25.5H86a17,17,0,0,1,0-34v17h17V61.75h68V87.24a8.5,8.5,0,1,1-17,0v-8.5H137v8.5a25.5,25.5,0,1,0,51,0V61.75H409V435.69H103v-25.5H86v34a8.49,8.49,0,0,0,8.5,8.5H417.47a8.49,8.49,0,0,0,8.5-8.5V53.25a8.49,8.49,0,0,0-8.5-8.5H188a34,34,0,1,0-68,0H94.53a8.49,8.49,0,0,0-8.5,8.5v187a34,34,0,0,0-34,34v85A34,34,0,0,0,86,393.19ZM154,27.75a17,17,0,0,1,17,17H137A17,17,0,0,1,154,27.75ZM69,303.64a33.82,33.82,0,0,0,17,4.57H332.49a8.51,8.51,0,0,1,8.5,8.5v51a8.52,8.52,0,0,1-8.5,8.5H86a17,17,0,0,1-17-17Z"/><path d="M120,333.7h17v17H120Z"/><path d="M154,333.7H315.49v17H154Z"/><path d="M120,486.68H451.47a8.51,8.51,0,0,0,8.5-8.5V78.74H443V469.68H120Z"/><path d="M128.52,197.72a68,68,0,1,0,68-68A68,68,0,0,0,128.52,197.72ZM205,147.45a50.68,50.68,0,0,1,21,8.74l-21,21Zm-59.49,50.27A51.07,51.07,0,0,1,188,147.45v50.27a8.5,8.5,0,0,0,2.49,6L226,239.26a50.94,50.94,0,0,1-80.51-41.54Zm92.53,29.52-29.52-29.52,29.52-29.52a50.83,50.83,0,0,1,0,59Z"/></g></svg>