<svg xmlns="http://www.w3.org/2000/svg" width="512" height="512" viewBox="0 0 512 512">
  <g id="report" transform="translate(-20681.09 -18323.91)">
    <g id="Group_9708" data-name="Group 9708" transform="translate(20149 16196)">
      <path id="Path_6295" data-name="Path 6295" d="M981.19,2250.59l-93.68-92.01a13.413,13.413,0,0,0-9.41-3.85H641.26a50.174,50.174,0,0,0-50.12,50.13v358.29a50.183,50.183,0,0,0,50.13,50.13H935.1a50.183,50.183,0,0,0,50.13-50.13V2260.18a13.452,13.452,0,0,0-4.02-9.59h0Zm-89.66-50.4,47.4,46.55H895.8a4.268,4.268,0,0,1-4.27-4.27Zm43.56,386.22H641.26A23.287,23.287,0,0,1,618,2563.15V2204.86a23.281,23.281,0,0,1,23.26-23.26H864.67v60.87a31.176,31.176,0,0,0,31.14,31.14h62.54v289.54a23.287,23.287,0,0,1-23.26,23.26Z" fill="#ece7e7"/>
      <path id="Path_6296" data-name="Path 6296" d="M881.43,2367.88H692.05a13.43,13.43,0,1,0,0,26.86H881.43a13.43,13.43,0,1,0,0-26.86Zm-189.38,80.6H846.46a13.43,13.43,0,1,0,0-26.86H692.05a13.43,13.43,0,1,0,0,26.86Zm173.04,26.87H692.05a13.43,13.43,0,1,0,0,26.86H865.09a13.43,13.43,0,1,0,0-26.86Z" fill="#ece7e7"/>
    </g>
    <rect id="Rectangle_4142" data-name="Rectangle 4142" width="512" height="512" transform="translate(20681.09 18323.91)" fill="none"/>
  </g>
</svg>
