<svg xmlns="http://www.w3.org/2000/svg" width="25" height="23.026" viewBox="0 0 25 23.026">
  <path id="business_center_FILL0_wght300_GRAD0_opsz48" d="M108.136-835.612V-838.1a1.834,1.834,0,0,1,.562-1.327,1.811,1.811,0,0,1,1.336-.571h4.934a1.82,1.82,0,0,1,1.327.571,1.82,1.82,0,0,1,.571,1.327v2.487H123.1a1.8,1.8,0,0,1,1.336.578,1.842,1.842,0,0,1,.562,1.319v14.846a1.834,1.834,0,0,1-.562,1.327,1.811,1.811,0,0,1-1.336.571H101.9a1.82,1.82,0,0,1-1.327-.571,1.82,1.82,0,0,1-.571-1.327v-14.846a1.829,1.829,0,0,1,.571-1.319,1.808,1.808,0,0,1,1.327-.578Zm1.493,0h5.744V-838.1a.387.387,0,0,0-.127-.278.387.387,0,0,0-.278-.127h-4.934a.387.387,0,0,0-.278.127.387.387,0,0,0-.127.278ZM123.508-824.8H115.09v.879a.914.914,0,0,1-.272.67.918.918,0,0,1-.679.273h-3.245a.9.9,0,0,1-.668-.277.921.921,0,0,1-.273-.672v-.873h-8.459v5.929a.387.387,0,0,0,.127.278.387.387,0,0,0,.278.126h21.2a.387.387,0,0,0,.278-.126.387.387,0,0,0,.127-.278Zm-12.062.329H113.6v-2.151h-2.151Zm-9.952-1.822h8.459v-.879a.9.9,0,0,1,.278-.676.935.935,0,0,1,.673-.267h3.245a.906.906,0,0,1,.674.271.927.927,0,0,1,.267.678v.873h8.419v-7.424a.387.387,0,0,0-.127-.278.387.387,0,0,0-.278-.126H101.9a.387.387,0,0,0-.278.126.387.387,0,0,0-.127.278ZM112.5-825.544Z" transform="translate(-100.001 839.997)" fill="#fff"/>
</svg>
