<svg id="Layer_1" data-name="Layer 1" xmlns="http://www.w3.org/2000/svg" viewBox="0 0 512 512"><defs><style>.cls-1{fill:#999;}</style></defs><path class="cls-1" d="M459.43,13.45H52.57A39.18,39.18,0,0,0,13.45,52.57V459.43a39.18,39.18,0,0,0,39.12,39.12H459.43a39.18,39.18,0,0,0,39.12-39.12V52.57A39.18,39.18,0,0,0,459.43,13.45ZM52.57,29.1H459.43A23.47,23.47,0,0,1,482.9,52.57V60.4H29.1V52.57A23.47,23.47,0,0,1,52.57,29.1ZM29.1,248.18V76H482.9V248.18Zm453.8,15.64V436H29.1V263.82ZM459.43,482.9H52.57A23.47,23.47,0,0,1,29.1,459.43h0V451.6H482.9v7.83a23.47,23.47,0,0,1-23.47,23.47Z"/><path class="cls-1" d="M115.17,91.69a70.42,70.42,0,1,0,70.41,70.42A70.42,70.42,0,0,0,115.17,91.69Zm0,125.19a54.77,54.77,0,1,1,54.76-54.77A54.77,54.77,0,0,1,115.17,216.88Z"/><path class="cls-1" d="M115.17,138.64a7.82,7.82,0,0,1,7.82,7.82h15.65a23.47,23.47,0,0,0-15.65-22v-9.26H107.34v9.26a23.41,23.41,0,0,0,7.83,45.5,7.83,7.83,0,1,1-7.83,7.83H91.69a23.47,23.47,0,0,0,15.65,22v9.27H123v-9.27a23.41,23.41,0,0,0-7.82-45.5,7.83,7.83,0,1,1,0-15.65Z"/><path class="cls-1" d="M201.23,201.23h266v15.65h-266Z"/><path class="cls-1" d="M295.12,185.58a23.47,23.47,0,0,0,23.47-23.47V146.46a23.47,23.47,0,1,0-46.94,0v15.65A23.47,23.47,0,0,0,295.12,185.58Zm-7.82-39.12a7.82,7.82,0,1,1,15.64,0v15.65a7.82,7.82,0,0,1-15.64,0Z"/><path class="cls-1" d="M373.36,185.58a23.47,23.47,0,0,0,23.47-23.47V146.46a23.47,23.47,0,1,0-46.94,0v15.65A23.47,23.47,0,0,0,373.36,185.58Zm-7.82-39.12a7.83,7.83,0,0,1,15.65,0v15.65a7.83,7.83,0,0,1-15.65,0Z"/><path class="cls-1" d="M326.42,162.11h15.65v15.65H326.42Z"/><path class="cls-1" d="M44.75,279.47H216.88v15.65H44.75Z"/><path class="cls-1" d="M44.75,310.77H216.88v15.65H44.75Z"/><path class="cls-1" d="M44.75,342.07H216.88v15.64H44.75Z"/><path class="cls-1" d="M44.75,373.36H216.88V389H44.75Z"/><path class="cls-1" d="M44.75,404.66H216.88v15.65H44.75Z"/><path class="cls-1" d="M256,279.47h62.59v15.65H256Z"/><path class="cls-1" d="M256,310.77h62.59v15.65H256Z"/><path class="cls-1" d="M256,342.07h62.59v15.64H256Z"/><path class="cls-1" d="M256,373.36h62.59V389H256Z"/><path class="cls-1" d="M256,404.66h62.59v15.65H256Z"/><path class="cls-1" d="M357.71,279.47H436v15.65H357.71Z"/><path class="cls-1" d="M451.6,279.47h15.65v15.65H451.6Z"/><path class="cls-1" d="M357.71,310.77H436v15.65H357.71Z"/><path class="cls-1" d="M451.6,310.77h15.65v15.65H451.6Z"/><path class="cls-1" d="M357.71,342.07H436v15.64H357.71Z"/><path class="cls-1" d="M451.6,342.07h15.65v15.64H451.6Z"/><path class="cls-1" d="M357.71,373.36H436V389H357.71Z"/><path class="cls-1" d="M451.6,373.36h15.65V389H451.6Z"/><path class="cls-1" d="M357.71,404.66H436v15.65H357.71Z"/><path class="cls-1" d="M451.6,404.66h15.65v15.65H451.6Z"/></svg>