<svg id="Layer_1" data-name="Layer 1" xmlns="http://www.w3.org/2000/svg" viewBox="0 0 512 512"><defs><style>.cls-1{fill:#49a9cd;}.cls-2{fill:#474747;}.cls-3{fill:#4fb5dc;}.cls-4{fill:#5ed3f2;}.cls-5{fill:#95ebfc;}.cls-6{fill:#f4a93c;}.cls-7{fill:#f6b940;}.cls-8{fill:#fce797;}.cls-9{fill:#f2f2f2;}.cls-10{fill:#e2e7f6;}.cls-11{fill:#686868;}</style></defs><rect class="cls-1" x="16" y="16" width="480" height="480" rx="32"/><path class="cls-2" d="M496,448H16v16a32,32,0,0,0,32,32H464a32,32,0,0,0,32-32Z"/><path class="cls-3" d="M16,256H496V448H208C102,448,16,362,16,256Z"/><path class="cls-4" d="M496,256H16V48A32,32,0,0,1,48,16H464a32,32,0,0,1,32,32Z"/><path class="cls-5" d="M496,256H224C109.12,256,16,162.88,16,48A32,32,0,0,1,48,16H464a32,32,0,0,1,32,32Z"/><circle class="cls-6" cx="112" cy="160" r="64"/><path class="cls-7" d="M112,96a64,64,0,0,0-63.94,62.89,208.85,208.85,0,0,0,65.05,65.05A64,64,0,0,0,112,96Z"/><path class="cls-2" d="M496,64H16V48A32,32,0,0,1,48,16H464a32,32,0,0,1,32,32Z"/><path class="cls-8" d="M112,152a8,8,0,1,1,8-8h16a24,24,0,0,0-16-22.53V112H104v9.47A23.95,23.95,0,0,0,112,168a8,8,0,1,1-8,8H88a24,24,0,0,0,16,22.53V208h16v-9.47A23.95,23.95,0,0,0,112,152Z"/><path class="cls-2" d="M200,200H472v16H200Z"/><path class="cls-2" d="M296,184a24,24,0,0,1-24-24V144a24,24,0,0,1,48,0v16A24,24,0,0,1,296,184Zm0-48a8,8,0,0,0-8,8v16a8,8,0,0,0,16,0V144A8,8,0,0,0,296,136Z"/><path class="cls-2" d="M376,184a24,24,0,0,1-24-24V144a24,24,0,0,1,48,0v16A24,24,0,0,1,376,184Zm0-48a8,8,0,0,0-8,8v16a8,8,0,0,0,16,0V144A8,8,0,0,0,376,136Z"/><path class="cls-2" d="M328,160h16v16H328Z"/><path class="cls-9" d="M40,280H216v16H40Z"/><path class="cls-9" d="M40,312H216v16H40Z"/><path class="cls-10" d="M40,344H216v16H40Z"/><path class="cls-10" d="M40,376H216v16H40Z"/><path class="cls-10" d="M40,408H216v16H40Z"/><path class="cls-9" d="M256,280h64v16H256Z"/><path class="cls-9" d="M256,312h64v16H256Z"/><path class="cls-9" d="M256,344h64v16H256Z"/><path class="cls-9" d="M256,376h64v16H256Z"/><path class="cls-9" d="M256,408h64v16H256Z"/><path class="cls-9" d="M360,280h80v16H360Z"/><path class="cls-9" d="M456,280h16v16H456Z"/><path class="cls-9" d="M360,312h80v16H360Z"/><path class="cls-9" d="M456,312h16v16H456Z"/><path class="cls-9" d="M360,344h80v16H360Z"/><path class="cls-9" d="M456,344h16v16H456Z"/><path class="cls-9" d="M360,376h80v16H360Z"/><path class="cls-9" d="M456,376h16v16H456Z"/><path class="cls-9" d="M360,408h80v16H360Z"/><path class="cls-9" d="M456,408h16v16H456Z"/><path class="cls-11" d="M464,16H48a31.92,31.92,0,0,0-11.54,2.23A71.79,71.79,0,0,0,88,40H494.87A31.93,31.93,0,0,0,464,16Z"/><path class="cls-11" d="M84.29,472H494.87a31.4,31.4,0,0,0,1.13-8V448H30.73A71.75,71.75,0,0,0,84.29,472Z"/><path class="cls-9" d="M115,424H216V408H90.76A191.65,191.65,0,0,0,115,424Z"/><path class="cls-9" d="M72.48,392H216V376H58.17A195.45,195.45,0,0,0,72.48,392Z"/><path class="cls-9" d="M40,349c2.09,3.76,4.31,7.43,6.64,11H216V344H40Z"/><path d="M464,8H48A40.05,40.05,0,0,0,8,48V464a40.05,40.05,0,0,0,40,40H464a40.05,40.05,0,0,0,40-40V48A40.05,40.05,0,0,0,464,8ZM48,24H464a24,24,0,0,1,24,24v8H24V48A24,24,0,0,1,48,24ZM24,248V72H488V248Zm464,16V440H24V264ZM464,488H48a24,24,0,0,1-24-24h0v-8H488v8a24,24,0,0,1-24,24Z"/><path d="M112,88a72,72,0,1,0,72,72A72,72,0,0,0,112,88Zm0,128a56,56,0,1,1,56-56A56,56,0,0,1,112,216Z"/><path d="M112,136a8,8,0,0,1,8,8h16a24,24,0,0,0-16-22.53V112H104v9.47A23.95,23.95,0,0,0,112,168a8,8,0,1,1-8,8H88a24,24,0,0,0,16,22.53V208h16v-9.47A23.95,23.95,0,0,0,112,152a8,8,0,0,1,0-16Z"/><path d="M200,200H472v16H200Z"/><path d="M296,184a24,24,0,0,0,24-24V144a24,24,0,0,0-48,0v16A24,24,0,0,0,296,184Zm-8-40a8,8,0,0,1,16,0v16a8,8,0,0,1-16,0Z"/><path d="M376,184a24,24,0,0,0,24-24V144a24,24,0,0,0-48,0v16A24,24,0,0,0,376,184Zm-8-40a8,8,0,0,1,16,0v16a8,8,0,0,1-16,0Z"/><path d="M328,160h16v16H328Z"/><path d="M40,280H216v16H40Z"/><path d="M40,312H216v16H40Z"/><path d="M40,344H216v16H40Z"/><path d="M40,376H216v16H40Z"/><path d="M40,408H216v16H40Z"/><path d="M256,280h64v16H256Z"/><path d="M256,312h64v16H256Z"/><path d="M256,344h64v16H256Z"/><path d="M256,376h64v16H256Z"/><path d="M256,408h64v16H256Z"/><path d="M360,280h80v16H360Z"/><path d="M456,280h16v16H456Z"/><path d="M360,312h80v16H360Z"/><path d="M456,312h16v16H456Z"/><path d="M360,344h80v16H360Z"/><path d="M456,344h16v16H456Z"/><path d="M360,376h80v16H360Z"/><path d="M456,376h16v16H456Z"/><path d="M360,408h80v16H360Z"/><path d="M456,408h16v16H456Z"/></svg>