<svg id="Layer_1" data-name="Layer 1" xmlns="http://www.w3.org/2000/svg" viewBox="0 0 512 512"><defs><style>.cls-1{fill:#fed9a8;}.cls-2{fill:#e1effb;}.cls-3{fill:#baced8;}.cls-4{fill:#f3e8d6;}.cls-5{fill:#e5d8c6;}.cls-6{fill:#e5d8c3;}.cls-7{fill:#ffb123;}.cls-8{fill:#ff901d;}.cls-9{fill:#d6c9b4;}</style></defs><path class="cls-1" d="M483.58,208.45a29.82,29.82,0,0,0-11.17-18.22l-202.2-158a23.65,23.65,0,0,0-29.14,0l-201.52,158a29.87,29.87,0,0,0-11.13,18.19,23.47,23.47,0,0,0-.38,4V470.9A13.93,13.93,0,0,0,42,484.82H470A13.92,13.92,0,0,0,484,470.9V212.39A23.31,23.31,0,0,0,483.58,208.45Z"/><path class="cls-2" d="M71.51,465.23V75.76a7.8,7.8,0,0,1,7.8-7.8H432.68a7.81,7.81,0,0,1,7.81,7.8V465.23a7.81,7.81,0,0,1-7.81,7.81H79.31A7.81,7.81,0,0,1,71.51,465.23Z"/><path class="cls-3" d="M432.68,68H386.34a7.8,7.8,0,0,1,7.81,7.81V465.23a7.81,7.81,0,0,1-7.81,7.81h46.34a7.81,7.81,0,0,0,7.81-7.81V75.76A7.81,7.81,0,0,0,432.68,68Z"/><path class="cls-4" d="M483.58,208.45a28.73,28.73,0,0,0-2.84-8.27L270.21,364.72a23.65,23.65,0,0,1-29.14,0L31.24,200.19a29.12,29.12,0,0,0-2.82,8.24,23.47,23.47,0,0,0-.38,4V470.9a13.57,13.57,0,0,0,.29,2.8,12.85,12.85,0,0,0,.81,2.62,13.9,13.9,0,0,0,5,6.12A14,14,0,0,0,42,484.82H470a13.93,13.93,0,0,0,12.83-8.5A13.9,13.9,0,0,0,484,470.9V212.39A23.31,23.31,0,0,0,483.58,208.45Z"/><path class="cls-5" d="M483.58,208.45a28.73,28.73,0,0,0-2.84-8.27l-43.11,33.69V435.08a14.29,14.29,0,0,1-.28,2.8,13.75,13.75,0,0,1-.82,2.62,13.93,13.93,0,0,1-12.82,8.5H28v21.9a13.57,13.57,0,0,0,.29,2.8,12.85,12.85,0,0,0,.81,2.62,13.9,13.9,0,0,0,5,6.12A14,14,0,0,0,42,484.82H470a13.93,13.93,0,0,0,12.83-8.5A13.9,13.9,0,0,0,484,470.9V212.39A23.31,23.31,0,0,0,483.58,208.45Z"/><path class="cls-6" d="M479.4,481.17c-24.44-20.8-143.34-120.08-197-164.88a41.32,41.32,0,0,0-52.85-.1C177.21,359.51,63,454.2,31.86,480.45A13.83,13.83,0,0,0,42,484.82H470A13.83,13.83,0,0,0,479.4,481.17Z"/><path class="cls-7" d="M341.62,195.44A85.62,85.62,0,1,1,256,109.82,85.62,85.62,0,0,1,341.62,195.44Z"/><path class="cls-8" d="M256,109.82A85.57,85.57,0,0,0,232.83,113a85.65,85.65,0,0,1,0,164.89A85.63,85.63,0,1,0,256,109.82Z"/><path d="M266.23,192.55c-6.64,5.42-6.78,10-6.78,17.88,0,2.44-1.22,4.88-6.77,4.88-4.47,0-6.23-1.77-6.23-7.59,0-12.6,4.33-18,8.13-21.4,4.74-4.47,13.27-9.21,13.27-18.42,0-7.59-5.69-11.65-14-11.65-13.28,0-11.51,9.34-17.74,9.34-3.12,0-6.78-2-6.78-6.5,0-6.5,8.54-16,24.93-16,17.2,0,27.9,9.89,27.9,22.89C282.21,180,270.29,188.76,266.23,192.55ZM262,234.27a9.3,9.3,0,0,1-9.2,9.21,9.21,9.21,0,0,1,0-18.42A9.3,9.3,0,0,1,262,234.27Z"/><path class="cls-9" d="M434.71,443.6a13.91,13.91,0,0,1-11,5.4H69.47c-16.34,13.61-29.68,24.76-37.61,31.45A13.83,13.83,0,0,0,42,484.82H470a13.83,13.83,0,0,0,9.37-3.65C471.89,474.78,455.44,461,434.71,443.6Z"/><path d="M256,102.92a92.53,92.53,0,1,0,92.52,92.52A92.63,92.63,0,0,0,256,102.92Zm0,171.24a78.72,78.72,0,1,1,78.71-78.72A78.81,78.81,0,0,1,256,274.16Z"/><path d="M490.83,211.16c0-.21,0-.42,0-.63s0-.21,0-.32c-.08-1-.22-2-.39-3,0-.13-.05-.26-.07-.38l0-.12a2.21,2.21,0,0,0,0-.25l0-.18,0-.15a1.84,1.84,0,0,1-.05-.25h0a36.79,36.79,0,0,0-13.45-21.14l-29.27-22.87V75.76a14.72,14.72,0,0,0-14.71-14.71H318.33L274.46,26.77a30.49,30.49,0,0,0-37.65,0L193.12,61.05H79.31A14.73,14.73,0,0,0,64.6,75.77v86.05l-29.31,23A36.76,36.76,0,0,0,21.9,205.86a.14.14,0,0,0,0,.06,2.25,2.25,0,0,1-.05.22l0,.17c0,.06,0,.12,0,.18s0,.15,0,.22l0,.14c0,.12-.05.25-.07.37a29.88,29.88,0,0,0-.48,5.17V470.9a21,21,0,0,0,.42,4.19A20.43,20.43,0,0,0,22.78,479a20.77,20.77,0,0,0,7.54,9.15,20.54,20.54,0,0,0,5.46,2.63,20.79,20.79,0,0,0,3.9.81h.13l.2,0H471.24l.27,0h.06l.2,0h.1l.28,0,.15,0,.17,0A20.8,20.8,0,0,0,489.22,479a22,22,0,0,0,1.22-3.92,21,21,0,0,0,.42-4.19V212.39C490.86,212,490.85,211.58,490.83,211.16ZM447.4,179.44l20.76,16.23a24.1,24.1,0,0,1,3.25,3l-24,18.77ZM245.33,37.67a16.71,16.71,0,0,1,20.63,0l29.94,23.4H215.5Zm-201.52,158,20.79-16.3v38.2l-24-18.84A24.2,24.2,0,0,1,43.81,195.67Zm1.8,282.24C86.37,443.75,189,358.74,233.93,321.5a34.44,34.44,0,0,1,44,.09c45.94,38.35,148.89,124.3,186.89,156.32ZM477,470.13C442,440.55,334.15,350.5,286.81,311a48.24,48.24,0,0,0-61.69-.12C179.48,348.66,74.48,435.67,35,468.83V212.39c0-.17,0-.33,0-.51L175.4,322a6.91,6.91,0,0,0,8.52-10.87L78.41,228.4V75.76a.91.91,0,0,1,.9-.9H432.68a.9.9,0,0,1,.9.9V228.27L327.7,311a6.9,6.9,0,0,0,8.5,10.88L477,211.84c0,.19,0,.37,0,.55V470.13Z"/></svg>