<svg width="296" height="342" viewBox="0 0 296 342" fill="none" xmlns="http://www.w3.org/2000/svg">
<g clip-path="url(#clip0_39_908)">
<path d="M22.77 22.77H85.388V34.155H22.77V22.77ZM28.463 125.235H79.695C81.2049 125.235 82.6529 124.635 83.7206 123.568C84.7882 122.5 85.388 121.052 85.388 119.542V96.77C85.388 95.2601 84.7882 93.8121 83.7206 92.7444C82.6529 91.6768 81.2049 91.077 79.695 91.077H28.463C26.9531 91.077 25.5051 91.6768 24.4375 92.7444C23.3698 93.8121 22.77 95.2601 22.77 96.77V119.54C22.7698 120.288 22.9168 121.028 23.2028 121.719C23.4888 122.41 23.9081 123.038 24.4368 123.567C24.9654 124.096 25.5931 124.515 26.2839 124.801C26.9748 125.088 27.7152 125.235 28.463 125.235ZM34.155 102.47H74.003V113.85H34.155V102.47ZM102.465 125.24H222.008C222.756 125.24 223.496 125.093 224.187 124.807C224.877 124.521 225.505 124.101 226.034 123.573C226.562 123.044 226.982 122.416 227.268 121.726C227.554 121.035 227.701 120.295 227.701 119.547V96.77C227.701 96.0224 227.554 95.2821 227.268 94.5914C226.982 93.9007 226.562 93.2731 226.034 92.7444C225.505 92.2158 224.877 91.7964 224.187 91.5103C223.496 91.2242 222.756 91.077 222.008 91.077H102.47C101.722 91.0761 100.981 91.2226 100.289 91.5083C99.5977 91.794 98.9693 92.2132 98.4399 92.742C97.9105 93.2707 97.4906 93.8986 97.204 94.5898C96.9175 95.2809 96.77 96.0218 96.77 96.77V119.54C96.7698 120.288 96.917 121.029 97.2035 121.721C97.4899 122.412 97.9098 123.04 98.4392 123.569C98.9686 124.098 99.5971 124.518 100.289 124.803C100.98 125.089 101.722 125.236 102.47 125.235L102.465 125.24ZM108.158 102.47H216.315V113.85H108.158V102.47ZM28.458 79.7H79.695C81.2049 79.7 82.6529 79.1002 83.7206 78.0325C84.7882 76.9649 85.388 75.5169 85.388 74.007V51.233C85.388 49.7231 84.7882 48.2751 83.7206 47.2074C82.6529 46.1398 81.2049 45.54 79.695 45.54H28.463C26.9531 45.54 25.5051 46.1398 24.4375 47.2074C23.3698 48.2751 22.77 49.7231 22.77 51.233V74.003C22.7703 75.5127 23.3702 76.9605 24.4378 78.0279C25.5054 79.0953 26.9533 79.695 28.463 79.695L28.458 79.7ZM34.151 56.93H74.003V68.31H34.155L34.151 56.93ZM102.47 79.695H222.008C222.756 79.695 223.496 79.5477 224.187 79.2616C224.877 78.9755 225.505 78.5562 226.034 78.0275C226.562 77.4989 226.982 76.8713 227.268 76.1806C227.554 75.4899 227.701 74.7496 227.701 74.002V51.233C227.701 50.4854 227.554 49.7451 227.268 49.0544C226.982 48.3637 226.562 47.7361 226.034 47.2074C225.505 46.6788 224.877 46.2594 224.187 45.9733C223.496 45.6872 222.756 45.54 222.008 45.54H102.47C101.722 45.5391 100.981 45.6856 100.289 45.9713C99.5977 46.257 98.9693 46.6762 98.4399 47.205C97.9105 47.7337 97.4906 48.3616 97.204 49.0528C96.9175 49.7439 96.77 50.4848 96.77 51.233V74.003C96.7702 74.7511 96.9177 75.4919 97.2043 76.1829C97.4909 76.874 97.9109 77.5017 98.4403 78.0304C98.9697 78.559 99.598 78.9781 100.289 79.2637C100.981 79.5494 101.722 79.6959 102.47 79.695ZM108.163 56.925H216.315V68.31H108.158L108.163 56.925ZM22.77 136.62H91.08V148.005H22.77V136.62Z" fill="#999999"/>
<path d="M283.305 116.327C280.966 115.517 278.489 115.177 276.018 115.324C273.547 115.472 271.129 116.105 268.903 117.187C266.676 118.269 264.684 119.779 263.042 121.631C261.399 123.483 260.137 125.64 259.328 127.98L255 140.446V140.452L250.469 153.545V5.693C250.469 4.18347 249.869 2.73574 248.802 1.66815C247.735 0.600561 246.288 0.000530311 244.778 0L5.693 0C4.18312 0 2.73509 0.599797 1.66744 1.66744C0.599797 2.73509 0 4.18312 0 5.693L0 335.858C0 337.368 0.599797 338.816 1.66744 339.884C2.73509 340.951 4.18312 341.551 5.693 341.551H244.778C245.526 341.551 246.266 341.404 246.957 341.118C247.647 340.832 248.275 340.412 248.804 339.884C249.332 339.355 249.752 338.727 250.038 338.037C250.324 337.346 250.471 336.606 250.471 335.858V268.958L290.688 152.77V152.764L290.694 152.753L294.935 140.366C295.757 138.024 296.108 135.543 295.968 133.066C295.827 130.588 295.199 128.162 294.118 125.928C293.037 123.694 291.526 121.696 289.67 120.048C287.814 118.401 285.651 117.136 283.305 116.327ZM273.878 127.416C274.76 126.983 275.72 126.732 276.7 126.676C277.681 126.621 278.663 126.762 279.588 127.092C280.516 127.411 281.372 127.911 282.107 128.562C282.841 129.213 283.44 130.004 283.868 130.887C284.296 131.771 284.545 132.73 284.601 133.71C284.657 134.69 284.518 135.672 284.193 136.598L281.774 143.668L274.698 141.232L267.622 138.796L270.081 131.715C270.399 130.783 270.898 129.922 271.55 129.184C272.202 128.446 272.995 127.845 273.881 127.415L273.878 127.416ZM216.315 252.276L213 261.856H34.155V170.776H216.315V252.276ZM239.085 330.167H11.385V11.385H239.085V186.441L227.7 219.355V165.083C227.7 163.573 227.1 162.125 226.033 161.057C224.965 159.99 223.517 159.39 222.007 159.39H28.463C26.9531 159.39 25.5051 159.99 24.4374 161.057C23.3698 162.125 22.77 163.573 22.77 165.083V267.548C22.77 269.058 23.3698 270.506 24.4374 271.574C25.5051 272.641 26.9531 273.241 28.463 273.241H209.069L204.783 285.673C204.472 286.653 204.441 287.699 204.692 288.696L204.592 288.719L209.869 313.766C210.071 314.728 210.519 315.622 211.169 316.36C211.819 317.097 212.65 317.654 213.579 317.976C214.508 318.297 215.505 318.373 216.472 318.194C217.439 318.016 218.343 317.591 219.097 316.959L238.719 300.513L238.668 300.45C238.805 300.336 238.968 300.256 239.089 300.131L239.085 330.167ZM217.8 296.187L223.715 298.231L219.053 302.136L217.8 296.187ZM231.525 288.887L217.4 284.005L263.9 149.548L278.069 154.432L231.525 288.887Z" fill="#999999"/>
<path d="M28.4629 284.626H153.698V296.011H28.4629V284.626Z" fill="#999999"/>
</g>
<defs>
<clipPath id="clip0_39_908">
<rect width="295.998" height="341.551" fill="white"/>
</clipPath>
</defs>
</svg>
