<svg id="Layer_1" data-name="Layer 1" xmlns="http://www.w3.org/2000/svg" viewBox="0 0 512 512"><defs><style>.cls-1{fill:#009aca;}.cls-2{fill:#f8f8f8;}.cls-3{fill:#41c28d;}.cls-4{fill:#96edf7;}.cls-5{fill:#003f6b;}</style></defs><path class="cls-1" d="M64.15,25.5V484.89H396.81V25.5Z"/><path class="cls-2" d="M383.27,429.61,356,452.5l-7.37-34.86Z"/><path class="cls-2" d="M460.18,204.18a17.56,17.56,0,0,1-1,6l-5.94,17.35-34.7-12,6-17.35a18.33,18.33,0,0,1,35.65,5.94Z"/><path class="cls-3" d="M453.21,227.55l-56.4,162.93-13.54,39.13-34.62-12,9.59-27.8L365.13,370l31.68-91.64,21.7-62.73Z"/><path class="cls-4" d="M365.13,247.27V370l-6.89,19.88H95.83V247.27Z"/><path class="cls-4" d="M95.83,152.23h71.28v31.68H95.83Z"/><path class="cls-4" d="M95.83,88.86h71.28v31.68H95.83Z"/><path class="cls-4" d="M198.8,88.86H365.13v31.68H198.8Z"/><path class="cls-4" d="M198.8,152.23H365.13v31.68H198.8Z"/><path class="cls-5" d="M87.91,49.26H175V65.1H87.91Z"/><path class="cls-5" d="M95.83,191.83h71.28a7.92,7.92,0,0,0,7.92-7.92V152.23a7.91,7.91,0,0,0-7.92-7.92H95.83a7.92,7.92,0,0,0-7.92,7.92v31.68A7.93,7.93,0,0,0,95.83,191.83Zm7.92-31.68h55.44V176H103.75Z"/><path class="cls-5" d="M198.8,191.83H365.13a7.93,7.93,0,0,0,7.92-7.92V152.23a7.92,7.92,0,0,0-7.92-7.92H198.8a7.91,7.91,0,0,0-7.92,7.92v31.68A7.92,7.92,0,0,0,198.8,191.83Zm7.92-31.68H357.21V176H206.72Z"/><path class="cls-5" d="M95.83,128.46h71.28a7.91,7.91,0,0,0,7.92-7.92V88.86a7.92,7.92,0,0,0-7.92-7.92H95.83a7.93,7.93,0,0,0-7.92,7.92v31.68A7.92,7.92,0,0,0,95.83,128.46Zm7.92-31.68h55.44v15.84H103.75Z"/><path class="cls-5" d="M198.8,128.46H365.13a7.92,7.92,0,0,0,7.92-7.92V88.86a7.93,7.93,0,0,0-7.92-7.92H198.8a7.92,7.92,0,0,0-7.92,7.92v31.68A7.91,7.91,0,0,0,198.8,128.46Zm7.92-31.68H357.21v15.84H206.72Z"/><path class="cls-5" d="M87.91,207.67H183v15.84H87.91Z"/><path class="cls-5" d="M450.42,179.43a26.23,26.23,0,0,0-33.36,16.22L411,213h0l-6.31,18.22V25.5a7.92,7.92,0,0,0-7.92-7.92H64.15a7.91,7.91,0,0,0-7.92,7.92V484.89a7.91,7.91,0,0,0,7.92,7.92H396.81a7.92,7.92,0,0,0,7.92-7.92V391.8l56-161.66h0l5.9-17.24a25.19,25.19,0,0,0,1.5-8.7,26.22,26.22,0,0,0-17.68-24.75ZM437.3,194.86a10.24,10.24,0,0,1,7.95-.45,10.36,10.36,0,0,1,7,9.77,9.64,9.64,0,0,1-.61,3.46l-3.36,9.84-9.85-3.39-9.84-3.39,3.42-9.86a10.39,10.39,0,0,1,5.28-6ZM357.21,368.59l-4.61,13.33H103.75V255.19H357.21ZM388.89,477H72.07V33.42H388.89V277l-15.84,45.8V247.27a7.93,7.93,0,0,0-7.92-7.92H95.83a7.93,7.93,0,0,0-7.92,7.92V389.84a7.92,7.92,0,0,0,7.92,7.92h251.3l-6,17.3a7.75,7.75,0,0,0-.13,4.21l-.14,0,7.34,34.85A7.91,7.91,0,0,0,353.4,460a7.7,7.7,0,0,0,2.59.44,7.87,7.87,0,0,0,5.08-1.85l27.31-22.88-.08-.09a5,5,0,0,0,.59-.44Zm-29.61-47.28,8.23,2.85L361,438Zm19.09-10.16-19.65-6.79,64.7-187.08,19.71,6.79Z"/><path class="cls-5" d="M95.83,413.61H270.08v15.84H95.83Z"/></svg>