<svg id="Layer_1" data-name="Layer 1" xmlns="http://www.w3.org/2000/svg" viewBox="0 0 512 512"><defs><style>.cls-1{fill:#d8ecfe;}.cls-2{fill:#c4e2ff;}.cls-3{fill:#ecbd83;}.cls-4{fill:#e2a975;}.cls-5{fill:#d19a6e;}.cls-6{fill:#c38c66;}</style></defs><path class="cls-1" d="M65.56,491.85v-481c0-4.41,2.54-8,5.66-8H411.34c3.13,0,5.66,3.59,5.66,8v481c0,4.42-2.53,8-5.66,8H71.22C68.1,499.85,65.56,496.27,65.56,491.85Z"/><path class="cls-2" d="M90.56,491.85v-481a8,8,0,0,1,8-8h-25a8,8,0,0,0-8,8v481a8,8,0,0,0,8,8h25A8,8,0,0,1,90.56,491.85Z"/><path class="cls-3" d="M361.49,499.74H115.9a12.5,12.5,0,0,1-12.5-12.5V50.2a12.5,12.5,0,0,1,12.5-12.5H361.49A12.5,12.5,0,0,1,374,50.2v437A12.5,12.5,0,0,1,361.49,499.74Z"/><path class="cls-4" d="M128.4,487.24V50.2a12.5,12.5,0,0,1,12.5-12.5h-25a12.5,12.5,0,0,0-12.5,12.5v437a12.5,12.5,0,0,0,12.5,12.5h25A12.5,12.5,0,0,1,128.4,487.24Z"/><path class="cls-5" d="M135.94,459.2v-381a8,8,0,0,1,8-8H333.45a8,8,0,0,1,8,8v381a8,8,0,0,1-8,8H143.94A8,8,0,0,1,135.94,459.2Z"/><path class="cls-6" d="M160.94,459.2v-381a8,8,0,0,1,8-8h-25a8,8,0,0,0-8,8v381a8,8,0,0,0,8,8h25A8,8,0,0,1,160.94,459.2Z"/><path class="cls-1" d="M168.48,191V110.78a8,8,0,0,1,8-8H300.92a8,8,0,0,1,8,8V191a8,8,0,0,1-8,8H176.48A8,8,0,0,1,168.48,191Z"/><path class="cls-2" d="M193.48,191V110.78a8,8,0,0,1,8-8h-25a8,8,0,0,0-8,8V191a8,8,0,0,0,8,8h25A8,8,0,0,1,193.48,191Z"/><path class="cls-1" d="M166.68,246.43H135.94v70.41h30.74a7.43,7.43,0,0,0,7.43-7.44V253.87a7.43,7.43,0,0,0-7.43-7.44Z"/><path class="cls-1" d="M166.68,246.43H135.94v70.41h30.74a7.43,7.43,0,0,0,7.43-7.44V253.87a7.43,7.43,0,0,0-7.43-7.44Z"/><path d="M333.46,62.74H144a15.52,15.52,0,0,0-15.5,15.5v381A15.51,15.51,0,0,0,144,474.7H333.46A15.52,15.52,0,0,0,349,459.2V346.56a7.5,7.5,0,0,0-15,0V459.2a.5.5,0,0,1-.5.5H144a.5.5,0,0,1-.5-.5V324.34h23.23a15,15,0,0,0,14.94-14.94v-6h34.51a7.5,7.5,0,0,0,0-15H181.62V253.87a15,15,0,0,0-14.94-14.94H143.45V78.24a.5.5,0,0,1,.5-.5H333.46a.51.51,0,0,1,.5.5V311.56a7.5,7.5,0,0,0,15,0V78.24a15.53,15.53,0,0,0-15.5-15.5ZM166.62,253.87l0,34.56h-8.21a7.5,7.5,0,0,0,0,15h8.22v5.91H143.45V253.91Z"/><path d="M316.42,191V110.78a15.52,15.52,0,0,0-15.5-15.5H176.48a15.51,15.51,0,0,0-15.5,15.5V191a15.51,15.51,0,0,0,15.5,15.5H300.92A15.52,15.52,0,0,0,316.42,191ZM176,191V110.78a.5.5,0,0,1,.5-.5H300.92a.5.5,0,0,1,.5.5V191a.5.5,0,0,1-.5.5H176.48A.5.5,0,0,1,176,191Z"/><path d="M231.19,225.73a7.51,7.51,0,1,0,7.51-7.5A7.51,7.51,0,0,0,231.19,225.73Z"/><path d="M383.65,507.35a23.33,23.33,0,0,1-.92-5.58,18.77,18.77,0,0,1,2.11-9.42h-3.35V50.2a20,20,0,0,0-20-20H115.91a20,20,0,0,0-20,20V492.35H92.18a24,24,0,0,1,1.42,7.1,18.47,18.47,0,0,1-1.42,7.9ZM110.91,50.2a5,5,0,0,1,5-5H361.49a5,5,0,0,1,5,5V492.35H110.91Z"/></svg>