<svg id="Layer_1" data-name="Layer 1" xmlns="http://www.w3.org/2000/svg" viewBox="0 0 512 512"><defs><style>.cls-1{fill:#fb9138;}.cls-2{fill:#acf0f2;}.cls-3{fill:#fdb275;}.cls-4{fill:#02e7e7;}.cls-5{fill:#1595a3;}.cls-6{fill:#fff;}</style></defs><rect class="cls-1" x="63.59" y="90.64" width="384.83" height="76.97"/><rect class="cls-2" x="63.59" y="165.58" width="384.83" height="253.98"/><polygon class="cls-3" points="256.94 92.57 64.59 92.57 64.59 169.11 94.8 169.11 94.8 122.78 256.94 122.78 256.94 92.57"/><polygon class="cls-3" points="448.27 90.56 255.93 90.56 255.93 167.09 286.14 167.09 286.14 120.77 448.27 120.77 448.27 90.56"/><polygon class="cls-4" points="255.93 169.11 63.58 169.11 63.58 246.65 93.8 246.65 93.8 200.32 255.93 200.32 255.93 169.11"/><polygon class="cls-4" points="448.27 169.11 255.93 169.11 255.93 246.65 286.14 246.65 286.14 200.32 448.27 200.32 448.27 169.11"/><polygon class="cls-4" points="255.93 345.34 63.58 345.34 63.58 421.87 93.8 421.87 93.8 376.56 255.93 376.56 255.93 345.34"/><polygon class="cls-4" points="448.27 346.35 255.93 346.35 255.93 422.88 286.14 422.88 286.14 377.56 448.27 377.56 448.27 346.35"/><rect class="cls-2" x="17.4" y="242.55" width="477.19" height="100.06"/><polygon class="cls-5" points="255.93 246.65 17.26 246.65 17.26 346.35 48.48 346.35 48.48 276.86 255.93 276.86 255.93 246.65"/><polygon class="cls-5" points="494.6 246.65 255.93 246.65 255.93 346.35 286.14 346.35 286.14 276.86 494.6 276.86 494.6 246.65"/><path d="M71.14,177.16H247.87v54.38H263V177.16H440.86v50H456V81.06H56v146.1H71.14Zm369.72-15.1H263V96.17H440.86Zm-193-65.89v65.89H71.14V96.17Z"/><path d="M9.85,235V350.16h492.3V235Zm238,100.05H25v-85H247.87Zm239.17,0H263v-85H487Z"/><polygon points="440.22 415.83 262.98 415.83 262.98 361.45 247.87 361.45 247.87 415.83 71.64 415.83 71.64 361.45 56.53 361.45 56.53 430.94 455.32 430.94 455.32 361.45 440.22 361.45 440.22 415.83"/><polygon class="cls-6" points="56.53 301.03 41.43 301.03 41.43 269.81 86.75 269.81 86.75 284.92 56.53 284.92 56.53 301.03"/><rect class="cls-6" x="101.85" y="269.81" width="31.22" height="15.11"/><rect class="cls-6" x="148.18" y="269.81" width="15.11" height="15.11"/><polygon class="cls-6" points="294.19 301.03 279.09 301.03 279.09 269.81 348.58 269.81 348.58 284.92 294.19 284.92 294.19 301.03"/><rect class="cls-6" x="363.68" y="269.81" width="16.11" height="15.11"/><polygon class="cls-6" points="101.85 138.9 86.75 138.9 86.75 115.73 116.96 115.73 116.96 130.84 101.85 130.84 101.85 138.9"/><rect class="cls-6" x="133.07" y="115.73" width="15.11" height="15.11"/><polygon class="cls-6" points="294.19 216.44 279.09 216.44 279.09 192.27 325.41 192.27 325.41 207.37 294.19 207.37 294.19 216.44"/></svg>