<svg id="Layer_1" data-name="Layer 1" xmlns="http://www.w3.org/2000/svg" viewBox="0 0 48 48"><defs><style>.cls-1{fill:#999;}</style></defs><path class="cls-1" d="M45.11,47.24,27.46,29.66a15.06,15.06,0,0,1-4.72,2.75,16,16,0,0,1-5.6,1,15.91,15.91,0,0,1-11.7-4.78A15.85,15.85,0,0,1,.65,17,15.76,15.76,0,0,1,5.44,5.4,15.85,15.85,0,0,1,17.08.61,15.85,15.85,0,0,1,28.72,5.4,15.75,15.75,0,0,1,33.5,17a16.32,16.32,0,0,1-1,5.56,16.1,16.1,0,0,1-2.82,4.89L47.35,45Zm-28-16.9a12.71,12.71,0,0,0,9.37-3.9A13,13,0,0,0,30.38,17a12.85,12.85,0,0,0-3.87-9.44,12.76,12.76,0,0,0-9.37-3.87,12.92,12.92,0,0,0-9.5,3.87A12.85,12.85,0,0,0,3.77,17a13,13,0,0,0,3.87,9.47A12.87,12.87,0,0,0,17.14,30.34Z"/></svg>