<svg xmlns="http://www.w3.org/2000/svg" width="187.538" height="187.538" viewBox="0 0 187.538 187.538">
  <g id="Group_39231" data-name="Group 39231" transform="translate(0.5 0.5)">
    <path id="Path_6492" data-name="Path 6492" d="M101.974,186.538H84.564a11.643,11.643,0,0,1-11.55-10.26L71.157,161.7a73.448,73.448,0,0,1-10.679-4.423L48.865,166.3a11.6,11.6,0,0,1-15.428-.979L21.2,153.078a11.565,11.565,0,0,1-.948-15.382l9.024-11.62A71.754,71.754,0,0,1,24.848,115.4L10.236,113.54A11.666,11.666,0,0,1,0,101.974V84.564a11.641,11.641,0,0,1,10.26-11.55l14.581-1.858a73.45,73.45,0,0,1,4.423-10.679L20.247,48.865a11.581,11.581,0,0,1,.987-15.436L33.476,21.188a11.573,11.573,0,0,1,15.382-.948l11.612,9.032a73.186,73.186,0,0,1,10.687-4.423l1.858-14.612A11.64,11.64,0,0,1,84.564,0h17.41a11.641,11.641,0,0,1,11.55,10.26l1.858,14.581a73.187,73.187,0,0,1,10.687,4.423l11.612-9.024a11.581,11.581,0,0,1,15.428.987L165.35,33.468A11.562,11.562,0,0,1,166.3,48.85l-9.024,11.62A71.757,71.757,0,0,1,161.7,71.149l14.612,1.858a11.659,11.659,0,0,1,10.228,11.558v17.41a11.641,11.641,0,0,1-10.26,11.55L161.7,115.382a73.451,73.451,0,0,1-4.423,10.679l9.024,11.612a11.581,11.581,0,0,1-.987,15.428L153.07,165.343a11.558,11.558,0,0,1-15.382.948l-11.62-9.024a71.752,71.752,0,0,1-10.679,4.423L113.532,176.3A11.659,11.659,0,0,1,101.974,186.538ZM60.081,148.764a3.94,3.94,0,0,1,1.9.49,65.232,65.232,0,0,0,13.788,5.721,3.886,3.886,0,0,1,2.783,3.241l2.176,17.1a3.929,3.929,0,0,0,3.84,3.451h17.41a3.917,3.917,0,0,0,3.832-3.412l2.184-17.13a3.886,3.886,0,0,1,2.783-3.241,65.233,65.233,0,0,0,13.788-5.72,3.878,3.878,0,0,1,4.275.326l13.6,10.57a3.824,3.824,0,0,0,5.091-.264l12.319-12.319a3.847,3.847,0,0,0,.3-5.13l-10.57-13.6a3.886,3.886,0,0,1-.326-4.275,65.233,65.233,0,0,0,5.72-13.788A3.886,3.886,0,0,1,158.215,108l17.1-2.176a3.941,3.941,0,0,0,3.451-3.847V84.564a3.917,3.917,0,0,0-3.412-3.832l-17.13-2.184a3.886,3.886,0,0,1-3.241-2.783,65.233,65.233,0,0,0-5.72-13.788,3.863,3.863,0,0,1,.326-4.275l10.57-13.6a3.808,3.808,0,0,0-.256-5.083L147.583,26.7a3.824,3.824,0,0,0-5.13-.3l-13.6,10.57a3.886,3.886,0,0,1-4.283.326,64.969,64.969,0,0,0-13.788-5.721A3.886,3.886,0,0,1,108,28.33l-2.176-17.1a3.941,3.941,0,0,0-3.847-3.459H84.564a3.917,3.917,0,0,0-3.832,3.412l-2.184,17.13a3.9,3.9,0,0,1-2.783,3.249,64.946,64.946,0,0,0-13.788,5.713,3.886,3.886,0,0,1-4.283-.319l-13.6-10.57a3.808,3.808,0,0,0-5.083.256L26.69,38.971a3.847,3.847,0,0,0-.3,5.13l10.57,13.6a3.886,3.886,0,0,1,.326,4.275,64.829,64.829,0,0,0-5.72,13.788,3.886,3.886,0,0,1-3.241,2.783l-17.1,2.176a3.925,3.925,0,0,0-3.451,3.84v17.41a3.914,3.914,0,0,0,3.412,3.832l17.13,2.184a3.886,3.886,0,0,1,3.241,2.783,65.236,65.236,0,0,0,5.721,13.788,3.863,3.863,0,0,1-.326,4.275l-10.57,13.6a3.808,3.808,0,0,0,.256,5.083L38.955,159.84a3.84,3.84,0,0,0,5.13.3l13.6-10.57a4,4,0,0,1,2.394-.808Z" fill="#fff" stroke="#fff" stroke-width="1"/>
    <path id="Path_6493" data-name="Path 6493" d="M45.862,84.724A38.862,38.862,0,1,1,84.724,45.862,38.906,38.906,0,0,1,45.862,84.724Zm0-69.952a31.09,31.09,0,1,0,31.09,31.09A31.121,31.121,0,0,0,45.862,14.772Z" transform="translate(47.407 47.407)" fill="#fff" stroke="#fff" stroke-width="1"/>
  </g>
</svg>
