<svg id="Layer_1" data-name="Layer 1" xmlns="http://www.w3.org/2000/svg" viewBox="0 0 512 512"><defs><style>.cls-1{fill:#fff;}</style></defs><path class="cls-1" d="M256,322a63.5,63.5,0,0,0,21.12-3.5l-83.49-83.59A63.21,63.21,0,0,0,190,256a66,66,0,0,0,66,66Zm0-132a63.25,63.25,0,0,0-21.12,3.51l83.59,83.58A65.9,65.9,0,0,0,256,190Z"/><path class="cls-1" d="M256,391.06c27.93,0,54.69-5.55,79.5-14.31l-43.4-43.4a83.12,83.12,0,0,1-36.1,8.08A85.54,85.54,0,0,1,170.57,256a84.64,84.64,0,0,1,8.07-36.1l-58.19-58.19C58.57,198.2,17.7,246.56,15,249.77a9.69,9.69,0,0,0,0,12.45c4.38,5.26,109,128.84,241,128.84Zm0-270.12c-27.93,0-54.59,5.54-79.4,14.3l43.4,43.4a82.68,82.68,0,0,1,36-8.08A85.48,85.48,0,0,1,333.45,292.1l58.1,58.09c61.88-36.39,102.75-84.76,105.47-88a9.69,9.69,0,0,0,0-12.45c-4.38-5.26-109-128.83-241-128.83ZM101.07,101.07a9.73,9.73,0,0,0,0,13.76L397.18,410.92a9.7,9.7,0,0,0,13.72,0l0,0a9.72,9.72,0,0,0,0-13.75l-296.1-296.1a9.73,9.73,0,0,0-13.76,0Z"/></svg>