<svg xmlns="http://www.w3.org/2000/svg" width="512" height="512.001" viewBox="0 0 512 512.001">
  <g id="sitevisitempty" transform="translate(0 0.001)">
    <path id="Path_6490" data-name="Path 6490" d="M512,256c0,141.387-114.613,256-256,256S0,397.387,0,256,114.613,0,256,0,512,114.613,512,256Zm0,0" fill="#71cc8a"/>
    <path id="Path_6491" data-name="Path 6491" d="M393.55,436.875c0-32.89-61.581-59.555-137.55-59.555s-137.55,26.664-137.55,59.555S180.031,496.434,256,496.434,393.55,469.77,393.55,436.875Zm0,0" fill="#3eaf85"/>
    <path id="Path_6492" data-name="Path 6492" d="M416.98,134.223c-32-178.965-289.96-178.965-321.96,0a278.376,278.376,0,0,0-4.336,49.082c0,113.25,67.96,210.613,165.316,253.57,97.355-42.957,165.316-140.32,165.316-253.57a278.326,278.326,0,0,0-4.336-49.082Zm0,0" fill="#ff616d"/>
    <path id="Path_6493" data-name="Path 6493" d="M256,436.875C158.645,393.91,90.684,296.559,90.684,183.3a278.451,278.451,0,0,1,4.34-49.086C110.831,45.82,181.753,1.094,253.347.039c-55.664,1.379-128.82,46.09-141.121,134.18a356.552,356.552,0,0,0-3.38,49.086c0,113.25,71.2,210.605,147.153,253.57Zm0,0" fill="#e53467"/>
    <path id="Path_6494" data-name="Path 6494" d="M387.758,164.23A131.758,131.758,0,1,1,256,32.473,131.758,131.758,0,0,1,387.758,164.23Zm0,0" fill="#e53467"/>
    <path id="Path_6495" data-name="Path 6495" d="M359.512,164.227A103.584,103.584,0,0,1,282.105,264.41a104.113,104.113,0,0,1-26.1,3.333,104.022,104.022,0,0,1-20.211-1.973q-2.972-.577-5.9-1.348a102.766,102.766,0,0,1-22.746-8.914,103.52,103.52,0,1,1,152.367-91.281Zm0,0" fill="#2e3651"/>
    <path id="Path_6496" data-name="Path 6496" d="M359.508,164.223a103.521,103.521,0,0,1-91.656,102.84,103.512,103.512,0,0,1,0-205.665,103.506,103.506,0,0,1,91.656,102.825Zm0,0" fill="#445166"/>
    <path id="Path_6497" data-name="Path 6497" d="M307.008,134.191A51.01,51.01,0,1,1,256,83.18,51.007,51.007,0,0,1,307.008,134.191Zm0,0" fill="#fcfcfc"/>
    <path id="Path_6498" data-name="Path 6498" d="M219.4,134.191a51.017,51.017,0,0,1,43.805-50.5A51.609,51.609,0,0,0,256,83.18a51.01,51.01,0,1,0,7.207,101.5,51.009,51.009,0,0,1-43.8-50.493Zm0,0" fill="#e5e5e5"/>
    <path id="Path_6499" data-name="Path 6499" d="M324.59,213.8l-4.461,31.68a102.82,102.82,0,0,1-38.024,18.933,104.113,104.113,0,0,1-26.1,3.333,104.022,104.022,0,0,1-20.211-1.973q-2.972-.577-5.9-1.348a103.023,103.023,0,0,1-38.024-18.945l-4.46-31.68a34.364,34.364,0,0,1,34.03-39.152h69.122a34.364,34.364,0,0,1,34.03,39.152Zm0,0" fill="#fcfcfc"/>
    <path id="Path_6500" data-name="Path 6500" d="M202.566,213.8l4.579,41.71a103.924,103.924,0,0,1-15.278-10.03l-4.46-31.68a34.359,34.359,0,0,1,34.03-39.152h7.63c-16.258,0-28.766,18.46-26.5,39.152Zm0,0" fill="#e5e5e5"/>
  </g>
</svg>
