<svg xmlns="http://www.w3.org/2000/svg" width="222.269" height="306.242" viewBox="0 0 222.269 306.242">
  <g id="Group_9690" data-name="Group 9690" transform="translate(-70.196)">
    <path id="Path_6353" data-name="Path 6353" d="M265.882,235.637a4.471,4.471,0,0,0-4.559,7.692c12.287,7.282,14.866,14.094,14.866,18.526,0,8.587-9.582,17.362-26.289,24.076-18.243,7.331-42.594,11.369-68.568,11.369s-50.325-4.037-68.568-11.369c-16.708-6.713-26.29-15.489-26.29-24.076s9.582-17.362,26.289-24.076a143.56,143.56,0,0,1,25.023-7.259L172.651,270.9a11.468,11.468,0,0,0,17.36,0l34.851-40.357a155.318,155.318,0,0,1,17.863,4.634l.779.259a4.471,4.471,0,1,0,2.822-8.485l-.795-.264c-4.409-1.447-9.1-2.733-14.01-3.854l34-39.374A110.97,110.97,0,0,0,181.332,0h0A111.622,111.622,0,0,0,129.1,12.957a4.471,4.471,0,0,0,4.2,7.895,102.314,102.314,0,0,1,150.224,90.283,100.074,100.074,0,0,1-24.77,66.476l-75.511,87.441a2.527,2.527,0,0,1-3.826,0l-75.574-87.515a101.114,101.114,0,0,1-12.378-17.7A102.377,102.377,0,0,1,116.528,32.024a4.47,4.47,0,1,0-5.667-6.916A110.367,110.367,0,0,0,97.077,183.382l34.053,39.433a146.482,146.482,0,0,0-21.7,6.669c-20.568,8.266-31.9,19.762-31.9,32.373s11.328,24.107,31.9,32.373c19.279,7.747,44.814,12.013,71.9,12.013s52.625-4.266,71.9-12.013c20.568-8.266,31.9-19.762,31.9-32.373C285.13,252.167,278.474,243.1,265.882,235.637Z" transform="translate(0)" fill="#999"/>
    <path id="Path_6354" data-name="Path 6354" d="M203.428,208.69a78.245,78.245,0,1,0-78.245-78.245A78.334,78.334,0,0,0,203.428,208.69Zm0-8.941a68.874,68.874,0,0,1-32.652-8.189,40.889,40.889,0,0,1,11.11-10.349,20.787,20.787,0,0,0,9.74-17.626,20.757,20.757,0,0,0-8.242-16.591,33.564,33.564,0,0,1,22.435-60.4,33.554,33.554,0,0,1,17.764,60.3,20.854,20.854,0,0,0-8.353,16.687,20.7,20.7,0,0,0,9.73,17.624A40.86,40.86,0,0,1,236.08,191.56a68.87,68.87,0,0,1-32.651,8.189Zm0-138.609a69.283,69.283,0,0,1,40.258,125.684,49.847,49.847,0,0,0-13.965-13.185,11.886,11.886,0,0,1-4.3-15.37,12.02,12.02,0,0,1,3.531-4.225,42.491,42.491,0,1,0-50.919.117,11.776,11.776,0,0,1,4.647,9.424,11.847,11.847,0,0,1-5.56,10.059,49.884,49.884,0,0,0-13.952,13.184A69.284,69.284,0,0,1,203.428,61.14Z" transform="translate(-22.098 -20.977)" fill="#999"/>
  </g>
</svg>
