<svg id="Layer_1" data-name="Layer 1" xmlns="http://www.w3.org/2000/svg" viewBox="0 0 50 50"><defs><style>.cls-1{fill:#c7d1ce;}.cls-1,.cls-2,.cls-3,.cls-4{fill-rule:evenodd;}.cls-2{fill:#a9b2b0;}.cls-3{fill:#d3c39b;}.cls-4{fill:#231f20;}</style></defs><path class="cls-1" d="M47.76,32.06V45.32H32.59V32.06H38.2V36h3.95V32.06Z"/><path class="cls-2" d="M42.15,32.06V36H38.2V32.06h3.95Z"/><path class="cls-1" d="M40.18,18.82V32.06H25V18.82h5.61v3.95h3.95V18.82Z"/><path class="cls-2" d="M30.62,18.82h3.95v3.95H30.62Z"/><path class="cls-1" d="M32.59,32.06V45.32H17.41V32.06H23V36H27V32.06Z"/><path class="cls-2" d="M27,32.06V36H23V32.06H27Z"/><path class="cls-1" d="M25,18.82V32.06H9.82v-4H21.55V18.82Z"/><path class="cls-3" d="M21.55,18.82v9.23H5.2V7.55H9.33V9.63h8.1V7.55h4.12Z"/><path class="cls-3" d="M17.43,7.55V9.63H9.33V7A.71.71,0,0,1,10,6.25h1.17v1h4.32v-1h1.18a.71.71,0,0,1,.71.71Z"/><path class="cls-1" d="M17.41,32.06V45.32H2.24V32.06H7.85V36h4V32.06Z"/><path class="cls-3" d="M15.53,6.24v1h-4.3V4.69h4.3Z"/><path class="cls-2" d="M11.8,32.06V36h-4V32.06h4Z"/><path class="cls-4" d="M17.41,46.05H2.24a.74.74,0,0,1-.74-.74V32.06a.74.74,0,0,1,.74-.74H7.85a.74.74,0,0,1,0,1.48H3V44.58H17.42a.74.74,0,0,1,.74.74.76.76,0,0,1-.75.73Z"/><path class="cls-4" d="M11.8,36.75h-4A.74.74,0,0,1,7.11,36V32.06a.74.74,0,0,1,.74-.74h2a.74.74,0,0,1,0,1.48H8.59v2.49h2.48V32.06a.74.74,0,1,1,1.48,0V36A.75.75,0,0,1,11.8,36.75Z"/><path class="cls-4" d="M32.59,46.05H17.42a.74.74,0,0,1-.74-.74V32.06a.74.74,0,0,1,1.48,0V44.58H32.6a.74.74,0,0,1,.74.74A.77.77,0,0,1,32.59,46.05Z"/><path class="cls-4" d="M27,36.75H23a.74.74,0,0,1-.74-.74V32.06a.74.74,0,0,1,1.48,0v3.23h2.47V32.06a.74.74,0,0,1,1.48,0V36A.74.74,0,0,1,27,36.75Z"/><path class="cls-4" d="M47.76,46.05H32.59a.74.74,0,0,1-.74-.74V32.06a.74.74,0,1,1,1.48,0V44.58H47V32.8H42.15a.74.74,0,1,1,0-1.48h5.61a.74.74,0,0,1,.74.74V45.31A.74.74,0,0,1,47.76,46.05Z"/><path class="cls-4" d="M42.15,36.75H38.2a.74.74,0,0,1-.74-.74V32.06a.74.74,0,0,1,1.48,0v3.23h2.47V32.8H40.18a.74.74,0,1,1,0-1.48h2a.74.74,0,0,1,.74.74V36a.74.74,0,0,1-.74.74Z"/><path class="cls-4" d="M25,19.54H21.56a.74.74,0,0,1,0-1.47H25a.74.74,0,0,1,.74.73A.77.77,0,0,1,25,19.54Z"/><path class="cls-4" d="M25,32.8H9.84a.74.74,0,0,1-.74-.74v-4a.74.74,0,1,1,1.48,0v3.27H25a.74.74,0,0,1,.74.74.76.76,0,0,1-.75.74Z"/><path class="cls-4" d="M40.18,32.8H25a.74.74,0,0,1-.74-.74V18.8a.74.74,0,0,1,.74-.73h5.61a.74.74,0,0,1,0,1.47H25.73V31.32H39.44V19.54H34.55a.74.74,0,1,1,0-1.47h5.61a.74.74,0,0,1,.74.73V32.06a.72.72,0,0,1-.72.74Z"/><path class="cls-4" d="M34.57,23.5H30.62a.74.74,0,0,1-.74-.74v-4a.74.74,0,0,1,.74-.73h3.95a.74.74,0,0,1,.74.73v4A.75.75,0,0,1,34.57,23.5ZM31.34,22h2.49V19.54H31.34Z"/><path class="cls-4" d="M17.43,10.35H9.33a.74.74,0,0,1-.74-.74V7A1.45,1.45,0,0,1,10,5.5h1.17a.74.74,0,1,1,0,1.48H10.05V8.89h6.63V7H15.53a.74.74,0,0,1,0-1.48h1.18A1.45,1.45,0,0,1,18.16,7V9.61A.74.74,0,0,1,17.43,10.35Z"/><path class="cls-4" d="M21.55,28.79H5.2a.74.74,0,0,1-.74-.74V7.55a.74.74,0,0,1,.74-.74H9.33a.74.74,0,1,1,0,1.48H5.94v19H20.83v-19h-3.4a.74.74,0,0,1,0-1.48h4.13a.74.74,0,0,1,.74.74V28.05A.76.76,0,0,1,21.55,28.79Z"/><path class="cls-4" d="M15.53,8h-4.3a.74.74,0,0,1-.74-.74V4.69A.74.74,0,0,1,11.23,4h4.3a.74.74,0,0,1,.74.74V7.28A.73.73,0,0,1,15.53,8ZM12,6.54H14.8V5.43H12Z"/><path class="cls-4" d="M18.42,13.94H12.3a.74.74,0,1,1,0-1.48h6.12a.74.74,0,0,1,0,1.48Z"/><path class="cls-4" d="M8.86,14.23A.79.79,0,0,1,8.33,14l-.51-.51a.72.72,0,0,1,0-1,.75.75,0,0,1,1,0l.66-.67a.73.73,0,1,1,1,1L9.37,14a.7.7,0,0,1-.51.22Z"/><path class="cls-4" d="M18.42,17.89H12.3a.74.74,0,0,1,0-1.48h6.12a.74.74,0,0,1,0,1.48Z"/><path class="cls-4" d="M8.86,18.18A.75.75,0,0,1,8.33,18l-.51-.51a.72.72,0,0,1,0-1,.76.76,0,0,1,1,0l.66-.66a.72.72,0,0,1,1,0,.74.74,0,0,1,0,1L9.37,18A.7.7,0,0,1,8.86,18.18Z"/><path class="cls-4" d="M18.42,21.84H12.3a.74.74,0,0,1,0-1.48h6.12a.74.74,0,1,1,0,1.48Z"/><path class="cls-4" d="M8.86,22.13a.74.74,0,0,1-.53-.21l-.51-.51a.73.73,0,0,1,0-1,.76.76,0,0,1,1,0l.66-.66a.73.73,0,0,1,1,1L9.37,21.92A.69.69,0,0,1,8.86,22.13Z"/><path class="cls-4" d="M18.42,25.79H12.3a.74.74,0,0,1,0-1.48h6.12a.74.74,0,1,1,0,1.48Z"/><path class="cls-4" d="M8.86,26.08a.77.77,0,0,1-.53-.21l-.51-.51a.73.73,0,0,1,0-1,.75.75,0,0,1,1,0l.66-.66a.74.74,0,0,1,1,0,.72.72,0,0,1,0,1L9.37,25.87A.69.69,0,0,1,8.86,26.08Z"/></svg>