<svg id="Layer_1" data-name="Layer 1" xmlns="http://www.w3.org/2000/svg" viewBox="0 0 512 512"><defs><style>.cls-1{fill:#999;}</style></defs><g id="_22_Move_Stock" data-name="22 Move Stock"><path class="cls-1" d="M406.37,29a83.18,83.18,0,0,0-82.82,75.84H52.15a30.62,30.62,0,0,0-30.58,30.58v317A30.62,30.62,0,0,0,52.15,483h331a30.62,30.62,0,0,0,30.58-30.58V195a83.17,83.17,0,0,0-7.35-166ZM399,452.42a15.89,15.89,0,0,1-15.88,15.88h-331a15.89,15.89,0,0,1-15.88-15.88v-317a15.89,15.89,0,0,1,15.88-15.88H163.53v92.15a9.8,9.8,0,0,0,14.24,8.74l39.88-20.24,39.87,20.24a9.8,9.8,0,0,0,14.24-8.74V119.54h51.79A83.17,83.17,0,0,0,399,195V452.42Zm47.11-335-26.3,26.3a7.35,7.35,0,0,1-10.4-10.4l13.76-13.76H371.8a7.35,7.35,0,0,1,0-14.7h51.39L409.43,91.08a7.35,7.35,0,1,1,10.4-10.4l26.3,26.3a7.4,7.4,0,0,1,0,10.42Z"/></g></svg>