<svg id="Layer_1" data-name="Layer 1" xmlns="http://www.w3.org/2000/svg" viewBox="0 0 50 50"><defs><style>.cls-1{fill:#fff3de;}.cls-2{fill:#ffe5c2;}.cls-3{fill:#57be92;}.cls-4{fill:#22b27f;}.cls-5{fill:#c8effe;}.cls-6{fill:#99e6fc;}.cls-7{fill:#62dbfb;}.cls-8{fill:#01d0fb;}.cls-9{fill:#cbc4e5;}.cls-10{fill:#b5adcf;}.cls-11{fill:#e2defb;}.cls-12{fill:#fff;}</style></defs><path class="cls-1" d="M41.8,12.87a5.47,5.47,0,0,1-5.16,3.69H13.36A5.47,5.47,0,0,1,8.2,12.87H4.36V42H19.61V26.19H30.39V42H45.64V12.87Z"/><path class="cls-2" d="M4.36,19.1H8.6V42H4.36Z"/><path class="cls-2" d="M8.2,12.87H4.36v2.68h5.85A5.39,5.39,0,0,1,8.2,12.87Z"/><path class="cls-3" d="M42.3,22.8H7.7a.46.46,0,0,0-.47.46v2.93H42.77V23.26a.46.46,0,0,0-.47-.46Z"/><path class="cls-4" d="M10,23.26a.46.46,0,0,1,.46-.46H7.7a.46.46,0,0,0-.47.46v2.93H10Z"/><path class="cls-4" d="M33.2,23.26a.46.46,0,0,1,.46-.46H30.39v3.39H33.2Z"/><path class="cls-5" d="M7.23,26.19H19.61V42H7.23Z"/><path class="cls-5" d="M30.39,26.19H42.77V42H30.39Z"/><path class="cls-6" d="M7.23,26.19H10V42H7.23Z"/><path class="cls-6" d="M30.39,26.19H33.2V42H30.39Z"/><path class="cls-7" d="M7.23,37H19.61v5H7.23Z"/><path class="cls-7" d="M30.39,37H42.77v5H30.39Z"/><path class="cls-8" d="M30.39,37H33.2v5H30.39Z"/><path class="cls-8" d="M7.23,37H10v5H7.23Z"/><path class="cls-3" d="M3,42a.39.39,0,0,0-.39.38V44a.39.39,0,0,0,.39.38H19.61V42Z"/><path class="cls-3" d="M47,42H30.39v2.41H47A.39.39,0,0,0,47.4,44V42.33A.39.39,0,0,0,47,42Z"/><path class="cls-4" d="M6.25,44V42.33A.39.39,0,0,1,6.64,42H3a.39.39,0,0,0-.39.38V44a.39.39,0,0,0,.39.38H6.64A.39.39,0,0,1,6.25,44Z"/><path class="cls-3" d="M46.93,15.55H39.79a5.38,5.38,0,0,1-3.15,1H13.36a5.38,5.38,0,0,1-3.15-1H3.07A.47.47,0,0,0,2.6,16v2.61a.47.47,0,0,0,.47.47H46.93a.47.47,0,0,0,.47-.47V16a.47.47,0,0,0-.47-.47Z"/><path class="cls-4" d="M6.38,18.63V16a.46.46,0,0,1,.46-.47H3.07A.47.47,0,0,0,2.6,16v2.61a.47.47,0,0,0,.47.47H6.84A.46.46,0,0,1,6.38,18.63Z"/><path class="cls-3" d="M7.9,11.1a5.22,5.22,0,0,1,.3-1.77H3.07a.47.47,0,0,0-.47.46v2.62a.46.46,0,0,0,.47.46H8.2A5.18,5.18,0,0,1,7.9,11.1Z"/><path class="cls-3" d="M46.93,9.33H41.8a5.37,5.37,0,0,1,0,3.54h5.13a.46.46,0,0,0,.47-.46V9.79A.47.47,0,0,0,46.93,9.33Z"/><path class="cls-4" d="M6.25,12.41V9.79a.47.47,0,0,1,.47-.46H3.07a.47.47,0,0,0-.47.46v2.62a.46.46,0,0,0,.47.46H6.72A.46.46,0,0,1,6.25,12.41Z"/><path class="cls-5" d="M19.61,26.19H30.39V44.36H19.61Z"/><path class="cls-6" d="M19.61,26.19h2.81V44.36H19.61Z"/><path class="cls-9" d="M19.61,22.8H30.39v3.39H19.61Z"/><path class="cls-10" d="M22.41,23.26a.46.46,0,0,1,.47-.46H19.61v3.39h2.8Z"/><path class="cls-11" d="M36.64,16.56H13.36a5.46,5.46,0,0,1,0-10.92H36.64a5.46,5.46,0,1,1,0,10.92Z"/><path class="cls-9" d="M11.66,11.1a5.48,5.48,0,0,1,5.46-5.46H13.36a5.46,5.46,0,0,0,0,10.92h3.76A5.48,5.48,0,0,1,11.66,11.1Z"/><path class="cls-3" d="M19.27,10H17.55a.19.19,0,0,1-.18-.19V8a.18.18,0,0,0-.18-.18h-2a.18.18,0,0,0-.18.18V9.76a.19.19,0,0,1-.18.19H13.15a.18.18,0,0,0-.18.18v1.95a.18.18,0,0,0,.18.18h1.72a.18.18,0,0,1,.18.18v1.72a.18.18,0,0,0,.18.18h2a.18.18,0,0,0,.18-.18V12.44a.18.18,0,0,1,.18-.18h1.72a.18.18,0,0,0,.18-.18V10.13A.18.18,0,0,0,19.27,10Z"/><path class="cls-12" d="M11.12,28.6h4.69v5.59H11.12Z"/><path d="M46.93,13.55a1.14,1.14,0,0,0,1.14-1.14V9.79a1.14,1.14,0,0,0-1.14-1.13H42.27A6.15,6.15,0,0,0,36.64,5H33.38a.68.68,0,0,0,0,1.35h3.26a4.79,4.79,0,1,1,0,9.57H13.36a4.79,4.79,0,1,1,0-9.57H30.23a.68.68,0,0,0,0-1.35H13.36A6.15,6.15,0,0,0,7.73,8.66H3.07A1.14,1.14,0,0,0,1.93,9.79v2.62a1.14,1.14,0,0,0,1.14,1.14h.62v1.33H3.07A1.14,1.14,0,0,0,1.93,16v2.61a1.14,1.14,0,0,0,1.14,1.14h.62V41.28H3a1.05,1.05,0,0,0-1.06,1V44A1.05,1.05,0,0,0,3,45H47A1.05,1.05,0,0,0,48.07,44V42.33a1.05,1.05,0,0,0-1.06-1h-.7V19.77h.62a1.14,1.14,0,0,0,1.14-1.14V16a1.14,1.14,0,0,0-1.14-1.14h-.62V13.55ZM46.72,10V12.2h-4a6.62,6.62,0,0,0,.1-1.1,6.5,6.5,0,0,0-.1-1.09ZM3.28,10h4a6.5,6.5,0,0,0-.1,1.09,6.62,6.62,0,0,0,.1,1.1h-4ZM5,13.55H7.73a6.18,6.18,0,0,0,.8,1.33H5ZM18.93,43.68H3.28v-1H18.93Zm0-7.4h-4a.68.68,0,1,0,0,1.35h4v3.65h-11V37.63h3.84a.68.68,0,1,0,0-1.35H7.91V26.86h11Zm0-10.77h-11v-2h11ZM29.72,43.68H20.28V26.86h9.44Zm0-18.17H20.28v-2h9.44Zm17,17.12v1H31.07v-1ZM31.07,41.28V37.63h11v3.65Zm13.89,0H43.44V32.66a.68.68,0,1,0-1.35,0v3.62h-11V26.86h11v2.65a.68.68,0,0,0,1.35,0V23.26a1.14,1.14,0,0,0-1.14-1.14H7.7a1.14,1.14,0,0,0-1.14,1.14v18H5V19.77H45ZM31.07,25.51v-2h11v2Zm15.65-7.09H3.28V16.23H10a6.1,6.1,0,0,0,3.37,1H36.64a6.1,6.1,0,0,0,3.37-1h6.71ZM45,14.88H41.47a6.18,6.18,0,0,0,.8-1.33H45Z"/><path d="M27.78,36.92a.68.68,0,0,0,.68-.68V33.16a.69.69,0,0,0-.68-.68.68.68,0,0,0-.67.68v3.08A.67.67,0,0,0,27.78,36.92Z"/><path d="M15.23,15h2a.86.86,0,0,0,.85-.86V12.93h1.23a.85.85,0,0,0,.85-.85V10.13a.85.85,0,0,0-.85-.86H18V8a.85.85,0,0,0-.85-.85h-2a.85.85,0,0,0-.85.85V9.27H13.15a.86.86,0,0,0-.86.86v1.95a.86.86,0,0,0,.86.85h1.23v1.23A.86.86,0,0,0,15.23,15Zm-1.58-3.44v-1h1.22a.86.86,0,0,0,.86-.86V8.54h1V9.77a.85.85,0,0,0,.86.85h1.22v1H17.55a.86.86,0,0,0-.86.86v1.22h-1V12.44a.87.87,0,0,0-.86-.86Z"/><path d="M37,9.63H22.69a.68.68,0,1,0,0,1.35H37a.68.68,0,1,0,0-1.35Z"/><path d="M37,11.85H33.88a.68.68,0,0,0,0,1.35H37a.68.68,0,1,0,0-1.35Z"/><path d="M11.12,34.87h4.69a.67.67,0,0,0,.67-.68V28.6a.67.67,0,0,0-.67-.67H11.12a.67.67,0,0,0-.67.67v5.59A.67.67,0,0,0,11.12,34.87Zm.68-5.59h3.33v4.24H11.8Z"/></svg>