<svg id="Layer_1" data-name="Layer 1" xmlns="http://www.w3.org/2000/svg" viewBox="0 0 50 50"><defs><style>.cls-1{fill:#5f5f6b;}.cls-2{fill:#fec85e;}.cls-3{fill:#85c9f8;}.cls-4{fill:#fcf0fe;}.cls-5{fill:#3f3f4f;}.cls-6{fill:#e2a840;}.cls-7{fill:#292b2f;}</style></defs><path class="cls-1" d="M10,15.09V43.87H6.18V17Z"/><path class="cls-1" d="M43.83,17V43.87H40V15.09Z"/><path class="cls-2" d="M17.29,24.1h8.9V33h-8.9Z"/><path class="cls-2" d="M26.19,26.7h7.65V33H26.19Z"/><path class="cls-3" d="M48.84,15.57A2.36,2.36,0,0,1,46.35,18a2.73,2.73,0,0,1-1.22-.29L43.83,17,40,15.09,25,7.52,10,15.09,6.18,17l-1.31.65A2.67,2.67,0,0,1,3.65,18H3.5a2.6,2.6,0,0,1-1.6-.64,2.07,2.07,0,0,1-.74-1.5,2.54,2.54,0,0,1,1.37-2.09L25,2.39,47.51,13.75a2.31,2.31,0,0,1,1.33,1.82Z"/><path class="cls-1" d="M25,7.52,10,15.09v6H40v-6Zm6.13,10H18.87v-3.3H31.13Z"/><path class="cls-4" d="M18.87,14.23H31.13v3.3H18.87Z"/><path class="cls-4" d="M40,21.05V43.87H35.31V33H33.84V26.7H26.19V24.1h-8.9V33h-2.6V43.87H10V21.05Z"/><path class="cls-2" d="M23.59,33H35.31V43.87H23.59Z"/><path class="cls-2" d="M14.69,33h8.9V43.87h-8.9Z"/><path class="cls-3" d="M3,43.87H46.84v3.74H3Z"/><path class="cls-5" d="M40,17.58l3.83,1.93V17L40,15.09Z"/><path class="cls-5" d="M6.18,19.51,10,17.58V15.09L6.18,17Z"/><path class="cls-5" d="M10,15.09v2.49L25,10l15,7.58V15.09L25,7.52Z"/><path class="cls-6" d="M26.19,30.34h-8.9V33h8.9Z"/><path class="cls-6" d="M33.84,30.34H26.19V33h7.65Z"/><path class="cls-7" d="M44.73,18.47a3.57,3.57,0,0,0,4.2-.71,3,3,0,0,0,.8-2.25A3.18,3.18,0,0,0,47.91,13L25.4,1.6a.87.87,0,0,0-.8,0L2.13,12.94A3.44,3.44,0,0,0,.27,15.86a3.24,3.24,0,0,0,3.19,3,3.65,3.65,0,0,0,1.81-.38h0V43H3a.89.89,0,0,0-.89.89v3.74A.89.89,0,0,0,3,48.5H46.85a.88.88,0,0,0,.88-.89V43.87a.88.88,0,0,0-.88-.89H44.71V18.46ZM4.47,16.89a1.81,1.81,0,0,1-.92.18A1.51,1.51,0,0,1,2,15.78a1.73,1.73,0,0,1,.89-1.25L25,3.38,47.11,14.54a1.46,1.46,0,0,1,.85,1.1,1.23,1.23,0,0,1-.33.91,1.87,1.87,0,0,1-2.1.34L25.4,6.72a.93.93,0,0,0-.8,0ZM36.2,43V33a.88.88,0,0,0-.89-.88h-.58V26.71a.89.89,0,0,0-.89-.89H27.08V24.1a.89.89,0,0,0-.89-.89H17.3a.89.89,0,0,0-.89.89v8H14.69a.88.88,0,0,0-.89.88V43H10.89v-21H39.11V43ZM33,32.11H27.08V27.59H33Zm-7.65,0H18.18V25h7.13ZM22.7,33.89V43H15.58V33.89Zm1.78,0h9.94V43H24.48ZM39.11,17.41v2.75H10.89V15.63L25,8.51l14.11,7.12Zm-32,.15,2-1V43h-2ZM46,46.72H3.88v-2H46Zm-3-3.74H40.88V16.53l2.06,1Z"/><path class="cls-7" d="M18,14.22v3.32a.87.87,0,0,0,.88.88H31.13a.88.88,0,0,0,.89-.88V14.22a.88.88,0,0,0-.89-.88H18.87a.87.87,0,0,0-.88.88Zm1.77.89H30.24v1.54H19.76Z"/></svg>