<svg id="Layer_1" data-name="Layer 1" xmlns="http://www.w3.org/2000/svg" viewBox="0 0 512 512"><defs><style>.cls-1{fill:#fbe597;}.cls-2{fill:#fbd166;}.cls-3{fill:#f4b742;}.cls-4{fill:#95bde4;}.cls-5{fill:#759fd4;}.cls-6{fill:#d19d6c;}.cls-7{fill:#c08e58;}.cls-8{fill:none;stroke:#000;stroke-linecap:round;stroke-linejoin:round;stroke-width:14.52px;}</style></defs><path class="cls-1" d="M494.64,193.5c0,47.59-35.19,81.31-82.78,81.31-32.65,0-59.95-14.11-75.67-39.67A86.19,86.19,0,0,1,453.11,118.22c25.91,18.05,41.53,42.57,41.53,75.28Z"/><path class="cls-2" d="M498,193.88a86.18,86.18,0,0,1-161.84,41.26A86.19,86.19,0,0,0,453.11,118.22,86.12,86.12,0,0,1,498,193.88Z"/><circle class="cls-2" cx="411.86" cy="193.88" r="59.94"/><path class="cls-3" d="M471.8,193.88a60,60,0,0,1-90.36,51.66,86.16,86.16,0,0,0,82.07-82.08A59.59,59.59,0,0,1,471.8,193.88Z"/><path class="cls-4" d="M138.11,321.39A129.35,129.35,0,0,1,350.59,193c20.77,29,33.07,57.59,33.07,95.3,0,71.43-48.94,118.47-120.5,129.34l-125-96.21Z"/><path class="cls-5" d="M392.5,288.26c0,71.43-56.31,131.61-129.35,129.33l-35.27-27.14,4.42-.44A134,134,0,0,0,350.59,193,128.93,128.93,0,0,1,392.5,288.26Z"/><path class="cls-1" d="M241,119.75c0,47.59-35.2,81.3-82.79,81.3-32.64,0-59.94-14.1-75.67-39.67A86.19,86.19,0,0,1,199.48,44.46C225.4,62.51,241,87,241,119.75Z"/><path class="cls-2" d="M244.4,120.12A86.18,86.18,0,0,1,82.56,161.38,86.19,86.19,0,0,0,199.48,44.46,86.11,86.11,0,0,1,244.4,120.12Z"/><circle class="cls-2" cx="158.23" cy="120.12" r="59.94"/><path class="cls-3" d="M218.18,120.12a60,60,0,0,1-90.37,51.66A86.16,86.16,0,0,0,209.89,89.7,59.61,59.61,0,0,1,218.18,120.12Z"/><path class="cls-6" d="M404.94,364.63a20.57,20.57,0,0,0-28.12-3.33l-58.17,43.42a18.31,18.31,0,0,1-7.53,3.32l-1.4.27-11.43,7.48-10.12-3.32c3-9.65-.75-20.82-9.76-26.15q-20.15-11.9-40.27-23.8a124.36,124.36,0,0,1-28.29-22.94l-5.95-6.49a58.35,58.35,0,0,0-54.1-17.83L23,339.31a2.9,2.9,0,0,0-2.37,2.85v90.07a2.91,2.91,0,0,0,2.91,2.91,2.72,2.72,0,0,0,.8-.12L81.58,418.6a51.37,51.37,0,0,1,42,6.22l65.78,42.48a49.39,49.39,0,0,0,36.19,7l98.73-19.2a37,37,0,0,0,16.94-8.17l61.11-52.07a21.59,21.59,0,0,0,2.6-30.22Z"/><path class="cls-7" d="M309.72,408.32a42.57,42.57,0,0,1-5.84,18.94l-.27.46a41.9,41.9,0,0,1-56.77,15.43L207.9,421.46l-13.2-7.35a23.89,23.89,0,0,0-6.9-2.55,10.22,10.22,0,0,1-8.25-8.87,10.34,10.34,0,0,1,12.2-11.29,44.44,44.44,0,0,1,12.94,4.78L243,417.52l13.79,7.68a21.55,21.55,0,0,0,29.07-7.89l.29-.48a21.7,21.7,0,0,0,2-4.36l21.55-4.15Z"/><path class="cls-8" d="M329.05,175.79a84.67,84.67,0,1,1,64.59,100.87"/><path class="cls-8" d="M428.62,138.44a57.92,57.92,0,1,1-41.75,107.69M354,193.88a58,58,0,0,1,40.78-55.33"/><path class="cls-8" d="M421.47,172.26s-6.69-4.39-13.7-1.9a10.3,10.3,0,0,0-4.33,16.73c3.07,3.4,7.23,3.7,13.44,6.37,12.89,5.54,8.49,23.73-5.2,23.82a22.24,22.24,0,0,1-12.53-3.37m12.53,3.77v8.7m0-65.74v8.71m-178.55-6.92a129.35,129.35,0,0,1,127.37,211M136.28,313.48a130.2,130.2,0,0,1-2.46-25.22A128.81,128.81,0,0,1,163,206.46m63.87,114.93,24.73-64.94a2,2,0,0,1,1.91-1.31h0a2,2,0,0,1,1.91,1.32l24.5,64.93m-45.18-16.5h37.44M306,255.14l46.61,66.25m-3.28-66.25-46.67,66.25m-129-66.25h36.59m-18.37,2.12v64.13"/><path class="cls-8" d="M288.22,412.35l27.24-5.3,45.05-33.64h0l18-13.4a21,21,0,0,1,28.79,3.41,22.11,22.11,0,0,1-2.65,30.95l-14.09,12M15.4,436.1l60.77-17.42a52.59,52.59,0,0,1,43,6.37l67.36,43.49a50.53,50.53,0,0,0,37.05,7.15L324.68,456A37.73,37.73,0,0,0,342,447.67l22.7-19.33M77,325.94,15.4,337.63"/><path class="cls-8" d="M110.34,319.63,146,312.86a59.71,59.71,0,0,1,55.39,18.25l6.1,6.65a126.82,126.82,0,0,0,29,23.48c12,7.12,28.47,16.85,41.23,24.38a22.79,22.79,0,0,1,8,31.25l-.3.48a22.08,22.08,0,0,1-29.77,8.09l-53.38-29.73a45.77,45.77,0,0,0-27-5.53M237,88.67a84.86,84.86,0,1,1-18.68-28.35"/><circle class="cls-8" cx="158.23" cy="120.12" r="57.9"/><path class="cls-8" d="M167.85,98.51s-6.69-4.4-13.71-1.91a10.31,10.31,0,0,0-4.32,16.74c3.07,3.4,7.23,3.69,13.44,6.36,12.89,5.54,8.48,23.73-5.21,23.82a22.26,22.26,0,0,1-12.53-3.37m12.53,3.77v8.71m0-65.75v8.71"/></svg>