<svg xmlns="http://www.w3.org/2000/svg" width="550.466" height="485.649" viewBox="0 0 550.466 485.649">
  <g id="sub-store" transform="translate(-0.549 -419)">
    <path id="Path_321" data-name="Path 321" d="M232.531,3921.257H17.925c-10.142,0-20.206-9.135-16.645-19.2l15.1-42.193c1.316-3.716,5.264-14.864,16.645-14.864h184.49c11.3,0,15.329,11.148,16.568,14.864l15.1,42.193C252.815,3912.122,242.673,3921.257,232.531,3921.257ZM13.512,3906.238a6.126,6.126,0,0,0,4.413,2.168H232.608a5.933,5.933,0,0,0,4.335-2.168L222,3864.2c-2.245-6.271-3.871-6.271-4.49-6.271H33.022c-.7,0-2.245,0-4.49,6.271Z" transform="translate(0 -3160.762)" fill="#fff"/>
    <path id="Path_322" data-name="Path 322" d="M464.006,4821.006H285.555A14.587,14.587,0,0,1,271,4806.452V4670.426a6.41,6.41,0,0,1,6.426-6.426H472.057a6.477,6.477,0,0,1,6.5,6.426v136.026A14.637,14.637,0,0,1,464.006,4821.006ZM283.852,4676.853v129.6a1.7,1.7,0,0,0,1.7,1.625H464.006a1.688,1.688,0,0,0,1.626-1.625v-129.6Z" transform="translate(-249.513 -3916.356)" fill="#fff"/>
    <path id="Path_323" data-name="Path 323" d="M693.322,904.65h-67.9a6.476,6.476,0,0,1-6.426-6.5V811.824a16.619,16.619,0,0,1,16.645-16.645H683.18a16.669,16.669,0,0,1,16.645,16.645v86.322A6.542,6.542,0,0,1,693.322,904.65Zm-61.393-12.929H686.9v-79.9a3.784,3.784,0,0,0-3.716-3.794H635.645a3.784,3.784,0,0,0-3.716,3.794Zm135.638-51.948h-48.7a6.527,6.527,0,0,1-6.426-6.5V801.6a6.46,6.46,0,0,1,6.426-6.426h48.7a6.41,6.41,0,0,1,6.426,6.426v31.664A6.476,6.476,0,0,1,767.567,839.772Zm-42.193-12.929h35.768V808.031H725.374ZM934.1,832.572H793.115a6.41,6.41,0,0,1-6.426-6.426,6.476,6.476,0,0,1,6.426-6.5H934.1a6.476,6.476,0,0,1,6.426,6.5A6.41,6.41,0,0,1,934.1,832.572Zm37.858-40.258a6.476,6.476,0,0,1-6.426-6.5V632.986a6.426,6.426,0,0,1,12.852,0v152.9A6.41,6.41,0,0,1,971.953,792.315ZM695.8,697.167a6.476,6.476,0,0,1-6.426-6.5V600.548a6.426,6.426,0,0,1,12.852,0v90.116A6.476,6.476,0,0,1,695.8,697.167ZM899.567,567.335H734.122a6.426,6.426,0,1,1,0-12.852H899.567a6.426,6.426,0,1,1,0,12.852Zm204.619-72H889.58c-10.142,0-20.284-9.213-16.645-19.2l15.1-42.271C889.347,430.226,893.3,419,904.676,419h184.412c11.381,0,15.329,11.226,16.645,14.864l15.1,42.271C1124.469,486.2,1114.327,495.335,1104.185,495.335Zm-219.018-15.1a5.86,5.86,0,0,0,4.413,2.168h214.606a5.86,5.86,0,0,0,4.413-2.168L1093.656,438.2c-2.323-6.271-3.871-6.271-4.49-6.271H904.676c-.7,0-2.245,0-4.49,6.271Z" transform="translate(-570.572)" fill="#fff"/>
    <path id="Path_324" data-name="Path 324" d="M4352.006,1395.006h-178.45A14.588,14.588,0,0,1,4159,1380.451V1244.426a6.477,6.477,0,0,1,6.5-6.426h194.631a6.41,6.41,0,0,1,6.426,6.426v136.025A14.538,14.538,0,0,1,4352.006,1395.006Zm-180.077-144.077v129.522a1.636,1.636,0,0,0,1.627,1.626h178.45a1.653,1.653,0,0,0,1.7-1.626V1250.929Z" transform="translate(-3836.508 -755.594)" fill="#fff"/>
    <path id="Path_325" data-name="Path 325" d="M1419.715,1855.374h-67.9a6.41,6.41,0,0,1-6.426-6.426v-86.4a16.619,16.619,0,0,1,16.645-16.645h47.535a16.6,16.6,0,0,1,16.568,16.645v86.4A6.361,6.361,0,0,1,1419.715,1855.374Zm-61.393-12.852h54.968v-79.974a3.768,3.768,0,0,0-3.716-3.716h-47.535a3.768,3.768,0,0,0-3.716,3.716ZM1493.96,1790.5h-48.7a6.41,6.41,0,0,1-6.426-6.426v-31.742a6.41,6.41,0,0,1,6.426-6.426h48.7a6.41,6.41,0,0,1,6.426,6.426v31.742A6.41,6.41,0,0,1,1493.96,1790.5Zm-42.193-12.929h35.767v-18.735h-35.767Zm-328.8,45.445a43.006,43.006,0,1,1,43.045-42.968A43.019,43.019,0,0,1,1122.968,1823.013Zm0-73.083a30.116,30.116,0,1,0,30.116,30.116A30.15,30.15,0,0,0,1122.968,1749.929Zm272.825,331.431a43.006,43.006,0,1,1,42.968-43.045A43.1,43.1,0,0,1,1395.792,2081.36Zm0-73.161a30.116,30.116,0,1,0,30.116,30.116A30.15,30.15,0,0,0,1395.792,2008.2Z" transform="translate(-995.881 -1215.962)" fill="#fff"/>
    <path id="Path_326" data-name="Path 326" d="M1375.755,2055.509a21.755,21.755,0,1,1,21.755-21.754A21.774,21.774,0,0,1,1375.755,2055.509Zm0-30.658a8.864,8.864,0,1,0,8.9,8.9A8.888,8.888,0,0,0,1375.755,2024.852Zm272.825,288.928a21.755,21.755,0,1,1,21.755-21.754A21.774,21.774,0,0,1,1648.58,2313.779Zm0-30.581a8.865,8.865,0,1,0,8.826,8.826A8.889,8.889,0,0,0,1648.58,2283.2Z" transform="translate(-1248.669 -1469.672)" fill="#fff"/>
  </g>
</svg>
