<svg id="Layer_1" data-name="Layer 1" xmlns="http://www.w3.org/2000/svg" viewBox="0 0 50 50"><defs><style>.cls-1{fill:#8b818e;}.cls-2{fill:#756e78;}.cls-3{fill:#dd636e;}.cls-4{fill:#4073c8;}.cls-5{fill:#95d6a4;}.cls-6{fill:#ffe07d;}</style></defs><ellipse class="cls-1" cx="25" cy="23.81" rx="3.05" ry="1.35"/><path class="cls-2" d="M22,26.19c0,.75,1.37,1.35,3.05,1.35s3.05-.6,3.05-1.35V23.81c0,.74-1.37,1.35-3.05,1.35S22,24.55,22,23.81Z"/><path class="cls-3" d="M39.47,11h8.19a.6.6,0,0,0,.6-.6V7.14a.6.6,0,0,0-.6-.6H39.47a.6.6,0,0,0-.6.6v3.24A.6.6,0,0,0,39.47,11Z"/><path class="cls-4" d="M39.47,21.81h8.19a.6.6,0,0,0,.6-.61V18a.61.61,0,0,0-.6-.61H39.47a.61.61,0,0,0-.6.61V21.2A.6.6,0,0,0,39.47,21.81Z"/><path class="cls-5" d="M39.47,32.64h8.19a.61.61,0,0,0,.6-.61V28.8a.6.6,0,0,0-.6-.61H39.47a.6.6,0,0,0-.6.61V32A.61.61,0,0,0,39.47,32.64Z"/><path class="cls-6" d="M39.47,43.46h8.19a.6.6,0,0,0,.6-.6V39.62a.6.6,0,0,0-.6-.6H39.47a.6.6,0,0,0-.6.6v3.24A.6.6,0,0,0,39.47,43.46Z"/><path class="cls-4" d="M10.53,11H2.34a.6.6,0,0,1-.6-.6V7.14a.6.6,0,0,1,.6-.6h8.19a.6.6,0,0,1,.6.6v3.24A.6.6,0,0,1,10.53,11Z"/><path class="cls-5" d="M10.53,21.81H2.34a.6.6,0,0,1-.6-.61V18a.61.61,0,0,1,.6-.61h8.19a.61.61,0,0,1,.6.61V21.2A.6.6,0,0,1,10.53,21.81Z"/><path class="cls-6" d="M10.53,32.64H2.34a.61.61,0,0,1-.6-.61V28.8a.6.6,0,0,1,.6-.61h8.19a.6.6,0,0,1,.6.61V32A.61.61,0,0,1,10.53,32.64Z"/><path class="cls-3" d="M10.53,43.46H2.34a.6.6,0,0,1-.6-.6V39.62a.6.6,0,0,1,.6-.6h8.19a.6.6,0,0,1,.6.6v3.24A.6.6,0,0,1,10.53,43.46Z"/><path d="M47.66,5.83H39.47a1.31,1.31,0,0,0-1.3,1.31v.92H35.26a.7.7,0,0,0-.7.7v4.71H31.65a.7.7,0,0,0-.7.7V24.3h-2.2v-.49c0-1.35-1.89-2-3.75-2s-3.75.7-3.75,2v.49h-2.2V22.55a.7.7,0,0,0-1.4,0V35.13H15.44V30.41a.7.7,0,0,0-.7-.7H11.83V28.8a1.31,1.31,0,0,0-1.3-1.31H7.37a.7.7,0,1,0,0,1.4h3.06v3h-8v-3H4.09a.7.7,0,0,0,0-1.4H2.34A1.31,1.31,0,0,0,1,28.8V32a1.31,1.31,0,0,0,1.3,1.31h8.19A1.31,1.31,0,0,0,11.83,32v-.91H14v9.42H11.83v-.92a1.3,1.3,0,0,0-1.3-1.3H2.34A1.3,1.3,0,0,0,1,39.62v3.24a1.31,1.31,0,0,0,1.3,1.31h8.19a1.31,1.31,0,0,0,1.3-1.31v-.92h2.91a.7.7,0,0,0,.7-.7V36.53h2.91a.7.7,0,0,0,.7-.7V25.7h2.2v.49c0,1.35,1.89,2,3.75,2s3.75-.7,3.75-2V25.7H31V35.83a.7.7,0,0,0,.7.7h2.91v4.71a.7.7,0,0,0,.7.7h2.91v.92a1.31,1.31,0,0,0,1.3,1.31h8.19A1.31,1.31,0,0,0,49,42.86V39.62a1.3,1.3,0,0,0-1.3-1.3H39.47a1.3,1.3,0,0,0-1.3,1.3v.92H36V31.12h2.21V32a1.31,1.31,0,0,0,1.3,1.31h8.19A1.31,1.31,0,0,0,49,32V28.8a1.31,1.31,0,0,0-1.3-1.31H39.47a1.31,1.31,0,0,0-1.3,1.31v.91H35.26a.7.7,0,0,0-.7.7v4.72H32.35V14.87h2.21v4.72a.7.7,0,0,0,.7.7h2.91v.91a1.31,1.31,0,0,0,1.3,1.31h8.19A1.31,1.31,0,0,0,49,21.2V18a1.31,1.31,0,0,0-1.3-1.31H39.47A1.31,1.31,0,0,0,38.17,18v.91H36V9.46h2.21v.92a1.3,1.3,0,0,0,1.3,1.3h3.86a.7.7,0,1,0,0-1.4H39.57v-3h8v3h-1a.7.7,0,0,0,0,1.4h1a1.3,1.3,0,0,0,1.3-1.3V7.14a1.31,1.31,0,0,0-1.3-1.31ZM10.43,42.76h-8v-3h8ZM25,23.16a3.21,3.21,0,0,1,2.33.65,3.26,3.26,0,0,1-2.33.65,3.26,3.26,0,0,1-2.33-.65A3.21,3.21,0,0,1,25,23.16Zm0,3.68a3.17,3.17,0,0,1-2.34-.66v-.74a6.73,6.73,0,0,0,4.68,0v.74A3.17,3.17,0,0,1,25,26.84ZM39.57,39.72h8v3h-8Zm0-10.83h8v3h-8Zm0-10.82h8v3h-8Z"/><path d="M2.34,22.51h8.19a1.31,1.31,0,0,0,1.3-1.31v-.91h2.91a.7.7,0,0,0,.7-.7V14.87h2.2v4.41a.71.71,0,0,0,1.41,0V14.17a.7.7,0,0,0-.7-.7H15.44V8.76a.7.7,0,0,0-.7-.7H11.83V7.14a1.31,1.31,0,0,0-1.3-1.31H2.34A1.31,1.31,0,0,0,1,7.14v3.24a1.3,1.3,0,0,0,1.3,1.3h8.19a1.3,1.3,0,0,0,1.3-1.3V9.46H14v9.42H11.83V18a1.31,1.31,0,0,0-1.3-1.31H2.34A1.31,1.31,0,0,0,1,18V21.2a1.31,1.31,0,0,0,1.3,1.31Zm8.09-12.23h-8v-3h8Zm-8,7.79h8v3h-8Z"/></svg>