<svg id="Layer_1" data-name="Layer 1" xmlns="http://www.w3.org/2000/svg" viewBox="0 0 50 50"><defs><style>.cls-1{fill:#eef5f6;}.cls-2{fill:#deecf1;}.cls-3{fill:#f26c72;}.cls-4{fill:#7f8c93;}.cls-5{fill:#455b6b;}.cls-6{fill:#a4ccff;}.cls-7{fill:#8bb3ea;}.cls-8{fill:#e95059;}.cls-9{fill:#fde588;}</style></defs><path class="cls-1" d="M29.88,6.87H5.79a.94.94,0,0,0-.94.94v3.64l.94,4.25L4.85,20V39.34l26,.94V7.81a.94.94,0,0,0-.94-.94Z"/><path class="cls-2" d="M31.58,6.87H28.75a.94.94,0,0,1,.94.94V40.28l2.83-.94V20l-.94-3.89.94-4.61V7.81A.94.94,0,0,0,31.58,6.87Z"/><path class="cls-3" d="M29.69,20h-1l-2-.94-2,.94H20.68L17.84,19,16.69,20H12.63L10,19,8.65,20H4.85v-8.5h3.8l2,1,2-1h4.06l2.39,1,1.6-1h4.06l2,1,2-1h1l1.65,4.95Z"/><path class="cls-4" d="M34.6,17.25H32.15V14.16H34.6l1.08,1.19Z"/><path class="cls-5" d="M34.6,14.16h2.79v3.09H34.6Z"/><path class="cls-4" d="M34.6,26.47H32.15V23.38H34.6l1.24,1.36Z"/><path class="cls-5" d="M34.6,23.38h2.79v3.09H34.6Z"/><path class="cls-6" d="M15.87,40.28l-7.14-.94V27.43l.95-2.19a.47.47,0,0,1,.47-.47H15.4a.47.47,0,0,1,.47.47Z"/><path class="cls-7" d="M14.93,25.05V40.28l1.89-.94V27.43l-1-2.38Z"/><path class="cls-4" d="M15.4,24.58H9.2a.47.47,0,0,0-.47.47v2.38h7.14V25.05a.47.47,0,0,0-.47-.47Z"/><path class="cls-5" d="M16.35,24.58H14.46a.47.47,0,0,1,.47.47v2.38h1.89V25.05A.47.47,0,0,0,16.35,24.58Z"/><path class="cls-3" d="M44.68,30.27H37a.47.47,0,0,1-.47-.47v-19a.47.47,0,0,1,.47-.48h7.72a.47.47,0,0,1,.47.48v19A.47.47,0,0,1,44.68,30.27Z"/><path class="cls-8" d="M44.68,10.35h-2a.47.47,0,0,1,.47.48v19a.47.47,0,0,1-.47.47h2a.47.47,0,0,0,.47-.47v-19A.47.47,0,0,0,44.68,10.35Z"/><path class="cls-8" d="M29.69,11.45h2.83V20H29.69Z"/><path class="cls-9" d="M8.65,11.45h4V20h-4Z"/><path class="cls-9" d="M16.69,11.45h4V20h-4Z"/><path class="cls-9" d="M24.74,11.45h4V20h-4Z"/><path class="cls-6" d="M27.7,40.28l-7.15-.94V27.43l.95-2.19a.47.47,0,0,1,.47-.47h5.25a.48.48,0,0,1,.48.47Z"/><path class="cls-7" d="M26.75,25.05V40.28l1.89-.94V27.43l-.94-2.38Z"/><path class="cls-4" d="M27.22,24.58H21a.47.47,0,0,0-.47.47v2.38H27.7V25.05A.48.48,0,0,0,27.22,24.58Z"/><path class="cls-5" d="M28.17,24.58H26.28a.47.47,0,0,1,.47.47v2.38h1.89V25.05A.47.47,0,0,0,28.17,24.58Z"/><path class="cls-4" d="M44.22,39.34H3.89A2.36,2.36,0,0,0,1.53,41.7v1a.47.47,0,0,0,.47.47H46.11a.47.47,0,0,0,.47-.47v-1A2.36,2.36,0,0,0,44.22,39.34Z"/><path class="cls-5" d="M46.11,39.34H43.23a2.36,2.36,0,0,1,2.36,2.36v1a.47.47,0,0,1-.47.47H48a.47.47,0,0,0,.47-.47v-1A2.36,2.36,0,0,0,46.11,39.34Z"/><path d="M46.11,38.63H33.23V27.17h2.55V29.8A1.18,1.18,0,0,0,37,31h7.72a1.18,1.18,0,0,0,1.18-1.18V17.25a.71.71,0,1,0-1.41,0V29.56H37.2V11.06h7.25v3.1a.71.71,0,1,0,1.41,0V10.83a1.18,1.18,0,0,0-1.18-1.19H37a1.18,1.18,0,0,0-1.18,1.19v2.62H33.23V7.81a1.65,1.65,0,0,0-1.65-1.65h-19a.71.71,0,1,0,0,1.42h19a.23.23,0,0,1,.24.23v2.94H5.55V7.81a.23.23,0,0,1,.24-.23H9.44a.71.71,0,0,0,0-1.42H5.79A1.65,1.65,0,0,0,4.14,7.81V38.63H3.89A3.07,3.07,0,0,0,.82,41.7v1A1.18,1.18,0,0,0,2,43.84H48a1.18,1.18,0,0,0,1.18-1.18v-1a3.07,3.07,0,0,0-3.07-3.07Zm-10.33-16H33.23V18h2.55Zm-2.55,3.09V24.09h2.55v1.67Zm2.55-10.89v1.67H33.23V14.87Zm-4,4.37H29.43V12.16h2.39Zm-22.46,0V12.16h2.56v7.08Zm4-7.08H16v7.08H13.34Zm4.06,0H20v7.08H17.4Zm4,0H24v7.08H21.39Zm4.06,0H28v7.08H25.45Zm-17.51,0v7.08H5.55V12.16Zm-2.39,8.5H31.82v18H29.35V25.05a1.18,1.18,0,0,0-1.18-1.18H21a1.18,1.18,0,0,0-1.18,1.18V38.63H17.53V25.05a1.18,1.18,0,0,0-1.18-1.18H9.2A1.18,1.18,0,0,0,8,25.05v7a.71.71,0,1,0,1.42,0V28.13h6.67v10.5H9.44V35.11a.71.71,0,1,0-1.42,0v3.52H5.55Zm22.38,6.06H21.26V25.29h6.67Zm-6.67,1.41h6.67v10.5H21.26Zm-5.15-1.41H9.44V25.29h6.67Zm31.65,15.7H2.24V41.7A1.66,1.66,0,0,1,3.89,40H46.11a1.66,1.66,0,0,1,1.65,1.66Z"/><path d="M38.53,14.05V25.9a.71.71,0,0,0,1.42,0V14.05a.71.71,0,0,0-1.42,0Z"/><path d="M41.69,14.05V25.9a.71.71,0,0,0,1.42,0V14.05a.71.71,0,0,0-1.42,0Z"/></svg>