<svg id="Layer_1" data-name="Layer 1" xmlns="http://www.w3.org/2000/svg" viewBox="0 0 512 512"><defs><style>.cls-1{fill:#999;}</style></defs><path class="cls-1" d="M482.18,188.15h-7.54V29.82a7.54,7.54,0,0,0-7.54-7.53H301.24a7.53,7.53,0,0,0-7.54,7.53V188.15H250.35l6-8A73.61,73.61,0,0,0,234,72.12c-2.64-1.51-5.41-2.75-8.18-4V29.82a7.53,7.53,0,0,0-7.54-7.53H52.44a7.54,7.54,0,0,0-7.54,7.53V188.15H29.82a7.53,7.53,0,0,0-7.53,7.54v30.15a7.53,7.53,0,0,0,7.53,7.54h7.54v57.25c-.1.1-.23.18-.33.28A50,50,0,0,0,22.29,326.5v80.28a52.54,52.54,0,0,0,15.07,36.86v38.54a7.54,7.54,0,0,0,7.54,7.53H75.06a7.54,7.54,0,0,0,7.54-7.53V459.56h7.54v22.62a7.53,7.53,0,0,0,7.54,7.53h173.4a7.54,7.54,0,0,0,7.54-7.53V459.56h7.54A52.57,52.57,0,0,0,323,444.48H429.4v37.7a7.54,7.54,0,0,0,7.54,7.53H467.1a7.54,7.54,0,0,0,7.54-7.53V233.38h7.54a7.53,7.53,0,0,0,7.53-7.54V195.69A7.53,7.53,0,0,0,482.18,188.15ZM369.09,37.36h30.15V82.6H369.09Zm-60.32,0H354V90.14a7.54,7.54,0,0,0,7.54,7.54h45.23a7.54,7.54,0,0,0,7.54-7.54V37.36h45.24V188.15H308.77Zm15.42,253.55a50.68,50.68,0,0,0-28.47-14.24l-85-12.14V248.84A68,68,0,0,0,231,233.38H429.4V399.24H338.93V326.5A50,50,0,0,0,324.19,290.91ZM150.45,264.53l-67.85,9.7V233.38h47.58a67.92,67.92,0,0,0,20.27,15.46Zm30.16-23.61a52.84,52.84,0,0,1-52.78-52.77V173.07a22.62,22.62,0,0,1,22.62-22.62h20.11a83.5,83.5,0,0,0,49.76-16.58l3.67-2.76,3.06,4.59a37.57,37.57,0,0,1,6.33,20.9v31.55A52.83,52.83,0,0,1,180.61,240.92Zm-15.08,13.33a65.94,65.94,0,0,0,30.16,0v20.07a33.14,33.14,0,0,1-30.16,0ZM256,136a58.74,58.74,0,0,1-7.54,28.49V156.6a52.57,52.57,0,0,0-8.87-29.26l-7.47-11.23A7.55,7.55,0,0,0,221.66,114l-.34.24-10.06,7.54a68.27,68.27,0,0,1-40.71,13.57h-20.1a37.75,37.75,0,0,0-36.94,30.3A58.1,58.1,0,0,1,133.42,86c.41-.25.84-.49,1.26-.73a77.26,77.26,0,0,1,38.25-10.16h15.36a77.26,77.26,0,0,1,38.25,10.16A58.62,58.62,0,0,1,256,136ZM127.2,72.12a75.68,75.68,0,0,0-6.9,4.58V37.36h30.15V62.84A92,92,0,0,0,127.2,72.12Zm83.57-9.28A92.66,92.66,0,0,0,188.29,60H172.93c-2.48,0-4.93.29-7.4.48V37.36h45.24ZM60,37.36h45.24V91.44a73.44,73.44,0,0,0-.37,88.68l6,8H60ZM37.36,203.23H114.5a67.31,67.31,0,0,0,5.42,15.07H37.36Zm15.08,30.15H67.52v43l-2,.28a50.13,50.13,0,0,0-13,3.92Zm0,241.26V454.39A52.08,52.08,0,0,0,67.52,459v15.69Zm211.1,0H105.22V459.56h37.69a30.16,30.16,0,1,0,0-60.32H97.68V338.93h52.77v37.7a7.55,7.55,0,0,0,7.54,7.54h45.24a7.55,7.55,0,0,0,7.54-7.54v-37.7h52.77v60.31H218.3a30.16,30.16,0,0,0,0,60.32h45.24ZM127.83,414.32h15.08a15.08,15.08,0,0,1,0,30.16H127.83Zm37.7-75.39h30.16v30.16H165.53ZM218.3,444.48a15.08,15.08,0,0,1,0-30.16h15.08v30.16Zm67.86,0h-37.7V414.32h22.62a7.54,7.54,0,0,0,7.54-7.54V331.39a7.55,7.55,0,0,0-7.54-7.54H90.14a7.54,7.54,0,0,0-7.54,7.54v75.39a7.53,7.53,0,0,0,7.54,7.54h22.62v30.16H75.06a37.75,37.75,0,0,1-37.7-37.7V326.5a35.24,35.24,0,0,1,30.27-34.89l83-11.86a7.54,7.54,0,0,0,3.22,5.14,48.16,48.16,0,0,0,53.6,0,7.47,7.47,0,0,0,3.21-5.13l82.93,11.85a35.41,35.41,0,0,1,19.94,10,35,35,0,0,1,10.36,24.93v80.28A37.74,37.74,0,0,1,286.16,444.48Zm47.61-15.08a52.39,52.39,0,0,0,4.56-15.08H429.4V429.4Zm125.79,45.24H444.48V233.38h15.08ZM474.64,218.3H241.3a66.79,66.79,0,0,0,5.41-15.07H474.64Z"/><rect class="cls-1" x="399.24" y="157.99" width="45.24" height="15.08"/></svg>