<svg id="Layer_1" data-name="Layer 1" xmlns="http://www.w3.org/2000/svg" viewBox="0 0 50 50"><defs><style>.cls-1{fill:#e6e9ed;}.cls-2{fill:#ffeaa7;}.cls-3{fill:#ff826e;}.cls-4{fill:#fcd770;}.cls-5{fill:#fc6e51;}.cls-6{fill:#656d78;}.cls-7{fill:#4fc1e9;}.cls-8{fill:#3bafda;}.cls-9{fill:#f0d0b4;}.cls-10{fill:#d3a06c;}.cls-11{fill:#b27946;}</style></defs><path class="cls-1" d="M41.79,19a1.53,1.53,0,0,1-1.53-1.52A1.52,1.52,0,0,1,38.74,19H34.16a1.53,1.53,0,0,1-1.53-1.52A1.52,1.52,0,0,1,31.11,19H26.53A1.53,1.53,0,0,1,25,17.43V17.3h0a2.18,2.18,0,0,1-.76.14h-.77a4.58,4.58,0,0,1-2.94,4.27l.65,2.6h0a16.68,16.68,0,0,1,1.91.71l3.42,2.34V48H45.61a.77.77,0,0,0,.76-.77V19Z"/><path class="cls-2" d="M38,6.74l2.28,9.16H32.63L30.34,6.74Z"/><path class="cls-3" d="M45.2,7.79l2.7,8.11H40.26L38,6.74h5.77a1.54,1.54,0,0,1,1.45,1Z"/><path class="cls-3" d="M32.63,15.9H26.39a2.18,2.18,0,0,0,.14-.76,2.34,2.34,0,0,0-.63-1.58l.23-1.38a28.65,28.65,0,0,0,.4-4.81c0-.21,0-.42,0-.62h3.85Z"/><path class="cls-4" d="M40.26,17.43A1.52,1.52,0,0,1,38.74,19H34.16a1.53,1.53,0,0,1-1.53-1.52V15.9h7.63Z"/><path class="cls-5" d="M47.9,15.9v1.53A1.53,1.53,0,0,1,46.37,19H41.79a1.53,1.53,0,0,1-1.53-1.52V15.9Z"/><path class="cls-5" d="M32.63,15.9v1.53A1.52,1.52,0,0,1,31.11,19H26.53A1.53,1.53,0,0,1,25,17.43V17.3h0a2.31,2.31,0,0,0,1.39-1.39h6.24Z"/><path class="cls-6" d="M26.13,12.18l-.23,1.38a2.29,2.29,0,0,0-1.66-.71h-.77V11.32A1.53,1.53,0,0,0,22,9.79H19.66A3.84,3.84,0,0,1,16.6,8.27H14.31a3,3,0,0,0-3.05,3.05v1.53H10.5a2.29,2.29,0,0,0-1.67.71l-.55-3.31a5.67,5.67,0,0,1,5.57-6.56h1.53a9.13,9.13,0,0,0,5-1.53,4.12,4.12,0,0,1,2.07,2.38l.22.67.57-.28A6.79,6.79,0,0,0,25,3.69a5.25,5.25,0,0,1,1.49,3.06c0,.2,0,.41,0,.62A28.65,28.65,0,0,1,26.13,12.18Z"/><path class="cls-2" d="M18.13,29.64l1.53,4.58H15.08l1.52-4.58Z"/><path class="cls-4" d="M19.28,27.35l-1.15,2.29H16.6l-1.14-2.29,1.91-1.53Z"/><path class="cls-7" d="M32.24,34.81l-.36-.88a16.24,16.24,0,0,0-1.48-2.76A16.64,16.64,0,0,0,23.11,25l-1.93,3.87-1.9-1.53-1.15,2.29,1.53,4.58H15.08l1.52-4.58-1.14-2.29-1.91,1.53L11.62,25a16.73,16.73,0,0,0-8.76,8.92l-.37.88a5,5,0,0,0-.39,1.95,5.09,5.09,0,0,0,5.09,5.09h1V48H26.53V41.85h1a5.07,5.07,0,0,0,5.09-5.09,5,5,0,0,0-.39-1.95Z"/><path class="cls-8" d="M23.11,25l-1.93,3.87-1.9-1.53-1.91-1.53,3.81-1.52h0A16.68,16.68,0,0,1,23.11,25Z"/><path class="cls-8" d="M17.37,25.82l-1.91,1.53-1.91,1.53L11.62,25a17.58,17.58,0,0,1,1.92-.71h0Z"/><path class="cls-1" d="M22,41.85v2.29a.77.77,0,0,1-.77.76H13.55a.76.76,0,0,1-.76-.76V41.85h.76a2.29,2.29,0,1,0,0-4.58h-.76V35a.76.76,0,0,1,.76-.76h7.63A.77.77,0,0,1,22,35v2.29h-.77a2.29,2.29,0,0,0-2.29,2.29,2.3,2.3,0,0,0,2.29,2.29Z"/><path class="cls-9" d="M23.47,37.27v4.58H21.18a2.29,2.29,0,1,1,0-4.58h2.29Z"/><path class="cls-9" d="M12.79,37.27h.76a2.29,2.29,0,1,1,0,4.58H11.26V37.27Z"/><path class="cls-9" d="M24.24,12.85a2.29,2.29,0,0,1,1.66.71,2.34,2.34,0,0,1,.63,1.58,2.18,2.18,0,0,1-.14.76A2.31,2.31,0,0,1,25,17.29a2.18,2.18,0,0,1-.76.14h-.77V12.85Z"/><path class="cls-9" d="M20.53,21.7l.65,2.6-3.81,1.52L13.55,24.3l.65-2.6a4.47,4.47,0,0,0,1.64.31h3.05A4.47,4.47,0,0,0,20.53,21.7Z"/><path class="cls-9" d="M23.47,12.85v4.58a4.58,4.58,0,0,1-2.94,4.27,4.47,4.47,0,0,1-1.64.31H15.84a4.47,4.47,0,0,1-1.64-.31,4.58,4.58,0,0,1-2.94-4.27V11.32a3,3,0,0,1,3.05-3.05H16.6a3.84,3.84,0,0,0,3.06,1.52H22a1.53,1.53,0,0,1,1.52,1.53Z"/><path class="cls-9" d="M11.26,12.85v4.58H10.5a2.25,2.25,0,0,1-1.62-.68,2.28,2.28,0,0,1-.67-1.61,2.33,2.33,0,0,1,.62-1.58,2.29,2.29,0,0,1,1.67-.71Z"/><path class="cls-10" d="M30.41,31.16h0a16.24,16.24,0,0,1,1.48,2.76l.36.88a5,5,0,0,1,.39,1.95,5.09,5.09,0,0,1-3.05,4.67v2.71a.76.76,0,0,0,.76.76H42.55a.77.77,0,0,0,.77-.76v-13Z"/><path class="cls-10" d="M42.55,22H34.92a.76.76,0,0,0-.76.76v8.39h9.16V22.77A.77.77,0,0,0,42.55,22Z"/><path class="cls-11" d="M34.16,31.16h4.58v3.06H34.16Z"/><path class="cls-11" d="M37.21,22h3v3h-3Z"/><circle cx="14.31" cy="12.85" r="0.76"/><circle cx="20.42" cy="12.85" r="0.76"/><path d="M21.18,16.66H19.66a1.54,1.54,0,0,1-1.53,1.53h-3v1.53h3A3.06,3.06,0,0,0,21.18,16.66Z"/><path d="M45.92,7.54A2.3,2.3,0,0,0,43.74,6H27.11a5.94,5.94,0,0,0-1.57-2.83L25,2.61l-.54.54a6,6,0,0,1-1.31,1,4.8,4.8,0,0,0-2.39-2.66l-.39-.2L20,1.53a8.35,8.35,0,0,1-4.62,1.39H13.85a6.41,6.41,0,0,0-6.4,6.41,6.11,6.11,0,0,0,.08,1.05l.5,3a3,3,0,0,0,2.47,4.83h.06a5.34,5.34,0,0,0,2.75,3.94l-.4,1.57A17.48,17.48,0,0,0,2.16,33.63l-.37.88a5.85,5.85,0,0,0,5.4,8.1h.26v6.11H45.61a1.53,1.53,0,0,0,1.52-1.53V19.58a2.29,2.29,0,0,0,1.53-2.15V15.78ZM44.47,8l2.37,7.11h-6L39,7.5h4.79A.77.77,0,0,1,44.47,8ZM24.24,13.61a1.53,1.53,0,0,1,0,3.05ZM27.29,7.5h2.46l1.9,7.64H27.29a3,3,0,0,0-.58-1.78l.17-1A29.84,29.84,0,0,0,27.29,7.5Zm5.94,7.64L31.32,7.5h6.06l1.91,7.64Zm-6.36,1.52h5v.77a.76.76,0,0,1-.76.76H26.53a.76.76,0,0,1-.7-.46A3,3,0,0,0,26.87,16.66Zm6.53,0h6.1v.77a.76.76,0,0,1-.76.76H34.16a.76.76,0,0,1-.76-.76ZM9,15.14a1.53,1.53,0,0,1,1.53-1.53v3.05A1.53,1.53,0,0,1,9,15.14Zm1.53-3.82v.76a2.88,2.88,0,0,0-1.1.22L9,10.13A4.25,4.25,0,0,1,9,9.33a4.89,4.89,0,0,1,4.88-4.88h1.53a9.79,9.79,0,0,0,5.06-1.4,3.34,3.34,0,0,1,1.32,1.74l.5,1.5,1.35-.67a8.2,8.2,0,0,0,1.32-.84,4.51,4.51,0,0,1,.83,2.59,29.47,29.47,0,0,1-.38,4.69l0,.24a2.92,2.92,0,0,0-1.1-.22v-.76A2.3,2.3,0,0,0,22,9H19.66A3.06,3.06,0,0,1,16.6,6H15.08a4.49,4.49,0,0,0,.26,1.52h-1A3.82,3.82,0,0,0,10.5,11.32ZM12,17.43V11.32A2.3,2.3,0,0,1,14.31,9h1.94a4.55,4.55,0,0,0,3.41,1.53H22a.76.76,0,0,1,.76.76v6.11a3.82,3.82,0,0,1-3.82,3.81H15.84A3.82,3.82,0,0,1,12,17.43Zm26,5.34H39.5V24.3H38ZM41,25.82V22.77h1.52V30.4H34.92V22.77h1.53v3.05ZM38,31.93v1.52H34.92V31.93Zm1.52,3v-3h3V44.14H30.34V41.9a5.85,5.85,0,0,0,3.06-5.14A6,6,0,0,0,33,34.51l-.37-.88c-.25-.58-.52-1.15-.82-1.7H33.4v3Zm-8.33-.76.37.88a4.33,4.33,0,0,1-4,6h-3.3V38h6.1V36.51H27.29V33.45H25.76v3.06H22.71V35a1.53,1.53,0,0,0-1.53-1.53h-1L19,29.7l.59-1.17,1.9,1.53,2-4a16,16,0,0,1,7.7,8.21ZM13.55,38a1.53,1.53,0,0,1,0,3.06H12V38Zm0,4.58a3.05,3.05,0,0,0,0-6.1V35h7.63v1.53a3.05,3.05,0,0,0,0,6.1v1.53H13.55ZM15.87,26l-2.06,1.65L12.67,25.4l.85-.29Zm1.5.76.95.76-.66,1.32h-.58l-.66-1.32Zm-.22,3.6h.43l1,3.05H16.14ZM22.71,38v3.06H21.18a1.53,1.53,0,0,1,0-3.06ZM22.07,25.4l-1.15,2.29L18.87,26l2.34-.93Zm-6.23-2.63h3.05a5.7,5.7,0,0,0,1.1-.11l.29,1.17L17.37,25l-2.92-1.17.3-1.17a5.6,5.6,0,0,0,1.09.11Zm-13,14A4.31,4.31,0,0,1,3.2,35.1l.36-.88A16,16,0,0,1,11.26,26l2,4,1.91-1.53.58,1.17-1.25,3.75h-1A1.54,1.54,0,0,0,12,35v1.53H9V33.45H7.45v3.06H4.39V38H10.5v3.06H7.19a4.33,4.33,0,0,1-4.32-4.33ZM9,42.61h3v1.53a1.54,1.54,0,0,0,1.53,1.53h7.63a1.53,1.53,0,0,0,1.53-1.53V42.61h3.05v4.58H9Zm18.32,4.58V42.61h.25a6,6,0,0,0,1.28-.14v1.67a1.53,1.53,0,0,0,1.52,1.53H42.55a1.53,1.53,0,0,0,1.53-1.53V22.77a1.53,1.53,0,0,0-1.53-1.53H34.92a1.53,1.53,0,0,0-1.52,1.53V30.4H30.81a17.47,17.47,0,0,0-9-6.7l-.39-1.57a5.37,5.37,0,0,0,2.75-3.94h.19a2.31,2.31,0,0,0,2.16,1.54h4.58a2.25,2.25,0,0,0,1.52-.6,2.27,2.27,0,0,0,1.53.6h4.58a2.23,2.23,0,0,0,1.52-.6,2.27,2.27,0,0,0,1.53.6h3.82V47.19Zm19.08-29H41.79a.76.76,0,0,1-.76-.76v-.77h6.1v.77A.76.76,0,0,1,46.37,18.19Z"/></svg>