<svg xmlns="http://www.w3.org/2000/svg" width="512" height="411.498" viewBox="0 0 512 411.498">
  <g id="supplier-mapping" transform="translate(0 -50.251)">
    <path id="Path_348" data-name="Path 348" d="M254.023,420.2a39.934,39.934,0,0,1-16.73-3.646l-82.518-37.762a17.721,17.721,0,0,1,7.583-33.861,18.426,18.426,0,0,1,6.536,1.2l85.188,32.182a15.674,15.674,0,0,0,5.562,1.016h53.444a14.1,14.1,0,1,0,0-28.2h-35.2c-10.558,0-19.425-8.338-19.768-18.587a19.247,19.247,0,0,1,19.236-19.907h72.522A43.714,43.714,0,0,1,384.03,328.94l12.115,14.991a14.408,14.408,0,0,0,11.256,5.375h11.207V328.7a2.093,2.093,0,0,1,2.09-2.091h37.515V315.75a2.093,2.093,0,0,1,2.091-2.09H463A205.787,205.787,0,0,0,471.2,256c0-113.632-92.117-205.749-205.749-205.749a204.8,204.8,0,0,0-118.63,37.63H249.718a4.155,4.155,0,0,1,4.15,4.15v68.542H217.85a3.1,3.1,0,0,0-3.091,3.091v36.7a3.094,3.094,0,0,0,3.091,3.09h36.018V272a4.155,4.155,0,0,1-4.15,4.151H60.689c10.126,104.175,97.933,185.6,204.766,185.6A204.827,204.827,0,0,0,389.434,420.2Z" fill="#d8ecfe"/>
    <g id="Group_83" data-name="Group 83">
      <path id="Path_349" data-name="Path 349" d="M204.069,87.881a204.637,204.637,0,0,1,89.995-35.64,207.517,207.517,0,0,0-28.61-1.99,204.8,204.8,0,0,0-118.63,37.63ZM117.908,276.148H60.689c10.126,104.175,97.933,185.6,204.766,185.6a207.357,207.357,0,0,0,28.61-1.99c-93.54-13.015-166.95-88.906-176.157-183.611Z" fill="#c4e2ff"/>
    </g>
    <path id="Path_350" data-name="Path 350" d="M88.752,90.6l-1-3.718H5.151A5.15,5.15,0,0,0,0,92.032V272a5.15,5.15,0,0,0,5.152,5.151h82.6l1-4.132ZM418.609,348.307H407.4a13.471,13.471,0,0,1-10.48-5.006l-12.113-14.99a44.91,44.91,0,0,0-34.929-16.682H277.358a20.247,20.247,0,0,0-20.235,20.94c.367,11,9.762,19.554,20.766,19.554h35.2a13.1,13.1,0,1,1,0,26.2H259.644a14.732,14.732,0,0,1-5.209-.951l-85.187-32.182c-9.779-3.694-20.97.99-24.648,10.775a18.8,18.8,0,0,0,9.76,23.735l82.517,37.762a41.2,41.2,0,0,0,17.147,3.737H418.609Z" fill="#fed2a4"/>
    <path id="Path_351" data-name="Path 351" d="M418.609,403.689H262.287a41.211,41.211,0,0,1-17.146-3.736L162.623,362.19a18.791,18.791,0,0,1-10.863-15.1,18.241,18.241,0,0,0-7.161,8.882,18.8,18.8,0,0,0,9.76,23.735l82.517,37.762a41.2,41.2,0,0,0,17.147,3.737H418.608V403.689Z" fill="#ffbd86"/>
    <path id="Path_352" data-name="Path 352" d="M458.214,325.613H420.7a3.091,3.091,0,0,0-3.091,3.091V430.368a3.091,3.091,0,0,0,3.091,3.091h37.514Z" fill="#e2dee2"/>
    <path id="Path_353" data-name="Path 353" d="M417.609,404.912v25.456a3.091,3.091,0,0,0,3.091,3.091h36.514V407.437H420.642A3.087,3.087,0,0,1,417.609,404.912Z" fill="#cbc4cc"/>
    <path id="Path_354" data-name="Path 354" d="M508.909,446.411H460.3a3.091,3.091,0,0,1-3.091-3.091V315.75a3.091,3.091,0,0,1,3.091-3.091h48.605A3.091,3.091,0,0,1,512,315.75V443.32a3.09,3.09,0,0,1-3.091,3.091Z" fill="#7a6d79"/>
    <path id="Path_355" data-name="Path 355" d="M477.489,419.8a3.091,3.091,0,0,1-3.091-3.091V312.66H460.3a3.091,3.091,0,0,0-3.091,3.091v127.57a3.091,3.091,0,0,0,3.091,3.091h48.605A3.091,3.091,0,0,0,512,443.321V419.8Z" fill="#685e68"/>
    <path id="Path_356" data-name="Path 356" d="M34.511,272V92.031a5.15,5.15,0,0,1,5.152-5.151H5.151A5.15,5.15,0,0,0,0,92.032V272a5.15,5.15,0,0,0,5.152,5.151h34.51A5.15,5.15,0,0,1,34.511,272Z" fill="#ffbd86"/>
    <path id="Path_357" data-name="Path 357" d="M217.852,202.455a2.093,2.093,0,0,1-2.091-2.09v-36.7a2.093,2.093,0,0,1,2.091-2.091H254.87V92.031a5.15,5.15,0,0,0-5.152-5.151H87.751V277.148H249.718A5.15,5.15,0,0,0,254.869,272V202.455Z" fill="#f6a96c"/>
    <path id="Path_358" data-name="Path 358" d="M87.752,86.88H114V277.148H87.752Z" fill="#ea9b58"/>
    <path id="Path_359" data-name="Path 359" d="M144.223,136.624H198.4a3.091,3.091,0,0,0,3.091-3.091V86.88H141.133v46.653a3.09,3.09,0,0,0,3.09,3.091Z" fill="#fe646f"/>
    <path id="Path_360" data-name="Path 360" d="M167.4,133.533V86.88H141.132v46.653a3.091,3.091,0,0,0,3.091,3.091H170.5a3.091,3.091,0,0,1-3.091-3.091Z" fill="#fd4755"/>
    <path id="Path_361" data-name="Path 361" d="M309.729,232.715l65.861-48.206a3.09,3.09,0,0,0,0-4.988l-65.861-48.206a3.091,3.091,0,0,0-4.916,2.494v23.675a3.091,3.091,0,0,1-3.091,3.091H217.851a3.091,3.091,0,0,0-3.091,3.091v36.7a3.091,3.091,0,0,0,3.091,3.091h83.871a3.091,3.091,0,0,1,3.091,3.091v23.675a3.091,3.091,0,0,0,4.916,2.491Z" fill="#4fc123"/>
    <path id="Path_362" data-name="Path 362" d="M249.463,200.365v-36.7a3.091,3.091,0,0,1,3.091-3.091h-34.7a3.091,3.091,0,0,0-3.091,3.091v36.7a3.091,3.091,0,0,0,3.091,3.091h34.7a3.091,3.091,0,0,1-3.091-3.091Z" fill="#47a920"/>
  </g>
</svg>
