<svg xmlns="http://www.w3.org/2000/svg" width="467.945" height="467.999" viewBox="0 0 467.945 467.999">
  <g id="Group_39228" data-name="Group 39228" transform="translate(-0.027 -0.001)">
    <path id="Path_6438" data-name="Path 6438" d="M14.146,51.954H453.853V322.86H14.146Z" fill="#f5f5f5"/>
    <path id="Path_6439" data-name="Path 6439" d="M26.248,51.954h-12.1V322.86H453.853v-12.1H127.1a100.85,100.85,0,0,1-100.85-100.85V51.954Z" fill="#e5e5e5"/>
    <path id="Path_6440" data-name="Path 6440" d="M160.715,323.813a2,2,0,0,1-2-2V50.906a2,2,0,0,1,4,0V321.812A2,2,0,0,1,160.715,323.813Zm146.57,0a2,2,0,0,1-2-2V50.906a2,2,0,0,1,4,0V321.812A2,2,0,0,1,307.285,323.813Z" fill="#e5e5e5"/>
    <path id="Path_6441" data-name="Path 6441" d="M118.839,178.487l.843-2.279a176.32,176.32,0,0,0,9.626-82.689H45.554l0,.029a176.33,176.33,0,0,1-9.6,82.64l-.872,2.362Z" fill="#fcc927"/>
    <path id="Path_6442" data-name="Path 6442" d="M88.171,166.411a30.2,30.2,0,0,1-30.126-33.189,176.294,176.294,0,0,0-.385-39.676l0-.029h-12.1l0,.029a176.32,176.32,0,0,1-6.325,72.9c-1.223,4.054-2.658,8.134-4.148,12.1l83.754-.062.843-2.279c1.2-3.244,2.289-6.52,3.293-9.819Z" fill="#fcaa1a"/>
    <path id="Path_6443" data-name="Path 6443" d="M95.967,138.033H59.661a2,2,0,0,1,0-4H95.967a2,2,0,0,1,0,4Zm21.178-25.212H60.669a2,2,0,0,1,0-4h56.476a2,2,0,0,1,0,4Zm-6.051,50.425H54.618a2,2,0,0,1,0-4h56.476a2,2,0,0,1,0,4Z" fill="#fff"/>
    <path id="Path_6444" data-name="Path 6444" d="M118.707,298.5l.843-2.279a176.32,176.32,0,0,0,9.626-82.689H45.422l0,.029a176.33,176.33,0,0,1-9.6,82.64l-.872,2.362Z" fill="#99d100"/>
    <path id="Path_6445" data-name="Path 6445" d="M88.171,286.423a30.2,30.2,0,0,1-30.126-33.189,176.293,176.293,0,0,0-.385-39.676l0-.029h-12.1l0,.029a176.32,176.32,0,0,1-6.325,72.9c-1.223,4.054-2.658,8.134-4.148,12.105l83.754-.062.843-2.279c1.2-3.244,2.289-6.52,3.293-9.819Z" fill="#6ca42e"/>
    <path id="Path_6446" data-name="Path 6446" d="M95.967,257.037H59.661a2,2,0,0,1,0-4H95.967a2,2,0,0,1,0,4Zm21.178-25.213H60.669a2,2,0,0,1,0-4h56.476a2,2,0,1,1,0,4Z" fill="#fff"/>
    <path id="Path_6447" data-name="Path 6447" d="M265.408,298.5l.843-2.279a176.319,176.319,0,0,0,9.626-82.689H192.123l0,.029a176.33,176.33,0,0,1-9.6,82.64l-.872,2.362Z" fill="#fcc927"/>
    <path id="Path_6448" data-name="Path 6448" d="M234.74,286.423a30.2,30.2,0,0,1-30.126-33.189,176.293,176.293,0,0,0-.385-39.676l0-.029h-12.1l0,.029a176.323,176.323,0,0,1-6.337,72.935c-1.219,4.041-2.65,8.108-4.136,12.066l83.754-.062.843-2.279c1.2-3.244,2.289-6.52,3.293-9.819Z" fill="#fcaa1a"/>
    <ellipse id="Ellipse_45" data-name="Ellipse 45" cx="4.68" cy="5.129" rx="4.68" ry="5.129" transform="translate(219.205 229.243)" fill="#001445"/>
    <ellipse id="Ellipse_46" data-name="Ellipse 46" cx="4.68" cy="5.129" rx="4.68" ry="5.129" transform="translate(250.455 229.243)" fill="#001445"/>
    <ellipse id="Ellipse_47" data-name="Ellipse 47" cx="4.504" cy="3.089" rx="4.504" ry="3.089" transform="translate(217.69 244.783)" fill="#fff"/>
    <ellipse id="Ellipse_48" data-name="Ellipse 48" cx="4.504" cy="3.089" rx="4.504" ry="3.089" transform="translate(252.323 244.783)" fill="#fff"/>
    <path id="Path_6449" data-name="Path 6449" d="M239.51,254.439a8.436,8.436,0,0,1-8.438-8.415v-1.538a2,2,0,0,1,4,0v1.538a4.438,4.438,0,0,0,8.876,0v-1.538a2,2,0,0,1,4,0v1.538A8.435,8.435,0,0,1,239.51,254.439Z" fill="#001445"/>
    <path id="Path_6450" data-name="Path 6450" d="M257.663,283.55H211.272a2,2,0,1,1,0-4h46.391a2,2,0,0,1,0,4Z" fill="#fff"/>
    <path id="Path_6451" data-name="Path 6451" d="M412.181,298.5l.843-2.279a176.32,176.32,0,0,0,9.626-82.689H338.9l0,.029a176.33,176.33,0,0,1-9.6,82.64l-.872,2.362Z" fill="#ff5a96"/>
    <path id="Path_6452" data-name="Path 6452" d="M381.513,286.423a30.2,30.2,0,0,1-30.126-33.189A176.294,176.294,0,0,0,351,213.558l0-.029H338.9l0,.029a176.323,176.323,0,0,1-6.337,72.935c-1.219,4.041-2.65,8.108-4.136,12.066l83.754-.062.843-2.279c1.2-3.244,2.289-6.52,3.293-9.819Z" fill="#ff2488"/>
    <path id="Path_6453" data-name="Path 6453" d="M389.105,258.337H352.8a2,2,0,1,1,0-4h36.306a2,2,0,1,1,0,4Zm21.178-25.213H353.807a2,2,0,0,1,0-4h56.476a2,2,0,0,1,0,4Zm-6.051,50.426H347.756a2,2,0,0,1,0-4h56.476a2,2,0,0,1,0,4Z" fill="#fff"/>
    <path id="Path_6454" data-name="Path 6454" d="M265.948,178.487l.843-2.279a176.32,176.32,0,0,0,9.626-82.689H192.663l0,.029a176.33,176.33,0,0,1-9.6,82.64l-.872,2.362Z" fill="#ff5a96"/>
    <path id="Path_6455" data-name="Path 6455" d="M235.28,166.411a30.2,30.2,0,0,1-30.126-33.189,176.293,176.293,0,0,0-.385-39.676l0-.029h-12.1l0,.029a176.323,176.323,0,0,1-6.337,72.935c-1.219,4.041-2.65,8.108-4.136,12.066l83.754-.062.843-2.279c1.2-3.244,2.289-6.52,3.293-9.819Z" fill="#ff2488"/>
    <path id="Path_6456" data-name="Path 6456" d="M243.077,138.033H206.771a2,2,0,0,1,0-4h36.306a2,2,0,0,1,0,4Zm21.178-25.212H207.779a2,2,0,0,1,0-4h56.476a2,2,0,0,1,0,4Zm-36.306,50.425H201.728a2,2,0,0,1,0-4h26.221a2,2,0,0,1,0,4Z" fill="#fff"/>
    <path id="Path_6457" data-name="Path 6457" d="M412.181,178.487l.843-2.279a176.321,176.321,0,0,0,9.626-82.689H338.9l0,.029a176.33,176.33,0,0,1-9.6,82.64l-.872,2.362Z" fill="#99d100"/>
    <path id="Path_6458" data-name="Path 6458" d="M381.513,166.411a30.2,30.2,0,0,1-30.126-33.189A176.3,176.3,0,0,0,351,93.546l0-.029H338.9l0,.029a176.323,176.323,0,0,1-6.337,72.935c-1.219,4.041-2.65,8.108-4.136,12.066l83.754-.062.843-2.279c1.2-3.244,2.289-6.52,3.293-9.819Z" fill="#6ca42e"/>
    <path id="Path_6459" data-name="Path 6459" d="M389.31,138.033H353a2,2,0,0,1,0-4H389.31a2,2,0,0,1,0,4Zm5.042,25.213H347.961a2,2,0,0,1,0-4h46.391a2,2,0,0,1,0,4Z" fill="#fff"/>
    <path id="Path_6460" data-name="Path 6460" d="M.027,29.446H467.972V68.033H.027Z" fill="#7676ff"/>
    <path id="Path_6461" data-name="Path 6461" d="M12.129,29.446H.027V68.033H467.972v-12.1H32.3a20.169,20.169,0,0,1-20.17-20.17Z" fill="#5a5aff"/>
    <ellipse id="Ellipse_49" data-name="Ellipse 49" cx="60.51" cy="17.145" rx="60.51" ry="17.145" transform="translate(341.219 431.38)" fill="#7676ff"/>
    <path id="Path_6462" data-name="Path 6462" d="M437.9,352.417a11.632,11.632,0,0,0-11.484,11.623V353.655a12.341,12.341,0,0,0-24.681-.177l.006-7.445a11.479,11.479,0,1,0-22.952.028l.019-42.824a11.992,11.992,0,1,0-23.984-.016l-.051,71.526-7.213-6.563a21.724,21.724,0,0,0-16.549-5.613,11.326,11.326,0,0,0-10.345,12.671c.433,3.044,2.149,6.2,6.461,8.617A65.5,65.5,0,0,1,357.96,422.2c4.331,14.49,20,26.335,34.821,26.322l17.287,0A40.341,40.341,0,0,0,450.4,408.2l.017-42.976a12.644,12.644,0,0,0-12.515-12.8Z" fill="#ffc5b7"/>
    <path id="Path_6463" data-name="Path 6463" d="M400.852,440.457c-14.82.013-30.49-11.832-34.821-26.322A65.506,65.506,0,0,0,335.2,375.791c-4.312-2.418-6.028-5.573-6.461-8.617a10.708,10.708,0,0,1,.252-4.229,11.259,11.259,0,0,0-8.32,12.3c.433,3.044,2.149,6.2,6.461,8.617A65.5,65.5,0,0,1,357.963,422.2c4.331,14.49,20,26.335,34.821,26.322l17.287,0a40.278,40.278,0,0,0,32.264-16.136,40.162,40.162,0,0,1-24.2,8.068ZM378.77,375.1h0a2,2,0,0,1-2-2l.022-27.042a2,2,0,0,1,2-2h0a2,2,0,0,1,2,2L380.77,373.1a2,2,0,0,1-2,2Zm22.959,3.58a2,2,0,0,1-2-1.956l-.01-.468.01-24.681a2,2,0,0,1,2-2h0a2,2,0,0,1,2,2l-.01,24.636.01.423a2,2,0,0,1-2,2.044Zm24.668,5.651h0a2,2,0,0,1-2-2l.015-18.165a2,2,0,0,1,2-2h0a2,2,0,0,1,2,2v0l-.015,18.164a2,2,0,0,1-2,2Z" fill="#ffa099"/>
    <path id="Path_6464" data-name="Path 6464" d="M261.009,83.022c7.741-.708,13.59,2.512,17.857,6.747a16.936,16.936,0,0,1-1.277,25.118,14.69,14.69,0,0,1-18.5.086l-16.054-12.907a18.611,18.611,0,0,1-.934-28.23l22.284-20.481a17.068,17.068,0,0,1,16.462-3.771L328.769,64a34.16,34.16,0,0,0,19.161.151l11.729-3.327,9.551,40.106s-14.275,7.072-18.4,11.835-19.768,14.015-46.084,7.71l-24.2,10.657" fill="#ffc5b7"/>
    <path id="Path_6465" data-name="Path 6465" d="M258.1,141.116,329.8,17.373A11.577,11.577,0,0,0,309.775,5.741L238.028,129.575l-.591,24.114Z" fill="#0dccff"/>
    <path id="Path_6466" data-name="Path 6466" d="M318.851,5.74a11.436,11.436,0,0,1,5.442-4.8,11.531,11.531,0,0,0-14.518,4.8L238.028,129.574l-.591,24.114,9.214-5.606.454-18.508Z" fill="#0db9d6"/>
    <path id="Path_6467" data-name="Path 6467" d="M294.465,89.663l-28.231,13a15.907,15.907,0,0,0,13.139,28.973l25.35-11.163c28.519,6.09,41.914-3.072,47.325-8.985a33.171,33.171,0,0,1,11.12-7.892l6.042-2.667-9.551-40.106L347.93,64.152A34.16,34.16,0,0,1,328.769,64l-6-1.8-16.133-4.854" fill="#ffc5b7"/>
    <path id="Path_6468" data-name="Path 6468" d="M280.849,49.584a17.069,17.069,0,0,0-16.462,3.771L242.1,73.837a18.577,18.577,0,0,0-5.324,18.726,18.525,18.525,0,0,1,5.324-8.64l22.284-20.482a17.06,17.06,0,0,1,14.419-4.247l5.044-8.706Zm78.811,11.24-11.73,3.327A34.16,34.16,0,0,1,328.769,64l-22.131-6.658-4.976,8.588,27.107,8.155a34.16,34.16,0,0,0,19.161.151l11.73-3.327,7.41,31.119c1.31-.687,2.14-1.1,2.14-1.1Z" fill="#ffa099"/>
    <path id="Path_6469" data-name="Path 6469" d="M467.973,15.141,367.187,44.57l20.954,68.318,79.832-23.156Z" fill="#ff5a96"/>
    <path id="Path_6470" data-name="Path 6470" d="M467.973,15.141,367.187,44.57l3.146,10.256,48.82-14.255a30.254,30.254,0,0,1,38.735,29.042V92.657l10.085-2.925Z" fill="#ff2488"/>
    <path id="Path_6471" data-name="Path 6471" d="M350.619,56.754l18.638-5.679,16.952,55.267-18.622,5.674Z" fill="#f5f5f5"/>
    <path id="Path_6472" data-name="Path 6472" d="M380.307,108.14l5.9-1.8L369.257,51.074l-18.638,5.68,1.9,6.2,3.185-.971a10,10,0,0,1,12.475,6.633Z" fill="#e5e5e5"/>
    <path id="Path_6473" data-name="Path 6473" d="M392.212,69.258a9.329,9.329,0,1,1,10.574-7.94A9.33,9.33,0,0,1,392.212,69.258Z" fill="#fff"/>
    <path id="Path_6474" data-name="Path 6474" d="M394.82,56.785a9.34,9.34,0,0,1,7.553,6.24,9.359,9.359,0,1,0-17.716-.006,9.367,9.367,0,0,1,10.163-6.234Z" fill="#e5e5e5"/>
    <path id="Path_6475" data-name="Path 6475" d="M150.464,271.223c-3.313,7.032-2.288,13.629.232,19.088a16.936,16.936,0,0,0,24.04,7.391,14.69,14.69,0,0,0,6.408-17.354l-6.637-19.5A18.61,18.61,0,0,0,148.3,250.315L121.431,264.25a17.068,17.068,0,0,0-9.174,14.179l-2.842,49.962A34.158,34.158,0,0,1,103,346.448l-7.138,9.884,34.421,22.691s11.528-11,17.415-13.245S167.633,352,170.709,325.11L189,306.014" fill="#ffc5b7"/>
    <path id="Path_6476" data-name="Path 6476" d="M150.464,271.223c-3.313,7.032-2.288,13.629.232,19.088a16.936,16.936,0,0,0,24.04,7.391,14.69,14.69,0,0,0,6.408-17.354l-6.637-19.5A18.61,18.61,0,0,0,148.3,250.315L121.431,264.25a17.068,17.068,0,0,0-9.174,14.179l-2.842,49.962A34.158,34.158,0,0,1,103,346.448l-7.138,9.884" fill="#ffc5b7"/>
    <path id="Path_6477" data-name="Path 6477" d="M130.907,267.7a17.068,17.068,0,0,0-9.174,14.179L118.89,331.84a34.158,34.158,0,0,1-6.411,18.057l-7.138,9.884,26.708,17.607c-1.093,1-1.764,1.635-1.764,1.635L95.864,356.332,103,346.448a34.155,34.155,0,0,0,6.411-18.057l2.843-49.962a17.066,17.066,0,0,1,9.174-14.179L148.3,250.315a18.576,18.576,0,0,1,19.417,1.4,18.518,18.518,0,0,0-9.94,2.048Z" fill="#ffa099"/>
    <path id="Path_6478" data-name="Path 6478" d="M206.049,288.36l-140.8,25.048a11.578,11.578,0,0,1-4.084-22.792l140.9-25.066,22.862,7.692Z" fill="#7676ff"/>
    <path id="Path_6479" data-name="Path 6479" d="M58.059,299.145a11.44,11.44,0,0,0-6.372,3.472,11.532,11.532,0,0,1,9.476-12l140.9-25.066,22.862,7.692-8.419,6.741-17.547-5.9Z" fill="#5a5aff"/>
    <path id="Path_6480" data-name="Path 6480" d="M145.262,304.933l21.873-22.081a15.907,15.907,0,0,1,22.731,22.257l-19.16,20c-4.031,28.882-17.222,38.336-24.629,41.4a33.186,33.186,0,0,0-11.22,7.75l-4.573,4.765L95.863,356.334" fill="#ffc5b7"/>
    <path id="Path_6481" data-name="Path 6481" d="M112.48,349.9a34.155,34.155,0,0,0,6.411-18.057l.476-8.363h-9.673l-.279,4.914A34.167,34.167,0,0,1,103,346.448l-7.139,9.884,34.421,22.691s.67-.639,1.764-1.635l-26.708-17.607Z" fill="#ffa099"/>
    <path id="Path_6482" data-name="Path 6482" d="M95.132,346.445,83.42,362.016l46.137,34.832,11.7-15.558Z" fill="#f5f5f5"/>
    <path id="Path_6483" data-name="Path 6483" d="M101.029,350.9l-5.9-4.455L83.42,362.016l46.136,34.832,4.1-5.453-32.271-24.364a10,10,0,0,1-1.966-13.992Z" fill="#e5e5e5"/>
    <path id="Path_6484" data-name="Path 6484" d="M15.891,442.488l62.125-84.642L135.047,400.9,85.983,468Z" fill="#0dccff"/>
    <path id="Path_6485" data-name="Path 6485" d="M85.368,363.4l-7.352-5.551L15.891,442.488,85.983,468l6.092-8.331-23.138-8.421a30.256,30.256,0,0,1-14.043-46.332Z" fill="#0db9d6"/>
    <path id="Path_6486" data-name="Path 6486" d="M92.656,389.806a9.328,9.328,0,1,0-11.077,7.221,9.33,9.33,0,0,0,11.077-7.221Z" fill="#fff"/>
    <path id="Path_6487" data-name="Path 6487" d="M81.4,385.938a9.373,9.373,0,0,1,5.636-6.736,9.359,9.359,0,1,0-.022,17.339,9.332,9.332,0,0,1-5.614-10.6Z" fill="#e5e5e5"/>
    <path id="Path_6488" data-name="Path 6488" d="M253.516,419.119l16.372-23.255h21.829l-16.372,23.255,16.372,23.255H269.888Z" fill="#99d100"/>
    <path id="Path_6489" data-name="Path 6489" d="M209.857,419.119l16.372-23.255h21.829l-16.372,23.255,16.372,23.255H226.229Z" fill="#ff5a96"/>
    <path id="Path_6490" data-name="Path 6490" d="M166.2,419.119l16.372-23.255H204.4l-16.372,23.255L204.4,442.374H182.57Z" fill="#99d100"/>
  </g>
</svg>
