<svg xmlns="http://www.w3.org/2000/svg" width="512" height="512" viewBox="0 0 512 512">
  <g id="task" transform="translate(-20681.17 -17260)">
    <g id="Group_9700" data-name="Group 9700" transform="translate(20149 16196)">
      <path id="Path_6286" data-name="Path 6286" d="M940.58,1125.87H922.57v-14.93a14.93,14.93,0,1,0-29.86,0v14.93h-89.6v-14.93a14.93,14.93,0,1,0-29.86,0v14.93h-89.6v-14.93a14.93,14.93,0,1,0-29.86,0v14.93H635.78a56.753,56.753,0,0,0-56.66,56.66v304.82a56.753,56.753,0,0,0,56.66,56.66H940.6a56.753,56.753,0,0,0,56.66-56.66V1182.53a56.753,56.753,0,0,0-56.66-56.66Zm26.79,361.48a26.875,26.875,0,0,1-26.79,26.79H635.76a26.875,26.875,0,0,1-26.79-26.79V1182.53a26.875,26.875,0,0,1,26.79-26.79h18.01v14.93a14.93,14.93,0,1,0,29.86,0v-14.93h89.6v14.93a14.93,14.93,0,1,0,29.86,0v-14.93h89.6v14.93a14.93,14.93,0,1,0,29.86,0v-14.93h18.01a26.875,26.875,0,0,1,26.79,26.79v304.82Z"/>
      <path id="Path_6287" data-name="Path 6287" d="M732.81,1249.71l-34.24,34.24-19.31-19.31a14.936,14.936,0,0,0-21.49,20.75c.12.12.24.25.37.37l29.87,29.87a14.938,14.938,0,0,0,21.12,0l44.8-44.8a14.936,14.936,0,0,0-21.12-21.12h0Zm174.82,25.49H803.1a14.93,14.93,0,0,0,0,29.86H907.63a14.93,14.93,0,0,0,0-29.86ZM732.81,1384.11l-34.24,34.24-19.31-19.31a14.936,14.936,0,0,0-21.49,20.75c.12.12.24.25.37.37l29.87,29.87a14.938,14.938,0,0,0,21.12,0l44.8-44.8a14.936,14.936,0,0,0-21.12-21.12h0Zm174.82,25.49H803.1a14.93,14.93,0,0,0,0,29.86H907.63a14.93,14.93,0,0,0,0-29.86Z"/>
    </g>
    <rect id="Rectangle_4138" data-name="Rectangle 4138" width="512" height="512" transform="translate(20681.17 17260)" fill="none"/>
  </g>
</svg>
