<svg xmlns="http://www.w3.org/2000/svg" width="512" height="490.003" viewBox="0 0 512 490.003">
  <g id="taskempty" transform="translate(-17045 13605)">
    <g id="Group_9756" data-name="Group 9756" transform="translate(17045 -13605)">
      <g id="Group_9755" data-name="Group 9755">
        <path id="Path_6446" data-name="Path 6446" d="M245.031,0C109.7,0,0,109.691,0,245a244.047,244.047,0,0,0,21.081,99.535l155.6,135.793A245.156,245.156,0,0,0,245.035,490c135.326,0,245.031-109.691,245.031-245S380.362,0,245.031,0Zm0,0" fill="#4070ea"/>
        <path id="Path_6447" data-name="Path 6447" d="M384.765,465.827v-108.3a14.607,14.607,0,0,0-14.61-14.606H99.242a14.607,14.607,0,0,1,14.607,14.606v94.155a243.075,243.075,0,0,0,64.3,28.753H370.155a14.607,14.607,0,0,0,14.61-14.606Zm0,0" transform="translate(0.361 0.421)" fill="#e6fcff"/>
        <path id="Path_6448" data-name="Path 6448" d="M170.1,465.827v-108.3a14.608,14.608,0,0,1,14.611-14.606H99.243a14.607,14.607,0,0,1,14.606,14.606v94.155a243.075,243.075,0,0,0,64.3,28.753h6.563a14.607,14.607,0,0,1-14.61-14.606Zm0,0" transform="translate(0.057 0.421)" fill="#ccebff"/>
        <path id="Path_6449" data-name="Path 6449" d="M149.957,406.332a8.022,8.022,0,0,1-.016-16.044l164.341-.28h.016a8.022,8.022,0,0,1,.019,16.044l-164.34.279h-.02Zm.079,33.961a8.022,8.022,0,0,1-.016-16.044l134.484-.21h.02a8.022,8.022,0,0,1,.015,16.044l-134.483.209Zm0,0" transform="translate(0.222 0.286)" fill="#b8dff4"/>
        <path id="Path_6450" data-name="Path 6450" d="M433.366,176.047H162.449a14.61,14.61,0,0,1,14.611,14.606v108.3a14.612,14.612,0,0,1-14.611,14.61H433.366a14.607,14.607,0,0,0,14.606-14.61v-108.3A14.607,14.607,0,0,0,433.366,176.047Zm0,0" transform="translate(1.001 0.197)" fill="#e6fcff"/>
        <path id="Path_6451" data-name="Path 6451" d="M233.308,298.952v-108.3a14.606,14.606,0,0,1,14.606-14.606H162.45a14.609,14.609,0,0,1,14.61,14.606v108.3a14.61,14.61,0,0,1-14.611,14.606h85.465A14.6,14.6,0,0,1,233.308,298.952Zm0,0" transform="translate(0.093 0.197)" fill="#ccebff"/>
        <path id="Path_6452" data-name="Path 6452" d="M212.786,239.316a8.022,8.022,0,0,1-.016-16.044l176.516-.307h.02a8.022,8.022,0,1,1,.016,16.044l-176.517.307h-.02ZM347.313,273.1H212.829a8.022,8.022,0,1,1,0-16.044H347.312a8.022,8.022,0,0,1,0,16.044Zm0,0" transform="translate(0.355 0.073)" fill="#b8dff4"/>
        <path id="Path_6453" data-name="Path 6453" d="M496.573,9.176H225.656a14.608,14.608,0,0,1,14.611,14.606v108.3a14.611,14.611,0,0,1-14.611,14.61H496.573a14.61,14.61,0,0,0,14.606-14.61V23.782A14.606,14.606,0,0,0,496.573,9.176Zm0,0" transform="translate(0.82 -0.026)" fill="#e6fcff"/>
        <path id="Path_6454" data-name="Path 6454" d="M296.515,132.081V23.782A14.606,14.606,0,0,1,311.121,9.176H225.657a14.609,14.609,0,0,1,14.61,14.606v108.3a14.613,14.613,0,0,1-14.611,14.61h85.465a14.612,14.612,0,0,1-14.606-14.61Zm0,0" transform="translate(0.13 -0.026)" fill="#ccebff"/>
        <path id="Path_6455" data-name="Path 6455" d="M243.121,132.081V23.782A14.606,14.606,0,0,0,228.515,9.176H117.774a14.607,14.607,0,0,0-14.61,14.606v108.3a14.613,14.613,0,0,0,14.61,14.61H228.515a14.61,14.61,0,0,0,14.606-14.61Zm0,0" transform="translate(0.112 -0.026)" fill="#ffe600"/>
        <path id="Path_6456" data-name="Path 6456" d="M164.71,134.079a13.813,13.813,0,0,1,12.344-13.735V35.654a13.813,13.813,0,0,1-3.86-26.478H117.77a14.606,14.606,0,0,0-14.606,14.606v108.3a14.61,14.61,0,0,0,14.607,14.61H172.9a13.812,13.812,0,0,1-8.191-12.613Zm0,0" transform="translate(0.05 -0.026)" fill="#f9ce00"/>
        <path id="Path_6457" data-name="Path 6457" d="M211.164,34.738H134.638a5,5,0,0,0-5,5.006v76.522a5,5,0,0,0,5,5.006h76.526a5,5,0,0,0,5-5V39.744A5,5,0,0,0,211.164,34.738Zm0,0" transform="translate(0.076 -0.1)" fill="#f9ce00"/>
        <path id="Path_6458" data-name="Path 6458" d="M168.42,116.266V39.744a5,5,0,0,1,5.006-5.006H134.638a5,5,0,0,0-5,5.006v76.522a5,5,0,0,0,5,5.006h38.788a5,5,0,0,1-5.006-5.006Zm0,0" transform="translate(0.035 -0.1)" fill="#f4b500"/>
        <path id="Path_6459" data-name="Path 6459" d="M275.617,72.3a8.022,8.022,0,0,1-.019-16.044L477.1,55.9h.016a8.022,8.022,0,0,1,.023,16.044l-201.5.363Zm134.9,33.918H276.035a8.022,8.022,0,0,1,0-16.044H410.518a8.022,8.022,0,0,1,0,16.044Zm0,0" transform="translate(0.7 -0.16)" fill="#b8dff4"/>
        <path id="Path_6460" data-name="Path 6460" d="M162.639,94.338,150.747,82.446A8.023,8.023,0,1,1,162.094,71.1l6.22,6.222,15.505-15.507a8.024,8.024,0,1,1,11.347,11.347L173.989,94.337a8.031,8.031,0,0,1-11.35,0Zm0,0" transform="translate(0.045 -0.17)" fill="#e6fcff"/>
        <path id="Path_6461" data-name="Path 6461" d="M179.914,298.952v-108.3a14.606,14.606,0,0,0-14.606-14.606H54.563a14.606,14.606,0,0,0-14.606,14.606v108.3a14.608,14.608,0,0,0,14.606,14.61H165.308A14.612,14.612,0,0,0,179.914,298.952Zm0,0" transform="translate(-0.115 0.197)" fill="#a5c013"/>
        <path id="Path_6462" data-name="Path 6462" d="M101.5,300.95a13.816,13.816,0,0,1,12.344-13.734v-84.69a13.813,13.813,0,0,1-3.861-26.479H54.563a14.606,14.606,0,0,0-14.606,14.606v108.3a14.608,14.608,0,0,0,14.606,14.61h55.128A13.815,13.815,0,0,1,101.5,300.95Zm0,0" transform="translate(-0.115 0.197)" fill="#8dae16"/>
        <path id="Path_6463" data-name="Path 6463" d="M147.957,201.613H71.431a5,5,0,0,0-5,5v76.523a5,5,0,0,0,5,5.006h76.523a5,5,0,0,0,5-5.007v-76.52a5,5,0,0,0-5-5Zm0,0" transform="translate(-0.19 0.124)" fill="#8dae16"/>
        <path id="Path_6464" data-name="Path 6464" d="M105.213,283.137V206.616a5,5,0,0,1,5-5H71.431a5,5,0,0,0-5,5v76.523a5,5,0,0,0,5,5.006h38.784a5,5,0,0,1-5-5Zm0,0" transform="translate(-0.19 0.124)" fill="#749c18"/>
        <path id="Path_6465" data-name="Path 6465" d="M99.432,261.209,87.54,249.317A8.023,8.023,0,1,1,98.887,237.97l6.216,6.222,15.505-15.507a8.024,8.024,0,0,1,11.347,11.347l-21.177,21.177a8.026,8.026,0,0,1-11.347,0Zm0,0" transform="translate(0.026 0.053)" fill="#e6fcff"/>
        <path id="Path_6466" data-name="Path 6466" d="M102.225,342.918H20.372a245.273,245.273,0,0,0,96.461,110.768V357.528a14.607,14.607,0,0,0-14.606-14.61Zm0,0" transform="translate(-0.058 0.421)" fill="#fe4675"/>
        <path id="Path_6467" data-name="Path 6467" d="M84.832,368.484H33.367a245.492,245.492,0,0,0,56.471,66.06V373.486a5,5,0,0,0-5-5Zm0,0" transform="translate(-0.096 0.348)" fill="#ec3969"/>
      </g>
    </g>
  </g>
</svg>
