<svg id="Layer_1" data-name="Layer 1" xmlns="http://www.w3.org/2000/svg" viewBox="0 0 50 50"><defs><style>.cls-1{fill:#ddf5ff;}.cls-2{fill:#c1e9f4;}.cls-3{fill:#ffda88;}.cls-4{fill:#ffcd69;}.cls-5{fill:#abde97;}.cls-6{fill:#82cd64;}.cls-7{fill:#6dc54a;}.cls-8{fill:#5db33a;}.cls-9{fill:#e5646e;}.cls-10{fill:#e04955;}</style></defs><path class="cls-1" d="M10.65,1.93H45.16V48.07H10.65Z"/><path class="cls-2" d="M42.73,1.93V20.11a.94.94,0,0,1-1.47.78,8.37,8.37,0,0,0-4.82-1.52A8.45,8.45,0,0,0,28,27.81V28a.93.93,0,0,1-.93,1H10.65V48.07H37.29V37A.93.93,0,0,1,38,36.1a8.33,8.33,0,0,0,3.21-1.35.94.94,0,0,1,1.48.76V48.07h2.43V1.93Z"/><path class="cls-3" d="M27.91,5.87H18.34a1.87,1.87,0,0,0-1.87,1.87V16a1.87,1.87,0,0,0,1.87,1.87H37.47A1.88,1.88,0,0,0,39.35,16V7.74a1.88,1.88,0,0,0-1.88-1.87Z"/><path class="cls-4" d="M37.47,5.87H35.69a1.88,1.88,0,0,1,1.88,1.87V16a1.88,1.88,0,0,1-1.88,1.87h1.78A1.88,1.88,0,0,0,39.35,16V7.74A1.88,1.88,0,0,0,37.47,5.87Z"/><path class="cls-5" d="M4.84,30.81V48.07H35.41V30.81Z"/><path class="cls-6" d="M33.82,30.81V48.07h1.59V30.81Z"/><path class="cls-7" d="M20.12,45.16h-10a2.23,2.23,0,0,0-2.24-2.23V36.05a2.23,2.23,0,0,0,2.24-2.23H30.08a2.23,2.23,0,0,0,2.24,2.23v6.88a2.23,2.23,0,0,0-2.24,2.23Z"/><path class="cls-8" d="M30.08,33.82h-1v.28A3.17,3.17,0,0,0,31,37l.11,0v4.84a3.55,3.55,0,0,0-2,2H9.79a2.21,2.21,0,0,1,.38,1.24H30.08a2.23,2.23,0,0,1,2.24-2.23V36.05A2.23,2.23,0,0,1,30.08,33.82Z"/><path class="cls-9" d="M43,27.81a6.57,6.57,0,1,1-6.57-6.56A6.57,6.57,0,0,1,43,27.81Z"/><path class="cls-10" d="M40.43,22.6a6.57,6.57,0,0,1-9.2,9.21,6.57,6.57,0,1,0,9.2-9.21Z"/><path d="M45.16,10.74a.7.7,0,0,0,.71-.7V1.93a.7.7,0,0,0-.71-.7H10.65a.7.7,0,0,0-.7.7V30.11H4.84a.71.71,0,0,0-.71.7v6.44a.7.7,0,0,0,.71.7.7.7,0,0,0,.7-.7V31.52H30.19a7.28,7.28,0,0,0,4.52,3.35v12.5H5.54V40.51a.7.7,0,0,0-.7-.7.71.71,0,0,0-.71.7v7.56a.7.7,0,0,0,.71.7H45.16a.7.7,0,0,0,.71-.7V13.34a.71.71,0,1,0-1.41,0v34H36.11V35.07h.33a7.29,7.29,0,1,0-6.89-5H11.35V2.63H44.46V10A.7.7,0,0,0,45.16,10.74ZM36.44,22a5.86,5.86,0,1,1-5.86,5.86A5.87,5.87,0,0,1,36.44,22Z"/><path d="M21.25,15.67A.7.7,0,0,0,22,15V9.48h1.17a.71.71,0,1,0,0-1.41H19.37a.71.71,0,0,0,0,1.41h1.18V15A.7.7,0,0,0,21.25,15.67Z"/><path d="M29.78,15.67a.71.71,0,0,0,.71-.7V9.71a1.65,1.65,0,0,0-1.64-1.64H27a1.64,1.64,0,0,0-1.64,1.64V15a.7.7,0,0,0,1.4,0v-2.4h2.35V15A.7.7,0,0,0,29.78,15.67Zm-3.05-4.5V9.71A.23.23,0,0,1,27,9.48h1.88a.23.23,0,0,1,.23.23v1.46Z"/><path d="M32.33,15.57a.68.68,0,0,0,.36.1.69.69,0,0,0,.6-.34l1.28-2.1,1.27,2.1a.69.69,0,0,0,.6.34A.7.7,0,0,0,37,14.6l-1.65-2.73L37,9.14a.7.7,0,1,0-1.2-.73l-1.27,2.1-1.28-2.1a.7.7,0,1,0-1.2.73l1.65,2.73L32.09,14.6A.7.7,0,0,0,32.33,15.57Z"/><path d="M40.05,16V7.74a2.58,2.58,0,0,0-2.58-2.58H24.1a.7.7,0,0,0-.7.71.7.7,0,0,0,.7.7H37.47a1.18,1.18,0,0,1,1.18,1.17V16a1.18,1.18,0,0,1-1.18,1.17H18.34A1.18,1.18,0,0,1,17.17,16V7.74a1.18,1.18,0,0,1,1.17-1.17H20.8a.7.7,0,0,0,.71-.7.71.71,0,0,0-.71-.71H18.34a2.59,2.59,0,0,0-2.58,2.58V16a2.59,2.59,0,0,0,2.58,2.58H37.47A2.58,2.58,0,0,0,40.05,16Z"/><path d="M9.47,45.16a.7.7,0,0,0,.7.71H30.08a.7.7,0,0,0,.7-.71,1.54,1.54,0,0,1,1.54-1.53.71.71,0,0,0,.7-.7V36.05a.7.7,0,0,0-.7-.7,1.54,1.54,0,0,1-1.54-1.53.7.7,0,0,0-.7-.71H10.17a.7.7,0,0,0-.7.71,1.54,1.54,0,0,1-1.54,1.53.7.7,0,0,0-.7.7v6.88a.7.7,0,0,0,.7.7A1.54,1.54,0,0,1,9.47,45.16Zm-.84-8.49a3,3,0,0,0,2.16-2.15H29.46a2.94,2.94,0,0,0,2.15,2.15v5.64a2.94,2.94,0,0,0-2.15,2.15H10.79a3,3,0,0,0-2.16-2.15Z"/><path d="M26.46,40.19h2.36a.71.71,0,0,0,.71-.71.7.7,0,0,0-.71-.7H26.46a.7.7,0,0,0-.7.7A.7.7,0,0,0,26.46,40.19Z"/><path d="M16.18,40.19h.5a3.52,3.52,0,0,0,6.89,0h.49a.71.71,0,0,0,.7-.71.7.7,0,0,0-.7-.7h-.49a3.52,3.52,0,0,0-6.89,0h-.5a.7.7,0,0,0-.7.7A.7.7,0,0,0,16.18,40.19Zm3.94-2.82A2.11,2.11,0,1,1,18,39.48,2.11,2.11,0,0,1,20.12,37.37Z"/><path d="M11.42,40.19h2.36a.71.71,0,0,0,.71-.71.7.7,0,0,0-.71-.7H11.42a.7.7,0,0,0-.7.7A.71.71,0,0,0,11.42,40.19Z"/><path d="M34.5,27.4A1.48,1.48,0,0,0,36,25.92v-.68a1.48,1.48,0,1,0-3,0v.68A1.48,1.48,0,0,0,34.5,27.4Z"/><path d="M36.9,29.71v.68a1.48,1.48,0,1,0,3,0v-.68a1.48,1.48,0,1,0-3,0Z"/><path d="M34.37,31.79a.72.72,0,0,0,.32.08.71.71,0,0,0,.63-.38l3.49-6.7a.7.7,0,1,0-1.24-.65l-3.5,6.7A.7.7,0,0,0,34.37,31.79Z"/><path d="M29.17,21.62a.7.7,0,0,0-.7-.7h-12a.71.71,0,1,0,0,1.41h12A.7.7,0,0,0,29.17,21.62Z"/><path d="M24.72,27.2H16.47a.71.71,0,0,0-.71.71.7.7,0,0,0,.71.7h8.25a.7.7,0,0,0,.7-.7A.7.7,0,0,0,24.72,27.2Z"/><path d="M24.72,24.06H16.47a.71.71,0,1,0,0,1.41h8.25a.71.71,0,0,0,0-1.41Z"/></svg>