<svg xmlns="http://www.w3.org/2000/svg" width="14.751" height="21.414" viewBox="0 0 14.751 21.414">
  <path id="bolt_FILL1_wght300_GRAD0_opsz48" d="M225.9,214.4h-3.681a.654.654,0,0,1-.614-.371.639.639,0,0,1,.057-.726l7.885-11.411a.887.887,0,0,1,.438-.323.711.711,0,0,1,.526.027.849.849,0,0,1,.416.351.747.747,0,0,1,.11.526l-.954,7.589h4.461a.651.651,0,0,1,.638.4.671.671,0,0,1-.1.753L226.4,221.632a.8.8,0,0,1-.452.285.744.744,0,0,1-.512-.049.777.777,0,0,1-.381-.34.84.84,0,0,1-.1-.526Z" transform="translate(-221.016 -201.027)" fill="#fff" stroke="#999" stroke-width="1" stroke-dasharray="2"/>
</svg>
