<svg id="Layer_1" data-name="Layer 1" xmlns="http://www.w3.org/2000/svg" viewBox="0 0 50 50"><defs><style>.cls-1{fill:#52c392;}.cls-2{fill:#2ba4f5;}.cls-3{fill:#e3334f;}</style></defs><path d="M47.52,8.26H18.3a1,1,0,0,1,0-2H47.52a1,1,0,0,1,0,2Z"/><path d="M47.52,26H18.3a1,1,0,0,1,0-2H47.52a1,1,0,0,1,0,2Z"/><path d="M47.52,43.71H18.3a1,1,0,0,1,0-2H47.52a1,1,0,0,1,0,2Z"/><circle class="cls-1" cx="7.39" cy="7.27" r="4.91"/><path d="M7.39,13.17a5.9,5.9,0,1,1,5.9-5.9A5.9,5.9,0,0,1,7.39,13.17Zm0-9.83a3.93,3.93,0,1,0,3.93,3.93A3.94,3.94,0,0,0,7.39,3.34Z"/><circle class="cls-2" cx="7.39" cy="24.96" r="4.91"/><path d="M7.39,30.86a5.9,5.9,0,1,1,5.9-5.9A5.9,5.9,0,0,1,7.39,30.86Zm0-9.83A3.93,3.93,0,1,0,11.32,25,3.94,3.94,0,0,0,7.39,21Z"/><circle class="cls-3" cx="7.39" cy="42.73" r="4.91"/><path d="M7.39,48.62a5.9,5.9,0,1,1,5.9-5.89A5.89,5.89,0,0,1,7.39,48.62Zm0-9.82a3.93,3.93,0,1,0,3.93,3.93A3.93,3.93,0,0,0,7.39,38.8Z"/></svg>