<svg id="Layer_1" data-name="Layer 1" xmlns="http://www.w3.org/2000/svg" viewBox="0 0 50 50"><defs><style>.cls-1{fill:#4ebfed;}.cls-2{fill:#3ba4bc;}.cls-3{fill:#fcd577;}.cls-4{fill:#eac36e;}</style></defs><path class="cls-1" d="M22.56,13.9V36.76a3.86,3.86,0,0,1-3.86,3.86H16.17a2.55,2.55,0,0,0-2.55,2.55v2.1H36.16v-2.1a2.55,2.55,0,0,0-2.55-2.55H31.08a3.86,3.86,0,0,1-3.87-3.86V5.25a2.32,2.32,0,0,0-4-1.64,2.28,2.28,0,0,0-.69,1.64V7.34"/><path class="cls-2" d="M24,36.76V5.25a2.31,2.31,0,0,1,.68-1.64A2.38,2.38,0,0,1,25.61,3a2.41,2.41,0,0,0-.72-.11,2.31,2.31,0,0,0-1.64.68,2.28,2.28,0,0,0-.69,1.64V36.76a3.86,3.86,0,0,1-3.86,3.86h1.45A3.86,3.86,0,0,0,24,36.76Z"/><path class="cls-2" d="M17.61,40.62H16.17a2.55,2.55,0,0,0-2.55,2.55v2.1h1.45v-2.1A2.55,2.55,0,0,1,17.61,40.62Z"/><polyline class="cls-1" points="21.09 9.3 4.5 9.3 4.5 11.94 21.09 11.94 28.69 11.94 45.28 11.94 45.28 9.3 28.69 9.3"/><path class="cls-3" d="M2,26.78a7.44,7.44,0,0,0,14.88,0Z"/><path class="cls-4" d="M4.14,26.78H2a7.44,7.44,0,0,0,7.44,7.44,8,8,0,0,0,1.1-.08A7.45,7.45,0,0,1,4.14,26.78Z"/><path class="cls-3" d="M33,26.78a7.44,7.44,0,0,0,14.88,0Z"/><path class="cls-4" d="M35.15,26.78H33a7.44,7.44,0,0,0,7.44,7.44,8,8,0,0,0,1.1-.08A7.44,7.44,0,0,1,35.15,26.78Z"/><circle class="cls-3" cx="24.89" cy="10.62" r="4.02"/><path d="M33.6,39.89H31.07A3.11,3.11,0,0,1,28,36.79V16.33a.76.76,0,1,0-1.51,0V36.79a4.62,4.62,0,0,0,4.62,4.62H33.6a1.79,1.79,0,0,1,1.79,1.79v1.34h-21V43.2a1.79,1.79,0,0,1,1.79-1.79h2.53a4.62,4.62,0,0,0,4.62-4.62v-6a.76.76,0,1,0-1.51,0v6a3.11,3.11,0,0,1-3.11,3.1H16.16a3.32,3.32,0,0,0-3.31,3.31v2.1a.76.76,0,0,0,.76.76H36.15a.76.76,0,0,0,.75-.76V43.2A3.31,3.31,0,0,0,33.6,39.89Z"/><path d="M47.82,26.05H45.54L41.41,12.73h3.86A.75.75,0,0,0,46,12V9.33a.74.74,0,0,0-.75-.75H29.18A4.69,4.69,0,0,0,28,7V5.28a3.08,3.08,0,1,0-6.16,0V7a4.69,4.69,0,0,0-1.22,1.57H14a.75.75,0,0,0-.75.75.76.76,0,0,0,.75.76h6.14a5.09,5.09,0,0,0,0,.56,5.09,5.09,0,0,0,0,.56H5.25V10.09h6.17a.76.76,0,1,0,0-1.51H4.49a.76.76,0,0,0-.76.75V12a.76.76,0,0,0,.76.76H8.35L4.22,26.05H1.94a.76.76,0,0,0-.76.76,8.2,8.2,0,0,0,16.4,0,.76.76,0,0,0-.76-.76H14.54L10.41,12.73H20.58a4.75,4.75,0,0,0,1.22,1.56V28.21a.76.76,0,1,0,1.51,0v-13a4.76,4.76,0,0,0,5.87-2.43H39.35L35.22,26.05H32.94a.76.76,0,0,0-.76.76,8.2,8.2,0,0,0,14.08,5.71.76.76,0,0,0-1.09-1.05,6.68,6.68,0,0,1-11.43-3.91H47a6.2,6.2,0,0,1-.54,2,.76.76,0,0,0,1.38.62,8.07,8.07,0,0,0,.72-3.35A.76.76,0,0,0,47.82,26.05ZM9.38,33.49a6.69,6.69,0,0,1-6.64-5.93H16A6.7,6.7,0,0,1,9.38,33.49ZM5.8,26.05,9.38,14.52,13,26.05ZM23.31,5.28a1.55,1.55,0,0,1,.46-1.11,1.57,1.57,0,0,1,2.68,1.11v.86a4.87,4.87,0,0,0-3.14,0V5.28Zm1.57,8.63a3.26,3.26,0,1,1,3.26-3.26A3.26,3.26,0,0,1,24.88,13.91Zm4.74-3.82H44.51v1.12H29.62a5.24,5.24,0,0,0,0-1.12Zm7.18,16,3.58-11.53L44,26.05Z"/><path d="M24.88,8.5A2.15,2.15,0,1,0,27,10.65,2.16,2.16,0,0,0,24.88,8.5Zm0,2.78a.63.63,0,1,1,.63-.63A.63.63,0,0,1,24.88,11.28Z"/></svg>