<svg id="Layer_1" data-name="Layer 1" xmlns="http://www.w3.org/2000/svg" viewBox="0 0 50 50"><defs><style>.cls-1{fill:#6c7d87;}.cls-2{fill:#566a75;}.cls-3{fill:#dd9a5e;}.cls-4{fill:#d18c54;}.cls-5{fill:#c6c6c6;}.cls-6{fill:#b7b7b7;}.cls-7{fill:#ededed;}.cls-8{fill:#dadada;}.cls-9{fill:#4c4846;}.cls-10{fill:#3d3938;}.cls-11{fill:#edae6b;}</style></defs><path class="cls-1" d="M38.31,44.93l-2-9.93a3.74,3.74,0,0,0-1.78-2.53,4.34,4.34,0,0,0-1.22-.5l-6.56-2.29a1,1,0,0,1-.65-.91v-2a8.24,8.24,0,0,1-7.49,0v2a1,1,0,0,1-.65.91l-2.7.93h0L11.42,32l-.51.15A3.9,3.9,0,0,0,8.75,34c-.31.62-.22.4-1.72,7.93-.56,2.88-.68,3.09-.61,3.73a1.88,1.88,0,0,0,2.09,1.63H36.24A1.9,1.9,0,0,0,38.31,44.93Z"/><path class="cls-2" d="M8.69,44.93l2-10.83a3.78,3.78,0,0,1,1.63-2.44c-1.66.59-1.14.35-1.65.57a3.8,3.8,0,0,0-2.08,2.22c-.15.42-.05,0-1.54,7.51-.56,2.88-.68,3.09-.61,3.73a1.88,1.88,0,0,0,2.09,1.63h2.26A1.88,1.88,0,0,1,8.69,44.93Z"/><path class="cls-3" d="M12.59,47.32H8.51a1.87,1.87,0,0,1-2.1-2A28.61,28.61,0,0,1,7,42l0-.16h5.53Z"/><path class="cls-4" d="M9.26,41.8H7.06L7,42a26.31,26.31,0,0,0-.62,3.35,1.87,1.87,0,0,0,2.1,2h2.26c-1.47,0-2.14-.77-2.11-2C8.66,45.17,8.72,44.87,9.26,41.8Z"/><path class="cls-3" d="M18.63,26.71v3.52h0v.13a2.08,2.08,0,0,0,1.42,2,7.58,7.58,0,0,0,4.64,0,2.09,2.09,0,0,0,1.43-2v-.13h0V26.71A7.84,7.84,0,0,1,18.63,26.71Z"/><path class="cls-4" d="M20.88,31h0V27.52a8,8,0,0,1-2.25-.81v3.52h0v.13a2.08,2.08,0,0,0,1.42,2,6.44,6.44,0,0,0,1.33.31A2.74,2.74,0,0,1,20.88,31Z"/><path class="cls-2" d="M12.59,39.59a.67.67,0,0,0-.67.67v7.06h1.35V40.26A.67.67,0,0,0,12.59,39.59Z"/><path class="cls-5" d="M44.28,47.32H22.37a1.65,1.65,0,0,1-1.65-1.66h0a1,1,0,0,1,1-.95H45a1,1,0,0,1,1,.95h0A1.65,1.65,0,0,1,44.28,47.32Z"/><path class="cls-6" d="M25,45.66h0a1,1,0,0,1,.95-.95H21.67a1,1,0,0,0-1,.95h0a1.65,1.65,0,0,0,1.65,1.66h4.27A1.66,1.66,0,0,1,25,45.66Z"/><path class="cls-7" d="M42.84,30.23h-19a1.09,1.09,0,0,0-1.09,1.08V43.63a1.08,1.08,0,0,0,1.09,1.08h19a1.08,1.08,0,0,0,1.09-1.08V31.31A1.09,1.09,0,0,0,42.84,30.23Z"/><path class="cls-8" d="M25,43.63V31.31a1.09,1.09,0,0,1,1.08-1.08H23.81a1.09,1.09,0,0,0-1.09,1.08V43.63a1.08,1.08,0,0,0,1.09,1.08h2.25A1.08,1.08,0,0,1,25,43.63Z"/><circle class="cls-8" cx="33.33" cy="37.47" r="1.56"/><path class="cls-5" d="M33.33,35.91a1.56,1.56,0,1,0,1.35,2.34A1.56,1.56,0,0,1,33.33,35.91Z"/><path class="cls-9" d="M22.17,2.5A10.83,10.83,0,0,0,11.42,13.32v4.11H33.07V11.29c0-4.19-2.58-5.16-2.58-5.16A10.68,10.68,0,0,0,22.17,2.5"/><path class="cls-10" d="M23.63,2.56A10.87,10.87,0,0,0,11.43,12.9c0,.44,0,.27,0,4.53H14V13.32A10.83,10.83,0,0,1,23.63,2.56Z"/><path class="cls-3" d="M14,16.14a2,2,0,0,0-2.83,1.73A2,2,0,0,0,14,19.59Z"/><path class="cls-3" d="M30.49,16.14a2.06,2.06,0,0,1,2.84,1.73,2.06,2.06,0,0,1-2.84,1.72Z"/><path class="cls-4" d="M11.37,17.07c-.8,1.51.87,3.15,2.63,2.53V18A2.17,2.17,0,0,1,11.37,17.07Z"/><path class="cls-4" d="M30.49,18V19.6c1.76.62,3.43-1,2.64-2.53A2.45,2.45,0,0,1,30.49,18Z"/><path class="cls-11" d="M30.12,12.71a.41.41,0,0,1,.37.41c0,6.94,0,6.42,0,6.74A8.24,8.24,0,0,1,14,19.76c0-.31,0-3.9,0-3.89a2.65,2.65,0,0,1,3-2.62,11.62,11.62,0,0,0,9.41-2.52.68.68,0,0,1,1,.18A3.3,3.3,0,0,0,30.12,12.71Z"/><path class="cls-3" d="M16.26,19.76c0-.26,0-5.13,0-6.51A2.65,2.65,0,0,0,14,15.87s0,3.58,0,3.89a8.28,8.28,0,0,0,9.44,7.85A8.23,8.23,0,0,1,16.26,19.76Z"/><path d="M31.08,37.47a2.24,2.24,0,1,0,2.24-2.24A2.24,2.24,0,0,0,31.08,37.47Zm3.13,0a.89.89,0,1,1-.89-.89A.89.89,0,0,1,34.21,37.47Z"/><path d="M45,44h-.43c.09-.39,0-.11.05-7a.68.68,0,1,0-1.35,0v6.59a.42.42,0,0,1-.41.41h-19a.42.42,0,0,1-.41-.41V31.31a.41.41,0,0,1,.41-.4h19a.41.41,0,0,1,.41.4v2.57a.68.68,0,1,0,1.35,0V31.31a1.76,1.76,0,0,0-1.76-1.76H28.49L27,29a.28.28,0,0,1-.19-.27V27.11a8.93,8.93,0,0,0,4.32-6.71,2.57,2.57,0,0,0,2.63-3.6V11.29c0-4-2.17-5.38-2.83-5.71C27.09,1,19.21.35,14.37,4.94a.68.68,0,0,0,.47,1.17c.49,0,.42-.35,2-1.35l.33-.2c4-2.39,9.87-1.66,12.84,2a.63.63,0,0,0,.28.2c.09,0,2.14.9,2.14,4.53v4.27a2.89,2.89,0,0,0-1.22-.23V13.12a1.08,1.08,0,0,0-1-1.08,2.67,2.67,0,0,1-2.11-1.45A1.36,1.36,0,0,0,26,10.21a11,11,0,0,1-8.87,2.37,3.32,3.32,0,0,0-3.76,2.75,2.87,2.87,0,0,0-1.27.23c0-2.11-.32-4.39,1.35-7.3a.67.67,0,0,0-.25-.92.66.66,0,0,0-.92.25,11.62,11.62,0,0,0-1.53,5.28c0,.44,0,.28,0,3.93a2.57,2.57,0,0,0,2.63,3.6A8.94,8.94,0,0,0,18,27.26v1.51a.29.29,0,0,1-.19.27c-2.68.94.48-.2-6.55,2.29a4.13,4.13,0,0,0-.72.23A4.53,4.53,0,0,0,7.74,34.9c-2.11,10.6-2,10-2,10.57h0A2.46,2.46,0,0,0,8.51,48H24.59a.68.68,0,1,0,0-1.35H22.37c-.94,0-1.26-1.25-.7-1.25H45c.56,0,.24,1.25-.7,1.25H27.75a.68.68,0,1,0,0,1.35H44.28a2.33,2.33,0,0,0,2.33-2.33A1.63,1.63,0,0,0,45,44ZM19.3,27.86a8.86,8.86,0,0,0,5.26.2h0a6.72,6.72,0,0,0,.87-.28v1.78H23.81a1.76,1.76,0,0,0-1.76,1.76V32a6.16,6.16,0,0,1-1.78-.32,1.41,1.41,0,0,1-1-1.34C19.3,28.72,19.31,29.73,19.3,27.86Zm13.35-10a1.32,1.32,0,0,1-1.48,1.18V16.68A1.33,1.33,0,0,1,32.65,17.87Zm-2.59-4.48ZM11.84,17.87a1.32,1.32,0,0,1,1.48-1.19v2.37A1.33,1.33,0,0,1,11.84,17.87Zm2.85,1.95c0-.31,0-.2,0-3.68a2.08,2.08,0,0,1,.67-1.76,2,2,0,0,1,1.59-.46,12.26,12.26,0,0,0,9.94-2.68h0a4,4,0,0,0,2.93,2.11c0,6.12.07,6.72-.23,7.93a8,8,0,0,1-.9,2.14A7.58,7.58,0,0,1,14.69,19.82ZM8.51,46.64c-1.16,0-1.37-.55-1.42-1s.06-.73.52-3.14h4.3v4.16ZM21.67,44a1.69,1.69,0,0,0-1.5,2.4,1.59,1.59,0,0,0,.09.2h-7V40.26a.68.68,0,0,0-1.36,0v.86h-4c1.28-6.4,1.21-6.13,1.35-6.5a3,3,0,0,1,1.29-1.56,3.73,3.73,0,0,1,1.08-.44l3.9-1.38h0L18,30.4A2.77,2.77,0,0,0,19.84,33a8.13,8.13,0,0,0,2.21.39c0,10.29-.06,10.2,0,10.66Z"/></svg>