<svg id="Layer_1" data-name="Layer 1" xmlns="http://www.w3.org/2000/svg" viewBox="0 0 512 512"><defs><style>.cls-1{fill:#999;}</style></defs><path class="cls-1" d="M343.71,366.82a23.64,23.64,0,1,0,23.63,23.64A23.66,23.66,0,0,0,343.71,366.82Zm0,33a9.36,9.36,0,1,1,9.36-9.36A9.37,9.37,0,0,1,343.71,399.82Z"/><path class="cls-1" d="M466.7,459.72h-4.55c1-4.11.33-1.1.52-73.82a7.14,7.14,0,0,0-14.28,0v69.54a4.34,4.34,0,0,1-4.28,4.28H243.31a4.34,4.34,0,0,1-4.28-4.28v-130a4.34,4.34,0,0,1,4.28-4.28h200.8a4.34,4.34,0,0,1,4.28,4.28v27.11a7.14,7.14,0,0,0,14.28,0V325.48a18.59,18.59,0,0,0-18.56-18.56H292.76l-15.92-5.41a3,3,0,0,1-2-2.82V281.2a94.05,94.05,0,0,0,45.6-70.83c21.84,1,36.81-19.85,27.75-37.93V114.25c0-42.08-22.89-56.72-29.88-60.21C278,5.91,194.87-1.1,143.8,47.28a7.15,7.15,0,0,0,4.89,12.34c5.25,0,4.45-3.68,20.7-14.24,1.2-.78,3.54-2.16,3.44-2.1C214.92,18,277,25.75,308.29,64.34a6.79,6.79,0,0,0,3,2.16c.93.38,22.64,9.52,22.64,47.75V159.3A30.66,30.66,0,0,0,321,156.89V133.55a11.42,11.42,0,0,0-10.37-11.39c-12-1.16-18.72-9-22.25-15.33a14.32,14.32,0,0,0-21.86-3.94c-31.82,27.2-68.46,28.58-93.6,25a35.11,35.11,0,0,0-39.72,29.05,30.84,30.84,0,0,0-13.39,2.4c.45-22.23-3.33-46.29,14.28-77a7.14,7.14,0,0,0-12.38-7.11c-10.74,18.73-15.93,40.36-16.07,55.74-.18,4.6-.07,2.92-.1,41.5-9.08,18.11,5.95,38.94,27.75,37.93a94.17,94.17,0,0,0,48.26,72.36v16a3,3,0,0,1-2,2.81c-28.29,9.89,5.05-2.13-69.12,24.17-6.48,1.92-5,1.42-7.6,2.46-15.91,6.68-25.74,19.46-28.92,35.18C51.61,475.14,52.45,468.79,52.6,474.87c.7,17.63,12,26.59,29.34,26.59H251.56a7.14,7.14,0,0,0,0-14.28H228.18c-10,0-13.28-13.18-7.46-13.18h246c5.84,0,2.5,13.18-7.45,13.18H284.87a7.14,7.14,0,0,0,0,14.28H459.25a24.63,24.63,0,0,0,24.59-24.6A17.16,17.16,0,0,0,466.7,459.72ZM321,171.17c8.23-.43,15.6,5.11,15.6,12.47s-7.44,12.89-15.6,12.46ZM132.71,196.1c-8.23.44-15.6-5.11-15.6-12.46s7.45-12.9,15.6-12.47Zm14.39,8.2c-.18-3.31-.1-2.11-.12-38.9.22-1.2-1.53-11,7.17-18.54a20.88,20.88,0,0,1,16.7-4.88c28.05,4.05,69,2.43,104.92-28.24l.1,0c6.9,12.42,17.78,20.26,30.83,22.29,0,64.51.84,70.8-2.37,83.57a81.49,81.49,0,0,1-9.52,22.55C252.92,308.37,151,282.35,147.1,204.3ZM117.86,487.18H81.94c-12.22,0-14.41-5.78-15-10.82-.57-5.25.6-7.61,5.51-33.1h45.36Zm102.86-27.46h0C209.12,459.72,200,471,205,485c.21.58.55,1.47.88,2.17H132.14V419.91a7.14,7.14,0,1,0-14.28,0V429H75.34C88.81,361.41,88,364.24,89.5,360.34c2.94-7.71,7.32-12.23,13.6-16.37,5.58-3.22,6.22-3.05,11.46-4.65.38-.1-2.14.77,41.14-14.56h0l25.85-8.87a29.12,29.12,0,0,0,19.87,27.25,81.12,81.12,0,0,0,23.32,4.11c.45,108.61-.65,107.63.5,112.47Zm4-134.24V333A66.71,66.71,0,0,1,206,329.6a14.86,14.86,0,0,1-10.15-14.12c0-17.32,0-6.74,0-26.39a93.53,93.53,0,0,0,55.5,2v-.05l.09,0,0,.06a89,89,0,0,0,9.17-3v18.81H243.31A18.58,18.58,0,0,0,224.75,325.48Z"/></svg>