<svg id="Layer_1" data-name="Layer 1" xmlns="http://www.w3.org/2000/svg" viewBox="0 0 512 512"><defs><style>.cls-1{fill:#5290db;}.cls-2{fill:#70d6f9;}.cls-3{fill:#fc657e;}.cls-4{fill:#f5c84c;}.cls-5{fill:#87d147;}.cls-6{fill:#f9d0b4;}.cls-7{fill:#754e34;}.cls-8{fill:#edf4fc;}.cls-9{fill:#dae6f1;}.cls-10{fill:#b2e26d;}</style></defs><g id="Layer_1-2" data-name="Layer 1"><path class="cls-1" d="M475,475.58H37a7.61,7.61,0,0,0-7.61,7.61v10.15A7.61,7.61,0,0,0,37,501H475a7.61,7.61,0,0,0,7.61-7.61V483.19A7.61,7.61,0,0,0,475,475.58Z"/><path class="cls-2" d="M337.21,18.19A15.17,15.17,0,0,1,324.94,6.37c0-.27-.55-.27-.55,0a15.2,15.2,0,0,1-12.1,12c-.27,0-.27.41,0,.55a15.21,15.21,0,0,1,12.28,11.82c0,.27.55.27.55,0a15.18,15.18,0,0,1,12.1-12C337.49,18.6,337.49,18.19,337.21,18.19Z"/><path class="cls-3" d="M448.84,340.77h-4.49v-4.49a6.28,6.28,0,0,0-6.24-6.24,6.16,6.16,0,0,0-6.25,6.24v4.49h-4.49a6.29,6.29,0,0,0-6.25,6.25,6.17,6.17,0,0,0,6.25,6.24h4.49v4.49a6.29,6.29,0,0,0,6.25,6.25,6.16,6.16,0,0,0,6.24-6.25v-4.49h4.49a6.29,6.29,0,0,0,6.25-6.24A6.17,6.17,0,0,0,448.84,340.77Z"/><path class="cls-4" d="M124.84,149a21.64,21.64,0,0,1-17.37-17c0-.39-.78-.39-.78,0a21.66,21.66,0,0,1-17.38,17c-.39,0-.39.59,0,.79a21.66,21.66,0,0,1,17.38,17c0,.39.78.39.78,0a21.64,21.64,0,0,1,17.37-17C125.23,149.59,125.23,149,124.84,149Z"/><path class="cls-4" d="M425.42,401.08a6.64,6.64,0,1,0,6.63,6.64A6.64,6.64,0,0,0,425.42,401.08Z"/><path class="cls-5" d="M136.55,90.74a6.64,6.64,0,1,0,6.63,6.64A6.64,6.64,0,0,0,136.55,90.74Z"/><path class="cls-2" d="M142.6,457.56a5.78,5.78,0,0,1,5.82-5.64h12.33a8.25,8.25,0,0,1-8.25-8.25V349.34l-16.69,4.21a27.83,27.83,0,0,0-21,25.43l-3.89,67.07a16.71,16.71,0,0,1,9.43,15v14.54h40.09a17.84,17.84,0,0,1-17.84-18Z"/><path class="cls-2" d="M351.56,475.58h51.23L397.19,379a27.84,27.84,0,0,0-21-25.44l-16.69-4.2v94.33a8.25,8.25,0,0,1-8.25,8.24h12.33a5.78,5.78,0,0,1,5.82,5.65,17.84,17.84,0,0,1-17.84,18Z"/><path class="cls-6" d="M326.51,170.46a3.79,3.79,0,0,0-3.64-3.71c-29.3-.85-44.73-12.46-50.67-18.28a3.79,3.79,0,0,0-5.64.36C240.8,181.22,202.81,176.65,190,174a3.77,3.77,0,0,0-4.55,3.64v56.77a70.68,70.68,0,0,0,37.87,62.43h65.29a70.68,70.68,0,0,0,37.87-62.43V171.56c0-.36,0-.73,0-1.1Z"/><path class="cls-7" d="M321.26,102.22c0-1.74.09-3.46.25-5.16a39.41,39.41,0,0,0-30.91,4.35,40.31,40.31,0,0,0-34.54-19.72H235.38a73,73,0,0,0-72.79,72.79v32.61A29.23,29.23,0,0,1,185.48,181v-3.39A3.77,3.77,0,0,1,190,174c12.78,2.68,50.77,7.25,76.53-25.14a3.79,3.79,0,0,1,5.64-.36c5.93,5.82,21.37,17.43,50.66,18.28a3.78,3.78,0,0,1,3.64,3.71c0,.37,0,.73,0,1.1V181a29.24,29.24,0,0,1,24.94,7.9V152.09A56.27,56.27,0,0,1,321.26,102.22Z"/><path class="cls-6" d="M331,180.64a29.23,29.23,0,0,0-4.52.36v53.38c0,1.59-.07,3.17-.18,4.73a29.13,29.13,0,0,0,4.7.41,29.44,29.44,0,0,0,0-58.88Z"/><path class="cls-6" d="M185.48,234.38V181A29.43,29.43,0,1,0,181,239.52a30.31,30.31,0,0,0,4.7-.41h0c-.1-1.57-.18-3.14-.18-4.73Z"/><path class="cls-6" d="M351.56,475.58h51.23l-2.17-37.36H359.5v5.45a8.25,8.25,0,0,1-8.25,8.25h12.33a5.78,5.78,0,0,1,5.82,5.64,17.84,17.84,0,0,1-17.84,18Z"/><path class="cls-6" d="M142.6,457.56a5.78,5.78,0,0,1,5.82-5.64h12.33a8.25,8.25,0,0,1-8.25-8.25v-5.45H111.38l-.46,7.83a16.72,16.72,0,0,1,9.43,15v14.54h40.09a17.84,17.84,0,0,1-17.84-18Z"/><path d="M280.22,247.37a4.88,4.88,0,0,0-6.87.6c-3.38,4-9.13,6.45-15.37,6.45S246,252,242.61,248a4.88,4.88,0,0,0-7.48,6.27c5.22,6.22,13.76,9.94,22.85,9.94s17.63-3.72,22.85-9.94a4.87,4.87,0,0,0-.61-6.87Z"/><circle cx="287.24" cy="213.81" r="9"/><circle cx="226.81" cy="213.81" r="9"/><path d="M402.06,378.72a32.57,32.57,0,0,0-24.67-29.9l-14.84-3.74a4.88,4.88,0,0,0-2.38,9.47L375,358.28a22.87,22.87,0,0,1,17.32,21l5.49,94.81a4.88,4.88,0,0,0,4.87,4.6H403a4.88,4.88,0,0,0,4.59-5.15Z"/><path d="M155.43,348.61a4.88,4.88,0,0,0-5.93-3.54l-14.89,3.75a32.56,32.56,0,0,0-24.67,29.88l-3.79,65.37a4.88,4.88,0,0,0,4.59,5.15H111a4.87,4.87,0,0,0,4.86-4.6l3.8-65.37a22.83,22.83,0,0,1,17.31-21l14.89-3.75a4.88,4.88,0,0,0,3.54-5.92Z"/><path d="M331.38,170.36a8.63,8.63,0,0,0-8.37-8.48c-28.06-.83-42.49-12.09-47.39-16.9a8.67,8.67,0,0,0-12.88.81c-23.64,29.72-58,26.27-71.71,23.4a8.7,8.7,0,0,0-7.25,1.76,8.58,8.58,0,0,0-3.18,6.71v56.72a75.53,75.53,0,0,0,39.52,66.26,4.88,4.88,0,1,0,4.67-8.57,65.77,65.77,0,0,1-34.43-57.69V179c13.42,2.57,52.47,6.52,79.29-26.23,7.43,6.94,23.46,17.72,52,18.82v62.78a65.75,65.75,0,0,1-34.43,57.69,4.88,4.88,0,0,0,4.67,8.57,75.53,75.53,0,0,0,39.52-66.26V171.56c0-.4,0-.8,0-1.2Z"/><path d="M321.36,92A45.09,45.09,0,0,0,292.2,95a45.41,45.41,0,0,0-36.14-18.23H235.38a77.76,77.76,0,0,0-77.67,77.67v31.11a4.88,4.88,0,0,0,9.76,0V154.48a68,68,0,0,1,67.91-67.91h20.68a35.65,35.65,0,0,1,30.36,17.34,4.87,4.87,0,0,0,6.69,1.68,35.47,35.47,0,0,1,26-4.14,4.88,4.88,0,1,0,2.21-9.5Z"/><path d="M351.46,148.81a4.89,4.89,0,0,0-4.88,4.88v33.82a4.88,4.88,0,1,0,9.76,0V153.69A4.88,4.88,0,0,0,351.46,148.81Z"/><path d="M331,175.76c-1,0-1.9,0-2.83.12a4.88,4.88,0,1,0,.83,9.73c.66-.06,1.33-.09,2-.09a24.56,24.56,0,1,1,0,49.12,21.84,21.84,0,0,1-2.23-.12,4.88,4.88,0,0,0-1,9.71c1.1.11,2.19.17,3.23.17a34.32,34.32,0,0,0,0-68.64Z"/><path d="M182.84,234.55c-.62.06-1.25.09-1.88.09a24.56,24.56,0,0,1,0-49.12c.65,0,1.29,0,1.92.08a4.88,4.88,0,0,0,.79-9.73c-.9-.07-1.8-.11-2.71-.11a34.32,34.32,0,0,0,0,68.64c.93,0,1.84,0,2.75-.13a4.88,4.88,0,0,0-.87-9.72Z"/><path d="M398.34,433.34H360.17a4.88,4.88,0,0,0,0,9.76h38.17a4.88,4.88,0,0,0,0-9.76Z"/><path d="M150.62,433.34H112.93a4.88,4.88,0,1,0,0,9.76h37.69a4.88,4.88,0,0,0,0-9.76Z"/><path class="cls-8" d="M351.25,296.81H160.75a8.25,8.25,0,0,0-8.25,8.25V443.67a8.25,8.25,0,0,0,8.25,8.25h190.5a8.25,8.25,0,0,0,8.25-8.25V305.06A8.26,8.26,0,0,0,351.25,296.81Z"/><path class="cls-9" d="M363.58,451.92H148.42a5.81,5.81,0,0,0-5.82,5.82,17.84,17.84,0,0,0,17.84,17.84H351.56a17.84,17.84,0,0,0,17.84-17.84A5.81,5.81,0,0,0,363.58,451.92Z"/><path d="M269.87,369.49H242.13a4.88,4.88,0,0,0,0,9.76h27.74a4.88,4.88,0,0,0,0-9.76Z"/><path d="M351.25,291.93H160.75a13.14,13.14,0,0,0-13.13,13.13V443.67a13.14,13.14,0,0,0,13.13,13.13h190.5a13.14,13.14,0,0,0,13.13-13.13V305.06A13.14,13.14,0,0,0,351.25,291.93Zm3.37,151.74a3.37,3.37,0,0,1-3.37,3.37H160.75a3.37,3.37,0,0,1-3.37-3.37V305.06a3.37,3.37,0,0,1,3.37-3.37h190.5a3.37,3.37,0,0,1,3.37,3.37V443.67Z"/><path d="M363.58,447H148.42a10.71,10.71,0,0,0-10.7,10.7,22.74,22.74,0,0,0,22.72,22.72H351.56a22.74,22.74,0,0,0,22.72-22.72A10.71,10.71,0,0,0,363.58,447Zm-12,23.66H160.44a13,13,0,0,1-13-13,.94.94,0,0,1,.94-.94H363.58a.94.94,0,0,1,.94.94A13,13,0,0,1,351.56,470.7Z"/><circle class="cls-10" cx="377.54" cy="102.22" r="56.28"/><path class="cls-8" d="M404.12,86.28a10.35,10.35,0,0,0-14.65,0L372.85,102.9l-8.33-8.33a10.36,10.36,0,1,0-14.65,14.64l15.65,15.66a10.38,10.38,0,0,0,14.66,0l23.94-23.94a10.37,10.37,0,0,0,0-14.65Z"/><path d="M407.57,82.82a15.27,15.27,0,0,0-21.55,0L372.85,96,368,91.11a15.24,15.24,0,0,0-21.55,21.55l15.65,15.66a15.25,15.25,0,0,0,21.55,0l23.95-23.95A15.26,15.26,0,0,0,407.57,82.82Zm-6.9,14.65-23.95,24a5.61,5.61,0,0,1-7.75,0l-15.65-15.66A5.48,5.48,0,0,1,361.07,98l8.33,8.33a4.87,4.87,0,0,0,6.9,0l16.61-16.61a5.48,5.48,0,1,1,7.76,7.74Z"/><path d="M377.54,41.06a61.16,61.16,0,1,0,61.16,61.16A61.23,61.23,0,0,0,377.54,41.06Zm0,112.55a51.4,51.4,0,1,1,51.4-51.39A51.45,51.45,0,0,1,377.54,153.61Z"/><path d="M475,470.7H37a12.51,12.51,0,0,0-12.49,12.49v10.15A12.51,12.51,0,0,0,37,505.83H475a12.51,12.51,0,0,0,12.49-12.49V483.19A12.51,12.51,0,0,0,475,470.7Zm2.73,22.64a2.73,2.73,0,0,1-2.73,2.73H37a2.73,2.73,0,0,1-2.73-2.73V483.19A2.74,2.74,0,0,1,37,480.46H475a2.74,2.74,0,0,1,2.73,2.73Z"/><path d="M103.66,439.47H74.58A21.6,21.6,0,0,0,53,461v14.54a4.87,4.87,0,0,0,4.88,4.88h62.46a4.88,4.88,0,0,0,4.88-4.88V461A21.6,21.6,0,0,0,103.66,439.47Zm11.81,31.23H62.77V461a11.83,11.83,0,0,1,11.81-11.81h29.08A11.83,11.83,0,0,1,115.47,461Z"/></g></svg>