<svg id="Layer_1" data-name="Layer 1" xmlns="http://www.w3.org/2000/svg" viewBox="0 0 50 50"><defs><style>.cls-1{fill:#efbf27;}.cls-2{fill:#e7a523;}.cls-3{fill:#868686;}.cls-4{fill:#eee;}.cls-5{fill:#71c1e8;}.cls-6{fill:#aeaeae;}.cls-7{fill:#c4e4fd;}</style></defs><path class="cls-1" d="M12,11.83v2.48H2.75a.63.63,0,0,1-.63-.63V4.46A1.18,1.18,0,0,1,3.19,3.27,1.14,1.14,0,0,1,4.42,4.41v7.42Z"/><path class="cls-2" d="M10.68,11.83H12v2.48h-1.3Z"/><circle class="cls-3" cx="3.53" cy="21.95" r="1.15"/><circle class="cls-3" cx="21.54" cy="21.95" r="1.15"/><path class="cls-4" d="M8.51,9.76H4.42V8A1.38,1.38,0,0,1,5.8,6.66H8.51A1.38,1.38,0,0,1,9.89,8v.34A1.38,1.38,0,0,1,8.51,9.76Z"/><path class="cls-5" d="M23,10.81v4.84a.74.74,0,0,1-.74.74H12.72a.74.74,0,0,1-.74-.74V9.76h9.93a1,1,0,0,1,1,1.05Z"/><path class="cls-4" d="M4.42,9.76H12v2.07H4.42Z"/><path class="cls-6" d="M10.68,9.76H12v2.07h-1.3Z"/><path class="cls-1" d="M12,35.47v2.47H2.75a.63.63,0,0,1-.63-.62V28.09A1.18,1.18,0,0,1,3.19,26.9a1.15,1.15,0,0,1,1.23,1.15v7.42Z"/><path class="cls-2" d="M10.68,35.47H12v2.47h-1.3Z"/><circle class="cls-3" cx="3.53" cy="45.59" r="1.15"/><circle class="cls-3" cx="21.54" cy="45.59" r="1.15"/><path class="cls-4" d="M8.51,33.4H4.42V31.67A1.38,1.38,0,0,1,5.8,30.29H8.51a1.38,1.38,0,0,1,1.38,1.38V32A1.38,1.38,0,0,1,8.51,33.4Z"/><path class="cls-5" d="M23,34.44v4.85a.74.74,0,0,1-.74.74H12.72a.74.74,0,0,1-.74-.74V33.4h9.93a1,1,0,0,1,1,1Z"/><path class="cls-4" d="M4.42,33.4H12v2.07H4.42Z"/><path class="cls-6" d="M10.68,33.4H12v2.07h-1.3Z"/><path class="cls-1" d="M38,11.83v2.48h9.23a.63.63,0,0,0,.63-.63V4.46a1.18,1.18,0,0,0-1.07-1.19,1.14,1.14,0,0,0-1.23,1.14v7.42Z"/><path class="cls-2" d="M38,11.83h1.3v2.48H38Z"/><circle class="cls-3" cx="46.47" cy="21.95" r="1.15"/><circle class="cls-3" cx="28.46" cy="21.95" r="1.15"/><path class="cls-4" d="M41.49,9.76h4.09V8A1.38,1.38,0,0,0,44.2,6.66H41.49A1.38,1.38,0,0,0,40.11,8v.34A1.38,1.38,0,0,0,41.49,9.76Z"/><path class="cls-5" d="M27.05,10.81v4.84a.74.74,0,0,0,.74.74h9.49a.74.74,0,0,0,.74-.74V9.76H28.1A1,1,0,0,0,27.05,10.81Z"/><path class="cls-4" d="M38,9.76h7.56v2.07H38Z"/><path class="cls-6" d="M38,9.76h1.3v2.07H38Z"/><path class="cls-1" d="M38,35.47v2.47h9.23a.63.63,0,0,0,.63-.62V28.09a1.18,1.18,0,0,0-1.07-1.19,1.15,1.15,0,0,0-1.23,1.15v7.42Z"/><path class="cls-2" d="M38,35.47h1.3v2.47H38Z"/><circle class="cls-3" cx="46.47" cy="45.59" r="1.15"/><circle class="cls-3" cx="28.46" cy="45.59" r="1.15"/><path class="cls-4" d="M41.49,33.4h4.09V31.67a1.38,1.38,0,0,0-1.38-1.38H41.49a1.38,1.38,0,0,0-1.38,1.38V32A1.38,1.38,0,0,0,41.49,33.4Z"/><path class="cls-5" d="M27.05,34.44v4.85a.74.74,0,0,0,.74.74h9.49a.74.74,0,0,0,.74-.74V33.4H28.1a1,1,0,0,0-1.05,1Z"/><path class="cls-4" d="M38,33.4h7.56v2.07H38Z"/><path class="cls-6" d="M38,33.4h1.3v2.07H38Z"/><path class="cls-7" d="M21.09,15a.46.46,0,0,1-.46-.46V12.08H16.24a.46.46,0,1,1,0-.92h4.85a.46.46,0,0,1,.47.46v2.92A.46.46,0,0,1,21.09,15Zm-6.7-2.92h-.56a.46.46,0,0,1,0-.92h.56a.46.46,0,0,1,0,.92Z"/><path class="cls-7" d="M36.17,15a.46.46,0,0,1-.47-.46V12.08H31.32a.46.46,0,0,1,0-.92h4.85a.46.46,0,0,1,.46.46v2.92A.46.46,0,0,1,36.17,15Zm-6.71-2.92h-.55a.46.46,0,1,1,0-.92h.55a.46.46,0,1,1,0,.92Z"/><path class="cls-7" d="M21.09,38.64a.47.47,0,0,1-.46-.47V35.72H16.24a.47.47,0,0,1,0-.93h4.85a.47.47,0,0,1,.47.46v2.92a.47.47,0,0,1-.47.47Zm-6.7-2.92h-.56a.47.47,0,0,1,0-.93h.56a.47.47,0,0,1,0,.93Z"/><path class="cls-7" d="M36.17,38.64a.47.47,0,0,1-.47-.47V35.72H31.32a.47.47,0,0,1,0-.93h4.85a.47.47,0,0,1,.46.46v2.92a.47.47,0,0,1-.46.47Zm-6.71-2.92h-.55a.47.47,0,1,1,0-.93h.55a.47.47,0,1,1,0,.93Z"/><circle cx="16.57" cy="18.72" r="0.46"/><path d="M21.91,9.3H10.11a1.79,1.79,0,0,0,.25-.92V8A1.85,1.85,0,0,0,8.51,6.19H5.8a1.81,1.81,0,0,0-.92.25v-2A1.61,1.61,0,0,0,3.25,2.8,1.64,1.64,0,0,0,1.66,4.46v9.22a1.09,1.09,0,0,0,1.09,1.09h.32V20.4a1.62,1.62,0,1,0,.93,0V19.19H14.72a.47.47,0,0,0,0-.93H4V14.77h7.51v.88a1.21,1.21,0,0,0,1.21,1.21h8.36v1.4H18.43a.47.47,0,1,0,0,.93h2.65V20.4a1.62,1.62,0,1,0,.92,0V16.86h.21a1.21,1.21,0,0,0,1.2-1.21V10.81a1.51,1.51,0,0,0-1.5-1.51ZM4.22,22a.69.69,0,0,1-.69.69.69.69,0,0,1,0-1.38A.69.69,0,0,1,4.22,22Zm18,0a.69.69,0,1,1-.69-.69A.69.69,0,0,1,22.23,22ZM11.51,11.37H4.88V10.23h6.63ZM4.88,8a.92.92,0,0,1,.92-.92H8.51A.92.92,0,0,1,9.43,8v.34a.92.92,0,0,1-.92.92H4.88ZM2.75,13.85a.17.17,0,0,1-.16-.17V4.46a.71.71,0,0,1,.68-.73A.68.68,0,0,1,4,4.41c0,.07,0,7.36,0,7.43a.47.47,0,0,0,.46.46h7.09v1.55Zm19.73,1.8a.27.27,0,0,1-.27.28H12.72a.28.28,0,0,1-.28-.28V10.23h9.47a.58.58,0,0,1,.57.58Z"/><path d="M46.84,2.8a1.61,1.61,0,0,0-1.72,1.61v2a1.79,1.79,0,0,0-.92-.25H41.49A1.85,1.85,0,0,0,39.64,8v.34a1.89,1.89,0,0,0,.25.92h-6a.47.47,0,1,0,0,.93h3.7v5.42a.28.28,0,0,1-.28.28H27.79a.27.27,0,0,1-.27-.28V10.81a.58.58,0,0,1,.58-.58h2a.47.47,0,0,0,0-.93h-2a1.51,1.51,0,0,0-1.51,1.51v4.84a1.21,1.21,0,0,0,1.2,1.21H28V20.4a1.61,1.61,0,1,0,.92,0V19.19H46V20.4a1.62,1.62,0,1,0,.93,0V14.77h.32a1.09,1.09,0,0,0,1.09-1.09V4.46A1.65,1.65,0,0,0,46.84,2.8Zm-1.72,8.57H38.49V10.23h6.63Zm-4.55-3V8a.92.92,0,0,1,.92-.92H44.2a.92.92,0,0,1,.92.92V9.3H41.49A.92.92,0,0,1,40.57,8.38ZM29.15,22a.69.69,0,1,1-.69-.69A.69.69,0,0,1,29.15,22Zm18,0a.69.69,0,1,1-.69-.69A.69.69,0,0,1,47.16,22ZM46,18.26H28.92v-1.4h8.36a1.21,1.21,0,0,0,1.21-1.21v-.88H46Zm1.41-4.58a.17.17,0,0,1-.16.17H38.49V12.3h7.09a.47.47,0,0,0,.47-.47V4.41a.68.68,0,0,1,.73-.68.71.71,0,0,1,.63.73Z"/><path d="M31.54,9.76A.47.47,0,1,0,32,9.3.47.47,0,0,0,31.54,9.76Z"/><circle cx="7.65" cy="30.29" r="0.46"/><path d="M1.92,45.59a1.62,1.62,0,0,0,3.23,0A1.63,1.63,0,0,0,4,44V42.82H21.08V44A1.62,1.62,0,1,0,22,44V40.49h.21a1.2,1.2,0,0,0,1.2-1.2V34.44a1.51,1.51,0,0,0-1.5-1.51H10.11a1.88,1.88,0,0,0,.25-.91v-.35a1.87,1.87,0,0,0-.63-1.39.48.48,0,0,0-.66,0,.46.46,0,0,0,0,.65.9.9,0,0,1,.32.69V32a.92.92,0,0,1-.92.91H4.88V31.67a.92.92,0,0,1,.92-.91.47.47,0,1,0,0-.93h0a1.78,1.78,0,0,0-.91.25v-2a1.61,1.61,0,0,0-1.72-1.61,1.64,1.64,0,0,0-1.5,1.65v9.23a1.09,1.09,0,0,0,1.09,1.09h.32V44a1.61,1.61,0,0,0-1.15,1.55Zm2.3,0a.69.69,0,0,1-.69.68.69.69,0,0,1,0-1.37A.69.69,0,0,1,4.22,45.59Zm18,0a.69.69,0,1,1-.7-.69h0a.69.69,0,0,1,.68.69Zm.25-11.15v4.85a.28.28,0,0,1-.27.28H12.72a.29.29,0,0,1-.28-.28V33.86h9.47a.58.58,0,0,1,.57.58Zm-11-.58V35H4.88V33.86ZM2.59,37.32V28.09a.72.72,0,0,1,.63-.73.69.69,0,0,1,.73.69v7.42a.47.47,0,0,0,.47.46h7.09v1.55H2.75A.16.16,0,0,1,2.59,37.32Zm8.92,1.09v.88a1.21,1.21,0,0,0,1.21,1.2h8.36v1.4H4V38.41Z"/><path d="M33.89,42.36a.47.47,0,1,0-.46.46A.47.47,0,0,0,33.89,42.36Z"/><path d="M46.73,26.43a1.62,1.62,0,0,0-1.61,1.62v2a1.81,1.81,0,0,0-.92-.25H41.49a1.85,1.85,0,0,0-1.85,1.84V32a1.78,1.78,0,0,0,.25.91H28.1a1.51,1.51,0,0,0-1.51,1.51v4.85a1.2,1.2,0,0,0,1.2,1.2H28V44a1.61,1.61,0,1,0,.92,0V42.82h2.65a.47.47,0,1,0,0-.93H28.92v-1.4h8.36a1.21,1.21,0,0,0,1.21-1.2v-.88H46v3.48H35.28a.47.47,0,0,0,0,.93H46V44a1.62,1.62,0,1,0,.93,0V38.41h.32a1.09,1.09,0,0,0,1.09-1.09V34.05a.47.47,0,1,0-.93,0v3.27a.16.16,0,0,1-.16.16H38.49V35.93h7.09a.46.46,0,0,0,.47-.46V28a.68.68,0,0,1,.68-.68.71.71,0,0,1,.68.73v2.24a.47.47,0,1,0,.93,0h0V28.09a1.64,1.64,0,0,0-1.61-1.66ZM29.15,45.59a.69.69,0,1,1-.68-.69.69.69,0,0,1,.68.69Zm18,0a.69.69,0,1,1-.69-.69A.69.69,0,0,1,47.16,45.59ZM40.57,32v-.35a.92.92,0,0,1,.92-.91H44.2a.92.92,0,0,1,.92.91v1.26H41.49A.92.92,0,0,1,40.57,32Zm-3.29,7.55H27.79a.28.28,0,0,1-.27-.28V34.44a.58.58,0,0,1,.58-.58h9.46v5.43a.29.29,0,0,1-.28.28ZM45.12,35H38.49V33.86h6.63Z"/><circle cx="47.88" cy="32.19" r="0.46"/></svg>