<svg xmlns="http://www.w3.org/2000/svg" width="30.158" height="26.289" viewBox="0 0 30.158 26.289">
  <path id="warning_FILL1_wght300_GRAD0_opsz48_1_" data-name="warning_FILL1_wght300_GRAD0_opsz48 (1)" d="M5.927,33.738a1.085,1.085,0,0,1-1-.568,1.046,1.046,0,0,1-.02-1.117L18.855,8a1.149,1.149,0,0,1,1.959,0L34.762,32.054a1.046,1.046,0,0,1-.02,1.117,1.085,1.085,0,0,1-1,.568ZM19.952,17.244a.876.876,0,0,0-.646.255.829.829,0,0,0-.255.607v6.778a.9.9,0,1,0,1.8,0V18.106a.8.8,0,0,0-.274-.607.9.9,0,0,0-.627-.255Zm0,12.38a.921.921,0,0,0,.705-.294,1.022,1.022,0,0,0,.274-.725.877.877,0,0,0-.294-.666.973.973,0,0,0-.686-.274.939.939,0,0,0-.979.979.973.973,0,0,0,.274.686.921.921,0,0,0,.705.294Z" transform="translate(-4.756 -7.449)" fill="#ff5f57"/>
</svg>
