<svg id="Layer_1" data-name="Layer 1" xmlns="http://www.w3.org/2000/svg" viewBox="0 0 48 48"><defs><style>.cls-1{fill:#f4bf4f;}</style></defs><path class="cls-1" d="M2.21,44.5a1.61,1.61,0,0,1-1.46-.85A1.55,1.55,0,0,1,.75,42L22.54,4.35a1.68,1.68,0,0,1,2.92,0L47.25,42a1.55,1.55,0,0,1,0,1.68,1.61,1.61,0,0,1-1.46.85Zm22-25.39a1.64,1.64,0,0,0-1.68,1.69V30A1.64,1.64,0,0,0,23,31.22a1.78,1.78,0,0,0,2.41,0A1.64,1.64,0,0,0,25.91,30V20.8a1.64,1.64,0,0,0-1.69-1.69Zm0,18.82A1.71,1.71,0,0,0,25.43,35,1.78,1.78,0,0,0,23,35a1.69,1.69,0,0,0,1.2,2.9Z"/></svg>