<svg width="22" height="22" viewBox="0 0 22 22" fill="none" xmlns="http://www.w3.org/2000/svg">
<g clip-path="url(#clip0_54_329)">
<path fill-rule="evenodd" clip-rule="evenodd" d="M13.6897 12.8983C13.5763 13.2166 13.0318 13.5067 12.7699 13.5459C12.5354 13.581 12.2384 13.5954 11.9119 13.4923C11.6483 13.4101 11.3892 13.3141 11.1357 13.2049C9.76892 12.615 8.87586 11.2394 8.8078 11.1486C8.73973 11.0579 8.25161 10.4102 8.25161 9.73992C8.25161 9.0696 8.60361 8.7396 8.72873 8.60348C8.85317 8.46735 9.00098 8.43298 9.09173 8.43298C9.18248 8.43298 9.27323 8.43367 9.35298 8.43779C9.43686 8.44192 9.54892 8.40617 9.65961 8.67154C9.77305 8.94448 10.0453 9.61479 10.0797 9.68285C10.1134 9.75092 10.136 9.83067 10.0907 9.92142C10.0453 10.0122 10.0226 10.0692 9.95455 10.149C9.88648 10.228 9.81155 10.3264 9.75036 10.3875C9.6823 10.4549 9.6108 10.5292 9.69055 10.6653C9.7703 10.8014 10.0432 11.2476 10.4482 11.6085C10.9686 12.0726 11.4079 12.2163 11.544 12.285C11.6802 12.3531 11.7599 12.3414 11.839 12.2507C11.9187 12.1599 12.18 11.8533 12.2707 11.7165C12.3615 11.5804 12.4522 11.603 12.5774 11.6484C12.7018 11.6938 13.3721 12.0231 13.5082 12.0919C13.6444 12.1599 13.7351 12.1936 13.7695 12.2507C13.8032 12.3077 13.8032 12.58 13.6897 12.8983ZM11.0243 6.42067C8.52455 6.42067 6.49092 8.45292 6.49023 10.9506C6.49023 11.8065 6.72948 12.6405 7.18323 13.3617L7.29117 13.5329L6.8333 15.2049L8.54861 14.7552L8.71361 14.8529C9.41177 15.2668 10.2085 15.485 11.0202 15.4847H11.0222C13.5199 15.4847 15.5529 13.4524 15.5542 10.954C15.556 10.3587 15.4398 9.76882 15.2121 9.21867C14.9845 8.66851 14.65 8.16896 14.228 7.74892C13.8084 7.3267 13.3091 6.99191 12.7592 6.76391C12.2093 6.53592 11.6196 6.41925 11.0243 6.42067Z" fill="#2EC840"/>
<path fill-rule="evenodd" clip-rule="evenodd" d="M11.0227 16.4051H11.0206C10.1076 16.4051 9.21112 16.1762 8.415 15.7417L5.52406 16.5L6.29819 13.6751C5.81993 12.8465 5.56879 11.9065 5.57013 10.9498C5.5715 7.94475 8.01694 5.5 11.0227 5.5C11.7394 5.4979 12.4493 5.63811 13.1114 5.9125C13.7735 6.18688 14.3745 6.58999 14.8796 7.09844C15.3873 7.60375 15.7898 8.20476 16.0637 8.86668C16.3376 9.5286 16.4775 10.2383 16.4753 10.9546C16.4739 13.9597 14.0278 16.4051 11.0227 16.4051ZM11 0C4.92456 0 0 4.92456 0 11C0 17.0748 4.92456 22 11 22C17.0748 22 22 17.0748 22 11C22 4.92456 17.0748 0 11 0Z" fill="#2EC840"/>
</g>
<defs>
<clipPath id="clip0_54_329">
<rect width="22" height="22" fill="white"/>
</clipPath>
</defs>
</svg>
