<svg xmlns="http://www.w3.org/2000/svg" width="288.501" height="292.053" viewBox="0 0 288.501 292.053">
  <g id="Group_9688" data-name="Group 9688" transform="translate(-54.318 -52.069)">
    <path id="Path_6348" data-name="Path 6348" d="M299.6,248.3c-1.8-1.013-3.842-2.162-6.3-3.642-1.373-.829-3.1-1.962-4.927-3.162-9.386-6.161-16.5-10.522-22.553-10.522a11.025,11.025,0,0,0-3.982.712c-5.3,2.043-9.66,7.5-13.872,12.776a68,68,0,0,1-5.094,5.938c-5.318-.967-16.536-7.916-28.64-20.02s-19.069-23.349-20.023-28.655a67.577,67.577,0,0,1,5.97-5.125c5.257-4.2,10.692-8.536,12.746-13.824,2.62-6.794-2.182-14.919-9.808-26.538-1.2-1.829-2.334-3.556-3.157-4.918-1.486-2.469-2.634-4.511-3.647-6.312-4.158-7.39-6.906-12.274-17.229-12.274-6.7,0-16.173,6.332-22.59,12.61-9.325,9.127-14.462,19.665-14.462,29.692.018,27.234,15.217,58.449,41.7,85.67.045.045.091.058.138.1,27.222,26.485,58.453,41.632,85.687,41.632h.011c10.014,0,20.555-5.078,29.681-14.4,6.284-6.416,12.624-15.82,12.624-22.516,0-10.322-4.881-13.069-12.271-17.228Zm-30.042,40.071c-23.2-.017-51.5-14.075-75.71-37.608-23.535-24.218-37.593-52.518-37.608-75.713,0-14.031,18.207-27.371,22.969-28.1a11.19,11.19,0,0,1,1.726.1,45.279,45.279,0,0,1,2.995,4.928c1.008,1.792,2.263,4.023,3.862,6.679.966,1.6,2.171,3.436,3.446,5.378,2.413,3.677,7.265,11.069,8.083,14.224-1.368,1.936-5.611,5.323-8.007,7.236-6.132,4.9-11.428,9.123-11.428,15.1.015,14.431,18.6,34.139,24.3,39.835s25.4,24.284,39.865,24.3c5.936-.019,10.145-5.293,15.02-11.4,1.922-2.408,5.331-6.677,7.274-8.037,3.152.812,10.552,5.669,14.232,8.086,1.942,1.275,3.777,2.479,5.387,3.451,2.647,1.593,4.877,2.848,6.67,3.856a45.328,45.328,0,0,1,4.928,3,11.261,11.261,0,0,1,.1,1.724c-.737,4.757-14.081,22.951-28.107,22.968Z" transform="translate(-25.395 -23.357)" fill="#999"/>
    <path id="Path_6349" data-name="Path 6349" d="M342.807,197.631A148.218,148.218,0,0,0,195.378,52.069,139.536,139.536,0,0,0,55.529,180.844a146.713,146.713,0,0,0,22.663,90.371L54.76,334.552a7.1,7.1,0,0,0,6.665,9.57,7.2,7.2,0,0,0,2.773-.651l61.027-25.97a145.76,145.76,0,0,0,77.29,21.973h0c37.736,0,73.043-14.35,99.41-40.717a139.041,139.041,0,0,0,40.88-101.127Zm-50.929,91.252a125.412,125.412,0,0,1-89.365,36.727,131.855,131.855,0,0,1-72.707-21.874,7.1,7.1,0,0,0-6.682-.607L73.794,324.053l18.969-51.274a7.107,7.107,0,0,0-.774-6.44C57.123,214.686,63.018,146,106,103.01a125.428,125.428,0,0,1,89.374-36.732A134.01,134.01,0,0,1,328.6,197.816a125.33,125.33,0,0,1-36.72,91.067Z" transform="translate(0 0)" fill="#999"/>
  </g>
</svg>
