<svg id="Group_39230" data-name="Group 39230" xmlns="http://www.w3.org/2000/svg" width="191.037" height="193.388" viewBox="0 0 191.037 193.388">
  <path id="Path_6348" data-name="Path 6348" d="M246.363,209.259c-1.193-.671-2.544-1.432-4.173-2.411-.909-.549-2.052-1.3-3.263-2.094-6.215-4.08-10.925-6.967-14.934-6.967a7.3,7.3,0,0,0-2.637.471c-3.512,1.353-6.4,4.966-9.186,8.46a45.024,45.024,0,0,1-3.373,3.932c-3.522-.64-10.949-5.242-18.965-13.257s-12.627-15.461-13.259-18.974a44.748,44.748,0,0,1,3.953-3.394c3.481-2.779,7.08-5.652,8.44-9.154,1.735-4.5-1.445-9.879-6.495-17.573-.795-1.211-1.545-2.355-2.09-3.256-.984-1.635-1.744-2.987-2.415-4.179-2.753-4.893-4.573-8.128-11.409-8.128-4.437,0-10.71,4.193-14.959,8.35-6.175,6.044-9.576,13.021-9.576,19.661.012,18.034,10.076,38.7,27.613,56.728.03.03.06.038.091.068,18.025,17.537,38.706,27.568,56.739,27.568h.007c6.631,0,13.611-3.362,19.654-9.534,4.161-4.249,8.359-10.476,8.359-14.91C254.489,213.832,251.257,212.013,246.363,209.259Zm-19.893,26.534c-15.361-.011-34.1-9.32-50.133-24.9-15.584-16.036-24.893-34.776-24.9-50.135,0-9.291,12.056-18.124,15.209-18.608a7.413,7.413,0,0,1,1.143.068,29.982,29.982,0,0,1,1.983,3.263c.668,1.186,1.5,2.664,2.557,4.423.64,1.06,1.438,2.275,2.282,3.561,1.6,2.435,4.811,7.329,5.352,9.419a36.368,36.368,0,0,1-5.3,4.791c-4.06,3.242-7.567,6.041-7.567,10,.01,9.556,12.318,22.605,16.09,26.377s16.822,16.08,26.4,16.089c3.931-.013,6.718-3.5,9.946-7.548,1.273-1.594,3.53-4.421,4.817-5.322,2.087.538,6.987,3.754,9.424,5.354,1.286.844,2.5,1.641,3.567,2.285,1.753,1.055,3.23,1.886,4.416,2.554a30.018,30.018,0,0,1,3.263,1.983,7.457,7.457,0,0,1,.068,1.142c-.488,3.15-9.324,15.2-18.612,15.209Z" transform="translate(-100.765 -94.787)" fill="#fff"/>
  <path id="Path_6349" data-name="Path 6349" d="M245.347,148.456a98.146,98.146,0,0,0-97.623-96.387,92.4,92.4,0,0,0-92.6,85.271A97.149,97.149,0,0,0,70.127,197.18l-15.516,41.94a4.7,4.7,0,0,0,4.413,6.337,4.767,4.767,0,0,0,1.836-.431l40.41-17.2a96.518,96.518,0,0,0,51.179,14.55h0a92.265,92.265,0,0,0,92.9-93.924ZM211.624,208.88a83.044,83.044,0,0,1-59.175,24.32A87.311,87.311,0,0,1,104.3,218.716a4.7,4.7,0,0,0-4.424-.4L67.215,232.168l12.561-33.952a4.706,4.706,0,0,0-.513-4.264c-23.087-34.2-19.184-79.688,9.281-108.152a83.055,83.055,0,0,1,59.181-24.323,88.737,88.737,0,0,1,88.215,87.1,82.989,82.989,0,0,1-24.315,60.3Z" transform="translate(-54.319 -52.069)" fill="#fff"/>
</svg>
