<svg xmlns="http://www.w3.org/2000/svg" width="884.038" height="894.921" viewBox="0 0 884.038 894.921">
  <g id="Group_9682" data-name="Group 9682" transform="translate(2553 97)">
    <g id="Group_9680" data-name="Group 9680" transform="translate(-2607.319 -149.069)">
      <path id="Path_6307" data-name="Path 6307" d="M938.318,498.108c-1.528-117.647-48.752-228.817-132.966-313.033C719.583,99.305,606.369,52.069,486.56,52.069c-115.652,0-223.844,44.5-304.65,125.305C110.2,249.08,66.212,344.715,58.029,446.665c-7.761,96.728,16.863,194.614,69.444,276.917l-71.8,194.083A21.77,21.77,0,0,0,76.094,946.99,22.062,22.062,0,0,0,84.59,945l187-79.578A446.643,446.643,0,0,0,508.426,932.75h.009c115.633,0,223.823-43.971,304.617-124.765,82.308-82.31,126.8-192.019,125.266-309.877ZM782.261,777.727C709.684,850.3,612.434,890.27,508.424,890.268a404.036,404.036,0,0,1-222.791-67.027,21.761,21.761,0,0,0-20.475-1.859L114,885.494l58.126-157.115a21.776,21.776,0,0,0-2.373-19.732C62.912,550.369,80.975,339.884,212.7,208.163,285.278,135.583,382.537,95.609,486.56,95.609c108.177,0,210.458,42.706,288,120.252C850.707,292,893.4,392.441,894.781,498.674c1.378,106.015-38.583,205.118-112.52,279.053Z" transform="translate(0 0)"/>
    </g>
    <path id="arrow_upward_FILL0_wght400_GRAD0_opsz48" d="M327.2-800v303.272L184.216-639.716,160-615.5,344.5-431,529-615.5l-24.216-24.216L361.8-496.728V-800Z" transform="translate(-2455 966)"/>
  </g>
</svg>
