<svg xmlns="http://www.w3.org/2000/svg" xmlns:xlink="http://www.w3.org/1999/xlink" width="682.665" height="682.665" viewBox="0 0 682.665 682.665">
  <defs>
    <clipPath id="clip-path">
      <path id="Path_2205" data-name="Path 2205" d="M0-682.665H682.665V0H0Z"/>
    </clipPath>
  </defs>
  <g id="Group_6348" data-name="Group 6348" transform="translate(0 -0.002)">
    <g id="Group_6347" data-name="Group 6347" transform="translate(0 682.667)" clip-path="url(#clip-path)">
      <path id="Path_2183" data-name="Path 2183" d="M0,0H-37.643A13.985,13.985,0,0,0-51.589,13.947v550a14.017,14.017,0,0,0,13.947,13.984H352.091c-3.249-20.333-9.712-39.041-21.505-51.589Z" transform="translate(108.897 -621.074)" fill="#b6c4cf" fill-rule="evenodd"/>
      <path id="Path_2184" data-name="Path 2184" d="M0,0V-464.542a13.985,13.985,0,0,0-13.947-13.947H-429.042a13.984,13.984,0,0,0-13.945,13.947v550A13.993,13.993,0,0,0-429.042,99.44H-112.4C-64.856,97.74.076,56.541,0,0" transform="translate(551.885 -194.177)" fill="#eff6ff" fill-rule="evenodd"/>
      <path id="Path_2185" data-name="Path 2185" d="M0,0H-200.65m-59.109-47.056H59.111" transform="translate(430.716 -559.015)" fill="none" stroke="#000" stroke-linecap="round" stroke-linejoin="round" stroke-miterlimit="10" stroke-width="20.157"/>
      <path id="Path_2186" data-name="Path 2186" d="M0,0,25.02,21.2,72.149-35.036" transform="translate(170.956 -468.835)" fill="none" stroke="#000" stroke-linecap="round" stroke-linejoin="round" stroke-miterlimit="10" stroke-width="20.157"/>
      <path id="Path_2187" data-name="Path 2187" d="M0,0,25.02,21.2,72.149-35.036" transform="translate(170.956 -373.402)" fill="none" stroke="#000" stroke-linecap="round" stroke-linejoin="round" stroke-miterlimit="10" stroke-width="20.157"/>
      <path id="Path_2188" data-name="Path 2188" d="M0,0,25.02,21.2,72.149-35.036" transform="translate(170.956 -277.969)" fill="none" stroke="#000" stroke-linecap="round" stroke-linejoin="round" stroke-miterlimit="10" stroke-width="20.157"/>
      <path id="Path_2189" data-name="Path 2189" d="M0,0,25.02,21.241,72.149-35.036" transform="translate(170.956 -182.573)" fill="none" stroke="#000" stroke-linecap="round" stroke-linejoin="round" stroke-miterlimit="10" stroke-width="20.157"/>
      <path id="Path_2190" data-name="Path 2190" d="M0,0H-113.912" transform="translate(408.492 -452.204)" fill="none" stroke="#000" stroke-linecap="round" stroke-linejoin="round" stroke-miterlimit="10" stroke-width="20.157"/>
      <path id="Path_2191" data-name="Path 2191" d="M0,0H118.258M-76.117,0h28.836" transform="translate(370.699 -499.299)" fill="none" stroke="#000" stroke-linecap="round" stroke-linejoin="round" stroke-miterlimit="10" stroke-width="20.157"/>
      <path id="Path_2192" data-name="Path 2192" d="M0,0H-113.912" transform="translate(408.492 -356.772)" fill="none" stroke="#000" stroke-linecap="round" stroke-linejoin="round" stroke-miterlimit="10" stroke-width="20.157"/>
      <path id="Path_2193" data-name="Path 2193" d="M0,0H194.376" transform="translate(294.581 -308.431)" fill="none" stroke="#000" stroke-linecap="round" stroke-linejoin="round" stroke-miterlimit="10" stroke-width="20.157"/>
      <path id="Path_2194" data-name="Path 2194" d="M0,0H-89.5" transform="translate(384.079 -165.906)" fill="none" stroke="#000" stroke-linecap="round" stroke-linejoin="round" stroke-miterlimit="10" stroke-width="20.157"/>
      <path id="Path_2195" data-name="Path 2195" d="M0,0H-118.3M76.08,0H47.243" transform="translate(412.878 -403.866)" fill="none" stroke="#000" stroke-linecap="round" stroke-linejoin="round" stroke-miterlimit="10" stroke-width="20.157"/>
      <path id="Path_2196" data-name="Path 2196" d="M0,0H-23.809M90.1,0H35.451" transform="translate(318.391 -261.339)" fill="none" stroke="#000" stroke-linecap="round" stroke-linejoin="round" stroke-miterlimit="10" stroke-width="20.157"/>
      <path id="Path_2197" data-name="Path 2197" d="M0,0H-130.73" transform="translate(425.311 -212.998)" fill="none" stroke="#000" stroke-linecap="round" stroke-linejoin="round" stroke-miterlimit="10" stroke-width="20.157"/>
      <path id="Path_2198" data-name="Path 2198" d="M0,0V-477.884a13.985,13.985,0,0,0-13.947-13.947H-51.892c-7.672,0,13.947,6.273,13.947,13.947V-.3A92.286,92.286,0,0,1-19.653-2.08,95.042,95.042,0,0,1,0,0" transform="translate(551.885 -180.834)" fill="#d9eeff" fill-rule="evenodd"/>
      <path id="Path_2199" data-name="Path 2199" d="M0,0V218.57m-112.4,99.44H-429.042a13.993,13.993,0,0,1-13.945-13.984v-550a13.984,13.984,0,0,1,13.945-13.947h415.1A13.985,13.985,0,0,1,0-245.971V-46.148" transform="translate(551.885 -412.746)" fill="none" stroke="#000" stroke-linecap="round" stroke-linejoin="round" stroke-miterlimit="10" stroke-width="20.157"/>
      <path id="Path_2200" data-name="Path 2200" d="M0,0V-288.226a13.985,13.985,0,0,1,13.945-13.947H51.589M398.466,275.754H13.945A14.017,14.017,0,0,1,0,261.77V46.187" transform="translate(57.308 -318.902)" fill="none" stroke="#000" stroke-linecap="round" stroke-linejoin="round" stroke-miterlimit="10" stroke-width="20.157"/>
      <path id="Path_2201" data-name="Path 2201" d="M0,0A93.186,93.186,0,0,0-73.472-91.049a93.41,93.41,0,0,0-19.653-2.079A93.118,93.118,0,0,0-186.25,0c0,2.835.113,5.632.377,8.391A92.664,92.664,0,0,0-164.368,59.98,92.98,92.98,0,0,0-93.125,93.128,93.119,93.119,0,0,0,0,0" transform="translate(625.357 -103.128)" fill="#3bc3a4" fill-rule="evenodd"/>
      <path id="Path_2202" data-name="Path 2202" d="M0,0,20.031,17.688,57.751-29.14" transform="translate(503.053 -98.418)" fill="none" stroke="#000" stroke-linecap="round" stroke-linejoin="round" stroke-miterlimit="10" stroke-width="20.157"/>
      <path id="Path_2203" data-name="Path 2203" d="M0,0A93.186,93.186,0,0,0-73.472-91.049a93.41,93.41,0,0,0-19.653-2.079,95.22,95.22,0,0,0-12.321.793,92.2,92.2,0,0,1,30.879,14.06,7.913,7.913,0,0,1,.717.492A92.985,92.985,0,0,1-34.733-1.928a93.149,93.149,0,0,1-80.8,92.334,93.1,93.1,0,0,0,22.412,2.721A93.119,93.119,0,0,0,0,0" transform="translate(625.357 -103.128)" fill="#00a887" fill-rule="evenodd"/>
      <path id="Path_2204" data-name="Path 2204" d="M0,0A93.186,93.186,0,0,0-73.472-91.049a93.41,93.41,0,0,0-19.653-2.079A93.118,93.118,0,0,0-186.25,0c0,2.835.113,5.632.377,8.391A92.664,92.664,0,0,0-164.368,59.98,92.98,92.98,0,0,0-93.125,93.128,93.119,93.119,0,0,0,0,0Z" transform="translate(625.357 -103.128)" fill="none" stroke="#000" stroke-linecap="round" stroke-linejoin="round" stroke-miterlimit="10" stroke-width="20.157"/>
    </g>
  </g>
</svg>
