<svg xmlns="http://www.w3.org/2000/svg" width="497" height="503.34" viewBox="0 0 497 503.34">
  <g id="Group_6349" data-name="Group 6349" transform="translate(-3.17)">
    <path id="Path_2206" data-name="Path 2206" d="M276.241,428.34l-79.143,30-1.819,7.276a30,30,0,0,1-29.1,22.724v7.5H322.164Z" fill="#e5f9ff"/>
    <path id="Path_2207" data-name="Path 2207" d="M308.06,465.616l-9.319-37.276-47.071-30-47.071,30-7.5,30h79.143l1.819,7.276a30,30,0,0,0,29.1,22.724l15,7.5,15-7.5A30,30,0,0,1,308.06,465.616ZM440.17,428.34h30a30.088,30.088,0,0,0,30-30v-22.5l-60-90.847Z" fill="#bdf0ff"/>
    <path id="Path_2208" data-name="Path 2208" d="M3.17,375.84v22.5a30.088,30.088,0,0,0,30,30h407a30.088,30.088,0,0,0,30-30V224.993Z" fill="#e5f9ff"/>
    <path id="Path_2209" data-name="Path 2209" d="M470.17,78.09h-30v266.9l30,30.847h30V108.09A30.088,30.088,0,0,0,470.17,78.09Z" fill="#2d4a7a"/>
    <path id="Path_2210" data-name="Path 2210" d="M470.17,345.84,251.67,226.965,470.17,108.09a30.088,30.088,0,0,0-30-30h-407a30.088,30.088,0,0,0-30,30V375.84h467Z" fill="#415ba3"/>
    <path id="Path_2211" data-name="Path 2211" d="M470.17,108.113l-29.993-.023c0,.006-188.507,118.875-188.507,118.875s188.5,118.872,188.5,118.875h30s0-237.722,0-237.727Z" fill="#8de5ff"/>
    <path id="Path_2212" data-name="Path 2212" d="M440.17,108.09H33.258c-.024.012-.045,237.745-.088,237.75H440.16c.005,0-.032-237.745.01-237.75Zm-41,395.25h-295a7.5,7.5,0,0,1,0-15h295a7.5,7.5,0,0,1,0,15Z" fill="#bdf0ff"/>
    <path id="Path_2213" data-name="Path 2213" d="M387.925,78.67l0,0Z" fill="#ffae6b"/>
    <path id="Path_2214" data-name="Path 2214" d="M115.425,78.676a7.45,7.45,0,0,0-1.015,3.708V232.26a7.5,7.5,0,0,0,3.75,6.495l129.76,74.92a7.446,7.446,0,0,0,3.75.99L351.926,78.09Z" fill="#ff9457"/>
    <path id="Path_2215" data-name="Path 2215" d="M387.915,78.676,251.67,78.09,358.935,253.91l26.245-15.156a7.5,7.5,0,0,0,3.75-6.5V82.384a7.47,7.47,0,0,0-1.015-3.708Z" fill="#ff6145"/>
    <path id="Path_2216" data-name="Path 2216" d="M358.935,95.41,251.67,78.09V314.68a7.493,7.493,0,0,0,3.75-1.005l103.515-59.764V219.27h-30l30-34.641Z" fill="#ff7e4f"/>
    <path id="Path_2217" data-name="Path 2217" d="M358.935,184.628l-30,17.32-30,34.642h30l30-17.321Z" fill="#e5f9ff"/>
    <path id="Path_2218" data-name="Path 2218" d="M281.67,229.237v34.641l47.265-27.288V201.948Z" fill="#fff"/>
    <path id="Path_2219" data-name="Path 2219" d="M385.182,75.929,255.42,1a7.5,7.5,0,0,0-7.5,0L183.04,38.459l18.5,79.262H320.3L387.925,78.67a7.5,7.5,0,0,0-2.743-2.741Z" fill="#ff9457"/>
    <path id="Path_2220" data-name="Path 2220" d="M183.04,38.459,118.157,75.93a7.5,7.5,0,0,0-2.745,2.745L251.67,157.34l68.63-39.619Z" fill="#ffae6b"/>
  </g>
</svg>
